<svg width="18" height="18" viewBox="0 0 18 18" fill="none" xmlns="http://www.w3.org/2000/svg">
<path d="M11.9775 17.0625H5.9775C3.4125 17.0625 2.415 16.065 2.415 13.5V7.5C2.415 7.1925 2.67 6.9375 2.9775 6.9375H14.9775C15.285 6.9375 15.54 7.1925 15.54 7.5V13.5C15.54 16.065 14.5425 17.0625 11.9775 17.0625ZM3.54 8.0625V13.5C3.54 15.435 4.0425 15.9375 5.9775 15.9375H11.9775C13.9125 15.9375 14.415 15.435 14.415 13.5V8.0625H3.54Z" fill="#BE8B11"/>
<path d="M14.625 8.0625H3.375C2.0625 8.0625 1.3125 7.3125 1.3125 6V5.25C1.3125 3.9375 2.0625 3.1875 3.375 3.1875H14.625C15.9 3.1875 16.6875 3.975 16.6875 5.25V6C16.6875 7.275 15.9 8.0625 14.625 8.0625ZM3.375 4.3125C2.6925 4.3125 2.4375 4.5675 2.4375 5.25V6C2.4375 6.6825 2.6925 6.9375 3.375 6.9375H14.625C15.285 6.9375 15.5625 6.66 15.5625 6V5.25C15.5625 4.59 15.285 4.3125 14.625 4.3125H3.375Z" fill="#BE8B11"/>
<path d="M8.73 4.31266H4.59C4.4325 4.31266 4.2825 4.24516 4.1775 4.13266C3.72 3.63016 3.735 2.85766 4.215 2.37766L5.28 1.31266C5.775 0.817656 6.5925 0.817656 7.0875 1.31266L9.1275 3.35266C9.285 3.51016 9.3375 3.75766 9.2475 3.96766C9.165 4.17766 8.9625 4.31266 8.73 4.31266ZM5.0025 3.18766H7.38L6.2925 2.10766C6.2325 2.04766 6.135 2.04766 6.075 2.10766L5.01 3.17266C5.01 3.18016 5.0025 3.18016 5.0025 3.18766Z" fill="#BE8B11"/>
<path d="M13.4025 4.31266H9.2625C9.0375 4.31266 8.8275 4.17766 8.745 3.96766C8.655 3.75766 8.7075 3.51766 8.865 3.35266L10.905 1.31266C11.4 0.817656 12.2175 0.817656 12.7125 1.31266L13.7775 2.37766C14.2575 2.85766 14.28 3.63016 13.815 4.13266C13.71 4.24516 13.56 4.31266 13.4025 4.31266ZM10.6275 3.18766H13.005C12.9975 3.18016 12.9975 3.18016 12.99 3.17266L11.925 2.10766C11.865 2.04766 11.7675 2.04766 11.7075 2.10766L10.6275 3.18766Z" fill="#BE8B11"/>
<path d="M7.455 12.675C7.245 12.675 7.0275 12.6225 6.8325 12.5175C6.405 12.285 6.1425 11.8425 6.1425 11.3625V7.5C6.1425 7.1925 6.3975 6.9375 6.705 6.9375H11.235C11.5425 6.9375 11.7975 7.1925 11.7975 7.5V11.3475C11.7975 11.835 11.535 12.2775 11.1075 12.5025C10.68 12.735 10.1625 12.705 9.7575 12.435L9.09 11.985C9.03 11.94 8.9475 11.94 8.88 11.985L8.175 12.45C7.9575 12.6 7.7025 12.675 7.455 12.675ZM7.2675 8.0625V11.355C7.2675 11.4525 7.3275 11.4975 7.365 11.52C7.4025 11.5425 7.4775 11.565 7.56 11.5125L8.265 11.0475C8.7075 10.755 9.2775 10.755 9.7125 11.0475L10.38 11.4975C10.4625 11.55 10.5375 11.5275 10.575 11.505C10.6125 11.4825 10.6725 11.4375 10.6725 11.34V8.055H7.2675V8.0625Z" fill="#BE8B11"/>
</svg>
