<svg width="21" height="20" viewBox="0 0 21 20" fill="none" xmlns="http://www.w3.org/2000/svg">
<path d="M4.16667 16.1875C3.88889 16.2986 3.625 16.2743 3.375 16.1146C3.125 15.9549 3 15.7222 3 15.4167V12.3125C3 12.1181 3.05556 11.9445 3.16667 11.7917C3.27778 11.6389 3.43056 11.5417 3.625 11.5L9.66667 10L3.625 8.50002C3.43056 8.45835 3.27778 8.36113 3.16667 8.20835C3.05556 8.05557 3 7.88196 3 7.68752V4.58335C3 4.27779 3.125 4.04516 3.375 3.88543C3.625 3.72571 3.88889 3.70141 4.16667 3.81252L17 9.22918C17.3472 9.38196 17.5208 9.63891 17.5208 10C17.5208 10.3611 17.3472 10.6181 17 10.7709L4.16667 16.1875Z" fill="white"/>
</svg>
