<svg width="18" height="18" viewBox="0 0 18 18" fill="none" xmlns="http://www.w3.org/2000/svg">
<path d="M2.16667 17.7499C1.70833 17.7499 1.31597 17.5867 0.989583 17.2603C0.663194 16.9339 0.5 16.5416 0.5 16.0833V4.41658C0.5 3.95825 0.663194 3.56589 0.989583 3.2395C1.31597 2.91311 1.70833 2.74992 2.16667 2.74992H9.60417L7.9375 4.41658H2.16667V16.0833H13.8333V10.2916L15.5 8.62492V16.0833C15.5 16.5416 15.3368 16.9339 15.0104 17.2603C14.684 17.5867 14.2917 17.7499 13.8333 17.7499H2.16667ZM11.4792 3.22909L12.6667 4.39575L7.16667 9.89575V11.0833H8.33333L13.8542 5.56242L15.0417 6.72908L9.52083 12.2499C9.36806 12.4027 9.19097 12.5242 8.98958 12.6145C8.78819 12.7048 8.57639 12.7499 8.35417 12.7499H6.33333C6.09722 12.7499 5.89931 12.6701 5.73958 12.5103C5.57986 12.3506 5.5 12.1527 5.5 11.9166V9.89575C5.5 9.67353 5.54167 9.46172 5.625 9.26033C5.70833 9.05895 5.82639 8.88186 5.97917 8.72908L11.4792 3.22909ZM15.0417 6.72908L11.4792 3.22909L13.5625 1.14575C13.8958 0.812419 14.2951 0.645752 14.7604 0.645752C15.2257 0.645752 15.6181 0.812419 15.9375 1.14575L17.1042 2.33325C17.4236 2.6527 17.5833 3.04159 17.5833 3.49992C17.5833 3.95825 17.4236 4.34714 17.1042 4.66658L15.0417 6.72908Z" fill="#1F4068"/>
</svg>
