<svg width="48" height="48" viewBox="0 0 48 48" fill="none" xmlns="http://www.w3.org/2000/svg">
<circle cx="24" cy="24" r="24" fill="#D8E7F7"/>
<rect width="24" height="24" transform="translate(12 12)" fill="#D8E7F7"/>
<path d="M17 33C16.45 33 15.9792 32.8042 15.5875 32.4125C15.1958 32.0208 15 31.55 15 31V21C15 20.45 15.1958 19.9792 15.5875 19.5875C15.9792 19.1958 16.45 19 17 19H19V17C19 16.45 19.1958 15.9792 19.5875 15.5875C19.9792 15.1958 20.45 15 21 15H27C27.55 15 28.0208 15.1958 28.4125 15.5875C28.8042 15.9792 29 16.45 29 17V23H31C31.55 23 32.0208 23.1958 32.4125 23.5875C32.8042 23.9792 33 24.45 33 25V31C33 31.55 32.8042 32.0208 32.4125 32.4125C32.0208 32.8042 31.55 33 31 33H25V29H23V33H17ZM17 31H19V29H17V31ZM17 27H19V25H17V27ZM17 23H19V21H17V23ZM21 27H23V25H21V27ZM21 23H23V21H21V23ZM21 19H23V17H21V19ZM25 27H27V25H25V27ZM25 23H27V21H25V23ZM25 19H27V17H25V19ZM29 31H31V29H29V31ZM29 27H31V25H29V27Z" fill="#1F4068"/>
</svg>
