<svg width="20" height="20" viewBox="0 0 20 20" fill="none" xmlns="http://www.w3.org/2000/svg">
<path d="M9.99992 12.9791C9.88881 12.9791 9.78464 12.9617 9.68742 12.927C9.5902 12.8923 9.49992 12.8333 9.41658 12.7499L6.41659 9.74992C6.26381 9.59714 6.18742 9.4027 6.18742 9.16658C6.18742 8.93047 6.26381 8.73603 6.41659 8.58325C6.56936 8.43047 6.76728 8.35061 7.01033 8.34367C7.25339 8.33672 7.45131 8.40964 7.60408 8.56242L9.16658 10.1249V4.16659C9.16658 3.93047 9.24645 3.73256 9.40617 3.57284C9.56589 3.41311 9.76381 3.33325 9.99992 3.33325C10.236 3.33325 10.4339 3.41311 10.5937 3.57284C10.7534 3.73256 10.8333 3.93047 10.8333 4.16659V10.1249L12.3958 8.56242C12.5485 8.40964 12.7464 8.33672 12.9895 8.34367C13.2326 8.35061 13.4305 8.43047 13.5833 8.58325C13.736 8.73603 13.8124 8.93047 13.8124 9.16658C13.8124 9.4027 13.736 9.59714 13.5833 9.74992L10.5833 12.7499C10.4999 12.8333 10.4096 12.8923 10.3124 12.927C10.2152 12.9617 10.111 12.9791 9.99992 12.9791ZM4.99992 16.6666C4.54159 16.6666 4.14922 16.5034 3.82284 16.177C3.49645 15.8506 3.33325 15.4583 3.33325 14.9999V13.3333C3.33325 13.0971 3.41311 12.8992 3.57284 12.7395C3.73256 12.5798 3.93047 12.4999 4.16659 12.4999C4.4027 12.4999 4.60061 12.5798 4.76034 12.7395C4.92006 12.8992 4.99992 13.0971 4.99992 13.3333V14.9999H14.9999V13.3333C14.9999 13.0971 15.0798 12.8992 15.2395 12.7395C15.3992 12.5798 15.5971 12.4999 15.8333 12.4999C16.0694 12.4999 16.2673 12.5798 16.427 12.7395C16.5867 12.8992 16.6666 13.0971 16.6666 13.3333V14.9999C16.6666 15.4583 16.5034 15.8506 16.177 16.177C15.8506 16.5034 15.4583 16.6666 14.9999 16.6666H4.99992Z" fill="#1F4068"/>
</svg>
