<svg width="48" height="48" viewBox="0 0 48 48" fill="none" xmlns="http://www.w3.org/2000/svg">
<circle cx="24" cy="24" r="24" fill="#D8E7F7"/>
<path d="M19.334 28C19.6173 28 19.855 27.904 20.047 27.712C20.239 27.52 20.3347 27.2827 20.334 27C20.334 26.7167 20.238 26.479 20.046 26.287C19.854 26.095 19.6167 25.9993 19.334 26C19.0507 26 18.813 26.096 18.621 26.288C18.429 26.48 18.3333 26.7173 18.334 27C18.334 27.2833 18.43 27.521 18.622 27.713C18.814 27.905 19.0513 28.0007 19.334 28ZM18.334 25H20.334V20H18.334V25ZM22.334 27H30.334V25H22.334V27ZM22.334 23H30.334V21H22.334V23ZM16.334 32C15.784 32 15.313 31.804 14.921 31.412C14.529 31.02 14.3333 30.5493 14.334 30V18C14.334 17.45 14.53 16.979 14.922 16.587C15.314 16.195 15.7847 15.9993 16.334 16H32.334C32.884 16 33.355 16.196 33.747 16.588C34.139 16.98 34.3347 17.4507 34.334 18V30C34.334 30.55 34.138 31.021 33.746 31.413C33.354 31.805 32.8833 32.0007 32.334 32H16.334ZM16.334 30H32.334V18H16.334V30Z" fill="#1F4068"/>
</svg>
