<svg width="20" height="20" viewBox="0 0 20 20" fill="none" xmlns="http://www.w3.org/2000/svg">
<path d="M3.33317 16.6666C2.87484 16.6666 2.48248 16.5035 2.15609 16.1771C1.8297 15.8507 1.6665 15.4583 1.6665 15V4.99998C1.6665 4.54165 1.8297 4.14929 2.15609 3.8229C2.48248 3.49651 2.87484 3.33331 3.33317 3.33331H16.6665C17.1248 3.33331 17.5172 3.49651 17.8436 3.8229C18.17 4.14929 18.3332 4.54165 18.3332 4.99998V15C18.3332 15.4583 18.17 15.8507 17.8436 16.1771C17.5172 16.5035 17.1248 16.6666 16.6665 16.6666H3.33317ZM16.6665 6.66665L10.4373 10.5625C10.3679 10.6041 10.295 10.6354 10.2186 10.6562C10.1422 10.6771 10.0693 10.6875 9.99984 10.6875C9.93039 10.6875 9.85748 10.6771 9.78109 10.6562C9.7047 10.6354 9.63178 10.6041 9.56234 10.5625L3.33317 6.66665V15H16.6665V6.66665ZM9.99984 9.16665L16.6665 4.99998H3.33317L9.99984 9.16665ZM3.33317 6.87498V5.64581V5.66665V5.65623V6.87498Z" fill="#605D62"/>
</svg>
