<svg width="20" height="20" viewBox="0 0 20 20" fill="none" xmlns="http://www.w3.org/2000/svg">
<path d="M10.8332 9.66666V6.66666C10.8332 6.43055 10.7533 6.23263 10.5936 6.07291C10.4339 5.91318 10.2359 5.83332 9.99984 5.83332C9.76373 5.83332 9.56581 5.91318 9.40609 6.07291C9.24637 6.23263 9.1665 6.43055 9.1665 6.66666V9.97916C9.1665 10.0903 9.18734 10.1979 9.229 10.3021C9.27067 10.4062 9.33317 10.5 9.4165 10.5833L12.1665 13.3333C12.3193 13.4861 12.5137 13.5625 12.7498 13.5625C12.9859 13.5625 13.1804 13.4861 13.3332 13.3333C13.4859 13.1805 13.5623 12.9861 13.5623 12.75C13.5623 12.5139 13.4859 12.3194 13.3332 12.1667L10.8332 9.66666ZM9.99984 18.3333C8.84706 18.3333 7.76373 18.1146 6.74984 17.6771C5.73595 17.2396 4.854 16.6458 4.104 15.8958C3.354 15.1458 2.76025 14.2639 2.32275 13.25C1.88525 12.2361 1.6665 11.1528 1.6665 9.99999C1.6665 8.84721 1.88525 7.76388 2.32275 6.74999C2.76025 5.7361 3.354 4.85416 4.104 4.10416C4.854 3.35416 5.73595 2.76041 6.74984 2.32291C7.76373 1.88541 8.84706 1.66666 9.99984 1.66666C11.1526 1.66666 12.2359 1.88541 13.2498 2.32291C14.2637 2.76041 15.1457 3.35416 15.8957 4.10416C16.6457 4.85416 17.2394 5.7361 17.6769 6.74999C18.1144 7.76388 18.3332 8.84721 18.3332 9.99999C18.3332 11.1528 18.1144 12.2361 17.6769 13.25C17.2394 14.2639 16.6457 15.1458 15.8957 15.8958C15.1457 16.6458 14.2637 17.2396 13.2498 17.6771C12.2359 18.1146 11.1526 18.3333 9.99984 18.3333ZM9.99984 16.6667C11.8471 16.6667 13.42 16.0174 14.7186 14.7187C16.0172 13.4201 16.6665 11.8472 16.6665 9.99999C16.6665 8.15277 16.0172 6.57985 14.7186 5.28124C13.42 3.98263 11.8471 3.33332 9.99984 3.33332C8.15262 3.33332 6.5797 3.98263 5.28109 5.28124C3.98248 6.57985 3.33317 8.15277 3.33317 9.99999C3.33317 11.8472 3.98248 13.4201 5.28109 14.7187C6.5797 16.0174 8.15262 16.6667 9.99984 16.6667Z" fill="#605D62"/>
</svg>
