<svg width="1080" height="124" viewBox="0 0 1080 124" fill="none" xmlns="http://www.w3.org/2000/svg">
<rect x="0.5" y="0.5" width="1079" height="123" rx="11.5" fill="white"/>
<rect x="520" y="16" width="40" height="40" rx="20" fill="#F7F7F7"/>
<path d="M535.417 42.6673C534.153 42.6673 533.074 42.2298 532.178 41.3548C531.282 40.4798 530.834 39.4104 530.834 38.1465C530.834 37.0632 531.16 36.0979 531.813 35.2507C532.466 34.4034 533.32 33.8618 534.376 33.6257C534.723 32.3479 535.417 31.3132 536.459 30.5215C537.501 29.7298 538.681 29.334 540.001 29.334C541.626 29.334 543.004 29.9 544.136 31.0319C545.268 32.1638 545.834 33.5423 545.834 35.1673C546.792 35.2784 547.587 35.6916 548.219 36.4069C548.851 37.1222 549.167 37.959 549.167 38.9173C549.167 39.959 548.803 40.8444 548.074 41.5736C547.344 42.3027 546.459 42.6673 545.417 42.6673H540.834C540.376 42.6673 539.983 42.5041 539.657 42.1777C539.331 41.8513 539.167 41.459 539.167 41.0007V36.6673L538.417 37.4173C538.265 37.5701 538.07 37.6465 537.834 37.6465C537.598 37.6465 537.403 37.5701 537.251 37.4173C537.098 37.2645 537.021 37.0701 537.021 36.834C537.021 36.5979 537.098 36.4034 537.251 36.2507L539.417 34.084C539.501 34.0007 539.591 33.9416 539.688 33.9069C539.785 33.8722 539.89 33.8548 540.001 33.8548C540.112 33.8548 540.216 33.8722 540.313 33.9069C540.41 33.9416 540.501 34.0007 540.584 34.084L542.751 36.2507C542.903 36.4034 542.98 36.5979 542.98 36.834C542.98 37.0701 542.903 37.2645 542.751 37.4173C542.598 37.5701 542.403 37.6465 542.167 37.6465C541.931 37.6465 541.737 37.5701 541.584 37.4173L540.834 36.6673V41.0007H545.417C546.001 41.0007 546.494 40.7993 546.896 40.3965C547.299 39.9937 547.501 39.5007 547.501 38.9173C547.501 38.334 547.299 37.8409 546.896 37.4382C546.494 37.0354 546.001 36.834 545.417 36.834H544.167V35.1673C544.167 34.0145 543.761 33.0319 542.949 32.2194C542.136 31.4069 541.153 31.0007 540.001 31.0007C538.848 31.0007 537.865 31.4069 537.053 32.2194C536.24 33.0319 535.834 34.0145 535.834 35.1673H535.417C534.612 35.1673 533.924 35.452 533.355 36.0215C532.785 36.5909 532.501 37.2784 532.501 38.084C532.501 38.8895 532.785 39.577 533.355 40.1465C533.924 40.7159 534.612 41.0007 535.417 41.0007H536.667C536.903 41.0007 537.101 41.0805 537.261 41.2402C537.421 41.4 537.501 41.5979 537.501 41.834C537.501 42.0701 537.421 42.268 537.261 42.4277C537.101 42.5875 536.903 42.6673 536.667 42.6673H535.417Z" fill="#484649"/>
<rect x="520" y="16" width="40" height="40" rx="20" stroke="#F7F7F7" stroke-width="6"/>
<g clip-path="url(#clip0_1342_12075)">
<path d="M431.8 78.0713C431.8 76.4671 432.203 75.2025 433.01 74.2773C433.821 73.3522 434.926 72.8896 436.325 72.8896C437.446 72.8896 438.396 73.2201 439.176 73.8809C439.955 74.5371 440.397 75.3802 440.502 76.4102H438.766C438.643 75.8177 438.36 75.346 437.918 74.9951C437.476 74.6396 436.945 74.4619 436.325 74.4619C435.487 74.4619 434.824 74.7855 434.336 75.4326C433.848 76.0752 433.604 76.9525 433.604 78.0645C433.604 79.1764 433.848 80.056 434.336 80.7031C434.824 81.3503 435.489 81.6738 436.332 81.6738C436.956 81.6738 437.49 81.512 437.932 81.1885C438.374 80.8604 438.654 80.4206 438.772 79.8691H440.509C440.39 80.8809 439.948 81.6966 439.183 82.3164C438.417 82.9362 437.467 83.2461 436.332 83.2461C434.933 83.2461 433.828 82.7835 433.017 81.8584C432.205 80.9287 431.8 79.6663 431.8 78.0713ZM442.361 83V72.6299H444.057V83H442.361ZM446.312 74.0449C446.117 73.8672 446.019 73.6416 446.019 73.3682C446.019 73.0947 446.117 72.8714 446.312 72.6982C446.508 72.5205 446.759 72.4316 447.064 72.4316C447.374 72.4316 447.625 72.5205 447.816 72.6982C448.012 72.8714 448.11 73.0947 448.11 73.3682C448.11 73.6416 448.012 73.8672 447.816 74.0449C447.625 74.2181 447.374 74.3047 447.064 74.3047C446.759 74.3047 446.508 74.2181 446.312 74.0449ZM446.224 83V75.5215H447.912V83H446.224ZM449.648 79.2402C449.648 78.0234 449.963 77.0755 450.592 76.3965C451.221 75.7129 452.096 75.3711 453.217 75.3711C454.156 75.3711 454.91 75.6149 455.479 76.1025C456.054 76.5856 456.386 77.2305 456.478 78.0371H454.864C454.782 77.6589 454.6 77.3581 454.317 77.1348C454.035 76.9069 453.668 76.793 453.217 76.793C452.633 76.793 452.178 77.0072 451.85 77.4355C451.526 77.8639 451.364 78.4655 451.364 79.2402C451.364 80.0241 451.528 80.6348 451.856 81.0723C452.185 81.5098 452.638 81.7285 453.217 81.7285C453.659 81.7285 454.021 81.626 454.304 81.4209C454.591 81.2158 454.778 80.9196 454.864 80.5322H456.478C456.382 81.3298 456.047 81.9655 455.473 82.4395C454.903 82.9134 454.153 83.1504 453.224 83.1504C452.098 83.1504 451.221 82.8063 450.592 82.1182C449.963 81.43 449.648 80.4707 449.648 79.2402ZM458.166 83V72.6299H459.861V78.5703H459.978L462.739 75.5215H464.708L461.728 78.7275L464.913 83H462.862L460.463 79.7939L459.861 80.3955V83H458.166ZM469.309 76.9229V75.5693H470.491V73.6895H472.18V75.5693H473.779V76.9229H472.18V80.5938C472.18 80.9629 472.262 81.234 472.426 81.4072C472.59 81.5758 472.85 81.6602 473.205 81.6602C473.36 81.6602 473.551 81.6488 473.779 81.626V82.9521C473.497 83.0068 473.201 83.0342 472.891 83.0342C472.034 83.0342 471.419 82.877 471.045 82.5625C470.676 82.248 470.491 81.7285 470.491 81.0039V76.9229H469.309ZM475.037 79.2607C475.037 78.0576 475.358 77.1097 476.001 76.417C476.644 75.7197 477.521 75.3711 478.633 75.3711C479.749 75.3711 480.627 75.7174 481.265 76.4102C481.907 77.1029 482.229 78.0531 482.229 79.2607C482.229 80.473 481.907 81.4255 481.265 82.1182C480.627 82.8063 479.749 83.1504 478.633 83.1504C477.512 83.1504 476.632 82.8063 475.994 82.1182C475.356 81.4255 475.037 80.473 475.037 79.2607ZM476.773 79.2607C476.773 80.0446 476.935 80.653 477.259 81.0859C477.582 81.5143 478.04 81.7285 478.633 81.7285C479.225 81.7285 479.681 81.5143 480 81.0859C480.324 80.653 480.485 80.0446 480.485 79.2607C480.485 78.4814 480.324 77.8753 480 77.4424C479.676 77.0094 479.221 76.793 478.633 76.793C478.04 76.793 477.582 77.0094 477.259 77.4424C476.935 77.8753 476.773 78.4814 476.773 79.2607ZM487.602 80.3818V75.5215H489.297V79.958C489.297 80.5322 489.418 80.9606 489.659 81.2432C489.901 81.5212 490.274 81.6602 490.78 81.6602C491.327 81.6602 491.746 81.5029 492.038 81.1885C492.334 80.874 492.482 80.4365 492.482 79.876V75.5215H494.178V83H492.544V81.8105H492.428C492.049 82.7038 491.304 83.1504 490.192 83.1504C489.377 83.1504 488.741 82.9089 488.285 82.4258C487.829 81.9382 487.602 81.2568 487.602 80.3818ZM496.256 85.4883V75.5215H497.89V76.7588H498.006C498.22 76.335 498.532 76.0023 498.942 75.7607C499.357 75.5192 499.82 75.3984 500.33 75.3984C501.278 75.3984 502.028 75.7425 502.579 76.4307C503.135 77.1188 503.413 78.0622 503.413 79.2607C503.413 80.4548 503.137 81.3981 502.586 82.0908C502.039 82.779 501.294 83.123 500.351 83.123C499.817 83.123 499.35 83.0137 498.949 82.7949C498.553 82.5716 498.259 82.2617 498.067 81.8652H497.951V85.4883H496.256ZM497.917 79.2607C497.922 80.0081 498.09 80.5983 498.423 81.0312C498.76 81.4642 499.218 81.6807 499.797 81.6807C500.385 81.6807 500.843 81.4665 501.171 81.0381C501.504 80.6097 501.67 80.0173 501.67 79.2607C501.67 78.5042 501.504 77.9118 501.171 77.4834C500.843 77.055 500.387 76.8408 499.804 76.8408C499.225 76.8408 498.767 77.0573 498.43 77.4902C498.092 77.9232 497.922 78.5133 497.917 79.2607ZM505.184 83V72.6299H506.879V83H505.184ZM508.656 79.2607C508.656 78.0576 508.978 77.1097 509.62 76.417C510.263 75.7197 511.14 75.3711 512.252 75.3711C513.368 75.3711 514.246 75.7174 514.884 76.4102C515.526 77.1029 515.848 78.0531 515.848 79.2607C515.848 80.473 515.526 81.4255 514.884 82.1182C514.246 82.8063 513.368 83.1504 512.252 83.1504C511.131 83.1504 510.251 82.8063 509.613 82.1182C508.975 81.4255 508.656 80.473 508.656 79.2607ZM510.393 79.2607C510.393 80.0446 510.554 80.653 510.878 81.0859C511.201 81.5143 511.66 81.7285 512.252 81.7285C512.844 81.7285 513.3 81.5143 513.619 81.0859C513.943 80.653 514.104 80.0446 514.104 79.2607C514.104 78.4814 513.943 77.8753 513.619 77.4424C513.296 77.0094 512.84 76.793 512.252 76.793C511.66 76.793 511.201 77.0094 510.878 77.4424C510.554 77.8753 510.393 78.4814 510.393 79.2607ZM517.83 82.5078C517.37 82.0977 517.14 81.5553 517.14 80.8809C517.14 80.2064 517.383 79.6777 517.871 79.2949C518.363 78.9121 519.065 78.6934 519.977 78.6387L521.904 78.5225V77.8936C521.904 77.5244 521.784 77.2419 521.542 77.0459C521.3 76.8499 520.952 76.752 520.496 76.752C520.104 76.752 519.781 76.8203 519.525 76.957C519.27 77.0892 519.104 77.2806 519.026 77.5312H517.427C517.495 76.8704 517.814 76.3464 518.384 75.959C518.958 75.5671 519.689 75.3711 520.578 75.3711C521.535 75.3711 522.273 75.5921 522.793 76.0342C523.317 76.4762 523.579 77.096 523.579 77.8936V83H521.945V81.9746H521.829C521.619 82.3346 521.319 82.6172 520.927 82.8223C520.539 83.0228 520.102 83.123 519.614 83.123C518.885 83.123 518.29 82.918 517.83 82.5078ZM518.821 80.7852C518.821 81.0951 518.94 81.3411 519.177 81.5234C519.418 81.7012 519.73 81.79 520.113 81.79C520.624 81.79 521.05 81.6442 521.392 81.3525C521.733 81.0563 521.904 80.6917 521.904 80.2588V79.6641L520.216 79.7734C519.286 79.8327 518.821 80.1699 518.821 80.7852ZM525.254 79.2539C525.254 78.0736 525.53 77.137 526.081 76.4443C526.637 75.7471 527.387 75.3984 528.33 75.3984C528.84 75.3984 529.296 75.5146 529.697 75.7471C530.098 75.9795 530.399 76.3008 530.6 76.7109H530.716V72.6299H532.411V83H530.771V81.8174H530.654C530.44 82.2275 530.128 82.5488 529.718 82.7812C529.312 83.0091 528.85 83.123 528.33 83.123C527.382 83.123 526.632 82.7767 526.081 82.084C525.53 81.3867 525.254 80.4434 525.254 79.2539ZM526.99 79.2607C526.99 80.0173 527.154 80.6097 527.482 81.0381C527.815 81.4665 528.273 81.6807 528.856 81.6807C529.44 81.6807 529.898 81.4665 530.23 81.0381C530.568 80.6051 530.736 80.0127 530.736 79.2607C530.736 78.5133 530.568 77.9232 530.23 77.4902C529.893 77.0573 529.435 76.8408 528.856 76.8408C528.278 76.8408 527.822 77.0573 527.489 77.4902C527.157 77.9186 526.99 78.5088 526.99 79.2607Z" fill="#1F4068"/>
</g>
<path d="M542.136 83.1299C540.037 83.1299 538.738 81.6807 538.738 79.3154C538.738 76.9434 540.037 75.501 542.136 75.501C544.234 75.501 545.533 76.9434 545.533 79.3154C545.533 81.6807 544.234 83.1299 542.136 83.1299ZM542.136 82.0703C543.53 82.0703 544.316 81.0586 544.316 79.3154C544.316 77.5654 543.53 76.5605 542.136 76.5605C540.741 76.5605 539.955 77.5654 539.955 79.3154C539.955 81.0586 540.741 82.0703 542.136 82.0703ZM547.379 83V75.6309H548.5V76.7246H548.609C548.828 76.0068 549.676 75.501 550.653 75.501C550.845 75.501 551.091 75.5146 551.241 75.5352V76.7109C551.146 76.6836 550.722 76.6426 550.489 76.6426C549.368 76.6426 548.555 77.3945 548.555 78.4336V83H547.379ZM559.39 83.1299C557.503 83.1299 556.293 81.6328 556.293 79.3154C556.293 77.0049 557.517 75.501 559.39 75.501C560.415 75.501 561.283 75.9863 561.7 76.793H561.803V72.7051H562.979V83H561.857V81.8242H561.748C561.283 82.6445 560.408 83.1299 559.39 83.1299ZM559.663 76.5605C558.323 76.5605 557.51 77.5996 557.51 79.3154C557.51 81.0381 558.316 82.0703 559.663 82.0703C561.003 82.0703 561.83 81.0176 561.83 79.3154C561.83 77.627 560.996 76.5605 559.663 76.5605ZM565.262 83V75.6309H566.383V76.7246H566.492C566.711 76.0068 567.559 75.501 568.536 75.501C568.728 75.501 568.974 75.5146 569.124 75.5352V76.7109C569.028 76.6836 568.604 76.6426 568.372 76.6426C567.251 76.6426 566.438 77.3945 566.438 78.4336V83H565.262ZM572.863 82.0977C574.073 82.0977 574.969 81.3047 574.969 80.252V79.5752L572.986 79.7051C571.865 79.7803 571.373 80.1699 571.373 80.9082C571.373 81.6602 572.009 82.0977 572.863 82.0977ZM572.645 83.1299C571.216 83.1299 570.156 82.2822 570.156 80.9355C570.156 79.6162 571.127 78.8574 572.843 78.7549L574.969 78.625V77.9551C574.969 77.0459 574.401 76.5469 573.301 76.5469C572.419 76.5469 571.804 76.8818 571.64 77.4629H570.45C570.607 76.2803 571.77 75.501 573.342 75.501C575.14 75.501 576.145 76.4238 576.145 77.9551V83H575.023V81.9131H574.914C574.436 82.6992 573.629 83.1299 572.645 83.1299ZM581.299 81.8516C582.666 81.8516 583.486 80.8125 583.486 79.2061C583.486 77.5996 582.659 76.5605 581.299 76.5605C579.932 76.5605 579.166 77.5996 579.166 79.2061C579.166 80.8125 579.932 81.8516 581.299 81.8516ZM581.354 85.8301C579.576 85.8301 578.441 85.0303 578.264 83.8135H579.508C579.638 84.415 580.294 84.8047 581.354 84.8047C582.673 84.8047 583.459 84.1553 583.459 83.0684V81.6191H583.35C582.885 82.4326 582.051 82.8906 581.039 82.8906C579.132 82.8906 577.949 81.4141 577.949 79.2061C577.949 76.998 579.146 75.501 581.039 75.501C582.071 75.501 582.98 76.0068 583.404 76.7998H583.514V75.6309H584.635V83.1299C584.635 84.7773 583.363 85.8301 581.354 85.8301ZM593.07 82.0977C594.28 82.0977 595.176 81.3047 595.176 80.252V79.5752L593.193 79.7051C592.072 79.7803 591.58 80.1699 591.58 80.9082C591.58 81.6602 592.216 82.0977 593.07 82.0977ZM592.852 83.1299C591.423 83.1299 590.363 82.2822 590.363 80.9355C590.363 79.6162 591.334 78.8574 593.05 78.7549L595.176 78.625V77.9551C595.176 77.0459 594.608 76.5469 593.508 76.5469C592.626 76.5469 592.011 76.8818 591.847 77.4629H590.657C590.814 76.2803 591.977 75.501 593.549 75.501C595.347 75.501 596.352 76.4238 596.352 77.9551V83H595.23V81.9131H595.121C594.643 82.6992 593.836 83.1299 592.852 83.1299ZM598.525 83V75.6309H599.646V76.793H599.756C600.125 75.9795 600.843 75.501 601.971 75.501C603.625 75.501 604.548 76.4785 604.548 78.2285V83H603.372V78.5156C603.372 77.1895 602.812 76.5605 601.636 76.5605C600.46 76.5605 599.701 77.3467 599.701 78.6387V83H598.525ZM609.429 83.1299C607.542 83.1299 606.332 81.6328 606.332 79.3154C606.332 77.0049 607.556 75.501 609.429 75.501C610.454 75.501 611.322 75.9863 611.739 76.793H611.842V72.7051H613.018V83H611.896V81.8242H611.787C611.322 82.6445 610.447 83.1299 609.429 83.1299ZM609.702 76.5605C608.362 76.5605 607.549 77.5996 607.549 79.3154C607.549 81.0381 608.355 82.0703 609.702 82.0703C611.042 82.0703 611.869 81.0176 611.869 79.3154C611.869 77.627 611.035 76.5605 609.702 76.5605ZM621.979 83.1299C620.093 83.1299 618.883 81.6328 618.883 79.3154C618.883 77.0049 620.106 75.501 621.979 75.501C623.005 75.501 623.873 75.9863 624.29 76.793H624.393V72.7051H625.568V83H624.447V81.8242H624.338C623.873 82.6445 622.998 83.1299 621.979 83.1299ZM622.253 76.5605C620.913 76.5605 620.1 77.5996 620.1 79.3154C620.1 81.0381 620.906 82.0703 622.253 82.0703C623.593 82.0703 624.42 81.0176 624.42 79.3154C624.42 77.627 623.586 76.5605 622.253 76.5605ZM627.852 83V75.6309H628.973V76.7246H629.082C629.301 76.0068 630.148 75.501 631.126 75.501C631.317 75.501 631.563 75.5146 631.714 75.5352V76.7109C631.618 76.6836 631.194 76.6426 630.962 76.6426C629.841 76.6426 629.027 77.3945 629.027 78.4336V83H627.852ZM636.007 83.1299C633.908 83.1299 632.609 81.6807 632.609 79.3154C632.609 76.9434 633.908 75.501 636.007 75.501C638.105 75.501 639.404 76.9434 639.404 79.3154C639.404 81.6807 638.105 83.1299 636.007 83.1299ZM636.007 82.0703C637.401 82.0703 638.188 81.0586 638.188 79.3154C638.188 77.5654 637.401 76.5605 636.007 76.5605C634.612 76.5605 633.826 77.5654 633.826 79.3154C633.826 81.0586 634.612 82.0703 636.007 82.0703ZM644.839 75.501C646.719 75.501 647.936 76.998 647.936 79.3154C647.936 81.6191 646.712 83.1299 644.839 83.1299C643.786 83.1299 642.938 82.6719 642.535 81.8926H642.426V85.4609H641.25V75.6309H642.371V76.8613H642.48C642.952 76.0137 643.834 75.501 644.839 75.501ZM644.559 82.0703C645.912 82.0703 646.719 81.0381 646.719 79.3154C646.719 77.5928 645.912 76.5605 644.565 76.5605C643.232 76.5605 642.392 77.6201 642.392 79.3154C642.392 81.0039 643.232 82.0703 644.559 82.0703Z" fill="#605D62"/>
<path d="M442.635 95.5449H445.828C447.428 95.5449 448.535 96.6699 448.535 98.2812C448.535 99.8633 447.404 100.982 445.816 100.982H443.689V104H442.635V95.5449ZM443.689 96.4824V100.045H445.553C446.754 100.045 447.451 99.4004 447.451 98.2812C447.451 97.1211 446.777 96.4824 445.553 96.4824H443.689ZM451.307 104H450.264V95.5449H451.289L455.877 102.125H455.971V95.5449H457.014V104H455.988L451.4 97.4434H451.307V104ZM466.266 100.73C466.266 102.816 464.836 104.199 462.674 104.199C460.336 104.199 458.842 102.477 458.842 99.7695C458.842 97.0977 460.359 95.3457 462.674 95.3457C464.549 95.3457 465.908 96.3887 466.213 98.0645H465.141C464.777 96.9219 463.928 96.3184 462.674 96.3184C460.998 96.3184 459.926 97.666 459.926 99.7695C459.926 101.902 460.98 103.227 462.68 103.227C464.191 103.227 465.217 102.26 465.217 100.83V100.625H462.838V99.6992H466.266V100.73ZM468.645 106.15H467.889L468.445 102.816H469.564L468.645 106.15ZM474.51 102.025H475.559C475.582 102.734 476.121 103.227 476.918 103.227C477.82 103.227 478.33 102.676 478.33 101.639V95.5449H479.385V101.645C479.385 103.256 478.453 104.199 476.924 104.199C475.506 104.199 474.51 103.32 474.51 102.025ZM481.541 95.5449H484.734C486.334 95.5449 487.441 96.6699 487.441 98.2812C487.441 99.8633 486.311 100.982 484.723 100.982H482.596V104H481.541V95.5449ZM482.596 96.4824V100.045H484.459C485.66 100.045 486.357 99.4004 486.357 98.2812C486.357 97.1211 485.684 96.4824 484.459 96.4824H482.596ZM496.266 100.73C496.266 102.816 494.836 104.199 492.674 104.199C490.336 104.199 488.842 102.477 488.842 99.7695C488.842 97.0977 490.359 95.3457 492.674 95.3457C494.549 95.3457 495.908 96.3887 496.213 98.0645H495.141C494.777 96.9219 493.928 96.3184 492.674 96.3184C490.998 96.3184 489.926 97.666 489.926 99.7695C489.926 101.902 490.98 103.227 492.68 103.227C494.191 103.227 495.217 102.26 495.217 100.83V100.625H492.838V99.6992H496.266V100.73ZM498.645 106.15H497.889L498.445 102.816H499.564L498.645 106.15ZM512.18 100.73C512.18 102.816 510.75 104.199 508.588 104.199C506.25 104.199 504.756 102.477 504.756 99.7695C504.756 97.0977 506.273 95.3457 508.588 95.3457C510.463 95.3457 511.822 96.3887 512.127 98.0645H511.055C510.691 96.9219 509.842 96.3184 508.588 96.3184C506.912 96.3184 505.84 97.666 505.84 99.7695C505.84 101.902 506.895 103.227 508.594 103.227C510.105 103.227 511.131 102.26 511.131 100.83V100.625H508.752V99.6992H512.18V100.73ZM515.104 104H514.049V95.5449H515.104V104ZM518.314 104H517.26V95.5449H522.393V96.4941H518.314V99.4004H522.059V100.338H518.314V104ZM523.641 106.15H522.885L523.441 102.816H524.561L523.641 106.15ZM532.547 104.111C530.748 104.111 529.635 102.869 529.635 100.842C529.635 98.8086 530.748 97.5723 532.547 97.5723C534.346 97.5723 535.459 98.8086 535.459 100.842C535.459 102.869 534.346 104.111 532.547 104.111ZM532.547 103.203C533.742 103.203 534.416 102.336 534.416 100.842C534.416 99.3418 533.742 98.4805 532.547 98.4805C531.352 98.4805 530.678 99.3418 530.678 100.842C530.678 102.336 531.352 103.203 532.547 103.203ZM537.041 104V97.6836H538.002V98.6211H538.096C538.283 98.0059 539.01 97.5723 539.848 97.5723C540.012 97.5723 540.223 97.584 540.352 97.6016V98.6094C540.27 98.5859 539.906 98.5508 539.707 98.5508C538.746 98.5508 538.049 99.1953 538.049 100.086V104H537.041ZM553.459 104H552.475V97.543H552.404L549.738 103.941H548.848L546.182 97.543H546.111V104H545.127V95.5449H546.352L549.246 102.541H549.34L552.234 95.5449H553.459V104ZM555.615 95.5449H558.809C560.408 95.5449 561.516 96.6699 561.516 98.2812C561.516 99.8633 560.385 100.982 558.797 100.982H556.67V104H555.615V95.5449ZM556.67 96.4824V100.045H558.533C559.734 100.045 560.432 99.4004 560.432 98.2812C560.432 97.1211 559.758 96.4824 558.533 96.4824H556.67ZM566.619 104V102.248H562.5V101.287C563.256 99.9453 564.598 97.8242 566.121 95.5449H567.65V101.305H568.852V102.248H567.65V104H566.619ZM563.578 101.24V101.311H566.625V96.5234H566.555C565.688 97.7832 564.586 99.5293 563.578 101.24ZM574.342 100.484C574.342 98.375 574.881 96.6641 576.006 95.1758H576.861C576.029 96.2422 575.379 98.5039 575.379 100.484C575.379 102.477 576.023 104.732 576.861 105.799H576.006C574.881 104.311 574.342 102.6 574.342 100.484ZM578.455 104V97.6836H579.416V98.6797H579.51C579.797 97.9766 580.43 97.5723 581.273 97.5723C582.129 97.5723 582.727 98.0234 583.02 98.6797H583.113C583.453 98.0117 584.174 97.5723 585.047 97.5723C586.336 97.5723 587.057 98.3105 587.057 99.6348V104H586.049V99.8691C586.049 98.9375 585.609 98.4805 584.719 98.4805C583.84 98.4805 583.254 99.1367 583.254 99.9395V104H582.246V99.7109C582.246 98.9609 581.725 98.4805 580.928 98.4805C580.102 98.4805 579.463 99.1953 579.463 100.086V104H578.455ZM590.842 103.227C591.879 103.227 592.646 102.547 592.646 101.645V101.064L590.947 101.176C589.986 101.24 589.564 101.574 589.564 102.207C589.564 102.852 590.109 103.227 590.842 103.227ZM590.654 104.111C589.43 104.111 588.521 103.385 588.521 102.23C588.521 101.1 589.354 100.449 590.824 100.361L592.646 100.25V99.6758C592.646 98.8965 592.16 98.4688 591.217 98.4688C590.461 98.4688 589.934 98.7559 589.793 99.2539H588.773C588.908 98.2402 589.904 97.5723 591.252 97.5723C592.793 97.5723 593.654 98.3633 593.654 99.6758V104H592.693V103.068H592.6C592.189 103.742 591.498 104.111 590.654 104.111ZM597.756 101.615H597.662L596.162 104H595.02L597.182 100.842L594.996 97.6836H596.197L597.697 100.033H597.791L599.273 97.6836H600.416L598.271 100.801L600.445 104H599.25L597.756 101.615ZM602.654 104.059C602.238 104.059 601.893 103.713 601.893 103.297C601.893 102.875 602.238 102.535 602.654 102.535C603.076 102.535 603.416 102.875 603.416 103.297C603.416 103.713 603.076 104.059 602.654 104.059ZM611.654 104.199C609.861 104.199 608.607 103.186 608.607 101.738C608.607 100.637 609.305 99.7812 610.365 99.582V99.4883C609.504 99.2539 608.953 98.5215 608.953 97.6016C608.953 96.2832 610.072 95.3457 611.654 95.3457C613.236 95.3457 614.355 96.2832 614.355 97.6016C614.355 98.5273 613.816 99.248 612.943 99.4883V99.582C614.004 99.7812 614.701 100.637 614.701 101.738C614.701 103.186 613.447 104.199 611.654 104.199ZM611.654 103.297C612.826 103.297 613.635 102.629 613.635 101.662C613.635 100.695 612.826 100.027 611.654 100.027C610.482 100.027 609.674 100.695 609.674 101.662C609.674 102.629 610.482 103.297 611.654 103.297ZM611.654 99.1367C612.65 99.1367 613.318 98.5625 613.318 97.7012C613.318 96.8281 612.656 96.248 611.654 96.248C610.652 96.248 609.99 96.8281 609.99 97.7012C609.99 98.5625 610.658 99.1367 611.654 99.1367ZM624.896 104H623.912V97.543H623.842L621.176 103.941H620.285L617.619 97.543H617.549V104H616.564V95.5449H617.789L620.684 102.541H620.777L623.672 95.5449H624.896V104ZM630.352 104H627.053V95.5449H630.287C631.84 95.5449 632.789 96.3594 632.789 97.6543C632.789 98.5332 632.145 99.3301 631.33 99.4766V99.5703C632.484 99.7168 633.217 100.508 633.217 101.627C633.217 103.115 632.15 104 630.352 104ZM628.107 96.4766V99.1895H629.795C631.072 99.1895 631.723 98.7324 631.723 97.8359C631.723 96.9746 631.113 96.4766 630.064 96.4766H628.107ZM628.107 103.068H630.193C631.465 103.068 632.133 102.553 632.133 101.574C632.133 100.596 631.441 100.098 630.094 100.098H628.107V103.068ZM637.025 100.484C637.025 102.6 636.486 104.311 635.361 105.799H634.506C635.344 104.732 635.988 102.477 635.988 100.484C635.988 98.5039 635.338 96.2422 634.506 95.1758H635.361C636.486 96.6641 637.025 98.375 637.025 100.484Z" fill="#605D62"/>
<rect x="0.5" y="0.5" width="1079" height="123" rx="11.5" stroke="#CECECE"/>
<defs>
<clipPath id="clip0_1342_12075">
<rect width="103" height="20" fill="white" transform="translate(431 68)"/>
</clipPath>
</defs>
</svg>
