<svg width="40" height="40" viewBox="0 0 40 40" fill="none" xmlns="http://www.w3.org/2000/svg">
<circle cx="20" cy="20" r="19.5" fill="white" stroke="#1F4068"/>
<path d="M31.2052 19.745C30.3231 17.4632 28.7917 15.49 26.8003 14.0691C24.8089 12.6482 22.4448 11.8419 20.0002 11.75C17.5556 11.8419 15.1915 12.6482 13.2001 14.0691C11.2087 15.49 9.67729 17.4632 8.79517 19.745C8.73559 19.9098 8.73559 20.0902 8.79517 20.255C9.67729 22.5368 11.2087 24.51 13.2001 25.9309C15.1915 27.3518 17.5556 28.1581 20.0002 28.25C22.4448 28.1581 24.8089 27.3518 26.8003 25.9309C28.7917 24.51 30.3231 22.5368 31.2052 20.255C31.2647 20.0902 31.2647 19.9098 31.2052 19.745ZM20.0002 26.75C16.0252 26.75 11.8252 23.8025 10.3027 20C11.8252 16.1975 16.0252 13.25 20.0002 13.25C23.9752 13.25 28.1752 16.1975 29.6977 20C28.1752 23.8025 23.9752 26.75 20.0002 26.75Z" fill="#1F4068"/>
<path d="M20 15.5C19.11 15.5 18.24 15.7639 17.4999 16.2584C16.7599 16.7529 16.1831 17.4557 15.8425 18.2779C15.5019 19.1002 15.4128 20.005 15.5865 20.8779C15.7601 21.7508 16.1887 22.5526 16.818 23.182C17.4474 23.8113 18.2492 24.2399 19.1221 24.4135C19.995 24.5872 20.8998 24.4981 21.7221 24.1575C22.5443 23.8169 23.2471 23.2401 23.7416 22.5001C24.2361 21.76 24.5 20.89 24.5 20C24.5 18.8065 24.0259 17.6619 23.182 16.818C22.3381 15.9741 21.1935 15.5 20 15.5ZM20 23C19.4067 23 18.8266 22.8241 18.3333 22.4944C17.8399 22.1648 17.4554 21.6962 17.2284 21.148C17.0013 20.5999 16.9419 19.9967 17.0576 19.4147C17.1734 18.8328 17.4591 18.2982 17.8787 17.8787C18.2982 17.4591 18.8328 17.1734 19.4147 17.0576C19.9967 16.9419 20.5999 17.0013 21.1481 17.2284C21.6962 17.4554 22.1648 17.8399 22.4944 18.3333C22.8241 18.8266 23 19.4067 23 20C23 20.7956 22.6839 21.5587 22.1213 22.1213C21.5587 22.6839 20.7957 23 20 23Z" fill="#1F4068"/>
</svg>
