<svg width="21" height="20" viewBox="0 0 21 20" fill="none" xmlns="http://www.w3.org/2000/svg">
<path d="M4.66667 15.8332H5.83333L13.0208 8.64567L11.8542 7.479L4.66667 14.6665V15.8332ZM16.5833 7.43734L13.0417 3.93734L14.2083 2.77067C14.5278 2.45123 14.9201 2.2915 15.3854 2.2915C15.8507 2.2915 16.2431 2.45123 16.5625 2.77067L17.7292 3.93734C18.0486 4.25678 18.2153 4.6422 18.2292 5.09359C18.2431 5.54498 18.0903 5.93039 17.7708 6.24984L16.5833 7.43734ZM3.83333 17.4998C3.59722 17.4998 3.39931 17.42 3.23958 17.2603C3.07986 17.1005 3 16.9026 3 16.6665V14.3123C3 14.2012 3.02083 14.0936 3.0625 13.9894C3.10417 13.8853 3.16667 13.7915 3.25 13.7082L11.8333 5.12484L15.375 8.6665L6.79167 17.2498C6.70833 17.3332 6.61458 17.3957 6.51042 17.4373C6.40625 17.479 6.29861 17.4998 6.1875 17.4998H3.83333ZM12.4375 8.06234L11.8542 7.479L13.0208 8.64567L12.4375 8.06234Z" fill="#1F4068"/>
</svg>
