<svg width="40" height="40" viewBox="0 0 40 40" fill="none" xmlns="http://www.w3.org/2000/svg">
<circle cx="20" cy="20" r="20" fill="#1F4068"/>
<path d="M24.474 12.4078L26.592 14.5248M25.836 10.5428L20.109 16.2698C19.8131 16.5653 19.6113 16.9418 19.529 17.3518L19 19.9998L21.648 19.4698C22.058 19.3878 22.434 19.1868 22.73 18.8908L28.457 13.1638C28.6291 12.9917 28.7656 12.7874 28.8588 12.5626C28.9519 12.3377 28.9998 12.0967 28.9998 11.8533C28.9998 11.6099 28.9519 11.3689 28.8588 11.1441C28.7656 10.9192 28.6291 10.7149 28.457 10.5428C28.2849 10.3707 28.0806 10.2342 27.8557 10.1411C27.6309 10.0479 27.3899 10 27.1465 10C26.9031 10 26.6621 10.0479 26.4373 10.1411C26.2124 10.2342 26.0081 10.3707 25.836 10.5428V10.5428Z" stroke="white" stroke-width="2" stroke-linecap="round" stroke-linejoin="round"/>
<path d="M27 22V25C27 25.5304 26.7893 26.0391 26.4142 26.4142C26.0391 26.7893 25.5304 27 25 27H14C13.4696 27 12.9609 26.7893 12.5858 26.4142C12.2107 26.0391 12 25.5304 12 25V14C12 13.4696 12.2107 12.9609 12.5858 12.5858C12.9609 12.2107 13.4696 12 14 12H17" stroke="white" stroke-width="2" stroke-linecap="round" stroke-linejoin="round"/>
</svg>
