<svg width="528" height="124" viewBox="0 0 528 124" fill="none" xmlns="http://www.w3.org/2000/svg">
<rect x="0.5" y="0.5" width="527" height="123" rx="11.5" fill="white"/>
<rect x="244" y="16" width="40" height="40" rx="20" fill="#F7F7F7"/>
<path d="M259.417 42.6673C258.153 42.6673 257.074 42.2298 256.178 41.3548C255.282 40.4798 254.834 39.4104 254.834 38.1465C254.834 37.0632 255.16 36.0979 255.813 35.2507C256.466 34.4034 257.32 33.8618 258.376 33.6257C258.723 32.3479 259.417 31.3132 260.459 30.5215C261.501 29.7298 262.681 29.334 264.001 29.334C265.626 29.334 267.004 29.9 268.136 31.0319C269.268 32.1638 269.834 33.5423 269.834 35.1673C270.792 35.2784 271.587 35.6916 272.219 36.4069C272.851 37.1222 273.167 37.959 273.167 38.9173C273.167 39.959 272.803 40.8444 272.074 41.5736C271.344 42.3027 270.459 42.6673 269.417 42.6673H264.834C264.376 42.6673 263.983 42.5041 263.657 42.1777C263.331 41.8513 263.167 41.459 263.167 41.0007V36.6673L262.417 37.4173C262.265 37.5701 262.07 37.6465 261.834 37.6465C261.598 37.6465 261.403 37.5701 261.251 37.4173C261.098 37.2645 261.021 37.0701 261.021 36.834C261.021 36.5979 261.098 36.4034 261.251 36.2507L263.417 34.084C263.501 34.0007 263.591 33.9416 263.688 33.9069C263.785 33.8722 263.89 33.8548 264.001 33.8548C264.112 33.8548 264.216 33.8722 264.313 33.9069C264.41 33.9416 264.501 34.0007 264.584 34.084L266.751 36.2507C266.903 36.4034 266.98 36.5979 266.98 36.834C266.98 37.0701 266.903 37.2645 266.751 37.4173C266.598 37.5701 266.403 37.6465 266.167 37.6465C265.931 37.6465 265.737 37.5701 265.584 37.4173L264.834 36.6673V41.0007H269.417C270.001 41.0007 270.494 40.7993 270.896 40.3965C271.299 39.9937 271.501 39.5007 271.501 38.9173C271.501 38.334 271.299 37.8409 270.896 37.4382C270.494 37.0354 270.001 36.834 269.417 36.834H268.167V35.1673C268.167 34.0145 267.761 33.0319 266.949 32.2194C266.136 31.4069 265.153 31.0007 264.001 31.0007C262.848 31.0007 261.865 31.4069 261.053 32.2194C260.24 33.0319 259.834 34.0145 259.834 35.1673H259.417C258.612 35.1673 257.924 35.452 257.355 36.0215C256.785 36.5909 256.501 37.2784 256.501 38.084C256.501 38.8895 256.785 39.577 257.355 40.1465C257.924 40.7159 258.612 41.0007 259.417 41.0007H260.667C260.903 41.0007 261.101 41.0805 261.261 41.2402C261.421 41.4 261.501 41.5979 261.501 41.834C261.501 42.0701 261.421 42.268 261.261 42.4277C261.101 42.5875 260.903 42.6673 260.667 42.6673H259.417Z" fill="#484649"/>
<rect x="244" y="16" width="40" height="40" rx="20" stroke="#F7F7F7" stroke-width="6"/>
<g clip-path="url(#clip0_1342_26123)">
<path d="M155.8 78.0713C155.8 76.4671 156.203 75.2025 157.01 74.2773C157.821 73.3522 158.926 72.8896 160.325 72.8896C161.446 72.8896 162.396 73.2201 163.176 73.8809C163.955 74.5371 164.397 75.3802 164.502 76.4102H162.766C162.643 75.8177 162.36 75.346 161.918 74.9951C161.476 74.6396 160.945 74.4619 160.325 74.4619C159.487 74.4619 158.824 74.7855 158.336 75.4326C157.848 76.0752 157.604 76.9525 157.604 78.0645C157.604 79.1764 157.848 80.056 158.336 80.7031C158.824 81.3503 159.489 81.6738 160.332 81.6738C160.956 81.6738 161.49 81.512 161.932 81.1885C162.374 80.8604 162.654 80.4206 162.772 79.8691H164.509C164.39 80.8809 163.948 81.6966 163.183 82.3164C162.417 82.9362 161.467 83.2461 160.332 83.2461C158.933 83.2461 157.828 82.7835 157.017 81.8584C156.205 80.9287 155.8 79.6663 155.8 78.0713ZM166.361 83V72.6299H168.057V83H166.361ZM170.312 74.0449C170.117 73.8672 170.019 73.6416 170.019 73.3682C170.019 73.0947 170.117 72.8714 170.312 72.6982C170.508 72.5205 170.759 72.4316 171.064 72.4316C171.374 72.4316 171.625 72.5205 171.816 72.6982C172.012 72.8714 172.11 73.0947 172.11 73.3682C172.11 73.6416 172.012 73.8672 171.816 74.0449C171.625 74.2181 171.374 74.3047 171.064 74.3047C170.759 74.3047 170.508 74.2181 170.312 74.0449ZM170.224 83V75.5215H171.912V83H170.224ZM173.648 79.2402C173.648 78.0234 173.963 77.0755 174.592 76.3965C175.221 75.7129 176.096 75.3711 177.217 75.3711C178.156 75.3711 178.91 75.6149 179.479 76.1025C180.054 76.5856 180.386 77.2305 180.478 78.0371H178.864C178.782 77.6589 178.6 77.3581 178.317 77.1348C178.035 76.9069 177.668 76.793 177.217 76.793C176.633 76.793 176.178 77.0072 175.85 77.4355C175.526 77.8639 175.364 78.4655 175.364 79.2402C175.364 80.0241 175.528 80.6348 175.856 81.0723C176.185 81.5098 176.638 81.7285 177.217 81.7285C177.659 81.7285 178.021 81.626 178.304 81.4209C178.591 81.2158 178.778 80.9196 178.864 80.5322H180.478C180.382 81.3298 180.047 81.9655 179.473 82.4395C178.903 82.9134 178.153 83.1504 177.224 83.1504C176.098 83.1504 175.221 82.8063 174.592 82.1182C173.963 81.43 173.648 80.4707 173.648 79.2402ZM182.166 83V72.6299H183.861V78.5703H183.978L186.739 75.5215H188.708L185.728 78.7275L188.913 83H186.862L184.463 79.7939L183.861 80.3955V83H182.166ZM193.309 76.9229V75.5693H194.491V73.6895H196.18V75.5693H197.779V76.9229H196.18V80.5938C196.18 80.9629 196.262 81.234 196.426 81.4072C196.59 81.5758 196.85 81.6602 197.205 81.6602C197.36 81.6602 197.551 81.6488 197.779 81.626V82.9521C197.497 83.0068 197.201 83.0342 196.891 83.0342C196.034 83.0342 195.419 82.877 195.045 82.5625C194.676 82.248 194.491 81.7285 194.491 81.0039V76.9229H193.309ZM199.037 79.2607C199.037 78.0576 199.358 77.1097 200.001 76.417C200.644 75.7197 201.521 75.3711 202.633 75.3711C203.749 75.3711 204.627 75.7174 205.265 76.4102C205.907 77.1029 206.229 78.0531 206.229 79.2607C206.229 80.473 205.907 81.4255 205.265 82.1182C204.627 82.8063 203.749 83.1504 202.633 83.1504C201.512 83.1504 200.632 82.8063 199.994 82.1182C199.356 81.4255 199.037 80.473 199.037 79.2607ZM200.773 79.2607C200.773 80.0446 200.935 80.653 201.259 81.0859C201.582 81.5143 202.04 81.7285 202.633 81.7285C203.225 81.7285 203.681 81.5143 204 81.0859C204.324 80.653 204.485 80.0446 204.485 79.2607C204.485 78.4814 204.324 77.8753 204 77.4424C203.676 77.0094 203.221 76.793 202.633 76.793C202.04 76.793 201.582 77.0094 201.259 77.4424C200.935 77.8753 200.773 78.4814 200.773 79.2607ZM211.602 80.3818V75.5215H213.297V79.958C213.297 80.5322 213.418 80.9606 213.659 81.2432C213.901 81.5212 214.274 81.6602 214.78 81.6602C215.327 81.6602 215.746 81.5029 216.038 81.1885C216.334 80.874 216.482 80.4365 216.482 79.876V75.5215H218.178V83H216.544V81.8105H216.428C216.049 82.7038 215.304 83.1504 214.192 83.1504C213.377 83.1504 212.741 82.9089 212.285 82.4258C211.829 81.9382 211.602 81.2568 211.602 80.3818ZM220.256 85.4883V75.5215H221.89V76.7588H222.006C222.22 76.335 222.532 76.0023 222.942 75.7607C223.357 75.5192 223.82 75.3984 224.33 75.3984C225.278 75.3984 226.028 75.7425 226.579 76.4307C227.135 77.1188 227.413 78.0622 227.413 79.2607C227.413 80.4548 227.137 81.3981 226.586 82.0908C226.039 82.779 225.294 83.123 224.351 83.123C223.817 83.123 223.35 83.0137 222.949 82.7949C222.553 82.5716 222.259 82.2617 222.067 81.8652H221.951V85.4883H220.256ZM221.917 79.2607C221.922 80.0081 222.09 80.5983 222.423 81.0312C222.76 81.4642 223.218 81.6807 223.797 81.6807C224.385 81.6807 224.843 81.4665 225.171 81.0381C225.504 80.6097 225.67 80.0173 225.67 79.2607C225.67 78.5042 225.504 77.9118 225.171 77.4834C224.843 77.055 224.387 76.8408 223.804 76.8408C223.225 76.8408 222.767 77.0573 222.43 77.4902C222.092 77.9232 221.922 78.5133 221.917 79.2607ZM229.184 83V72.6299H230.879V83H229.184ZM232.656 79.2607C232.656 78.0576 232.978 77.1097 233.62 76.417C234.263 75.7197 235.14 75.3711 236.252 75.3711C237.368 75.3711 238.246 75.7174 238.884 76.4102C239.526 77.1029 239.848 78.0531 239.848 79.2607C239.848 80.473 239.526 81.4255 238.884 82.1182C238.246 82.8063 237.368 83.1504 236.252 83.1504C235.131 83.1504 234.251 82.8063 233.613 82.1182C232.975 81.4255 232.656 80.473 232.656 79.2607ZM234.393 79.2607C234.393 80.0446 234.554 80.653 234.878 81.0859C235.201 81.5143 235.66 81.7285 236.252 81.7285C236.844 81.7285 237.3 81.5143 237.619 81.0859C237.943 80.653 238.104 80.0446 238.104 79.2607C238.104 78.4814 237.943 77.8753 237.619 77.4424C237.296 77.0094 236.84 76.793 236.252 76.793C235.66 76.793 235.201 77.0094 234.878 77.4424C234.554 77.8753 234.393 78.4814 234.393 79.2607ZM241.83 82.5078C241.37 82.0977 241.14 81.5553 241.14 80.8809C241.14 80.2064 241.383 79.6777 241.871 79.2949C242.363 78.9121 243.065 78.6934 243.977 78.6387L245.904 78.5225V77.8936C245.904 77.5244 245.784 77.2419 245.542 77.0459C245.3 76.8499 244.952 76.752 244.496 76.752C244.104 76.752 243.781 76.8203 243.525 76.957C243.27 77.0892 243.104 77.2806 243.026 77.5312H241.427C241.495 76.8704 241.814 76.3464 242.384 75.959C242.958 75.5671 243.689 75.3711 244.578 75.3711C245.535 75.3711 246.273 75.5921 246.793 76.0342C247.317 76.4762 247.579 77.096 247.579 77.8936V83H245.945V81.9746H245.829C245.619 82.3346 245.319 82.6172 244.927 82.8223C244.539 83.0228 244.102 83.123 243.614 83.123C242.885 83.123 242.29 82.918 241.83 82.5078ZM242.821 80.7852C242.821 81.0951 242.94 81.3411 243.177 81.5234C243.418 81.7012 243.73 81.79 244.113 81.79C244.624 81.79 245.05 81.6442 245.392 81.3525C245.733 81.0563 245.904 80.6917 245.904 80.2588V79.6641L244.216 79.7734C243.286 79.8327 242.821 80.1699 242.821 80.7852ZM249.254 79.2539C249.254 78.0736 249.53 77.137 250.081 76.4443C250.637 75.7471 251.387 75.3984 252.33 75.3984C252.84 75.3984 253.296 75.5146 253.697 75.7471C254.098 75.9795 254.399 76.3008 254.6 76.7109H254.716V72.6299H256.411V83H254.771V81.8174H254.654C254.44 82.2275 254.128 82.5488 253.718 82.7812C253.312 83.0091 252.85 83.123 252.33 83.123C251.382 83.123 250.632 82.7767 250.081 82.084C249.53 81.3867 249.254 80.4434 249.254 79.2539ZM250.99 79.2607C250.99 80.0173 251.154 80.6097 251.482 81.0381C251.815 81.4665 252.273 81.6807 252.856 81.6807C253.44 81.6807 253.898 81.4665 254.23 81.0381C254.568 80.6051 254.736 80.0127 254.736 79.2607C254.736 78.5133 254.568 77.9232 254.23 77.4902C253.893 77.0573 253.435 76.8408 252.856 76.8408C252.278 76.8408 251.822 77.0573 251.489 77.4902C251.157 77.9186 250.99 78.5088 250.99 79.2607Z" fill="#1F4068"/>
</g>
<path d="M266.136 83.1299C264.037 83.1299 262.738 81.6807 262.738 79.3154C262.738 76.9434 264.037 75.501 266.136 75.501C268.234 75.501 269.533 76.9434 269.533 79.3154C269.533 81.6807 268.234 83.1299 266.136 83.1299ZM266.136 82.0703C267.53 82.0703 268.316 81.0586 268.316 79.3154C268.316 77.5654 267.53 76.5605 266.136 76.5605C264.741 76.5605 263.955 77.5654 263.955 79.3154C263.955 81.0586 264.741 82.0703 266.136 82.0703ZM271.379 83V75.6309H272.5V76.7246H272.609C272.828 76.0068 273.676 75.501 274.653 75.501C274.845 75.501 275.091 75.5146 275.241 75.5352V76.7109C275.146 76.6836 274.722 76.6426 274.489 76.6426C273.368 76.6426 272.555 77.3945 272.555 78.4336V83H271.379ZM283.39 83.1299C281.503 83.1299 280.293 81.6328 280.293 79.3154C280.293 77.0049 281.517 75.501 283.39 75.501C284.415 75.501 285.283 75.9863 285.7 76.793H285.803V72.7051H286.979V83H285.857V81.8242H285.748C285.283 82.6445 284.408 83.1299 283.39 83.1299ZM283.663 76.5605C282.323 76.5605 281.51 77.5996 281.51 79.3154C281.51 81.0381 282.316 82.0703 283.663 82.0703C285.003 82.0703 285.83 81.0176 285.83 79.3154C285.83 77.627 284.996 76.5605 283.663 76.5605ZM289.262 83V75.6309H290.383V76.7246H290.492C290.711 76.0068 291.559 75.501 292.536 75.501C292.728 75.501 292.974 75.5146 293.124 75.5352V76.7109C293.028 76.6836 292.604 76.6426 292.372 76.6426C291.251 76.6426 290.438 77.3945 290.438 78.4336V83H289.262ZM296.863 82.0977C298.073 82.0977 298.969 81.3047 298.969 80.252V79.5752L296.986 79.7051C295.865 79.7803 295.373 80.1699 295.373 80.9082C295.373 81.6602 296.009 82.0977 296.863 82.0977ZM296.645 83.1299C295.216 83.1299 294.156 82.2822 294.156 80.9355C294.156 79.6162 295.127 78.8574 296.843 78.7549L298.969 78.625V77.9551C298.969 77.0459 298.401 76.5469 297.301 76.5469C296.419 76.5469 295.804 76.8818 295.64 77.4629H294.45C294.607 76.2803 295.77 75.501 297.342 75.501C299.14 75.501 300.145 76.4238 300.145 77.9551V83H299.023V81.9131H298.914C298.436 82.6992 297.629 83.1299 296.645 83.1299ZM305.299 81.8516C306.666 81.8516 307.486 80.8125 307.486 79.2061C307.486 77.5996 306.659 76.5605 305.299 76.5605C303.932 76.5605 303.166 77.5996 303.166 79.2061C303.166 80.8125 303.932 81.8516 305.299 81.8516ZM305.354 85.8301C303.576 85.8301 302.441 85.0303 302.264 83.8135H303.508C303.638 84.415 304.294 84.8047 305.354 84.8047C306.673 84.8047 307.459 84.1553 307.459 83.0684V81.6191H307.35C306.885 82.4326 306.051 82.8906 305.039 82.8906C303.132 82.8906 301.949 81.4141 301.949 79.2061C301.949 76.998 303.146 75.501 305.039 75.501C306.071 75.501 306.98 76.0068 307.404 76.7998H307.514V75.6309H308.635V83.1299C308.635 84.7773 307.363 85.8301 305.354 85.8301ZM317.07 82.0977C318.28 82.0977 319.176 81.3047 319.176 80.252V79.5752L317.193 79.7051C316.072 79.7803 315.58 80.1699 315.58 80.9082C315.58 81.6602 316.216 82.0977 317.07 82.0977ZM316.852 83.1299C315.423 83.1299 314.363 82.2822 314.363 80.9355C314.363 79.6162 315.334 78.8574 317.05 78.7549L319.176 78.625V77.9551C319.176 77.0459 318.608 76.5469 317.508 76.5469C316.626 76.5469 316.011 76.8818 315.847 77.4629H314.657C314.814 76.2803 315.977 75.501 317.549 75.501C319.347 75.501 320.352 76.4238 320.352 77.9551V83H319.23V81.9131H319.121C318.643 82.6992 317.836 83.1299 316.852 83.1299ZM322.525 83V75.6309H323.646V76.793H323.756C324.125 75.9795 324.843 75.501 325.971 75.501C327.625 75.501 328.548 76.4785 328.548 78.2285V83H327.372V78.5156C327.372 77.1895 326.812 76.5605 325.636 76.5605C324.46 76.5605 323.701 77.3467 323.701 78.6387V83H322.525ZM333.429 83.1299C331.542 83.1299 330.332 81.6328 330.332 79.3154C330.332 77.0049 331.556 75.501 333.429 75.501C334.454 75.501 335.322 75.9863 335.739 76.793H335.842V72.7051H337.018V83H335.896V81.8242H335.787C335.322 82.6445 334.447 83.1299 333.429 83.1299ZM333.702 76.5605C332.362 76.5605 331.549 77.5996 331.549 79.3154C331.549 81.0381 332.355 82.0703 333.702 82.0703C335.042 82.0703 335.869 81.0176 335.869 79.3154C335.869 77.627 335.035 76.5605 333.702 76.5605ZM345.979 83.1299C344.093 83.1299 342.883 81.6328 342.883 79.3154C342.883 77.0049 344.106 75.501 345.979 75.501C347.005 75.501 347.873 75.9863 348.29 76.793H348.393V72.7051H349.568V83H348.447V81.8242H348.338C347.873 82.6445 346.998 83.1299 345.979 83.1299ZM346.253 76.5605C344.913 76.5605 344.1 77.5996 344.1 79.3154C344.1 81.0381 344.906 82.0703 346.253 82.0703C347.593 82.0703 348.42 81.0176 348.42 79.3154C348.42 77.627 347.586 76.5605 346.253 76.5605ZM351.852 83V75.6309H352.973V76.7246H353.082C353.301 76.0068 354.148 75.501 355.126 75.501C355.317 75.501 355.563 75.5146 355.714 75.5352V76.7109C355.618 76.6836 355.194 76.6426 354.962 76.6426C353.841 76.6426 353.027 77.3945 353.027 78.4336V83H351.852ZM360.007 83.1299C357.908 83.1299 356.609 81.6807 356.609 79.3154C356.609 76.9434 357.908 75.501 360.007 75.501C362.105 75.501 363.404 76.9434 363.404 79.3154C363.404 81.6807 362.105 83.1299 360.007 83.1299ZM360.007 82.0703C361.401 82.0703 362.188 81.0586 362.188 79.3154C362.188 77.5654 361.401 76.5605 360.007 76.5605C358.612 76.5605 357.826 77.5654 357.826 79.3154C357.826 81.0586 358.612 82.0703 360.007 82.0703ZM368.839 75.501C370.719 75.501 371.936 76.998 371.936 79.3154C371.936 81.6191 370.712 83.1299 368.839 83.1299C367.786 83.1299 366.938 82.6719 366.535 81.8926H366.426V85.4609H365.25V75.6309H366.371V76.8613H366.48C366.952 76.0137 367.834 75.501 368.839 75.501ZM368.559 82.0703C369.912 82.0703 370.719 81.0381 370.719 79.3154C370.719 77.5928 369.912 76.5605 368.565 76.5605C367.232 76.5605 366.392 77.6201 366.392 79.3154C366.392 81.0039 367.232 82.0703 368.559 82.0703Z" fill="#605D62"/>
<path d="M236.941 97.5723C238.553 97.5723 239.596 98.8555 239.596 100.842C239.596 102.816 238.547 104.111 236.941 104.111C236.039 104.111 235.312 103.719 234.967 103.051H234.873V106.109H233.865V97.6836H234.826V98.7383H234.92C235.324 98.0117 236.08 97.5723 236.941 97.5723ZM236.701 103.203C237.861 103.203 238.553 102.318 238.553 100.842C238.553 99.3652 237.861 98.4805 236.707 98.4805C235.564 98.4805 234.844 99.3887 234.844 100.842C234.844 102.289 235.564 103.203 236.701 103.203ZM241.178 104V97.6836H242.139V98.6797H242.232C242.549 97.9824 243.164 97.5723 244.131 97.5723C245.549 97.5723 246.34 98.4102 246.34 99.9102V104H245.332V100.156C245.332 99.0195 244.852 98.4805 243.844 98.4805C242.836 98.4805 242.186 99.1543 242.186 100.262V104H241.178ZM250.74 103.016C251.912 103.016 252.615 102.125 252.615 100.748C252.615 99.3711 251.906 98.4805 250.74 98.4805C249.568 98.4805 248.912 99.3711 248.912 100.748C248.912 102.125 249.568 103.016 250.74 103.016ZM250.787 106.426C249.264 106.426 248.291 105.74 248.139 104.697H249.205C249.316 105.213 249.879 105.547 250.787 105.547C251.918 105.547 252.592 104.99 252.592 104.059V102.816H252.498C252.1 103.514 251.385 103.906 250.518 103.906C248.883 103.906 247.869 102.641 247.869 100.748C247.869 98.8555 248.895 97.5723 250.518 97.5723C251.402 97.5723 252.182 98.0059 252.545 98.6855H252.639V97.6836H253.6V104.111C253.6 105.523 252.51 106.426 250.787 106.426ZM259.523 106.15H258.768L259.324 102.816H260.443L259.523 106.15ZM265.389 102.025H266.438C266.461 102.734 267 103.227 267.797 103.227C268.699 103.227 269.209 102.676 269.209 101.639V95.5449H270.264V101.645C270.264 103.256 269.332 104.199 267.803 104.199C266.385 104.199 265.389 103.32 265.389 102.025ZM272.42 95.5449H275.613C277.213 95.5449 278.32 96.6699 278.32 98.2812C278.32 99.8633 277.189 100.982 275.602 100.982H273.475V104H272.42V95.5449ZM273.475 96.4824V100.045H275.338C276.539 100.045 277.236 99.4004 277.236 98.2812C277.236 97.1211 276.562 96.4824 275.338 96.4824H273.475ZM285.287 103.051V104H280.049V95.5449H285.287V96.4941H281.104V99.207H285.07V100.145H281.104V103.051H285.287ZM294.293 100.73C294.293 102.816 292.863 104.199 290.701 104.199C288.363 104.199 286.869 102.477 286.869 99.7695C286.869 97.0977 288.387 95.3457 290.701 95.3457C292.576 95.3457 293.936 96.3887 294.24 98.0645H293.168C292.805 96.9219 291.955 96.3184 290.701 96.3184C289.025 96.3184 287.953 97.666 287.953 99.7695C287.953 101.902 289.008 103.227 290.707 103.227C292.219 103.227 293.244 102.26 293.244 100.83V100.625H290.865V99.6992H294.293V100.73Z" fill="#605D62"/>
<rect x="0.5" y="0.5" width="527" height="123" rx="11.5" stroke="#CECECE"/>
<defs>
<clipPath id="clip0_1342_26123">
<rect width="103" height="20" fill="white" transform="translate(155 68)"/>
</clipPath>
</defs>
</svg>
