<svg width="145" height="124" viewBox="0 0 145 124" fill="none" xmlns="http://www.w3.org/2000/svg">
<rect x="0.5" y="0.5" width="144" height="123" rx="11.5" fill="white"/>
<rect x="52.5" y="16" width="40" height="40" rx="20" fill="#F7F7F7"/>
<path d="M67.9173 42.6673C66.6534 42.6673 65.5736 42.2298 64.6777 41.3548C63.7819 40.4798 63.334 39.4104 63.334 38.1465C63.334 37.0632 63.6604 36.0979 64.3132 35.2507C64.9659 34.4034 65.8201 33.8618 66.8757 33.6257C67.2229 32.3479 67.9173 31.3132 68.959 30.5215C70.0007 29.7298 71.1812 29.334 72.5007 29.334C74.1257 29.334 75.5041 29.9 76.6361 31.0319C77.768 32.1638 78.334 33.5423 78.334 35.1673C79.2923 35.2784 80.0875 35.6916 80.7194 36.4069C81.3513 37.1222 81.6673 37.959 81.6673 38.9173C81.6673 39.959 81.3027 40.8444 80.5736 41.5736C79.8444 42.3027 78.959 42.6673 77.9173 42.6673H73.334C72.8757 42.6673 72.4833 42.5041 72.1569 42.1777C71.8305 41.8513 71.6673 41.459 71.6673 41.0007V36.6673L70.9173 37.4173C70.7645 37.5701 70.5701 37.6465 70.334 37.6465C70.0979 37.6465 69.9034 37.5701 69.7507 37.4173C69.5979 37.2645 69.5215 37.0701 69.5215 36.834C69.5215 36.5979 69.5979 36.4034 69.7507 36.2507L71.9173 34.084C72.0007 34.0007 72.0909 33.9416 72.1882 33.9069C72.2854 33.8722 72.3895 33.8548 72.5007 33.8548C72.6118 33.8548 72.7159 33.8722 72.8132 33.9069C72.9104 33.9416 73.0007 34.0007 73.084 34.084L75.2507 36.2507C75.4034 36.4034 75.4798 36.5979 75.4798 36.834C75.4798 37.0701 75.4034 37.2645 75.2507 37.4173C75.0979 37.5701 74.9034 37.6465 74.6673 37.6465C74.4312 37.6465 74.2368 37.5701 74.084 37.4173L73.334 36.6673V41.0007H77.9173C78.5007 41.0007 78.9937 40.7993 79.3965 40.3965C79.7993 39.9937 80.0007 39.5007 80.0007 38.9173C80.0007 38.334 79.7993 37.8409 79.3965 37.4382C78.9937 37.0354 78.5007 36.834 77.9173 36.834H76.6673V35.1673C76.6673 34.0145 76.2611 33.0319 75.4486 32.2194C74.6361 31.4069 73.6534 31.0007 72.5007 31.0007C71.3479 31.0007 70.3652 31.4069 69.5527 32.2194C68.7402 33.0319 68.334 34.0145 68.334 35.1673H67.9173C67.1118 35.1673 66.4243 35.452 65.8548 36.0215C65.2854 36.5909 65.0007 37.2784 65.0007 38.084C65.0007 38.8895 65.2854 39.577 65.8548 40.1465C66.4243 40.7159 67.1118 41.0007 67.9173 41.0007H69.1673C69.4034 41.0007 69.6013 41.0805 69.7611 41.2402C69.9208 41.4 70.0007 41.5979 70.0007 41.834C70.0007 42.0701 69.9208 42.268 69.7611 42.4277C69.6013 42.5875 69.4034 42.6673 69.1673 42.6673H67.9173Z" fill="#484649"/>
<rect x="52.5" y="16" width="40" height="40" rx="20" stroke="#F7F7F7" stroke-width="6"/>
<g clip-path="url(#clip0_1075_26104)">
<path d="M19.7998 78.0713C19.7998 76.4671 20.2031 75.2025 21.0098 74.2773C21.821 73.3522 22.9261 72.8896 24.3252 72.8896C25.4463 72.8896 26.3965 73.2201 27.1758 73.8809C27.9551 74.5371 28.3971 75.3802 28.502 76.4102H26.7656C26.6426 75.8177 26.36 75.346 25.918 74.9951C25.4759 74.6396 24.945 74.4619 24.3252 74.4619C23.4867 74.4619 22.8236 74.7855 22.3359 75.4326C21.8483 76.0752 21.6045 76.9525 21.6045 78.0645C21.6045 79.1764 21.8483 80.056 22.3359 80.7031C22.8236 81.3503 23.4889 81.6738 24.332 81.6738C24.9564 81.6738 25.4896 81.512 25.9316 81.1885C26.3737 80.8604 26.654 80.4206 26.7725 79.8691H28.5088C28.3903 80.8809 27.9482 81.6966 27.1826 82.3164C26.417 82.9362 25.4668 83.2461 24.332 83.2461C22.9329 83.2461 21.8278 82.7835 21.0166 81.8584C20.2054 80.9287 19.7998 79.6663 19.7998 78.0713ZM30.3613 83V72.6299H32.0566V83H30.3613ZM34.3125 74.0449C34.1165 73.8672 34.0186 73.6416 34.0186 73.3682C34.0186 73.0947 34.1165 72.8714 34.3125 72.6982C34.5085 72.5205 34.7591 72.4316 35.0645 72.4316C35.3743 72.4316 35.625 72.5205 35.8164 72.6982C36.0124 72.8714 36.1104 73.0947 36.1104 73.3682C36.1104 73.6416 36.0124 73.8672 35.8164 74.0449C35.625 74.2181 35.3743 74.3047 35.0645 74.3047C34.7591 74.3047 34.5085 74.2181 34.3125 74.0449ZM34.2236 83V75.5215H35.9121V83H34.2236ZM37.6484 79.2402C37.6484 78.0234 37.9629 77.0755 38.5918 76.3965C39.2207 75.7129 40.0957 75.3711 41.2168 75.3711C42.1556 75.3711 42.9098 75.6149 43.4795 76.1025C44.0537 76.5856 44.3864 77.2305 44.4775 78.0371H42.8643C42.7822 77.6589 42.5999 77.3581 42.3174 77.1348C42.0348 76.9069 41.668 76.793 41.2168 76.793C40.6335 76.793 40.1777 77.0072 39.8496 77.4355C39.526 77.8639 39.3643 78.4655 39.3643 79.2402C39.3643 80.0241 39.5283 80.6348 39.8564 81.0723C40.1846 81.5098 40.638 81.7285 41.2168 81.7285C41.6589 81.7285 42.0212 81.626 42.3037 81.4209C42.5908 81.2158 42.7777 80.9196 42.8643 80.5322H44.4775C44.3818 81.3298 44.0469 81.9655 43.4727 82.4395C42.903 82.9134 42.1533 83.1504 41.2236 83.1504C40.098 83.1504 39.2207 82.8063 38.5918 82.1182C37.9629 81.43 37.6484 80.4707 37.6484 79.2402ZM46.166 83V72.6299H47.8613V78.5703H47.9775L50.7393 75.5215H52.708L49.7275 78.7275L52.9131 83H50.8623L48.4629 79.7939L47.8613 80.3955V83H46.166ZM57.3086 76.9229V75.5693H58.4912V73.6895H60.1797V75.5693H61.7793V76.9229H60.1797V80.5938C60.1797 80.9629 60.2617 81.234 60.4258 81.4072C60.5898 81.5758 60.8496 81.6602 61.2051 81.6602C61.36 81.6602 61.5514 81.6488 61.7793 81.626V82.9521C61.4967 83.0068 61.2005 83.0342 60.8906 83.0342C60.0339 83.0342 59.4186 82.877 59.0449 82.5625C58.6758 82.248 58.4912 81.7285 58.4912 81.0039V76.9229H57.3086ZM63.0371 79.2607C63.0371 78.0576 63.3584 77.1097 64.001 76.417C64.6436 75.7197 65.5208 75.3711 66.6328 75.3711C67.7493 75.3711 68.6266 75.7174 69.2646 76.4102C69.9072 77.1029 70.2285 78.0531 70.2285 79.2607C70.2285 80.473 69.9072 81.4255 69.2646 82.1182C68.6266 82.8063 67.7493 83.1504 66.6328 83.1504C65.5117 83.1504 64.6322 82.8063 63.9941 82.1182C63.3561 81.4255 63.0371 80.473 63.0371 79.2607ZM64.7734 79.2607C64.7734 80.0446 64.9352 80.653 65.2588 81.0859C65.5824 81.5143 66.0404 81.7285 66.6328 81.7285C67.2253 81.7285 67.681 81.5143 68 81.0859C68.3236 80.653 68.4854 80.0446 68.4854 79.2607C68.4854 78.4814 68.3236 77.8753 68 77.4424C67.6764 77.0094 67.2207 76.793 66.6328 76.793C66.0404 76.793 65.5824 77.0094 65.2588 77.4424C64.9352 77.8753 64.7734 78.4814 64.7734 79.2607ZM75.6016 80.3818V75.5215H77.2969V79.958C77.2969 80.5322 77.4176 80.9606 77.6592 81.2432C77.9007 81.5212 78.2744 81.6602 78.7803 81.6602C79.3271 81.6602 79.7464 81.5029 80.0381 81.1885C80.3343 80.874 80.4824 80.4365 80.4824 79.876V75.5215H82.1777V83H80.5439V81.8105H80.4277C80.0495 82.7038 79.3044 83.1504 78.1924 83.1504C77.3766 83.1504 76.7409 82.9089 76.2852 82.4258C75.8294 81.9382 75.6016 81.2568 75.6016 80.3818ZM84.2559 85.4883V75.5215H85.8896V76.7588H86.0059C86.2201 76.335 86.5322 76.0023 86.9424 75.7607C87.3571 75.5192 87.8197 75.3984 88.3301 75.3984C89.278 75.3984 90.0277 75.7425 90.5791 76.4307C91.1351 77.1188 91.4131 78.0622 91.4131 79.2607C91.4131 80.4548 91.1374 81.3981 90.5859 82.0908C90.0391 82.779 89.2939 83.123 88.3506 83.123C87.8174 83.123 87.3503 83.0137 86.9492 82.7949C86.5527 82.5716 86.2588 82.2617 86.0674 81.8652H85.9512V85.4883H84.2559ZM85.917 79.2607C85.9215 80.0081 86.0902 80.5983 86.4229 81.0312C86.7601 81.4642 87.2181 81.6807 87.7969 81.6807C88.3848 81.6807 88.8428 81.4665 89.1709 81.0381C89.5036 80.6097 89.6699 80.0173 89.6699 79.2607C89.6699 78.5042 89.5036 77.9118 89.1709 77.4834C88.8428 77.055 88.387 76.8408 87.8037 76.8408C87.2249 76.8408 86.7669 77.0573 86.4297 77.4902C86.0924 77.9232 85.9215 78.5133 85.917 79.2607ZM93.1836 83V72.6299H94.8789V83H93.1836ZM96.6562 79.2607C96.6562 78.0576 96.9775 77.1097 97.6201 76.417C98.2627 75.7197 99.14 75.3711 100.252 75.3711C101.368 75.3711 102.246 75.7174 102.884 76.4102C103.526 77.1029 103.848 78.0531 103.848 79.2607C103.848 80.473 103.526 81.4255 102.884 82.1182C102.246 82.8063 101.368 83.1504 100.252 83.1504C99.1309 83.1504 98.2513 82.8063 97.6133 82.1182C96.9753 81.4255 96.6562 80.473 96.6562 79.2607ZM98.3926 79.2607C98.3926 80.0446 98.5544 80.653 98.8779 81.0859C99.2015 81.5143 99.6595 81.7285 100.252 81.7285C100.844 81.7285 101.3 81.5143 101.619 81.0859C101.943 80.653 102.104 80.0446 102.104 79.2607C102.104 78.4814 101.943 77.8753 101.619 77.4424C101.296 77.0094 100.84 76.793 100.252 76.793C99.6595 76.793 99.2015 77.0094 98.8779 77.4424C98.5544 77.8753 98.3926 78.4814 98.3926 79.2607ZM105.83 82.5078C105.37 82.0977 105.14 81.5553 105.14 80.8809C105.14 80.2064 105.383 79.6777 105.871 79.2949C106.363 78.9121 107.065 78.6934 107.977 78.6387L109.904 78.5225V77.8936C109.904 77.5244 109.784 77.2419 109.542 77.0459C109.3 76.8499 108.952 76.752 108.496 76.752C108.104 76.752 107.781 76.8203 107.525 76.957C107.27 77.0892 107.104 77.2806 107.026 77.5312H105.427C105.495 76.8704 105.814 76.3464 106.384 75.959C106.958 75.5671 107.689 75.3711 108.578 75.3711C109.535 75.3711 110.273 75.5921 110.793 76.0342C111.317 76.4762 111.579 77.096 111.579 77.8936V83H109.945V81.9746H109.829C109.619 82.3346 109.319 82.6172 108.927 82.8223C108.539 83.0228 108.102 83.123 107.614 83.123C106.885 83.123 106.29 82.918 105.83 82.5078ZM106.821 80.7852C106.821 81.0951 106.94 81.3411 107.177 81.5234C107.418 81.7012 107.73 81.79 108.113 81.79C108.624 81.79 109.05 81.6442 109.392 81.3525C109.733 81.0563 109.904 80.6917 109.904 80.2588V79.6641L108.216 79.7734C107.286 79.8327 106.821 80.1699 106.821 80.7852ZM113.254 79.2539C113.254 78.0736 113.53 77.137 114.081 76.4443C114.637 75.7471 115.387 75.3984 116.33 75.3984C116.84 75.3984 117.296 75.5146 117.697 75.7471C118.098 75.9795 118.399 76.3008 118.6 76.7109H118.716V72.6299H120.411V83H118.771V81.8174H118.654C118.44 82.2275 118.128 82.5488 117.718 82.7812C117.312 83.0091 116.85 83.123 116.33 83.123C115.382 83.123 114.632 82.7767 114.081 82.084C113.53 81.3867 113.254 80.4434 113.254 79.2539ZM114.99 79.2607C114.99 80.0173 115.154 80.6097 115.482 81.0381C115.815 81.4665 116.273 81.6807 116.856 81.6807C117.44 81.6807 117.898 81.4665 118.23 81.0381C118.568 80.6051 118.736 80.0127 118.736 79.2607C118.736 78.5133 118.568 77.9232 118.23 77.4902C117.893 77.0573 117.435 76.8408 116.856 76.8408C116.278 76.8408 115.822 77.0573 115.489 77.4902C115.157 77.9186 114.99 78.5088 114.99 79.2607Z" fill="#1F4068"/>
</g>
<path d="M45.8281 95.5449H49.0215C50.6211 95.5449 51.7285 96.6699 51.7285 98.2812C51.7285 99.8633 50.5977 100.982 49.0098 100.982H46.8828V104H45.8281V95.5449ZM46.8828 96.4824V100.045H48.7461C49.9473 100.045 50.6445 99.4004 50.6445 98.2812C50.6445 97.1211 49.9707 96.4824 48.7461 96.4824H46.8828ZM54.5 104H53.457V95.5449H54.4824L59.0703 102.125H59.1641V95.5449H60.207V104H59.1816L54.5938 97.4434H54.5V104ZM69.459 100.73C69.459 102.816 68.0293 104.199 65.8672 104.199C63.5293 104.199 62.0352 102.477 62.0352 99.7695C62.0352 97.0977 63.5527 95.3457 65.8672 95.3457C67.7422 95.3457 69.1016 96.3887 69.4062 98.0645H68.334C67.9707 96.9219 67.1211 96.3184 65.8672 96.3184C64.1914 96.3184 63.1191 97.666 63.1191 99.7695C63.1191 101.902 64.1738 103.227 65.873 103.227C67.3848 103.227 68.4102 102.26 68.4102 100.83V100.625H66.0312V99.6992H69.459V100.73ZM71.8379 106.15H71.082L71.6387 102.816H72.7578L71.8379 106.15ZM77.7031 102.025H78.752C78.7754 102.734 79.3145 103.227 80.1113 103.227C81.0137 103.227 81.5234 102.676 81.5234 101.639V95.5449H82.5781V101.645C82.5781 103.256 81.6465 104.199 80.1172 104.199C78.6992 104.199 77.7031 103.32 77.7031 102.025ZM84.7344 95.5449H87.9277C89.5273 95.5449 90.6348 96.6699 90.6348 98.2812C90.6348 99.8633 89.5039 100.982 87.916 100.982H85.7891V104H84.7344V95.5449ZM85.7891 96.4824V100.045H87.6523C88.8535 100.045 89.5508 99.4004 89.5508 98.2812C89.5508 97.1211 88.877 96.4824 87.6523 96.4824H85.7891ZM99.459 100.73C99.459 102.816 98.0293 104.199 95.8672 104.199C93.5293 104.199 92.0352 102.477 92.0352 99.7695C92.0352 97.0977 93.5527 95.3457 95.8672 95.3457C97.7422 95.3457 99.1016 96.3887 99.4062 98.0645H98.334C97.9707 96.9219 97.1211 96.3184 95.8672 96.3184C94.1914 96.3184 93.1191 97.666 93.1191 99.7695C93.1191 101.902 94.1738 103.227 95.873 103.227C97.3848 103.227 98.4102 102.26 98.4102 100.83V100.625H96.0312V99.6992H99.459V100.73Z" fill="#605D62"/>
<rect x="0.5" y="0.5" width="144" height="123" rx="11.5" stroke="#CECECE"/>
<defs>
<clipPath id="clip0_1075_26104">
<rect width="103" height="20" fill="white" transform="translate(19 68)"/>
</clipPath>
</defs>
</svg>
