<svg width="40" height="40" viewBox="0 0 40 40" fill="none" xmlns="http://www.w3.org/2000/svg">
<circle cx="20" cy="20" r="19.5" fill="white" stroke="#1F4068"/>
<path d="M20 23.575C19.8667 23.575 19.7417 23.5542 19.625 23.5125C19.5083 23.4708 19.4 23.4 19.3 23.3L15.7 19.7C15.5167 19.5167 15.425 19.2833 15.425 19C15.425 18.7167 15.5167 18.4833 15.7 18.3C15.8833 18.1167 16.1208 18.0208 16.4125 18.0125C16.7042 18.0042 16.9417 18.0917 17.125 18.275L19 20.15V13C19 12.7167 19.0958 12.4792 19.2875 12.2875C19.4792 12.0958 19.7167 12 20 12C20.2833 12 20.5208 12.0958 20.7125 12.2875C20.9042 12.4792 21 12.7167 21 13V20.15L22.875 18.275C23.0583 18.0917 23.2958 18.0042 23.5875 18.0125C23.8792 18.0208 24.1167 18.1167 24.3 18.3C24.4833 18.4833 24.575 18.7167 24.575 19C24.575 19.2833 24.4833 19.5167 24.3 19.7L20.7 23.3C20.6 23.4 20.4917 23.4708 20.375 23.5125C20.2583 23.5542 20.1333 23.575 20 23.575ZM14 28C13.45 28 12.9792 27.8042 12.5875 27.4125C12.1958 27.0208 12 26.55 12 26V24C12 23.7167 12.0958 23.4792 12.2875 23.2875C12.4792 23.0958 12.7167 23 13 23C13.2833 23 13.5208 23.0958 13.7125 23.2875C13.9042 23.4792 14 23.7167 14 24V26H26V24C26 23.7167 26.0958 23.4792 26.2875 23.2875C26.4792 23.0958 26.7167 23 27 23C27.2833 23 27.5208 23.0958 27.7125 23.2875C27.9042 23.4792 28 23.7167 28 24V26C28 26.55 27.8042 27.0208 27.4125 27.4125C27.0208 27.8042 26.55 28 26 28H14Z" fill="#1F4068"/>
</svg>
