<svg width="21" height="20" viewBox="0 0 21 20" fill="none" xmlns="http://www.w3.org/2000/svg">
<path d="M13.8332 6.66667V4.16667H7.1665V6.66667H5.49984V3.33333C5.49984 3.09722 5.5797 2.89931 5.73942 2.73958C5.89914 2.57986 6.09706 2.5 6.33317 2.5H14.6665C14.9026 2.5 15.1005 2.57986 15.2603 2.73958C15.42 2.89931 15.4998 3.09722 15.4998 3.33333V6.66667H13.8332ZM15.4998 10.4167C15.7359 10.4167 15.9339 10.3368 16.0936 10.1771C16.2533 10.0174 16.3332 9.81944 16.3332 9.58333C16.3332 9.34722 16.2533 9.14931 16.0936 8.98958C15.9339 8.82986 15.7359 8.75 15.4998 8.75C15.2637 8.75 15.0658 8.82986 14.9061 8.98958C14.7464 9.14931 14.6665 9.34722 14.6665 9.58333C14.6665 9.81944 14.7464 10.0174 14.9061 10.1771C15.0658 10.3368 15.2637 10.4167 15.4998 10.4167ZM7.1665 15.8333H13.8332V12.5H7.1665V15.8333ZM7.1665 17.5C6.70817 17.5 6.31581 17.3368 5.98942 17.0104C5.66303 16.684 5.49984 16.2917 5.49984 15.8333V14.1667H2.99984C2.76373 14.1667 2.56581 14.0868 2.40609 13.9271C2.24637 13.7674 2.1665 13.5694 2.1665 13.3333V9.16667C2.1665 8.45833 2.40956 7.86458 2.89567 7.38542C3.38178 6.90625 3.97206 6.66667 4.6665 6.66667H16.3332C17.0415 6.66667 17.6353 6.90625 18.1144 7.38542C18.5936 7.86458 18.8332 8.45833 18.8332 9.16667V13.3333C18.8332 13.5694 18.7533 13.7674 18.5936 13.9271C18.4339 14.0868 18.236 14.1667 17.9998 14.1667H15.4998V15.8333C15.4998 16.2917 15.3366 16.684 15.0103 17.0104C14.6839 17.3368 14.2915 17.5 13.8332 17.5H7.1665ZM17.1665 12.5V9.16667C17.1665 8.93056 17.0866 8.73264 16.9269 8.57292C16.7672 8.41319 16.5693 8.33333 16.3332 8.33333H4.6665C4.43039 8.33333 4.23248 8.41319 4.07275 8.57292C3.91303 8.73264 3.83317 8.93056 3.83317 9.16667V12.5H5.49984V10.8333H15.4998V12.5H17.1665Z" fill="#1F4068"/>
</svg>
