<svg width="24" height="24" viewBox="0 0 24 24" fill="none" xmlns="http://www.w3.org/2000/svg">
<path d="M12 20C11.7167 20 11.4792 19.9042 11.2875 19.7125C11.0958 19.5208 11 19.2833 11 19V11.85L9.125 13.725C8.94167 13.9083 8.70417 13.9958 8.4125 13.9875C8.12083 13.9792 7.88333 13.8833 7.7 13.7C7.51667 13.5167 7.425 13.2833 7.425 13C7.425 12.7167 7.51667 12.4833 7.7 12.3L11.3 8.7C11.4 8.6 11.5083 8.52917 11.625 8.4875C11.7417 8.44583 11.8667 8.425 12 8.425C12.1333 8.425 12.2583 8.44583 12.375 8.4875C12.4917 8.52917 12.6 8.6 12.7 8.7L16.3 12.3C16.4833 12.4833 16.575 12.7167 16.575 13C16.575 13.2833 16.4833 13.5167 16.3 13.7C16.1167 13.8833 15.8792 13.9792 15.5875 13.9875C15.2958 13.9958 15.0583 13.9083 14.875 13.725L13 11.85V19C13 19.2833 12.9042 19.5208 12.7125 19.7125C12.5208 19.9042 12.2833 20 12 20ZM5 9C4.71667 9 4.47917 8.90417 4.2875 8.7125C4.09583 8.52083 4 8.28333 4 8V6C4 5.45 4.19583 4.97917 4.5875 4.5875C4.97917 4.19583 5.45 4 6 4H18C18.55 4 19.0208 4.19583 19.4125 4.5875C19.8042 4.97917 20 5.45 20 6V8C20 8.28333 19.9042 8.52083 19.7125 8.7125C19.5208 8.90417 19.2833 9 19 9C18.7167 9 18.4792 8.90417 18.2875 8.7125C18.0958 8.52083 18 8.28333 18 8V6H6V8C6 8.28333 5.90417 8.52083 5.7125 8.7125C5.52083 8.90417 5.28333 9 5 9Z" fill="#605D62"/>
</svg>
