<svg width="40" height="40" viewBox="0 0 40 40" fill="none" xmlns="http://www.w3.org/2000/svg">
<circle cx="20" cy="20" r="19.5" fill="white" stroke="#1F4068"/>
<g clip-path="url(#clip0_107_33505)">
<path d="M26.3531 24.0002C25.9041 24.0019 25.4601 24.0943 25.0477 24.2719C24.6352 24.4494 24.263 24.7085 23.9531 25.0335L15.8265 20.9668C16.0264 20.3607 16.0264 19.7063 15.8265 19.1002L23.9665 14.9602C24.5495 15.5746 25.3402 15.9503 26.1848 16.0142C27.0294 16.0781 27.8676 15.8257 28.5365 15.3061C29.2054 14.7864 29.6572 14.0366 29.8041 13.2024C29.9509 12.3682 29.7824 11.5092 29.3312 10.7924C28.88 10.0755 28.1784 9.55204 27.3627 9.32367C26.5471 9.0953 25.6756 9.17836 24.9178 9.5567C24.16 9.93505 23.5699 10.5817 23.2622 11.3708C22.9546 12.16 22.9513 13.0354 23.2531 13.8268L15.1931 17.9268C14.7578 17.3945 14.1685 17.0098 13.506 16.8254C12.8435 16.6411 12.1402 16.6663 11.4925 16.8973C10.8448 17.1284 10.2844 17.5542 9.88821 18.1162C9.49199 18.6783 9.2793 19.3491 9.2793 20.0368C9.2793 20.7245 9.49199 21.3954 9.88821 21.9574C10.2844 22.5195 10.8448 22.9452 11.4925 23.1763C12.1402 23.4074 12.8435 23.4325 13.506 23.2482C14.1685 23.0639 14.7578 22.6792 15.1931 22.1468L23.2331 26.1935C23.0973 26.5583 23.0273 26.9443 23.0265 27.3335C23.0265 27.9928 23.222 28.6372 23.5882 29.1854C23.9545 29.7336 24.4751 30.1608 25.0842 30.4131C25.6933 30.6654 26.3635 30.7314 27.0101 30.6028C27.6567 30.4742 28.2507 30.1567 28.7168 29.6905C29.183 29.2243 29.5005 28.6304 29.6291 27.9838C29.7577 27.3372 29.6917 26.667 29.4394 26.0579C29.1871 25.4488 28.7599 24.9282 28.2117 24.5619C27.6635 24.1957 27.0191 24.0002 26.3598 24.0002H26.3531ZM26.3531 10.6668C26.7487 10.6668 27.1354 10.7841 27.4643 11.0039C27.7932 11.2237 28.0495 11.536 28.2009 11.9015C28.3523 12.2669 28.3919 12.669 28.3147 13.057C28.2375 13.445 28.0471 13.8013 27.7673 14.081C27.4876 14.3607 27.1313 14.5512 26.7433 14.6284C26.3554 14.7056 25.9532 14.666 25.5878 14.5146C25.2223 14.3632 24.91 14.1069 24.6902 13.778C24.4704 13.4491 24.3531 13.0624 24.3531 12.6668C24.3531 12.1364 24.5639 11.6277 24.9389 11.2526C25.314 10.8775 25.8227 10.6668 26.3531 10.6668ZM12.6665 22.0002C12.2709 22.0002 11.8842 21.8829 11.5553 21.6631C11.2264 21.4433 10.9701 21.131 10.8187 20.7655C10.6673 20.4001 10.6277 19.9979 10.7049 19.61C10.7821 19.222 10.9726 18.8657 11.2523 18.5859C11.532 18.3062 11.8883 18.1158 12.2763 18.0386C12.6643 17.9614 13.0664 18.001 13.4318 18.1524C13.7973 18.3038 14.1096 18.5601 14.3294 18.889C14.5492 19.2179 14.6665 19.6046 14.6665 20.0002C14.6665 20.5306 14.4558 21.0393 14.0807 21.4144C13.7056 21.7894 13.1969 22.0002 12.6665 22.0002ZM26.3531 29.3335C25.9576 29.3335 25.5709 29.2162 25.242 28.9964C24.9131 28.7767 24.6568 28.4643 24.5054 28.0989C24.354 27.7334 24.3144 27.3313 24.3916 26.9433C24.4687 26.5554 24.6592 26.199 24.9389 25.9193C25.2186 25.6396 25.575 25.4491 25.963 25.3719C26.3509 25.2948 26.7531 25.3344 27.1185 25.4857C27.484 25.6371 27.7963 25.8935 28.0161 26.2224C28.2358 26.5513 28.3531 26.9379 28.3531 27.3335C28.3531 27.8639 28.1424 28.3726 27.7673 28.7477C27.3923 29.1228 26.8836 29.3335 26.3531 29.3335Z" fill="#1F4068"/>
</g>
<defs>
<clipPath id="clip0_107_33505">
<rect width="24" height="24" fill="white" transform="translate(8 8)"/>
</clipPath>
</defs>
</svg>
