<svg width="21" height="20" viewBox="0 0 21 20" fill="none" xmlns="http://www.w3.org/2000/svg">
<path d="M15.5 18.3332C14.8056 18.3332 14.2153 18.0901 13.7292 17.604C13.2431 17.1179 13 16.5276 13 15.8332C13 15.736 13.0069 15.6353 13.0208 15.5311C13.0347 15.4269 13.0556 15.3332 13.0833 15.2498L7.20833 11.8332C6.97222 12.0415 6.70833 12.2047 6.41667 12.3228C6.125 12.4408 5.81944 12.4998 5.5 12.4998C4.80556 12.4998 4.21528 12.2568 3.72917 11.7707C3.24306 11.2846 3 10.6943 3 9.99984C3 9.30539 3.24306 8.71512 3.72917 8.229C4.21528 7.74289 4.80556 7.49984 5.5 7.49984C5.81944 7.49984 6.125 7.55887 6.41667 7.67692C6.70833 7.79498 6.97222 7.95817 7.20833 8.1665L13.0833 4.74984C13.0556 4.6665 13.0347 4.57275 13.0208 4.46859C13.0069 4.36442 13 4.26373 13 4.1665C13 3.47206 13.2431 2.88178 13.7292 2.39567C14.2153 1.90956 14.8056 1.6665 15.5 1.6665C16.1944 1.6665 16.7847 1.90956 17.2708 2.39567C17.7569 2.88178 18 3.47206 18 4.1665C18 4.86095 17.7569 5.45123 17.2708 5.93734C16.7847 6.42345 16.1944 6.6665 15.5 6.6665C15.1806 6.6665 14.875 6.60748 14.5833 6.48942C14.2917 6.37137 14.0278 6.20817 13.7917 5.99984L7.91667 9.4165C7.94444 9.49984 7.96528 9.59359 7.97917 9.69775C7.99306 9.80192 8 9.90262 8 9.99984C8 10.0971 7.99306 10.1978 7.97917 10.3019C7.96528 10.4061 7.94444 10.4998 7.91667 10.5832L13.7917 13.9998C14.0278 13.7915 14.2917 13.6283 14.5833 13.5103C14.875 13.3922 15.1806 13.3332 15.5 13.3332C16.1944 13.3332 16.7847 13.5762 17.2708 14.0623C17.7569 14.5484 18 15.1387 18 15.8332C18 16.5276 17.7569 17.1179 17.2708 17.604C16.7847 18.0901 16.1944 18.3332 15.5 18.3332ZM15.5 4.99984C15.7361 4.99984 15.934 4.91998 16.0938 4.76025C16.2535 4.60053 16.3333 4.40262 16.3333 4.1665C16.3333 3.93039 16.2535 3.73248 16.0938 3.57275C15.934 3.41303 15.7361 3.33317 15.5 3.33317C15.2639 3.33317 15.066 3.41303 14.9062 3.57275C14.7465 3.73248 14.6667 3.93039 14.6667 4.1665C14.6667 4.40262 14.7465 4.60053 14.9062 4.76025C15.066 4.91998 15.2639 4.99984 15.5 4.99984ZM5.5 10.8332C5.73611 10.8332 5.93403 10.7533 6.09375 10.5936C6.25347 10.4339 6.33333 10.2359 6.33333 9.99984C6.33333 9.76373 6.25347 9.56581 6.09375 9.40609C5.93403 9.24637 5.73611 9.1665 5.5 9.1665C5.26389 9.1665 5.06597 9.24637 4.90625 9.40609C4.74653 9.56581 4.66667 9.76373 4.66667 9.99984C4.66667 10.2359 4.74653 10.4339 4.90625 10.5936C5.06597 10.7533 5.26389 10.8332 5.5 10.8332ZM15.5 16.6665C15.7361 16.6665 15.934 16.5866 16.0938 16.4269C16.2535 16.2672 16.3333 16.0693 16.3333 15.8332C16.3333 15.5971 16.2535 15.3991 16.0938 15.2394C15.934 15.0797 15.7361 14.9998 15.5 14.9998C15.2639 14.9998 15.066 15.0797 14.9062 15.2394C14.7465 15.3991 14.6667 15.5971 14.6667 15.8332C14.6667 16.0693 14.7465 16.2672 14.9062 16.4269C15.066 16.5866 15.2639 16.6665 15.5 16.6665Z" fill="#1F4068"/>
</svg>
