<svg width="51" height="20" viewBox="0 0 51 20" fill="none" xmlns="http://www.w3.org/2000/svg">
<path d="M9.99996 15.8332V4.1665M9.99996 4.1665L4.16663 9.99984M9.99996 4.1665L15.8333 9.99984" stroke="#12B76A" stroke-width="2" stroke-linecap="round" stroke-linejoin="round"/>
<path d="M24.14 12.83C25.036 12.0553 25.7406 11.4207 26.254 10.926C26.7766 10.422 27.2106 9.89933 27.556 9.358C27.9013 8.81667 28.074 8.27533 28.074 7.734C28.074 7.174 27.9386 6.73533 27.668 6.418C27.4066 6.10067 26.9913 5.942 26.422 5.942C25.8713 5.942 25.442 6.11933 25.134 6.474C24.8353 6.81933 24.6766 7.286 24.658 7.874H23.118C23.146 6.81 23.4633 5.998 24.07 5.438C24.686 4.86867 25.4653 4.584 26.408 4.584C27.4253 4.584 28.2186 4.864 28.788 5.424C29.3666 5.984 29.656 6.73067 29.656 7.664C29.656 8.336 29.4833 8.98467 29.138 9.61C28.802 10.226 28.396 10.7813 27.92 11.276C27.4533 11.7613 26.856 12.326 26.128 12.97L25.498 13.53H29.936V14.86H23.132V13.698L24.14 12.83ZM31.338 9.764C31.338 8.14933 31.6087 6.88933 32.15 5.984C32.7007 5.06933 33.6434 4.612 34.978 4.612C36.3127 4.612 37.2507 5.06933 37.792 5.984C38.3427 6.88933 38.618 8.14933 38.618 9.764C38.618 11.3973 38.3427 12.676 37.792 13.6C37.2507 14.5147 36.3127 14.972 34.978 14.972C33.6434 14.972 32.7007 14.5147 32.15 13.6C31.6087 12.676 31.338 11.3973 31.338 9.764ZM37.05 9.764C37.05 9.008 36.9987 8.36867 36.896 7.846C36.8027 7.32333 36.6067 6.89867 36.308 6.572C36.0094 6.236 35.566 6.068 34.978 6.068C34.39 6.068 33.9467 6.236 33.648 6.572C33.3494 6.89867 33.1487 7.32333 33.046 7.846C32.9527 8.36867 32.906 9.008 32.906 9.764C32.906 10.548 32.9527 11.206 33.046 11.738C33.1394 12.27 33.3354 12.6993 33.634 13.026C33.942 13.3527 34.39 13.516 34.978 13.516C35.566 13.516 36.0094 13.3527 36.308 13.026C36.616 12.6993 36.8167 12.27 36.91 11.738C37.0034 11.206 37.05 10.548 37.05 9.764ZM40.0548 7.258C40.0548 6.57667 40.2508 6.04467 40.6428 5.662C41.0441 5.27 41.5575 5.074 42.1828 5.074C42.8081 5.074 43.3168 5.27 43.7088 5.662C44.1101 6.04467 44.3108 6.57667 44.3108 7.258C44.3108 7.93933 44.1101 8.476 43.7088 8.868C43.3168 9.26 42.8081 9.456 42.1828 9.456C41.5575 9.456 41.0441 9.26 40.6428 8.868C40.2508 8.476 40.0548 7.93933 40.0548 7.258ZM48.5948 5.256L43.0088 15H41.4408L47.0268 5.256H48.5948ZM42.1828 6.04C41.5948 6.04 41.3008 6.446 41.3008 7.258C41.3008 8.07933 41.5948 8.49 42.1828 8.49C42.4628 8.49 42.6775 8.392 42.8268 8.196C42.9855 7.99067 43.0648 7.678 43.0648 7.258C43.0648 6.446 42.7708 6.04 42.1828 6.04ZM45.7528 12.984C45.7528 12.3027 45.9488 11.7707 46.3408 11.388C46.7421 10.996 47.2555 10.8 47.8808 10.8C48.4968 10.8 49.0008 10.996 49.3928 11.388C49.7941 11.7707 49.9948 12.3027 49.9948 12.984C49.9948 13.6653 49.7941 14.202 49.3928 14.594C49.0008 14.986 48.4968 15.182 47.8808 15.182C47.2555 15.182 46.7421 14.986 46.3408 14.594C45.9488 14.202 45.7528 13.6653 45.7528 12.984ZM47.8668 11.766C47.2788 11.766 46.9848 12.172 46.9848 12.984C46.9848 13.796 47.2788 14.202 47.8668 14.202C48.4548 14.202 48.7488 13.796 48.7488 12.984C48.7488 12.172 48.4548 11.766 47.8668 11.766Z" fill="#027A48"/>
</svg>
