<svg width="31" height="31" viewBox="0 0 31 31" fill="none" xmlns="http://www.w3.org/2000/svg">
<rect x="1.78516" y="1.78613" width="27.4286" height="27.4286" rx="13.7143" fill="#DCEBFF"/>
<rect x="1.78516" y="1.78613" width="27.4286" height="27.4286" rx="13.7143" stroke="#EEF5FE" stroke-width="3.42857"/>
<path d="M16.644 9.93913V12.2994C16.644 12.6195 16.644 12.7795 16.7063 12.9017C16.761 13.0092 16.8485 13.0967 16.956 13.1514C17.0782 13.2137 17.2382 13.2137 17.5583 13.2137H19.9186M20.0725 14.3499V18.4709C20.0725 19.431 20.0725 19.911 19.8857 20.2777C19.7213 20.6003 19.4591 20.8625 19.1365 21.0269C18.7698 21.2137 18.2898 21.2137 17.3297 21.2137H13.6725C12.7125 21.2137 12.2324 21.2137 11.8657 21.0269C11.5431 20.8625 11.2809 20.6003 11.1165 20.2777C10.9297 19.911 10.9297 19.431 10.9297 18.4709V12.528C10.9297 11.5679 10.9297 11.0879 11.1165 10.7212C11.2809 10.3986 11.5431 10.1364 11.8657 9.972C12.2324 9.78516 12.7125 9.78516 13.6725 9.78516H15.5078C15.9271 9.78516 16.1368 9.78516 16.3341 9.83252C16.509 9.87452 16.6762 9.94378 16.8296 10.0378C17.0026 10.1438 17.1508 10.292 17.4473 10.5885L19.2692 12.4104C19.5657 12.7069 19.7139 12.8551 19.8199 13.0281C19.9139 13.1815 19.9832 13.3487 20.0252 13.5236C20.0725 13.7209 20.0725 13.9306 20.0725 14.3499Z" stroke="#153576" stroke-width="1.14286" stroke-linecap="round" stroke-linejoin="round"/>
</svg>
