<svg width="24" height="24" viewBox="0 0 24 24" fill="none" xmlns="http://www.w3.org/2000/svg">
<path d="M20.6776 17.0764L14.7611 4.38789C14.4248 3.66677 13.8158 3.10877 13.0681 2.83666C12.3204 2.56454 11.4952 2.6006 10.7741 2.93689C10.053 3.27319 9.495 3.88217 9.22289 4.62988C8.95077 5.37759 8.98683 6.20277 9.32312 6.92389L15.2401 19.6119C15.5764 20.333 16.1853 20.891 16.9329 21.1632C17.6806 21.4354 18.5057 21.3994 19.2269 21.0631C19.948 20.7269 20.506 20.118 20.7782 19.3703C21.0503 18.6227 21.0139 17.7975 20.6776 17.0764Z" stroke="#D2D9E1" stroke-width="2"/>
<path d="M11.719 13.268L8.76 19.612C8.5935 19.9691 8.35829 20.2899 8.06781 20.556C7.77733 20.8222 7.43726 21.0285 7.06703 21.1633C6.6968 21.298 6.30365 21.3585 5.91004 21.3413C5.51643 21.3241 5.13006 21.2295 4.773 21.063C4.05198 20.7267 3.49406 20.1178 3.22195 19.3702C2.94984 18.6226 2.98583 17.7976 3.322 17.0765L9.187 4.5" stroke="#D2D9E1" stroke-width="2" stroke-linecap="round"/>
<path d="M4.77355 21.0626C6.27517 21.7629 8.06011 21.1132 8.76032 19.6116C9.46054 18.1099 8.81088 16.325 7.30926 15.6248C5.80764 14.9246 4.02269 15.5742 3.32248 17.0759C2.62226 18.5775 3.27193 20.3624 4.77355 21.0626Z" stroke="#D2D9E1" stroke-width="2"/>
</svg>
