<svg width="32" height="33" viewBox="0 0 32 33" fill="none" xmlns="http://www.w3.org/2000/svg">
<rect y="0.5" width="32" height="32" rx="8" fill="#C3C3C3"/>
<path d="M16 11.8662V14.6412" stroke="white" stroke-miterlimit="10" stroke-linecap="round"/>
<path d="M16.0171 8.16699C12.9504 8.16699 10.4671 10.6503 10.4671 13.717V15.467C10.4671 16.0337 10.2337 16.8837 9.94207 17.367L8.88374 19.1337C8.23374 20.2253 8.68374 21.442 9.88374 21.842C13.8671 23.167 18.1754 23.167 22.1587 21.842C23.2837 21.467 23.7671 20.1503 23.1587 19.1337L22.1004 17.367C21.8087 16.8837 21.5754 16.0253 21.5754 15.467V13.717C21.5671 10.667 19.0671 8.16699 16.0171 8.16699Z" stroke="white" stroke-miterlimit="10" stroke-linecap="round"/>
<path d="M18.7746 22.1836C18.7746 23.7086 17.5246 24.9586 15.9996 24.9586C15.2413 24.9586 14.5413 24.6419 14.0413 24.1419C13.5413 23.6419 13.2246 22.9419 13.2246 22.1836" stroke="white" stroke-miterlimit="10"/>
</svg>
