<svg width="32" height="33" viewBox="0 0 32 33" fill="none" xmlns="http://www.w3.org/2000/svg">
<rect y="0.5" width="32" height="32" rx="8" fill="#1151B4"/>
<path d="M16 11.8667V14.6417" stroke="white" stroke-miterlimit="10" stroke-linecap="round"/>
<path d="M16.0167 8.1665C12.95 8.1665 10.4667 10.6498 10.4667 13.7165V15.4665C10.4667 16.0332 10.2334 16.8832 9.9417 17.3665L8.88337 19.1332C8.23337 20.2248 8.68337 21.4415 9.88337 21.8415C13.8667 23.1665 18.175 23.1665 22.1584 21.8415C23.2834 21.4665 23.7667 20.1498 23.1584 19.1332L22.1 17.3665C21.8084 16.8832 21.575 16.0248 21.575 15.4665V13.7165C21.5667 10.6665 19.0667 8.1665 16.0167 8.1665Z" stroke="white" stroke-miterlimit="10" stroke-linecap="round"/>
<path d="M18.775 22.1831C18.775 23.7081 17.525 24.9581 16 24.9581C15.2416 24.9581 14.5416 24.6414 14.0416 24.1414C13.5416 23.6414 13.225 22.9414 13.225 22.1831" stroke="white" stroke-miterlimit="10"/>
</svg>
