<svg xmlns="http://www.w3.org/2000/svg" width="21" height="21" viewBox="0 0 21 21" fill="none">
  <path d="M10.2084 1.75V1.125C10.2084 0.95924 10.2742 0.800269 10.3914 0.683058C10.5086 0.565848 10.6676 0.5 10.8334 0.5C10.9991 0.5 11.1581 0.565848 11.2753 0.683058C11.3925 0.800269 11.4584 0.95924 11.4584 1.125V1.75C11.4584 1.91576 11.3925 2.07473 11.2753 2.19194C11.1581 2.30915 10.9991 2.375 10.8334 2.375C10.6676 2.375 10.5086 2.30915 10.3914 2.19194C10.2742 2.07473 10.2084 1.91576 10.2084 1.75ZM16.4584 4.25C16.5405 4.25006 16.6218 4.23395 16.6977 4.20259C16.7735 4.17122 16.8425 4.12521 16.9006 4.06719L17.5256 3.44219C17.6428 3.32491 17.7087 3.16585 17.7087 3C17.7087 2.83415 17.6428 2.67509 17.5256 2.55781C17.4083 2.44054 17.2492 2.37465 17.0834 2.37465C16.9175 2.37465 16.7585 2.44054 16.6412 2.55781L16.0162 3.18281C15.9287 3.27022 15.8691 3.38163 15.8449 3.50293C15.8208 3.62424 15.8331 3.74998 15.8805 3.86424C15.9278 3.97851 16.008 4.07616 16.1109 4.14483C16.2138 4.21349 16.3347 4.2501 16.4584 4.25ZM4.76619 4.06719C4.82426 4.12526 4.89319 4.17132 4.96906 4.20275C5.04493 4.23417 5.12625 4.25035 5.20837 4.25035C5.2905 4.25035 5.37181 4.23417 5.44768 4.20275C5.52356 4.17132 5.59249 4.12526 5.65056 4.06719C5.70863 4.00912 5.75469 3.94018 5.78612 3.86431C5.81755 3.78844 5.83372 3.70712 5.83372 3.625C5.83372 3.54288 5.81755 3.46156 5.78612 3.38569C5.75469 3.30982 5.70863 3.24088 5.65056 3.18281L5.02556 2.55781C4.90829 2.44054 4.74923 2.37465 4.58337 2.37465C4.41752 2.37465 4.25846 2.44054 4.14119 2.55781C4.02391 2.67509 3.95803 2.83415 3.95803 3C3.95803 3.16585 4.02391 3.32491 4.14119 3.44219L4.76619 4.06719ZM18.9584 14.25V16.125C18.9584 16.4565 18.8267 16.7745 18.5923 17.0089C18.3578 17.2433 18.0399 17.375 17.7084 17.375H3.95837C3.62685 17.375 3.30891 17.2433 3.07449 17.0089C2.84007 16.7745 2.70837 16.4565 2.70837 16.125V14.25C2.70837 13.9185 2.84007 13.6005 3.07449 13.3661C3.30891 13.1317 3.62685 13 3.95837 13V10.5C3.95835 9.59274 4.13789 8.69445 4.48666 7.8569C4.83543 7.01936 5.34653 6.25913 5.99049 5.62004C6.63444 4.98095 7.39853 4.47564 8.23869 4.13323C9.07886 3.79082 9.97848 3.61809 10.8857 3.625C14.6474 3.65313 17.7084 6.77266 17.7084 10.5781V13C18.0399 13 18.3578 13.1317 18.5923 13.3661C18.8267 13.6005 18.9584 13.9185 18.9584 14.25ZM11.3552 7.36641C12.8388 7.61562 13.9584 8.9625 13.9584 10.5C13.9584 10.6658 14.0242 10.8247 14.1414 10.9419C14.2586 11.0592 14.4176 11.125 14.5834 11.125C14.7491 11.125 14.9081 11.0592 15.0253 10.9419C15.1425 10.8247 15.2084 10.6658 15.2084 10.5C15.2084 8.35938 13.6404 6.48203 11.5615 6.13359C11.4802 6.11922 11.3969 6.12109 11.3163 6.13911C11.2357 6.15712 11.1595 6.19092 11.0921 6.23856C11.0246 6.2862 10.9673 6.34672 10.9234 6.41664C10.8795 6.48656 10.8499 6.56448 10.8362 6.64592C10.8226 6.72735 10.8252 6.81067 10.844 6.89107C10.8628 6.97148 10.8973 7.04737 10.9455 7.11436C10.9938 7.18135 11.0549 7.23812 11.1252 7.28138C11.1955 7.32464 11.2737 7.35354 11.3552 7.36641ZM17.7084 16.125V14.25H3.95837V16.125H17.7084Z" fill="#C1111A"/>
</svg>