<svg xmlns="http://www.w3.org/2000/svg" width="15" height="16" viewBox="0 0 20 21" fill="none">
  <path d="M10 5.8667V8.6417" stroke="#1151B4" stroke-miterlimit="10" stroke-linecap="round"/>
  <path d="M10.0167 2.1665C6.95004 2.1665 4.4667 4.64984 4.4667 7.7165V9.4665C4.4667 10.0332 4.23337 10.8832 3.9417 11.3665L2.88337 13.1332C2.23337 14.2248 2.68337 15.4415 3.88337 15.8415C7.8667 17.1665 12.175 17.1665 16.1584 15.8415C17.2834 15.4665 17.7667 14.1498 17.1584 13.1332L16.1 11.3665C15.8084 10.8832 15.575 10.0248 15.575 9.4665V7.7165C15.5667 4.6665 13.0667 2.1665 10.0167 2.1665Z" stroke="#1151B4" stroke-miterlimit="10" stroke-linecap="round"/>
  <path d="M12.775 16.1831C12.775 17.7081 11.525 18.9581 9.99998 18.9581C9.24164 18.9581 8.54164 18.6414 8.04164 18.1414C7.54164 17.6414 7.22498 16.9414 7.22498 16.1831" stroke="#1151B4" stroke-miterlimit="10"/>
</svg>

