<svg width="16" height="16" viewBox="0 0 16 16" fill="none" xmlns="http://www.w3.org/2000/svg">
<g id="icon/arrow_downward">
<path id="Vector" d="M8.00026 13.0498C7.91137 13.0498 7.82804 13.0359 7.75026 13.0082C7.67248 12.9804 7.60026 12.9332 7.53359 12.8665L3.13359 8.4665C3.00026 8.33317 2.93359 8.17484 2.93359 7.9915C2.93359 7.80817 3.00026 7.64984 3.13359 7.5165C3.26693 7.38317 3.42248 7.3165 3.60026 7.3165C3.77804 7.3165 3.93359 7.38317 4.06693 7.5165L7.33359 10.7832V3.3165C7.33359 3.12762 7.39748 2.97206 7.52526 2.84984C7.65304 2.72762 7.81137 2.6665 8.00026 2.6665C8.18915 2.6665 8.34748 2.73039 8.47526 2.85817C8.60304 2.98595 8.66693 3.14428 8.66693 3.33317V10.7832L11.9336 7.5165C12.0669 7.38317 12.2225 7.3165 12.4003 7.3165C12.578 7.3165 12.7336 7.38317 12.8669 7.5165C13.0003 7.64984 13.0669 7.80817 13.0669 7.9915C13.0669 8.17484 13.0003 8.33317 12.8669 8.4665L8.46693 12.8665C8.40026 12.9332 8.32804 12.9804 8.25026 13.0082C8.17248 13.0359 8.08915 13.0498 8.00026 13.0498Z" fill="#605D62"/>
</g>
</svg>
