<svg width="12" height="12" viewBox="0 0 12 12" fill="none" xmlns="http://www.w3.org/2000/svg">
<g id="icon/expand_more">
<path id="Vector" d="M5.9991 7.47488C5.93243 7.47488 5.86993 7.46446 5.8116 7.44363C5.75327 7.4228 5.6991 7.38738 5.6491 7.33738L3.3366 5.02488C3.24493 4.93321 3.20118 4.81863 3.20535 4.68113C3.20952 4.54363 3.25743 4.42905 3.3491 4.33738C3.44077 4.24571 3.55743 4.19988 3.6991 4.19988C3.84077 4.19988 3.95743 4.24571 4.0491 4.33738L5.9991 6.28738L7.9616 4.32488C8.05327 4.23321 8.16785 4.18946 8.30535 4.19363C8.44285 4.1978 8.55743 4.24571 8.6491 4.33738C8.74077 4.42905 8.7866 4.54571 8.7866 4.68738C8.7866 4.82905 8.74077 4.94571 8.6491 5.03738L6.3491 7.33738C6.2991 7.38738 6.24493 7.4228 6.1866 7.44363C6.12827 7.46446 6.06577 7.47488 5.9991 7.47488Z" fill="#1F4068"/>
</g>
</svg>
