<svg width="46" height="33" viewBox="0 0 46 33" fill="none" xmlns="http://www.w3.org/2000/svg">
<path fill-rule="evenodd" clip-rule="evenodd" d="M23.2422 22.9933C21.6402 24.3436 19.5622 25.1587 17.2915 25.1587C12.225 25.1587 8.11768 21.1003 8.11768 16.094C8.11768 11.0877 12.225 7.0293 17.2915 7.0293C19.5622 7.0293 21.6402 7.84444 23.2422 9.19474C24.8441 7.84444 26.9221 7.0293 29.1928 7.0293C34.2594 7.0293 38.3667 11.0877 38.3667 16.094C38.3667 21.1003 34.2594 25.1587 29.1928 25.1587C26.9221 25.1587 24.8441 24.3436 23.2422 22.9933Z" fill="#ED0006"/>
<path fill-rule="evenodd" clip-rule="evenodd" d="M23.2422 22.9933C25.2147 21.3306 26.4654 18.8566 26.4654 16.094C26.4654 13.3314 25.2147 10.8574 23.2422 9.19473C24.8441 7.84444 26.9221 7.0293 29.1928 7.0293C34.2594 7.0293 38.3667 11.0877 38.3667 16.094C38.3667 21.1003 34.2594 25.1587 29.1928 25.1587C26.9221 25.1587 24.8441 24.3436 23.2422 22.9933Z" fill="#F9A000"/>
<path fill-rule="evenodd" clip-rule="evenodd" d="M23.2421 22.9933C25.2146 21.3307 26.4654 18.8567 26.4654 16.0941C26.4654 13.3314 25.2146 10.8575 23.2421 9.19482C21.2697 10.8575 20.0189 13.3314 20.0189 16.0941C20.0189 18.8567 21.2697 21.3307 23.2421 22.9933Z" fill="#FF5E00"/>
</svg>
