<svg width="112" height="77" viewBox="0 0 112 77" fill="none" xmlns="http://www.w3.org/2000/svg">
<path d="M37.5 37.6499H31.5" stroke="#1151B4" stroke-width="1.3" stroke-linecap="round" stroke-linejoin="round"/>
<path d="M26.5 37.6498V33.0298C26.5 30.9898 28.15 29.3398 30.19 29.3398H35.81C37.85 29.3398 39.5 30.6098 39.5 32.6498" stroke="#1151B4" stroke-width="1.3" stroke-linecap="round" stroke-linejoin="round"/>
<path d="M41.98 38.6999C41.48 39.1799 41.24 39.9199 41.44 40.6799C41.69 41.6099 42.61 42.1999 43.57 42.1999H44.5V43.6499C44.5 45.8599 42.71 47.6499 40.5 47.6499H30.5C28.29 47.6499 26.5 45.8599 26.5 43.6499V36.6499C26.5 34.4399 28.29 32.6499 30.5 32.6499H40.5C42.7 32.6499 44.5 34.4499 44.5 36.6499V38.0999H43.42C42.86 38.0999 42.35 38.3199 41.98 38.6999Z" stroke="#1151B4" stroke-width="1.3" stroke-linecap="round" stroke-linejoin="round"/>
<path d="M46.5 39.1201V41.1801C46.5 41.7401 46.0399 42.2001 45.4699 42.2001H43.5399C42.4599 42.2001 41.47 41.4101 41.38 40.3301C41.32 39.7001 41.5599 39.1101 41.9799 38.7001C42.3499 38.3201 42.86 38.1001 43.42 38.1001H45.4699C46.0399 38.1001 46.5 38.5601 46.5 39.1201Z" stroke="#1151B4" stroke-width="1.3" stroke-linecap="round" stroke-linejoin="round"/>
<path d="M62.4786 37.1293H60.9275C60.8678 36.7978 60.7568 36.5062 60.5944 36.2543C60.432 36.0024 60.2331 35.7886 59.9978 35.6129C59.7625 35.4373 59.499 35.3047 59.2073 35.2152C58.9189 35.1257 58.6124 35.081 58.2876 35.081C57.7009 35.081 57.1756 35.2285 56.7116 35.5234C56.2509 35.8184 55.8863 36.2509 55.6178 36.821C55.3527 37.3911 55.2201 38.0871 55.2201 38.9091C55.2201 39.7377 55.3527 40.437 55.6178 41.0071C55.8863 41.5772 56.2525 42.008 56.7165 42.2997C57.1805 42.5914 57.7026 42.7372 58.2826 42.7372C58.6041 42.7372 58.909 42.6941 59.1974 42.608C59.489 42.5185 59.7525 42.3875 59.9878 42.2152C60.2232 42.0429 60.422 41.8324 60.5844 41.5838C60.7501 41.3319 60.8645 41.0436 60.9275 40.7188L62.4786 40.7237C62.3957 41.2242 62.235 41.6849 61.9964 42.1058C61.761 42.5234 61.4578 42.8847 61.0866 43.1896C60.7187 43.4912 60.2977 43.7249 59.8238 43.8906C59.3498 44.0563 58.8328 44.1392 58.2726 44.1392C57.391 44.1392 56.6055 43.9304 55.9161 43.5128C55.2267 43.0919 54.6831 42.4903 54.2854 41.7081C53.891 40.9259 53.6938 39.9929 53.6938 38.9091C53.6938 37.822 53.8927 36.889 54.2904 36.1101C54.6881 35.3279 55.2317 34.728 55.9211 34.3104C56.6105 33.8894 57.3943 33.679 58.2726 33.679C58.8129 33.679 59.3167 33.7569 59.784 33.9126C60.2546 34.0651 60.6772 34.2905 61.0518 34.5888C61.4263 34.8838 61.7362 35.245 61.9814 35.6726C62.2267 36.0968 62.3924 36.5824 62.4786 37.1293ZM66.4198 44.169C65.9359 44.169 65.4984 44.0795 65.1073 43.9006C64.7162 43.7183 64.4063 43.4548 64.1776 43.1101C63.9523 42.7654 63.8396 42.3428 63.8396 41.8423C63.8396 41.4115 63.9224 41.0568 64.0882 40.7784C64.2539 40.5 64.4776 40.2796 64.7593 40.1172C65.041 39.9548 65.3559 39.8321 65.7039 39.7493C66.0519 39.6664 66.4066 39.6035 66.7678 39.5604C67.2252 39.5073 67.5964 39.4643 67.8815 39.4311C68.1665 39.3946 68.3737 39.3366 68.5029 39.2571C68.6322 39.1776 68.6968 39.0483 68.6968 38.8693V38.8345C68.6968 38.4003 68.5742 38.0639 68.3289 37.8253C68.087 37.5866 67.7257 37.4673 67.2451 37.4673C66.7446 37.4673 66.3502 37.5784 66.0619 37.8004C65.7768 38.0192 65.5796 38.2628 65.4703 38.5312L64.0732 38.2131C64.239 37.7491 64.4809 37.3745 64.7991 37.0895C65.1206 36.8011 65.4901 36.5923 65.9078 36.4631C66.3254 36.3305 66.7645 36.2642 67.2252 36.2642C67.5302 36.2642 67.8533 36.3007 68.1947 36.3736C68.5394 36.4432 68.8609 36.5724 69.1592 36.7614C69.4608 36.9503 69.7077 37.2204 69.8999 37.5717C70.0922 37.9197 70.1883 38.3722 70.1883 38.929V44H68.7366V42.956H68.6769C68.5808 43.1482 68.4366 43.3371 68.2444 43.5227C68.0522 43.7083 67.8052 43.8625 67.5036 43.9851C67.202 44.1077 66.8408 44.169 66.4198 44.169ZM66.743 42.9759C67.154 42.9759 67.5053 42.8946 67.797 42.7322C68.0919 42.5698 68.3157 42.3577 68.4681 42.0959C68.6239 41.8307 68.7018 41.5473 68.7018 41.2457V40.2614C68.6488 40.3144 68.546 40.3641 68.3936 40.4105C68.2444 40.4536 68.0737 40.4917 67.8815 40.5249C67.6892 40.5547 67.502 40.5829 67.3197 40.6094C67.1374 40.6326 66.9849 40.6525 66.8623 40.669C66.574 40.7055 66.3105 40.7668 66.0718 40.853C65.8365 40.9392 65.6476 41.0634 65.5051 41.2259C65.3659 41.3849 65.2963 41.5971 65.2963 41.8622C65.2963 42.2301 65.4321 42.5085 65.7039 42.6974C65.9757 42.883 66.3221 42.9759 66.743 42.9759ZM77.8905 38.228L76.5432 38.4666C76.4869 38.2943 76.3974 38.1302 76.2748 37.9744C76.1555 37.8187 75.993 37.6911 75.7876 37.5916C75.5821 37.4922 75.3252 37.4425 75.017 37.4425C74.596 37.4425 74.2447 37.5369 73.963 37.7259C73.6813 37.9115 73.5404 38.1518 73.5404 38.4467C73.5404 38.7019 73.6349 38.9074 73.8238 39.0632C74.0127 39.219 74.3176 39.3466 74.7385 39.446L75.9516 39.7244C76.6543 39.8868 77.1779 40.1371 77.5226 40.4751C77.8673 40.8132 78.0397 41.2524 78.0397 41.7926C78.0397 42.25 77.9071 42.6577 77.642 43.0156C77.3801 43.3703 77.0139 43.6487 76.5432 43.8509C76.0759 44.053 75.534 44.1541 74.9175 44.1541C74.0624 44.1541 73.3647 43.9718 72.8245 43.6072C72.2842 43.2393 71.9528 42.7173 71.8302 42.0412L73.267 41.8224C73.3564 42.197 73.5404 42.4804 73.8188 42.6726C74.0972 42.8615 74.4601 42.956 74.9076 42.956C75.3948 42.956 75.7842 42.8549 76.0759 42.6527C76.3676 42.4472 76.5134 42.197 76.5134 41.902C76.5134 41.6634 76.4239 41.4628 76.2449 41.3004C76.0693 41.138 75.7992 41.0154 75.4346 40.9325L74.142 40.6491C73.4294 40.4867 72.9024 40.2282 72.561 39.8736C72.2229 39.5189 72.0539 39.0698 72.0539 38.5263C72.0539 38.0755 72.1798 37.6811 72.4317 37.343C72.6836 37.005 73.0316 36.7415 73.4758 36.5526C73.9199 36.3603 74.4287 36.2642 75.002 36.2642C75.8273 36.2642 76.4769 36.4432 76.9509 36.8011C77.4249 37.1558 77.7381 37.6314 77.8905 38.228ZM81.1606 39.4659V44H79.6741V33.8182H81.1407V37.6065H81.2352C81.4142 37.1955 81.6876 36.8691 82.0555 36.6271C82.4234 36.3852 82.904 36.2642 83.4972 36.2642C84.0209 36.2642 84.4783 36.3719 84.8694 36.5874C85.2638 36.8028 85.5687 37.1243 85.7842 37.5518C86.0029 37.9761 86.1123 38.5064 86.1123 39.1428V44H84.6258V39.3217C84.6258 38.7616 84.4816 38.3274 84.1933 38.0192C83.9049 37.7076 83.5039 37.5518 82.9901 37.5518C82.6388 37.5518 82.324 37.6264 82.0455 37.7756C81.7704 37.9247 81.5534 38.1435 81.3943 38.4318C81.2385 38.7169 81.1606 39.0616 81.1606 39.4659Z" fill="#4A4A4A"/>
</svg>
