<svg width="24" height="25" viewBox="0 0 24 25" fill="none" xmlns="http://www.w3.org/2000/svg">
<path d="M13 11.2085H7" stroke="#1151B4" stroke-width="1.3" stroke-linecap="round" stroke-linejoin="round"/>
<path d="M2 11.2084V6.58844C2 4.54844 3.65 2.89844 5.69 2.89844H11.31C13.35 2.89844 15 4.16844 15 6.20844" stroke="#1151B4" stroke-width="1.3" stroke-linecap="round" stroke-linejoin="round"/>
<path d="M17.48 12.2585C16.98 12.7385 16.74 13.4785 16.94 14.2385C17.19 15.1685 18.11 15.7585 19.07 15.7585H20V17.2085C20 19.4185 18.21 21.2085 16 21.2085H6C3.79 21.2085 2 19.4185 2 17.2085V10.2085C2 7.9985 3.79 6.2085 6 6.2085H16C18.2 6.2085 20 8.0085 20 10.2085V11.6584H18.92C18.36 11.6584 17.85 11.8785 17.48 12.2585Z" stroke="#1151B4" stroke-width="1.3" stroke-linecap="round" stroke-linejoin="round"/>
<path d="M22 12.6787V14.7387C22 15.2987 21.5399 15.7587 20.9699 15.7587H19.0399C17.9599 15.7587 16.97 14.9687 16.88 13.8887C16.82 13.2587 17.0599 12.6687 17.4799 12.2587C17.8499 11.8787 18.36 11.6587 18.92 11.6587H20.9699C21.5399 11.6587 22 12.1187 22 12.6787Z" stroke="#1151B4" stroke-width="1.3" stroke-linecap="round" stroke-linejoin="round"/>
</svg>
