<svg width="45" height="44" viewBox="0 0 45 44" fill="none" xmlns="http://www.w3.org/2000/svg">
<g id="vuesax/outline/cloud-add">
<g id="vuesax/outline/cloud-add_2">
<g id="cloud-add">
<path id="Vector" d="M14.3173 35.1651H10.857C5.55851 34.7866 3.17969 30.7136 3.17969 27.0912C3.17969 23.4688 5.55853 19.3778 10.7669 19.0173C11.5058 18.9452 12.1546 19.5219 12.2086 20.2789C12.2627 21.0178 11.7041 21.6666 10.9472 21.7206C7.45091 21.9729 5.883 24.6041 5.883 27.1092C5.883 29.6143 7.45091 32.2455 10.9472 32.4978H14.3173C15.0562 32.4978 15.669 33.1106 15.669 33.8495C15.669 34.5884 15.0562 35.1651 14.3173 35.1651Z" fill="#292D32"/>
<path id="Vector_2" d="M30.9156 35.1647C30.8795 35.1647 30.8615 35.1647 30.8255 35.1647C30.0866 35.1647 29.4018 34.552 29.4018 33.8131C29.4018 33.0381 29.9785 32.4614 30.7354 32.4614C32.9521 32.4614 34.9346 31.6865 36.4845 30.2988C39.2959 27.8478 39.4761 24.3155 38.7192 21.8284C37.9622 19.3594 35.8537 16.5299 32.1772 16.0794C31.5824 16.0073 31.1138 15.5567 31.0057 14.962C30.2848 10.6367 27.96 7.64506 24.4277 6.56374C20.7872 5.42835 16.534 6.54571 13.8847 9.32111C11.3076 12.0064 10.7129 15.773 12.2087 19.9181C12.461 20.6209 12.1006 21.3959 11.3978 21.6482C10.6949 21.9005 9.91994 21.5401 9.66763 20.8372C7.8474 15.755 8.67644 10.889 11.9384 7.46484C15.2725 3.96856 20.625 2.58085 25.2207 3.98657C29.4378 5.28416 32.4114 8.76242 33.4927 13.5923C37.1692 14.4213 40.1249 17.2148 41.2963 21.0715C42.5759 25.2706 41.4225 29.5959 38.2686 32.3353C36.2682 34.1375 33.6549 35.1647 30.9156 35.1647Z" fill="#292D32"/>
<path id="Vector_3" d="M22.4994 40.4634C18.877 40.4634 15.4889 38.535 13.6326 35.4172C13.4343 35.1108 13.2361 34.7504 13.0739 34.3539C12.4612 33.0744 12.1367 31.6146 12.1367 30.1007C12.1367 24.3877 16.7864 19.738 22.4994 19.738C28.2124 19.738 32.8621 24.3877 32.8621 30.1007C32.8621 31.6326 32.5377 33.0744 31.8889 34.408C31.7448 34.7504 31.5465 35.1109 31.3302 35.4533C29.51 38.535 26.1218 40.4634 22.4994 40.4634ZM22.4994 22.4413C18.2822 22.4413 14.84 25.8836 14.84 30.1007C14.84 31.2181 15.0743 32.2634 15.5249 33.2185C15.6691 33.5249 15.7952 33.7772 15.9393 34.0115C17.309 36.3363 19.8141 37.7601 22.4814 37.7601C25.1486 37.7601 27.6537 36.3364 29.0053 34.0476C29.1675 33.7772 29.3118 33.5249 29.4199 33.2726C29.9065 32.2814 30.1407 31.2361 30.1407 30.1187C30.1588 25.8835 26.7166 22.4413 22.4994 22.4413Z" fill="#292D32"/>
<path id="Vector_4" d="M21.4712 33.2365C21.1288 33.2365 20.7864 33.1104 20.5161 32.84L18.7318 31.0559C18.2092 30.5332 18.2092 29.6682 18.7318 29.1455C19.2545 28.6229 20.1195 28.6229 20.6422 29.1455L21.5073 30.0106L24.3908 27.3433C24.9495 26.8387 25.7965 26.8747 26.3011 27.4154C26.8057 27.9561 26.7697 28.8211 26.2291 29.3258L22.3904 32.8761C22.12 33.1104 21.7956 33.2365 21.4712 33.2365Z" fill="#292D32"/>
</g>
</g>
</g>
</svg>
