<?xml version="1.0" encoding="UTF-8"?>
<svg xmlns="http://www.w3.org/2000/svg" xmlns:xlink="http://www.w3.org/1999/xlink" width="26px" height="26px" viewBox="0 0 26 26" version="1.1">
<g id="surface1">
<path style="fill-rule:nonzero;fill:rgb(100%,100%,100%);fill-opacity:1;stroke-width:1;stroke-linecap:butt;stroke-linejoin:miter;stroke:rgb(100%,100%,100%);stroke-opacity:1;stroke-miterlimit:4;" d="M 263.901499 8.728721 C 260.865422 8.728721 258.398609 11.195534 258.398609 14.231611 L 258.398609 271.871201 C 258.398609 272.725097 258.588364 273.531555 258.967874 274.290575 L 273.816187 303.987202 C 274.717523 305.837311 276.615071 307.023279 278.702374 307.023279 C 280.789677 307.023279 282.687225 305.837311 283.635999 303.987202 L 298.484312 274.290575 C 298.863822 273.531555 299.053577 272.725097 299.053577 271.871201 L 299.053577 14.231611 C 299.053577 11.195534 296.586764 8.728721 293.550687 8.728721 Z M 288.047798 270.542917 L 278.702374 289.186327 L 269.404388 270.542917 L 269.404388 19.7345 L 288.047798 19.7345 Z M 288.047798 270.542917 " transform="matrix(0.0823431,0,0,0.0823431,0,0)"/>
<path style="fill-rule:nonzero;fill:rgb(100%,100%,100%);fill-opacity:1;stroke-width:1;stroke-linecap:butt;stroke-linejoin:miter;stroke:rgb(100%,100%,100%);stroke-opacity:1;stroke-miterlimit:4;" d="M 304.746221 48.055405 L 304.746221 135.817004 C 304.746221 138.853081 307.213034 141.319893 310.249111 141.319893 C 313.285188 141.319893 315.752 138.853081 315.752 135.817004 L 315.752 48.055405 C 315.752 45.019328 313.285188 42.552516 310.249111 42.552516 C 307.213034 42.552516 304.746221 45.019328 304.746221 48.055405 Z M 304.746221 48.055405 " transform="matrix(0.0823431,0,0,0.0823431,0,0)"/>
<path style="fill-rule:nonzero;fill:rgb(100%,100%,100%);fill-opacity:1;stroke-width:1;stroke-linecap:butt;stroke-linejoin:miter;stroke:rgb(100%,100%,100%);stroke-opacity:1;stroke-miterlimit:4;" d="M 186.528976 164.659734 L 47.201508 164.659734 C 44.165431 164.659734 41.698619 167.126547 41.698619 170.162624 C 41.698619 173.198701 44.165431 175.665513 47.201508 175.665513 L 186.528976 175.665513 C 189.565053 175.665513 192.031865 173.198701 192.031865 170.162624 C 192.031865 167.126547 189.565053 164.659734 186.528976 164.659734 Z M 186.528976 164.659734 " transform="matrix(0.0823431,0,0,0.0823431,0,0)"/>
<path style="fill-rule:nonzero;fill:rgb(100%,100%,100%);fill-opacity:1;stroke-width:1;stroke-linecap:butt;stroke-linejoin:miter;stroke:rgb(100%,100%,100%);stroke-opacity:1;stroke-miterlimit:4;" d="M 186.528976 246.064547 L 47.201508 246.064547 C 44.165431 246.064547 41.698619 248.531359 41.698619 251.567436 C 41.698619 254.603513 44.165431 257.070326 47.201508 257.070326 L 186.528976 257.070326 C 189.565053 257.070326 192.031865 254.603513 192.031865 251.567436 C 192.031865 248.531359 189.565053 246.064547 186.528976 246.064547 Z M 186.528976 246.064547 " transform="matrix(0.0823431,0,0,0.0823431,0,0)"/>
<path style="fill-rule:nonzero;fill:rgb(100%,100%,100%);fill-opacity:1;stroke-width:1;stroke-linecap:butt;stroke-linejoin:miter;stroke:rgb(100%,100%,100%);stroke-opacity:1;stroke-miterlimit:4;" d="M 186.528976 129.317901 L 47.201508 129.317901 C 44.165431 129.317901 41.698619 131.737275 41.698619 134.820791 C 41.698619 137.856868 44.165431 140.32368 47.201508 140.32368 L 186.528976 140.32368 C 189.565053 140.32368 192.031865 137.856868 192.031865 134.820791 C 192.031865 131.737275 189.565053 129.317901 186.528976 129.317901 Z M 186.528976 129.317901 " transform="matrix(0.0823431,0,0,0.0823431,0,0)"/>
<path style="fill-rule:nonzero;fill:rgb(100%,100%,100%);fill-opacity:1;stroke-width:1;stroke-linecap:butt;stroke-linejoin:miter;stroke:rgb(100%,100%,100%);stroke-opacity:1;stroke-miterlimit:4;" d="M 47.201508 104.981847 L 129.934605 104.981847 C 132.970681 104.981847 135.437494 102.515035 135.437494 99.431519 C 135.437494 96.395442 132.970681 93.976069 129.934605 93.976069 L 47.201508 93.976069 C 44.165431 93.976069 41.698619 96.395442 41.698619 99.431519 C 41.698619 102.515035 44.165431 104.981847 47.201508 104.981847 Z M 47.201508 104.981847 " transform="matrix(0.0823431,0,0,0.0823431,0,0)"/>
<path style="fill-rule:nonzero;fill:rgb(100%,100%,100%);fill-opacity:1;stroke-width:1;stroke-linecap:butt;stroke-linejoin:miter;stroke:rgb(100%,100%,100%);stroke-opacity:1;stroke-miterlimit:4;" d="M 47.201508 69.592576 L 129.934605 69.592576 C 132.970681 69.592576 135.437494 67.173202 135.437494 64.089686 C 135.437494 61.053609 132.970681 58.586797 129.934605 58.586797 L 47.201508 58.586797 C 44.165431 58.586797 41.698619 61.053609 41.698619 64.089686 C 41.698619 67.173202 44.165431 69.592576 47.201508 69.592576 Z M 47.201508 69.592576 " transform="matrix(0.0823431,0,0,0.0823431,0,0)"/>
<path style="fill-rule:nonzero;fill:rgb(100%,100%,100%);fill-opacity:1;stroke-width:1;stroke-linecap:butt;stroke-linejoin:miter;stroke:rgb(100%,100%,100%);stroke-opacity:1;stroke-miterlimit:4;" d="M 5.502889 306.548892 L 228.227595 306.548892 C 231.263672 306.548892 233.730484 304.129518 233.730484 301.093441 L 233.730484 87.856476 C 233.730484 87.856476 233.730484 87.809037 233.730484 87.809037 C 233.730484 87.666721 233.730484 87.476966 233.683046 87.287212 C 233.683046 87.144895 233.683046 87.050018 233.635607 86.907702 C 233.635607 86.860263 233.635607 86.812825 233.635607 86.765386 C 233.588168 86.62307 233.54073 86.433315 233.493291 86.290999 C 233.493291 86.290999 233.493291 86.24356 233.493291 86.24356 C 233.445852 86.101244 233.398413 85.958928 233.350975 85.816612 C 233.303536 85.769173 233.303536 85.769173 233.303536 85.721734 C 233.256097 85.579418 233.208659 85.484541 233.113781 85.342225 C 233.113781 85.294786 233.113781 85.294786 233.066343 85.247347 C 233.018904 85.15247 232.924026 85.010154 232.876588 84.915276 C 232.829149 84.867838 232.829149 84.820399 232.78171 84.77296 C 232.734272 84.678083 232.639394 84.583206 232.591956 84.488328 C 232.544517 84.440889 232.497078 84.393451 232.497078 84.346012 C 232.402201 84.251135 232.307323 84.156257 232.165007 84.013941 C 232.165007 84.013941 232.165007 83.966502 232.117569 83.966502 L 158.96709 10.768585 C 158.824774 10.673708 158.682458 10.531392 158.540142 10.436514 C 158.492703 10.389076 158.492703 10.389076 158.445264 10.341637 C 158.350387 10.24676 158.208071 10.199321 158.113194 10.104444 C 158.065755 10.104444 158.065755 10.057005 158.018316 10.057005 C 157.923439 9.962127 157.781123 9.914689 157.638806 9.819811 C 157.638806 9.819811 157.591368 9.819811 157.591368 9.819811 C 157.449052 9.724934 157.306736 9.677495 157.164419 9.582618 C 157.164419 9.582618 157.164419 9.582618 157.116981 9.582618 C 156.974665 9.535179 156.832349 9.48774 156.690032 9.440302 C 156.642594 9.392863 156.642594 9.392863 156.595155 9.392863 C 156.452839 9.345424 156.310523 9.345424 156.168207 9.297986 C 156.120768 9.297986 156.073329 9.297986 156.025891 9.250547 C 155.883575 9.250547 155.741258 9.203108 155.598942 9.203108 C 155.456626 9.203108 155.266871 9.203108 155.077117 9.203108 L 5.502889 9.203108 C 2.466812 9.203108 0 11.622482 0 14.658559 L 0 301.093441 C 0 304.129518 2.466812 306.548892 5.502889 306.548892 Z M 214.992197 82.353587 L 160.580006 82.353587 L 160.580006 27.941395 Z M 10.95834 20.161448 L 149.574227 20.161448 L 149.574227 87.856476 C 149.574227 89.327076 150.143492 90.702798 151.187143 91.74645 C 152.230794 92.742662 153.606517 93.359365 155.077117 93.359365 L 222.772144 93.311927 L 222.772144 295.590552 L 10.95834 295.590552 Z M 10.95834 20.161448 " transform="matrix(0.0823431,0,0,0.0823431,0,0)"/>
</g>
</svg>
