<svg width="20" height="20" viewBox="0 0 20 20" fill="none" xmlns="http://www.w3.org/2000/svg">
<g id="material-symbols:date-range-outline">
<path id="Vector" d="M6.66667 11.667C6.43056 11.667 6.2325 11.587 6.0725 11.427C5.9125 11.267 5.83278 11.0692 5.83333 10.8337C5.83333 10.5975 5.91333 10.3995 6.07333 10.2395C6.23334 10.0795 6.43111 9.99977 6.66667 10.0003C6.90278 10.0003 7.10083 10.0803 7.26084 10.2403C7.42084 10.4003 7.50056 10.5981 7.5 10.8337C7.5 11.0698 7.42 11.2678 7.26 11.4278C7.1 11.5878 6.90222 11.6675 6.66667 11.667ZM10 11.667C9.76389 11.667 9.56583 11.587 9.40583 11.427C9.24583 11.267 9.16611 11.0692 9.16667 10.8337C9.16667 10.5975 9.24667 10.3995 9.40667 10.2395C9.56667 10.0795 9.76445 9.99977 10 10.0003C10.2361 10.0003 10.4342 10.0803 10.5942 10.2403C10.7542 10.4003 10.8339 10.5981 10.8333 10.8337C10.8333 11.0698 10.7533 11.2678 10.5933 11.4278C10.4333 11.5878 10.2356 11.6675 10 11.667ZM13.3333 11.667C13.0972 11.667 12.8992 11.587 12.7392 11.427C12.5792 11.267 12.4994 11.0692 12.5 10.8337C12.5 10.5975 12.58 10.3995 12.74 10.2395C12.9 10.0795 13.0978 9.99977 13.3333 10.0003C13.5694 10.0003 13.7675 10.0803 13.9275 10.2403C14.0875 10.4003 14.1672 10.5981 14.1667 10.8337C14.1667 11.0698 14.0867 11.2678 13.9267 11.4278C13.7667 11.5878 13.5689 11.6675 13.3333 11.667ZM4.16667 18.3337C3.70833 18.3337 3.31583 18.1703 2.98917 17.8437C2.6625 17.517 2.49945 17.1248 2.5 16.667V5.00033C2.5 4.54199 2.66333 4.14949 2.99 3.82283C3.31667 3.49616 3.70889 3.3331 4.16667 3.33366H5V1.66699H6.66667V3.33366H13.3333V1.66699H15V3.33366H15.8333C16.2917 3.33366 16.6842 3.49699 17.0108 3.82366C17.3375 4.15033 17.5006 4.54255 17.5 5.00033V16.667C17.5 17.1253 17.3367 17.5178 17.01 17.8445C16.6833 18.1712 16.2911 18.3342 15.8333 18.3337H4.16667ZM4.16667 16.667H15.8333V8.33366H4.16667V16.667ZM4.16667 6.66699H15.8333V5.00033H4.16667V6.66699Z" fill="#787579"/>
</g>
</svg>
