<svg width="192" height="48" viewBox="0 0 192 48" fill="none" xmlns="http://www.w3.org/2000/svg">
<rect width="192" height="48" rx="8" fill="white"/>
<path d="M31.1889 24.0002V24C31.1882 22.1559 30.5649 20.366 29.42 18.9203C28.2752 17.4746 26.6758 16.4577 24.8809 16.0343C23.086 15.611 21.2008 15.806 19.5306 16.5878C17.8603 17.3695 16.5029 18.6922 15.6782 20.3417L15.658 20.3822L15.6132 20.3756C14.8057 20.2569 13.9823 20.306 13.1946 20.5199C12.4068 20.7337 11.6716 21.1076 11.0349 21.6184C10.3982 22.1291 9.87361 22.7656 9.49393 23.4882C9.11426 24.2107 8.88764 25.0038 8.82824 25.8179C8.76884 26.632 8.87793 27.4496 9.1487 28.2196C9.41947 28.9896 9.84609 29.6956 10.4019 30.2933C10.9578 30.891 11.6309 31.3677 12.3793 31.6937C13.1276 32.0196 13.9351 32.1877 14.7514 32.1875H17.0014C17.1837 32.1875 17.3586 32.1151 17.4875 31.9861C17.6164 31.8572 17.6889 31.6823 17.6889 31.5C17.6889 31.3177 17.6164 31.1428 17.4875 31.0139C17.3586 30.8849 17.1837 30.8125 17.0014 30.8125H14.7514C13.5413 30.8125 12.3808 30.3318 11.5252 29.4762C10.6696 28.6205 10.1889 27.46 10.1889 26.25C10.1889 25.0399 10.6696 23.8795 11.5252 23.0238C12.3808 22.1682 13.5413 21.6875 14.7514 21.6875H14.753C14.8551 21.6875 14.9611 21.6875 15.0667 21.6991L15.14 21.7072L15.12 21.7782C14.9165 22.5012 14.8135 23.2488 14.8139 24V24C14.8139 24.1823 14.8863 24.3572 15.0152 24.4861C15.1442 24.6151 15.319 24.6875 15.5014 24.6875C15.6837 24.6875 15.8586 24.6151 15.9875 24.4861C16.1164 24.3572 16.1889 24.1823 16.1889 24C16.1889 22.1932 16.9066 20.4604 18.1842 19.1828C19.4618 17.9052 21.1946 17.1875 23.0014 17.1875C24.8082 17.1875 26.541 17.9052 27.8185 19.1828C29.0961 20.4604 29.8138 22.1931 29.8139 23.9998C29.8139 23.9999 29.8139 23.9999 29.8139 24H29.7514L31.1889 24.0002ZM31.1889 24.0002C31.1936 25.7726 30.6185 27.498 29.5515 28.9133L29.5514 28.9134M31.1889 24.0002L29.5514 28.9134M29.5514 28.9134C29.4971 28.9856 29.4291 29.0464 29.3514 29.0924M29.5514 28.9134L29.3514 29.0924M29.3514 29.0924C29.2736 29.1384 29.1875 29.1686 29.098 29.1812M29.3514 29.0924L29.098 29.1812M29.098 29.1812C29.0085 29.1939 28.9175 29.1889 28.83 29.1664M29.098 29.1812L28.83 29.1664M28.83 29.1664C28.7424 29.1438 28.6602 29.1043 28.588 29.05M28.83 29.1664L28.588 29.05M28.588 29.05C28.5158 28.9957 28.4549 28.9278 28.409 28.85M28.588 29.05L28.409 28.85M28.409 28.85C28.363 28.7722 28.3328 28.6861 28.3201 28.5966M28.409 28.85L28.3201 28.5966M28.3201 28.5966C28.3074 28.5072 28.3125 28.4161 28.335 28.3286M28.3201 28.5966L28.335 28.3286M28.335 28.3286C28.3575 28.2411 28.397 28.1589 28.4513 28.0867L28.335 28.3286ZM22.9389 29.6897V29.8406L23.0456 29.7339L24.7649 28.0136C24.894 27.8846 25.0689 27.8121 25.2514 27.8121C25.4338 27.8121 25.6088 27.8846 25.7378 28.0136C25.8668 28.1426 25.9393 28.3175 25.9393 28.5C25.9393 28.6824 25.8668 28.8574 25.7378 28.9864L22.7378 31.9864L22.7378 31.9865C22.6739 32.0504 22.5981 32.1011 22.5147 32.1357C22.4312 32.1703 22.3417 32.1881 22.2514 32.1881C22.161 32.1881 22.0716 32.1703 21.9881 32.1357C21.9046 32.1011 21.8288 32.0504 21.765 31.9865L21.7649 31.9864L18.7649 28.9864C18.6359 28.8574 18.5635 28.6824 18.5635 28.5C18.5635 28.3175 18.6359 28.1426 18.7649 28.0136C18.894 27.8846 19.0689 27.8121 19.2514 27.8121C19.4338 27.8121 19.6088 27.8846 19.7378 28.0136C19.7378 28.0136 19.7378 28.0136 19.7378 28.0136L21.4572 29.7339L21.5639 29.8406V29.6897V24C21.5639 23.8177 21.6363 23.6428 21.7652 23.5139C21.8942 23.3849 22.069 23.3125 22.2514 23.3125C22.4337 23.3125 22.6086 23.3849 22.7375 23.5139C22.8664 23.6428 22.9389 23.8177 22.9389 24V29.6897Z" fill="#1151B4" stroke="#1151B4" stroke-width="0.125"/>
<path d="M45.707 18.88C46.891 18.88 47.9257 19.1093 48.811 19.568C49.707 20.016 50.395 20.6667 50.875 21.52C51.3657 22.3627 51.611 23.3493 51.611 24.48C51.611 25.6107 51.3657 26.592 50.875 27.424C50.395 28.256 49.707 28.896 48.811 29.344C47.9257 29.7813 46.891 30 45.707 30H42.075V18.88H45.707ZM45.707 28.512C47.0083 28.512 48.0057 28.16 48.699 27.456C49.3923 26.752 49.739 25.76 49.739 24.48C49.739 23.1893 49.3923 22.1813 48.699 21.456C48.0057 20.7307 47.0083 20.368 45.707 20.368H43.899V28.512H45.707ZM57.2428 30.144C56.4108 30.144 55.6588 29.9573 54.9868 29.584C54.3148 29.2 53.7868 28.6667 53.4028 27.984C53.0188 27.2907 52.8268 26.4907 52.8268 25.584C52.8268 24.688 53.0241 23.8933 53.4188 23.2C53.8134 22.5067 54.3521 21.9733 55.0348 21.6C55.7174 21.2267 56.4801 21.04 57.3228 21.04C58.1654 21.04 58.9281 21.2267 59.6108 21.6C60.2934 21.9733 60.8321 22.5067 61.2268 23.2C61.6214 23.8933 61.8188 24.688 61.8188 25.584C61.8188 26.48 61.6161 27.2747 61.2108 27.968C60.8054 28.6613 60.2508 29.2 59.5468 29.584C58.8534 29.9573 58.0854 30.144 57.2428 30.144ZM57.2428 28.56C57.7121 28.56 58.1494 28.448 58.5548 28.224C58.9708 28 59.3068 27.664 59.5628 27.216C59.8188 26.768 59.9468 26.224 59.9468 25.584C59.9468 24.944 59.8241 24.4053 59.5788 23.968C59.3334 23.52 59.0081 23.184 58.6028 22.96C58.1974 22.736 57.7601 22.624 57.2908 22.624C56.8214 22.624 56.3841 22.736 55.9788 22.96C55.5841 23.184 55.2694 23.52 55.0348 23.968C54.8001 24.4053 54.6828 24.944 54.6828 25.584C54.6828 26.5333 54.9228 27.2693 55.4028 27.792C55.8934 28.304 56.5068 28.56 57.2428 28.56ZM75.4619 21.184L72.7259 30H70.8059L69.0299 23.488L67.2539 30H65.3339L62.5819 21.184H64.4379L66.2779 28.272L68.1499 21.184H70.0539L71.8459 28.24L73.6699 21.184H75.4619ZM81.273 21.04C81.9663 21.04 82.585 21.184 83.129 21.472C83.6837 21.76 84.1157 22.1867 84.425 22.752C84.7343 23.3173 84.889 24 84.889 24.8V30H83.081V25.072C83.081 24.2827 82.8837 23.68 82.489 23.264C82.0943 22.8373 81.5557 22.624 80.873 22.624C80.1903 22.624 79.6463 22.8373 79.241 23.264C78.8463 23.68 78.649 24.2827 78.649 25.072V30H76.825V21.184H78.649V22.192C78.9477 21.8293 79.3263 21.5467 79.785 21.344C80.2543 21.1413 80.7503 21.04 81.273 21.04ZM89.0396 18.16V30H87.2156V18.16H89.0396ZM95.2584 30.144C94.4264 30.144 93.6744 29.9573 93.0024 29.584C92.3304 29.2 91.8024 28.6667 91.4184 27.984C91.0344 27.2907 90.8424 26.4907 90.8424 25.584C90.8424 24.688 91.0397 23.8933 91.4344 23.2C91.829 22.5067 92.3677 21.9733 93.0504 21.6C93.733 21.2267 94.4957 21.04 95.3384 21.04C96.181 21.04 96.9437 21.2267 97.6264 21.6C98.309 21.9733 98.8477 22.5067 99.2424 23.2C99.637 23.8933 99.8344 24.688 99.8344 25.584C99.8344 26.48 99.6317 27.2747 99.2264 27.968C98.821 28.6613 98.2664 29.2 97.5624 29.584C96.869 29.9573 96.101 30.144 95.2584 30.144ZM95.2584 28.56C95.7277 28.56 96.165 28.448 96.5704 28.224C96.9864 28 97.3224 27.664 97.5784 27.216C97.8344 26.768 97.9624 26.224 97.9624 25.584C97.9624 24.944 97.8397 24.4053 97.5944 23.968C97.349 23.52 97.0237 23.184 96.6184 22.96C96.213 22.736 95.7757 22.624 95.3064 22.624C94.837 22.624 94.3997 22.736 93.9944 22.96C93.5997 23.184 93.285 23.52 93.0504 23.968C92.8157 24.4053 92.6984 24.944 92.6984 25.584C92.6984 26.5333 92.9384 27.2693 93.4184 27.792C93.909 28.304 94.5224 28.56 95.2584 28.56ZM101.03 25.552C101.03 24.6667 101.211 23.8827 101.574 23.2C101.947 22.5173 102.448 21.9893 103.078 21.616C103.718 21.232 104.422 21.04 105.19 21.04C105.883 21.04 106.486 21.1787 106.998 21.456C107.52 21.7227 107.936 22.0587 108.246 22.464V21.184H110.086V30H108.246V28.688C107.936 29.104 107.515 29.4507 106.982 29.728C106.448 30.0053 105.84 30.144 105.158 30.144C104.4 30.144 103.707 29.952 103.078 29.568C102.448 29.1733 101.947 28.6293 101.574 27.936C101.211 27.232 101.03 26.4373 101.03 25.552ZM108.246 25.584C108.246 24.976 108.118 24.448 107.862 24C107.616 23.552 107.291 23.2107 106.886 22.976C106.48 22.7413 106.043 22.624 105.574 22.624C105.104 22.624 104.667 22.7413 104.262 22.976C103.856 23.2 103.526 23.536 103.27 23.984C103.024 24.4213 102.902 24.944 102.902 25.552C102.902 26.16 103.024 26.6933 103.27 27.152C103.526 27.6107 103.856 27.9627 104.262 28.208C104.678 28.4427 105.115 28.56 105.574 28.56C106.043 28.56 106.48 28.4427 106.886 28.208C107.291 27.9733 107.616 27.632 107.862 27.184C108.118 26.7253 108.246 26.192 108.246 25.584ZM111.873 25.552C111.873 24.6667 112.055 23.8827 112.417 23.2C112.791 22.5173 113.292 21.9893 113.921 21.616C114.561 21.232 115.271 21.04 116.049 21.04C116.625 21.04 117.191 21.168 117.745 21.424C118.311 21.6693 118.759 22 119.089 22.416V18.16H120.929V30H119.089V28.672C118.791 29.0987 118.375 29.4507 117.841 29.728C117.319 30.0053 116.716 30.144 116.033 30.144C115.265 30.144 114.561 29.952 113.921 29.568C113.292 29.1733 112.791 28.6293 112.417 27.936C112.055 27.232 111.873 26.4373 111.873 25.552ZM119.089 25.584C119.089 24.976 118.961 24.448 118.705 24C118.46 23.552 118.135 23.2107 117.729 22.976C117.324 22.7413 116.887 22.624 116.417 22.624C115.948 22.624 115.511 22.7413 115.105 22.976C114.7 23.2 114.369 23.536 114.113 23.984C113.868 24.4213 113.745 24.944 113.745 25.552C113.745 26.16 113.868 26.6933 114.113 27.152C114.369 27.6107 114.7 27.9627 115.105 28.208C115.521 28.4427 115.959 28.56 116.417 28.56C116.887 28.56 117.324 28.4427 117.729 28.208C118.135 27.9733 118.46 27.632 118.705 27.184C118.961 26.7253 119.089 26.192 119.089 25.584ZM129.305 18.88V30H127.481V18.88H129.305ZM136.148 21.04C136.841 21.04 137.46 21.184 138.004 21.472C138.559 21.76 138.991 22.1867 139.3 22.752C139.609 23.3173 139.764 24 139.764 24.8V30H137.956V25.072C137.956 24.2827 137.759 23.68 137.364 23.264C136.969 22.8373 136.431 22.624 135.748 22.624C135.065 22.624 134.521 22.8373 134.116 23.264C133.721 23.68 133.524 24.2827 133.524 25.072V30H131.7V21.184H133.524V22.192C133.823 21.8293 134.201 21.5467 134.66 21.344C135.129 21.1413 135.625 21.04 136.148 21.04ZM145.499 28.368L147.995 21.184H149.931L146.571 30H144.395L141.051 21.184H143.003L145.499 28.368ZM155.133 30.144C154.301 30.144 153.549 29.9573 152.877 29.584C152.205 29.2 151.677 28.6667 151.293 27.984C150.909 27.2907 150.717 26.4907 150.717 25.584C150.717 24.688 150.915 23.8933 151.309 23.2C151.704 22.5067 152.243 21.9733 152.925 21.6C153.608 21.2267 154.371 21.04 155.213 21.04C156.056 21.04 156.819 21.2267 157.501 21.6C158.184 21.9733 158.723 22.5067 159.117 23.2C159.512 23.8933 159.709 24.688 159.709 25.584C159.709 26.48 159.507 27.2747 159.101 27.968C158.696 28.6613 158.141 29.2 157.437 29.584C156.744 29.9573 155.976 30.144 155.133 30.144ZM155.133 28.56C155.603 28.56 156.04 28.448 156.445 28.224C156.861 28 157.197 27.664 157.453 27.216C157.709 26.768 157.837 26.224 157.837 25.584C157.837 24.944 157.715 24.4053 157.469 23.968C157.224 23.52 156.899 23.184 156.493 22.96C156.088 22.736 155.651 22.624 155.181 22.624C154.712 22.624 154.275 22.736 153.869 22.96C153.475 23.184 153.16 23.52 152.925 23.968C152.691 24.4053 152.573 24.944 152.573 25.584C152.573 26.5333 152.813 27.2693 153.293 27.792C153.784 28.304 154.397 28.56 155.133 28.56ZM162.441 20.016C162.11 20.016 161.833 19.904 161.609 19.68C161.385 19.456 161.273 19.1787 161.273 18.848C161.273 18.5173 161.385 18.24 161.609 18.016C161.833 17.792 162.11 17.68 162.441 17.68C162.761 17.68 163.033 17.792 163.257 18.016C163.481 18.24 163.593 18.5173 163.593 18.848C163.593 19.1787 163.481 19.456 163.257 19.68C163.033 19.904 162.761 20.016 162.441 20.016ZM163.337 21.184V30H161.513V21.184H163.337ZM165.123 25.584C165.123 24.6773 165.305 23.8827 165.667 23.2C166.041 22.5067 166.553 21.9733 167.203 21.6C167.854 21.2267 168.601 21.04 169.443 21.04C170.51 21.04 171.39 21.296 172.083 21.808C172.787 22.3093 173.262 23.0293 173.507 23.968H171.539C171.379 23.5307 171.123 23.1893 170.771 22.944C170.419 22.6987 169.977 22.576 169.443 22.576C168.697 22.576 168.099 22.8427 167.651 23.376C167.214 23.8987 166.995 24.6347 166.995 25.584C166.995 26.5333 167.214 27.2747 167.651 27.808C168.099 28.3413 168.697 28.608 169.443 28.608C170.499 28.608 171.198 28.144 171.539 27.216H173.507C173.251 28.112 172.771 28.8267 172.067 29.36C171.363 29.8827 170.489 30.144 169.443 30.144C168.601 30.144 167.854 29.9573 167.203 29.584C166.553 29.2 166.041 28.6667 165.667 27.984C165.305 27.2907 165.123 26.4907 165.123 25.584ZM183.405 25.376C183.405 25.7067 183.384 26.0053 183.341 26.272H176.605C176.658 26.976 176.92 27.5413 177.389 27.968C177.858 28.3947 178.434 28.608 179.117 28.608C180.098 28.608 180.792 28.1973 181.197 27.376H183.165C182.898 28.1867 182.413 28.8533 181.709 29.376C181.016 29.888 180.152 30.144 179.117 30.144C178.274 30.144 177.517 29.9573 176.845 29.584C176.184 29.2 175.661 28.6667 175.277 27.984C174.904 27.2907 174.717 26.4907 174.717 25.584C174.717 24.6773 174.898 23.8827 175.261 23.2C175.634 22.5067 176.152 21.9733 176.813 21.6C177.485 21.2267 178.253 21.04 179.117 21.04C179.949 21.04 180.69 21.2213 181.341 21.584C181.992 21.9467 182.498 22.4587 182.861 23.12C183.224 23.7707 183.405 24.5227 183.405 25.376ZM181.501 24.8C181.49 24.128 181.25 23.5893 180.781 23.184C180.312 22.7787 179.73 22.576 179.037 22.576C178.408 22.576 177.869 22.7787 177.421 23.184C176.973 23.5787 176.706 24.1173 176.621 24.8H181.501Z" fill="#1151B4"/>
</svg>
