<svg width="14" height="14" viewBox="0 0 14 14" fill="none" xmlns="http://www.w3.org/2000/svg">
<path d="M7.00004 9.97908C6.88893 9.97908 6.78476 9.96172 6.68754 9.927C6.59032 9.89228 6.50004 9.83325 6.41671 9.74992L3.41671 6.74992C3.26393 6.59714 3.18754 6.4027 3.18754 6.16658C3.18754 5.93047 3.26393 5.73603 3.41671 5.58325C3.56948 5.43047 3.7674 5.35061 4.01046 5.34367C4.25351 5.33672 4.45143 5.40964 4.60421 5.56242L6.16671 7.12492V1.16659C6.16671 0.930474 6.24657 0.732557 6.40629 0.572835C6.56601 0.413113 6.76393 0.333252 7.00004 0.333252C7.23615 0.333252 7.43407 0.413113 7.59379 0.572835C7.75351 0.732557 7.83337 0.930474 7.83337 1.16659V7.12492L9.39587 5.56242C9.54865 5.40964 9.74657 5.33672 9.98962 5.34367C10.2327 5.35061 10.4306 5.43047 10.5834 5.58325C10.7362 5.73603 10.8125 5.93047 10.8125 6.16658C10.8125 6.4027 10.7362 6.59714 10.5834 6.74992L7.58337 9.74992C7.50004 9.83325 7.40976 9.89228 7.31254 9.927C7.21532 9.96172 7.11115 9.97908 7.00004 9.97908ZM2.00004 13.6666C1.54171 13.6666 1.14935 13.5034 0.822957 13.177C0.496568 12.8506 0.333374 12.4583 0.333374 11.9999V10.3333C0.333374 10.0971 0.413235 9.89922 0.572957 9.7395C0.73268 9.57978 0.930596 9.49992 1.16671 9.49992C1.40282 9.49992 1.60074 9.57978 1.76046 9.7395C1.92018 9.89922 2.00004 10.0971 2.00004 10.3333V11.9999H12V10.3333C12 10.0971 12.0799 9.89922 12.2396 9.7395C12.3993 9.57978 12.5973 9.49992 12.8334 9.49992C13.0695 9.49992 13.2674 9.57978 13.4271 9.7395C13.5868 9.89922 13.6667 10.0971 13.6667 10.3333V11.9999C13.6667 12.4583 13.5035 12.8506 13.1771 13.177C12.8507 13.5034 12.4584 13.6666 12 13.6666H2.00004Z" fill="#1F4068"/>
</svg>
