<svg width="32" height="32" viewBox="0 0 32 32" fill="none" xmlns="http://www.w3.org/2000/svg">
<rect x="0.615194" y="0.615194" width="30.7696" height="30.7696" rx="7.38481" stroke="#EBEBEB" stroke-width="1.23039"/>
<path d="M15.166 7.6665H13.4993C9.33268 7.6665 7.66602 9.33317 7.66602 13.4998V18.4998C7.66602 22.6665 9.33268 24.3332 13.4993 24.3332H18.4993C22.666 24.3332 24.3327 22.6665 24.3327 18.4998V16.8332" stroke="#0A0C0F" stroke-width="1.2" stroke-linecap="round" stroke-linejoin="round"/>
<path d="M19.3675 8.51688L12.8009 15.0835C12.5509 15.3335 12.3009 15.8252 12.2509 16.1835L11.8925 18.6919C11.7592 19.6002 12.4009 20.2335 13.3092 20.1085L15.8175 19.7502C16.1675 19.7002 16.6592 19.4502 16.9175 19.2002L23.4842 12.6335C24.6175 11.5002 25.1509 10.1835 23.4842 8.51688C21.8175 6.85021 20.5009 7.38354 19.3675 8.51688Z" stroke="#0A0C0F" stroke-width="1.2" stroke-miterlimit="10" stroke-linecap="round" stroke-linejoin="round"/>
<path d="M18.4258 9.4585C18.9841 11.4502 20.5424 13.0085 22.5424 13.5752" stroke="#0A0C0F" stroke-width="1.2" stroke-miterlimit="10" stroke-linecap="round" stroke-linejoin="round"/>
</svg>
