<svg width="20" height="20" viewBox="0 0 20 20" fill="none" xmlns="http://www.w3.org/2000/svg">
<g id="fluent:time-picker-20-filled">
<path id="Vector" d="M10.475 2.17008C10.341 2.06041 10.1732 2.00049 10 2.00049C9.82684 2.00049 9.65901 2.06041 9.525 2.17008L6.775 4.42008C6.62769 4.54805 6.53605 4.72841 6.51955 4.92285C6.50305 5.11728 6.56298 5.3105 6.68662 5.46147C6.81026 5.61244 6.98787 5.70928 7.18175 5.73142C7.37562 5.75357 7.5705 5.69928 7.725 5.58008L10 3.72008L12.275 5.58008C12.3507 5.64587 12.4389 5.69581 12.5343 5.72692C12.6297 5.75803 12.7303 5.76969 12.8303 5.7612C12.9303 5.75272 13.0275 5.72426 13.1163 5.67752C13.205 5.63078 13.2835 5.56671 13.3471 5.48909C13.4107 5.41147 13.458 5.32189 13.4863 5.22564C13.5147 5.1294 13.5234 5.02845 13.512 4.92877C13.5006 4.8291 13.4694 4.73272 13.4201 4.64534C13.3708 4.55796 13.3044 4.48136 13.225 4.42008L10.475 2.17008ZM13.225 15.5801L10.475 17.8301C10.341 17.9397 10.1732 17.9997 10 17.9997C9.82684 17.9997 9.65901 17.9397 9.525 17.8301L6.775 15.5801C6.62769 15.4521 6.53605 15.2718 6.51955 15.0773C6.50305 14.8829 6.56298 14.6897 6.68662 14.5387C6.81026 14.3877 6.98787 14.2909 7.18175 14.2687C7.37562 14.2466 7.5705 14.3009 7.725 14.4201L10 16.2801L12.275 14.4191C12.3507 14.3533 12.4389 14.3034 12.5343 14.2722C12.6297 14.2411 12.7303 14.2295 12.8303 14.238C12.9303 14.2464 13.0275 14.2749 13.1163 14.3216C13.205 14.3684 13.2835 14.4325 13.3471 14.5101C13.4107 14.5877 13.458 14.6773 13.4863 14.7735C13.5147 14.8698 13.5234 14.9707 13.512 15.0704C13.5006 15.1701 13.4694 15.2664 13.4201 15.3538C13.3708 15.4412 13.3044 15.5188 13.225 15.5801ZM10.75 8.75008C10.75 8.94899 10.671 9.13976 10.5303 9.28041C10.3897 9.42106 10.1989 9.50008 10 9.50008C9.80109 9.50008 9.61032 9.42106 9.46967 9.28041C9.32902 9.13976 9.25 8.94899 9.25 8.75008C9.25 8.55117 9.32902 8.3604 9.46967 8.21975C9.61032 8.0791 9.80109 8.00008 10 8.00008C10.1989 8.00008 10.3897 8.0791 10.5303 8.21975C10.671 8.3604 10.75 8.55117 10.75 8.75008ZM10 12.0001C10.1989 12.0001 10.3897 11.9211 10.5303 11.7804C10.671 11.6398 10.75 11.449 10.75 11.2501C10.75 11.0512 10.671 10.8604 10.5303 10.7197C10.3897 10.5791 10.1989 10.5001 10 10.5001C9.80109 10.5001 9.61032 10.5791 9.46967 10.7197C9.32902 10.8604 9.25 11.0512 9.25 11.2501C9.25 11.449 9.32902 11.6398 9.46967 11.7804C9.61032 11.9211 9.80109 12.0001 10 12.0001ZM16 9.50008C16 9.10225 16.158 8.72072 16.4393 8.43942C16.7206 8.15811 17.1022 8.00008 17.5 8.00008C17.8978 8.00008 18.2794 8.15811 18.5607 8.43942C18.842 8.72072 19 9.10225 19 9.50008V10.5001C19 10.8979 18.842 11.2794 18.5607 11.5607C18.2794 11.842 17.8978 12.0001 17.5 12.0001C17.1022 12.0001 16.7206 11.842 16.4393 11.5607C16.158 11.2794 16 10.8979 16 10.5001V9.50008ZM17.5 9.00008C17.3674 9.00008 17.2402 9.05276 17.1464 9.14653C17.0527 9.24029 17 9.36747 17 9.50008V10.5001C17 10.6327 17.0527 10.7599 17.1464 10.8536C17.2402 10.9474 17.3674 11.0001 17.5 11.0001C17.6326 11.0001 17.7598 10.9474 17.8536 10.8536C17.9473 10.7599 18 10.6327 18 10.5001V9.50008C18 9.36747 17.9473 9.24029 17.8536 9.14653C17.7598 9.05276 17.6326 9.00008 17.5 9.00008ZM6.5 8.00008C6.10218 8.00008 5.72064 8.15811 5.43934 8.43942C5.15804 8.72072 5 9.10225 5 9.50008V10.5001C5 10.8979 5.15804 11.2794 5.43934 11.5607C5.72064 11.842 6.10218 12.0001 6.5 12.0001C6.89782 12.0001 7.27936 11.842 7.56066 11.5607C7.84196 11.2794 8 10.8979 8 10.5001V9.50008C8 9.10225 7.84196 8.72072 7.56066 8.43942C7.27936 8.15811 6.89782 8.00008 6.5 8.00008ZM6 9.50008C6 9.36747 6.05268 9.24029 6.14645 9.14653C6.24021 9.05276 6.36739 9.00008 6.5 9.00008C6.63261 9.00008 6.75979 9.05276 6.85355 9.14653C6.94732 9.24029 7 9.36747 7 9.50008V10.5001C7 10.6327 6.94732 10.7599 6.85355 10.8536C6.75979 10.9474 6.63261 11.0001 6.5 11.0001C6.36739 11.0001 6.24021 10.9474 6.14645 10.8536C6.05268 10.7599 6 10.6327 6 10.5001V9.50008ZM12 9.50008C12 9.10225 12.158 8.72072 12.4393 8.43942C12.7206 8.15811 13.1022 8.00008 13.5 8.00008C13.8978 8.00008 14.2794 8.15811 14.5607 8.43942C14.842 8.72072 15 9.10225 15 9.50008V10.5001C15 10.8979 14.842 11.2794 14.5607 11.5607C14.2794 11.842 13.8978 12.0001 13.5 12.0001C13.1022 12.0001 12.7206 11.842 12.4393 11.5607C12.158 11.2794 12 10.8979 12 10.5001V9.50008ZM13.5 9.00008C13.3674 9.00008 13.2402 9.05276 13.1464 9.14653C13.0527 9.24029 13 9.36747 13 9.50008V10.5001C13 10.6327 13.0527 10.7599 13.1464 10.8536C13.2402 10.9474 13.3674 11.0001 13.5 11.0001C13.6326 11.0001 13.7598 10.9474 13.8536 10.8536C13.9473 10.7599 14 10.6327 14 10.5001V9.50008C14 9.36747 13.9473 9.24029 13.8536 9.14653C13.7598 9.05276 13.6326 9.00008 13.5 9.00008ZM2.5 8.00008C2.10218 8.00008 1.72064 8.15811 1.43934 8.43942C1.15804 8.72072 1 9.10225 1 9.50008V10.5001C1 10.8979 1.15804 11.2794 1.43934 11.5607C1.72064 11.842 2.10218 12.0001 2.5 12.0001C2.89782 12.0001 3.27936 11.842 3.56066 11.5607C3.84196 11.2794 4 10.8979 4 10.5001V9.50008C4 9.10225 3.84196 8.72072 3.56066 8.43942C3.27936 8.15811 2.89782 8.00008 2.5 8.00008ZM2 9.50008C2 9.36747 2.05268 9.24029 2.14645 9.14653C2.24021 9.05276 2.36739 9.00008 2.5 9.00008C2.63261 9.00008 2.75979 9.05276 2.85355 9.14653C2.94732 9.24029 3 9.36747 3 9.50008V10.5001C3 10.6327 2.94732 10.7599 2.85355 10.8536C2.75979 10.9474 2.63261 11.0001 2.5 11.0001C2.36739 11.0001 2.24021 10.9474 2.14645 10.8536C2.05268 10.7599 2 10.6327 2 10.5001V9.50008Z" fill="#605D62"/>
</g>
</svg>
