<svg width="71" height="32" viewBox="0 0 71 32" fill="none" xmlns="http://www.w3.org/2000/svg">
<rect x="0.5" y="0.5" width="70" height="31" rx="7.5" stroke="#E7EEF8"/>
<rect x="8" y="12" width="8" height="8" rx="4" fill="#16814A"/>
<path d="M26.646 12.058V14.914H30.006V16.216H26.646V19.198H30.426V20.5H25.05V10.756H30.426V12.058H26.646ZM35.3738 19.072L37.5578 12.786H39.2518L36.3118 20.5H34.4078L31.4818 12.786H33.1898L35.3738 19.072ZM47.5282 16.454C47.5282 16.7433 47.5095 17.0047 47.4722 17.238H41.5782C41.6249 17.854 41.8535 18.3487 42.2642 18.722C42.6749 19.0953 43.1789 19.282 43.7762 19.282C44.6349 19.282 45.2415 18.9227 45.5962 18.204H47.3182C47.0849 18.9133 46.6602 19.4967 46.0442 19.954C45.4375 20.402 44.6815 20.626 43.7762 20.626C43.0389 20.626 42.3762 20.4627 41.7882 20.136C41.2095 19.8 40.7522 19.3333 40.4162 18.736C40.0895 18.1293 39.9262 17.4293 39.9262 16.636C39.9262 15.8427 40.0849 15.1473 40.4022 14.55C40.7289 13.9433 41.1815 13.4767 41.7602 13.15C42.3482 12.8233 43.0202 12.66 43.7762 12.66C44.5042 12.66 45.1529 12.8187 45.7222 13.136C46.2915 13.4533 46.7349 13.9013 47.0522 14.48C47.3695 15.0493 47.5282 15.7073 47.5282 16.454ZM45.8622 15.95C45.8529 15.362 45.6429 14.8907 45.2322 14.536C44.8215 14.1813 44.3129 14.004 43.7062 14.004C43.1555 14.004 42.6842 14.1813 42.2922 14.536C41.9002 14.8813 41.6669 15.3527 41.5922 15.95H45.8622ZM52.9908 12.66C53.5975 12.66 54.1388 12.786 54.6148 13.038C55.1002 13.29 55.4782 13.6633 55.7488 14.158C56.0195 14.6527 56.1548 15.25 56.1548 15.95V20.5H54.5728V16.188C54.5728 15.4973 54.4002 14.97 54.0548 14.606C53.7095 14.2327 53.2382 14.046 52.6408 14.046C52.0435 14.046 51.5675 14.2327 51.2128 14.606C50.8675 14.97 50.6948 15.4973 50.6948 16.188V20.5H49.0988V12.786H50.6948V13.668C50.9562 13.3507 51.2875 13.1033 51.6888 12.926C52.0995 12.7487 52.5335 12.66 52.9908 12.66ZM60.0526 14.088V18.358C60.0526 18.6473 60.118 18.8573 60.2486 18.988C60.3886 19.1093 60.622 19.17 60.9486 19.17H61.9286V20.5H60.6686C59.95 20.5 59.3993 20.332 59.0166 19.996C58.634 19.66 58.4426 19.114 58.4426 18.358V14.088H57.5326V12.786H58.4426V10.868H60.0526V12.786H61.9286V14.088H60.0526Z" fill="#16814A"/>
</svg>
