<svg width="24" height="24" viewBox="0 0 24 24" fill="none" xmlns="http://www.w3.org/2000/svg">
<g id="icon/expand_more">
<path id="Vector" d="M11.9982 14.9498C11.8649 14.9498 11.7399 14.9289 11.6232 14.8873C11.5065 14.8456 11.3982 14.7748 11.2982 14.6748L6.6732 10.0498C6.48987 9.86643 6.40237 9.63726 6.4107 9.36226C6.41903 9.08726 6.51487 8.8581 6.6982 8.67476C6.88153 8.49143 7.11487 8.39976 7.3982 8.39976C7.68153 8.39976 7.91487 8.49143 8.0982 8.67476L11.9982 12.5748L15.9232 8.64976C16.1065 8.46643 16.3357 8.37893 16.6107 8.38726C16.8857 8.3956 17.1149 8.49143 17.2982 8.67476C17.4815 8.8581 17.5732 9.09143 17.5732 9.37476C17.5732 9.6581 17.4815 9.89143 17.2982 10.0748L12.6982 14.6748C12.5982 14.7748 12.4899 14.8456 12.3732 14.8873C12.2565 14.9289 12.1315 14.9498 11.9982 14.9498Z" fill="#787579"/>
</g>
</svg>
