<svg width="26" height="26" viewBox="0 0 26 26" fill="none" xmlns="http://www.w3.org/2000/svg">
<path d="M25.0014 8.35937C24.9328 8.73379 24.8842 9.11406 24.7916 9.48262C24.4627 10.811 23.731 12.0053 22.6969 12.9016C22.6185 12.962 22.5562 13.0407 22.5153 13.1308C22.4744 13.2209 22.4563 13.3196 22.4625 13.4184C22.4777 14.1836 22.466 14.9494 22.4701 15.7152C22.4701 15.9525 22.4115 16.1535 22.1771 16.2502C21.9428 16.3469 21.7553 16.2443 21.5912 16.0779C21.0844 15.5687 20.5723 15.0643 20.0678 14.5545C19.9652 14.4508 19.8773 14.4115 19.7244 14.4479C18.733 14.6822 17.7246 14.6471 16.7174 14.6113C15.5005 14.5765 14.3181 14.1992 13.306 13.5227C11.6326 12.4129 10.5873 10.8689 10.2902 8.87617C9.92167 6.40176 10.7074 4.31582 12.5719 2.65527C13.6266 1.71484 14.8881 1.19922 16.2902 1.04102C16.3664 1.03223 16.4414 1.01406 16.517 1H18.6732C18.7488 1.01406 18.825 1.02637 18.9 1.0416C19.3576 1.13652 19.8316 1.1834 20.2693 1.33457C22.6576 2.17188 24.1863 3.8125 24.8133 6.27344C24.9012 6.61914 24.9398 6.97656 25.0014 7.32812V8.35937ZM21.5326 14.6963C21.5326 14.2217 21.5672 13.8127 21.5244 13.4113C21.4658 12.8717 21.6762 12.5254 22.0869 12.1809C23.2119 11.2305 23.8412 9.98301 24.0141 8.52344C24.2045 6.91211 23.7973 5.45312 22.7918 4.17871C21.8607 2.99863 20.6443 2.25039 19.1502 2.03887C18.4359 1.9375 17.7035 1.9498 16.9787 1.94277C16.1791 1.92998 15.3869 2.09719 14.6607 2.43203C12.7324 3.32793 11.5312 4.81563 11.2131 6.92734C10.8779 9.15391 11.6432 10.9996 13.381 12.4217C14.3643 13.2273 15.5156 13.6346 16.7894 13.675C17.7961 13.7066 18.8057 13.7553 19.7883 13.4629C20.0812 13.3762 20.2986 13.4424 20.5037 13.6586C20.8225 13.9973 21.1576 14.3213 21.5326 14.6963Z" fill="#D2D9E1" stroke="#D2D9E1" stroke-width="0.5"/>
<path d="M1.00117 12.0626C1.16641 11.6132 1.26836 11.1251 1.50859 10.7208C2.09043 9.74116 2.9957 9.19741 4.13418 9.17104C5.74258 9.13061 7.35215 9.15639 8.96172 9.15815C9.26816 9.15815 9.47676 9.35385 9.48203 9.61752C9.48731 9.89643 9.26699 10.0921 8.93008 10.0927C7.43789 10.0951 5.9457 10.0951 4.45352 10.0927C2.94121 10.0927 1.93926 11.0888 1.93867 12.5953C1.93867 14.8999 1.93867 17.2046 1.93867 19.5093C1.93867 20.9888 2.94473 21.9978 4.42012 21.999C5.34941 21.999 6.2793 22.0019 7.20918 21.999C7.43711 21.999 7.59414 22.0816 7.75234 22.2539C8.10039 22.6306 8.48184 22.9763 8.87676 23.3613C8.87676 23.0894 8.87676 22.8369 8.87676 22.5843C8.88027 22.1742 9.05254 22.0025 9.4668 22.0019C11.0605 22.0019 12.6543 22.0019 14.248 22.0019C15.7439 22.0019 16.75 20.9999 16.7506 19.5105C16.7506 18.5414 16.7506 17.5726 16.7506 16.6042C16.7477 16.5108 16.7545 16.4173 16.7711 16.3253C16.7916 16.2225 16.8469 16.1299 16.9276 16.063C17.0084 15.9962 17.1097 15.9591 17.2145 15.9582C17.3194 15.9572 17.4214 15.9924 17.5033 16.0577C17.5853 16.1231 17.6423 16.2147 17.6646 16.3171C17.6811 16.3941 17.6884 16.4728 17.6863 16.5515C17.6863 17.5828 17.6945 18.614 17.6863 19.6453C17.6729 21.2273 16.6369 22.5164 15.0936 22.8603C14.8262 22.9153 14.5538 22.9414 14.2809 22.9382C12.8043 22.9458 11.3277 22.9417 9.81309 22.9417V23.5699C9.81309 23.8353 9.8002 24.1019 9.8166 24.3662C9.83418 24.6527 9.74102 24.8671 9.48496 25.0042H9.2043C9.04785 24.866 8.88496 24.7347 8.73555 24.5882C8.23047 24.0902 7.73477 23.5822 7.22441 23.0894C7.13052 23.0046 7.01031 22.9548 6.88398 22.9482C5.97168 22.9353 5.0582 22.9669 4.14766 22.9306C3.00215 22.8849 2.0916 22.3605 1.50566 21.3749C1.26602 20.9706 1.16465 20.4843 1 20.0355L1.00117 12.0626Z" fill="#D2D9E1" stroke="#D2D9E1" stroke-width="0.5"/>
<path d="M8.92291 16.4686H4.18912C4.11091 16.4717 4.03258 16.4692 3.95474 16.461C3.83954 16.4509 3.7323 16.398 3.65418 16.3128C3.57605 16.2275 3.53271 16.1161 3.53271 16.0005C3.53271 15.8848 3.57605 15.7734 3.65418 15.6881C3.7323 15.6029 3.83954 15.55 3.95474 15.5399C4.03259 15.5319 4.1109 15.5291 4.18912 15.5317H13.7504C14.1307 15.5317 14.3569 15.7075 14.3569 16.0005C14.3569 16.2934 14.1307 16.4692 13.7504 16.4692C12.1415 16.4688 10.5323 16.4686 8.92291 16.4686Z" fill="#D2D9E1" stroke="#D2D9E1" stroke-width="0.5"/>
<path d="M8.05606 18.1562C9.32872 18.1562 10.6014 18.1562 11.874 18.1562C11.9828 18.1531 12.0915 18.1651 12.1969 18.192C12.2889 18.2162 12.3699 18.2712 12.4263 18.3478C12.4828 18.4245 12.5112 18.5182 12.5068 18.6133C12.5104 18.8271 12.4072 18.9924 12.1934 19.0557C12.0879 19.0821 11.9792 19.0939 11.8705 19.0908C9.30918 19.0908 6.74805 19.0908 4.18711 19.0908H4.1168C3.75821 19.0867 3.53497 18.9057 3.53614 18.6221C3.53731 18.3385 3.76055 18.1533 4.12207 18.1533C5.43301 18.1545 6.74434 18.1555 8.05606 18.1562Z" fill="#D2D9E1" stroke="#D2D9E1" stroke-width="0.5"/>
<path d="M7.39957 13.8438H4.18863C4.11042 13.8469 4.0321 13.8444 3.95425 13.8362C3.83906 13.8261 3.73182 13.7733 3.65369 13.688C3.57556 13.6028 3.53223 13.4913 3.53223 13.3757C3.53223 13.26 3.57556 13.1486 3.65369 13.0633C3.73182 12.9781 3.83906 12.9252 3.95425 12.9151C4.0321 12.907 4.11042 12.9044 4.18863 12.9075H10.7043C11.0839 12.9075 11.3101 13.0833 11.3101 13.3763C11.3101 13.6692 11.0839 13.845 10.7037 13.845C9.60211 13.845 8.50074 13.8446 7.39957 13.8438Z" fill="#D2D9E1" stroke="#D2D9E1" stroke-width="0.5"/>
<path d="M14.3565 18.6274C14.3557 18.7193 14.3277 18.8088 14.2761 18.8847C14.2244 18.9606 14.1514 19.0195 14.0663 19.054C13.9812 19.0885 13.8878 19.097 13.7979 19.0784C13.708 19.0598 13.6255 19.015 13.5611 18.9496C13.4966 18.8842 13.4529 18.8012 13.4356 18.711C13.4183 18.6209 13.428 18.5276 13.4637 18.443C13.4993 18.3583 13.5592 18.2862 13.6359 18.2356C13.7125 18.185 13.8024 18.1582 13.8942 18.1587C14.0162 18.164 14.1317 18.2152 14.2175 18.3022C14.3033 18.3892 14.3529 18.5054 14.3565 18.6274Z" fill="#D2D9E1" stroke="#D2D9E1" stroke-width="0.5"/>
<path d="M17.2632 8.67067C17.2632 8.49137 17.2579 8.31149 17.2632 8.13219C17.2767 7.74489 17.494 7.45426 17.862 7.32184C17.9282 7.2984 17.9956 7.27965 18.0618 7.25621C18.2971 7.1767 18.4962 7.01576 18.6233 6.8024C18.7504 6.58904 18.7971 6.33729 18.755 6.09254C18.7111 5.8482 18.5825 5.62716 18.3917 5.46833C18.2009 5.30949 17.9602 5.22304 17.712 5.22418C17.4599 5.22649 17.2173 5.32076 17.0298 5.48929C16.8423 5.65781 16.7228 5.88899 16.6937 6.13942C16.6843 6.20914 16.6731 6.27887 16.6585 6.34743C16.6034 6.60758 16.4101 6.75055 16.1517 6.7236C16.0376 6.71259 15.9321 6.65816 15.8571 6.57156C15.7821 6.48496 15.7432 6.37283 15.7485 6.25836C15.7556 5.66422 15.977 5.15621 16.4311 4.77594C17.0757 4.23512 17.8145 4.12145 18.5722 4.48707C19.3456 4.86032 19.7194 5.51422 19.6995 6.37965C19.6813 7.13551 19.1452 7.87028 18.4157 8.11754C18.2464 8.17614 18.1813 8.24703 18.1925 8.42692C18.2089 8.67594 18.1995 8.92672 18.196 9.17633C18.1907 9.53375 18.0026 9.75817 17.7173 9.75289C17.4319 9.74762 17.2632 9.53258 17.2591 9.18629C17.2591 9.01461 17.2591 8.84293 17.2591 8.67067H17.2632Z" fill="#D2D9E1" stroke="#D2D9E1" stroke-width="0.5"/>
<path d="M17.9281 11.4523C17.9281 11.5751 17.8801 11.6929 17.7942 11.7805C17.7083 11.8682 17.5914 11.9186 17.4688 11.9211C17.4082 11.9223 17.3481 11.9116 17.2917 11.8895C17.2353 11.8674 17.1839 11.8344 17.1403 11.7924C17.0968 11.7503 17.0619 11.7001 17.0379 11.6446C17.0138 11.589 17.0009 11.5293 17 11.4688C16.9999 11.3467 17.0475 11.2295 17.1325 11.142C17.2175 11.0544 17.3333 11.0035 17.4553 11C17.5768 11.0013 17.6932 11.0488 17.7811 11.1328C17.8689 11.2168 17.9214 11.331 17.9281 11.4523Z" fill="#D2D9E1" stroke="#D2D9E1" stroke-width="0.5"/>
</svg>
