<svg width="42" height="42" viewBox="0 0 42 42" fill="none" xmlns="http://www.w3.org/2000/svg">
<rect x="1" y="1" width="40" height="40" rx="20" fill="#F7F7F7"/>
<rect x="1" y="1" width="40" height="40" rx="20" stroke="#4C6686"/>
<path d="M16.4168 27.6668C15.1529 27.6668 14.0731 27.2293 13.1772 26.3543C12.2814 25.4793 11.8335 24.4099 11.8335 23.146C11.8335 22.0627 12.1599 21.0974 12.8127 20.2502C13.4654 19.4029 14.3196 18.8613 15.3752 18.6252C15.7224 17.3474 16.4168 16.3127 17.4585 15.521C18.5002 14.7293 19.6807 14.3335 21.0002 14.3335C22.6252 14.3335 24.0036 14.8995 25.1356 16.0314C26.2675 17.1634 26.8335 18.5418 26.8335 20.1668C27.7918 20.2779 28.587 20.6911 29.2189 21.4064C29.8509 22.1217 30.1668 22.9585 30.1668 23.9168C30.1668 24.9585 29.8022 25.8439 29.0731 26.5731C28.3439 27.3022 27.4585 27.6668 26.4168 27.6668H21.8335C21.3752 27.6668 20.9828 27.5036 20.6564 27.1772C20.33 26.8509 20.1668 26.4585 20.1668 26.0002V21.6668L19.4168 22.4168C19.2641 22.5696 19.0696 22.646 18.8335 22.646C18.5974 22.646 18.4029 22.5696 18.2502 22.4168C18.0974 22.2641 18.021 22.0696 18.021 21.8335C18.021 21.5974 18.0974 21.4029 18.2502 21.2502L20.4168 19.0835C20.5002 19.0002 20.5904 18.9411 20.6877 18.9064C20.7849 18.8717 20.8891 18.8543 21.0002 18.8543C21.1113 18.8543 21.2154 18.8717 21.3127 18.9064C21.4099 18.9411 21.5002 19.0002 21.5835 19.0835L23.7502 21.2502C23.9029 21.4029 23.9793 21.5974 23.9793 21.8335C23.9793 22.0696 23.9029 22.2641 23.7502 22.4168C23.5974 22.5696 23.4029 22.646 23.1668 22.646C22.9307 22.646 22.7363 22.5696 22.5835 22.4168L21.8335 21.6668V26.0002H26.4168C27.0002 26.0002 27.4932 25.7988 27.896 25.396C28.2988 24.9932 28.5002 24.5002 28.5002 23.9168C28.5002 23.3335 28.2988 22.8404 27.896 22.4377C27.4932 22.0349 27.0002 21.8335 26.4168 21.8335H25.1668V20.1668C25.1668 19.0141 24.7606 18.0314 23.9481 17.2189C23.1356 16.4064 22.1529 16.0002 21.0002 16.0002C19.8474 16.0002 18.8647 16.4064 18.0522 17.2189C17.2397 18.0314 16.8335 19.0141 16.8335 20.1668H16.4168C15.6113 20.1668 14.9238 20.4516 14.3543 21.021C13.7849 21.5904 13.5002 22.2779 13.5002 23.0835C13.5002 23.8891 13.7849 24.5766 14.3543 25.146C14.9238 25.7154 15.6113 26.0002 16.4168 26.0002H17.6668C17.9029 26.0002 18.1009 26.08 18.2606 26.2397C18.4203 26.3995 18.5002 26.5974 18.5002 26.8335C18.5002 27.0696 18.4203 27.2675 18.2606 27.4272C18.1009 27.587 17.9029 27.6668 17.6668 27.6668H16.4168Z" fill="#1F4068"/>
</svg>
