<svg width="96" height="50" viewBox="0 0 96 50" fill="none" xmlns="http://www.w3.org/2000/svg">
<rect x="0.5" y="0.5" width="95" height="49" rx="8.5" stroke="#1151B4"/>
<path d="M17.9 15.1001H31.1C32.2 15.1001 33.1 16.0001 33.1 17.1001V19.3001C33.1 20.1001 32.6 21.1001 32.1 21.6001L27.8 25.4001C27.2 25.9001 26.8 26.9001 26.8 27.7001V32.0001C26.8 32.6001 26.4 33.4001 25.9 33.7001L24.5 34.6001C23.2 35.4001 21.4 34.5001 21.4 32.9001V27.6001C21.4 26.9001 21 26.0001 20.6 25.5001L16.8 21.5001C16.3 21.0001 15.9 20.1001 15.9 19.5001V17.2001C15.9 16.0001 16.8 15.1001 17.9 15.1001Z" stroke="#1151B4" stroke-miterlimit="10" stroke-linecap="round" stroke-linejoin="round"/>
<path d="M23.43 15.1001L18.5 23.0001" stroke="#1151B4" stroke-miterlimit="10" stroke-linecap="round" stroke-linejoin="round"/>
<path d="M52.244 19.88V21.368H47.524V24.648H51.204V26.136H47.524V31H45.7V19.88H52.244ZM54.8624 21.016C54.5317 21.016 54.2544 20.904 54.0304 20.68C53.8064 20.456 53.6944 20.1787 53.6944 19.848C53.6944 19.5173 53.8064 19.24 54.0304 19.016C54.2544 18.792 54.5317 18.68 54.8624 18.68C55.1824 18.68 55.4544 18.792 55.6784 19.016C55.9024 19.24 56.0144 19.5173 56.0144 19.848C56.0144 20.1787 55.9024 20.456 55.6784 20.68C55.4544 20.904 55.1824 21.016 54.8624 21.016ZM55.7584 22.184V31H53.9344V22.184H55.7584ZM59.9771 19.16V31H58.1531V19.16H59.9771ZM64.4999 23.672V28.552C64.4999 28.8827 64.5745 29.1227 64.7239 29.272C64.8839 29.4107 65.1505 29.48 65.5239 29.48H66.6439V31H65.2039C64.3825 31 63.7532 30.808 63.3159 30.424C62.8785 30.04 62.6599 29.416 62.6599 28.552V23.672H61.6199V22.184H62.6599V19.992H64.4999V22.184H66.6439V23.672H64.4999ZM76.405 26.376C76.405 26.7067 76.3837 27.0053 76.341 27.272H69.605C69.6583 27.976 69.9197 28.5413 70.389 28.968C70.8583 29.3947 71.4343 29.608 72.117 29.608C73.0983 29.608 73.7917 29.1973 74.197 28.376H76.165C75.8983 29.1867 75.413 29.8533 74.709 30.376C74.0157 30.888 73.1517 31.144 72.117 31.144C71.2743 31.144 70.517 30.9573 69.845 30.584C69.1837 30.2 68.661 29.6667 68.277 28.984C67.9037 28.2907 67.717 27.4907 67.717 26.584C67.717 25.6773 67.8983 24.8827 68.261 24.2C68.6343 23.5067 69.1517 22.9733 69.813 22.6C70.485 22.2267 71.253 22.04 72.117 22.04C72.949 22.04 73.6903 22.2213 74.341 22.584C74.9917 22.9467 75.4983 23.4587 75.861 24.12C76.2237 24.7707 76.405 25.5227 76.405 26.376ZM74.501 25.8C74.4903 25.128 74.2503 24.5893 73.781 24.184C73.3117 23.7787 72.7303 23.576 72.037 23.576C71.4077 23.576 70.869 23.7787 70.421 24.184C69.973 24.5787 69.7063 25.1173 69.621 25.8H74.501ZM80.024 23.464C80.2907 23.016 80.6427 22.6693 81.08 22.424C81.528 22.168 82.056 22.04 82.664 22.04V23.928H82.2C81.4853 23.928 80.9413 24.1093 80.568 24.472C80.2053 24.8347 80.024 25.464 80.024 26.36V31H78.2V22.184H80.024V23.464Z" fill="#1151B4"/>
</svg>
