<svg width="17" height="16" viewBox="0 0 17 16" fill="none" xmlns="http://www.w3.org/2000/svg">
<g id="ic:round-expand-more">
<path id="Vector" d="M11.0867 6.19322L8.5 8.77988L5.91334 6.19322C5.85162 6.13149 5.77834 6.08253 5.6977 6.04913C5.61706 6.01573 5.53062 5.99854 5.44334 5.99854C5.35605 5.99854 5.26962 6.01573 5.18897 6.04913C5.10833 6.08253 5.03506 6.13149 4.97334 6.19322C4.91162 6.25494 4.86266 6.32821 4.82925 6.40885C4.79585 6.4895 4.77866 6.57593 4.77866 6.66322C4.77866 6.7505 4.79585 6.83693 4.82925 6.91758C4.86266 6.99822 4.91162 7.07149 4.97334 7.13322L8.03334 10.1932C8.29334 10.4532 8.71334 10.4532 8.97334 10.1932L12.0333 7.13322C12.0951 7.07154 12.1442 6.99828 12.1776 6.91763C12.2111 6.83698 12.2283 6.75053 12.2283 6.66322C12.2283 6.5759 12.2111 6.48945 12.1776 6.4088C12.1442 6.32815 12.0951 6.25489 12.0333 6.19322C11.7733 5.93988 11.3467 5.93322 11.0867 6.19322Z" fill="#027A48"/>
</g>
</svg>
