<svg width="48" height="48" viewBox="0 0 48 48" fill="none" xmlns="http://www.w3.org/2000/svg">
<circle cx="24" cy="24" r="24" fill="#D8E7F7"/>
<path d="M27.332 33C25.3654 33 23.6154 32.4417 22.082 31.325C20.5487 30.2083 19.4654 28.7667 18.832 27H16.332C16.0487 27 15.8112 26.9042 15.6195 26.7125C15.4279 26.5208 15.332 26.2833 15.332 26C15.332 25.7167 15.4279 25.4792 15.6195 25.2875C15.8112 25.0958 16.0487 25 16.332 25H18.382C18.3487 24.8167 18.332 24.65 18.332 24.5V23.5C18.332 23.35 18.3487 23.1833 18.382 23H16.332C16.0487 23 15.8112 22.9042 15.6195 22.7125C15.4279 22.5208 15.332 22.2833 15.332 22C15.332 21.7167 15.4279 21.4792 15.6195 21.2875C15.8112 21.0958 16.0487 21 16.332 21H18.832C19.4654 19.2333 20.5487 17.7917 22.082 16.675C23.6154 15.5583 25.3654 15 27.332 15C28.2487 15 29.1195 15.125 29.9445 15.375C30.7695 15.625 31.5404 15.9833 32.257 16.45C32.557 16.65 32.7195 16.9333 32.7445 17.3C32.7695 17.6667 32.6404 17.9917 32.357 18.275C32.157 18.475 31.9029 18.5917 31.5945 18.625C31.2862 18.6583 30.9904 18.5917 30.707 18.425C30.207 18.1417 29.6737 17.9167 29.107 17.75C28.5404 17.5833 27.9487 17.5 27.332 17.5C26.082 17.5 24.9445 17.8208 23.9195 18.4625C22.8945 19.1042 22.1154 19.95 21.582 21H26.332C26.6154 21 26.8529 21.0958 27.0445 21.2875C27.2362 21.4792 27.332 21.7167 27.332 22C27.332 22.2833 27.2362 22.5208 27.0445 22.7125C26.8529 22.9042 26.6154 23 26.332 23H20.932C20.8987 23.1833 20.8737 23.35 20.857 23.5C20.8404 23.65 20.832 23.8167 20.832 24C20.832 24.1833 20.8404 24.35 20.857 24.5C20.8737 24.65 20.8987 24.8167 20.932 25H26.332C26.6154 25 26.8529 25.0958 27.0445 25.2875C27.2362 25.4792 27.332 25.7167 27.332 26C27.332 26.2833 27.2362 26.5208 27.0445 26.7125C26.8529 26.9042 26.6154 27 26.332 27H21.582C22.1154 28.05 22.8945 28.8958 23.9195 29.5375C24.9445 30.1792 26.082 30.5 27.332 30.5C27.932 30.5 28.5237 30.4167 29.107 30.25C29.6904 30.0833 30.2237 29.8583 30.707 29.575C30.9904 29.4083 31.282 29.3375 31.582 29.3625C31.882 29.3875 32.1404 29.5083 32.357 29.725C32.6404 30.0083 32.7695 30.3333 32.7445 30.7C32.7195 31.0667 32.557 31.35 32.257 31.55C31.5404 32.0167 30.7695 32.375 29.9445 32.625C29.1195 32.875 28.2487 33 27.332 33Z" fill="#1F4068"/>
</svg>
