<svg width="48" height="48" viewBox="0 0 48 48" fill="none" xmlns="http://www.w3.org/2000/svg">
<circle cx="24" cy="24" r="24" fill="#D8E7F7"/>
<path d="M27 33C25.0333 33 23.2833 32.4417 21.75 31.325C20.2167 30.2083 19.1333 28.7667 18.5 27H16C15.7167 27 15.4792 26.9042 15.2875 26.7125C15.0958 26.5208 15 26.2833 15 26C15 25.7167 15.0958 25.4792 15.2875 25.2875C15.4792 25.0958 15.7167 25 16 25H18.05C18.0167 24.8167 18 24.65 18 24.5V23.5C18 23.35 18.0167 23.1833 18.05 23H16C15.7167 23 15.4792 22.9042 15.2875 22.7125C15.0958 22.5208 15 22.2833 15 22C15 21.7167 15.0958 21.4792 15.2875 21.2875C15.4792 21.0958 15.7167 21 16 21H18.5C19.1333 19.2333 20.2167 17.7917 21.75 16.675C23.2833 15.5583 25.0333 15 27 15C27.9167 15 28.7875 15.125 29.6125 15.375C30.4375 15.625 31.2083 15.9833 31.925 16.45C32.225 16.65 32.3875 16.9333 32.4125 17.3C32.4375 17.6667 32.3083 17.9917 32.025 18.275C31.825 18.475 31.5708 18.5917 31.2625 18.625C30.9542 18.6583 30.6583 18.5917 30.375 18.425C29.875 18.1417 29.3417 17.9167 28.775 17.75C28.2083 17.5833 27.6167 17.5 27 17.5C25.75 17.5 24.6125 17.8208 23.5875 18.4625C22.5625 19.1042 21.7833 19.95 21.25 21H26C26.2833 21 26.5208 21.0958 26.7125 21.2875C26.9042 21.4792 27 21.7167 27 22C27 22.2833 26.9042 22.5208 26.7125 22.7125C26.5208 22.9042 26.2833 23 26 23H20.6C20.5667 23.1833 20.5417 23.35 20.525 23.5C20.5083 23.65 20.5 23.8167 20.5 24C20.5 24.1833 20.5083 24.35 20.525 24.5C20.5417 24.65 20.5667 24.8167 20.6 25H26C26.2833 25 26.5208 25.0958 26.7125 25.2875C26.9042 25.4792 27 25.7167 27 26C27 26.2833 26.9042 26.5208 26.7125 26.7125C26.5208 26.9042 26.2833 27 26 27H21.25C21.7833 28.05 22.5625 28.8958 23.5875 29.5375C24.6125 30.1792 25.75 30.5 27 30.5C27.6 30.5 28.1917 30.4167 28.775 30.25C29.3583 30.0833 29.8917 29.8583 30.375 29.575C30.6583 29.4083 30.95 29.3375 31.25 29.3625C31.55 29.3875 31.8083 29.5083 32.025 29.725C32.3083 30.0083 32.4375 30.3333 32.4125 30.7C32.3875 31.0667 32.225 31.35 31.925 31.55C31.2083 32.0167 30.4375 32.375 29.6125 32.625C28.7875 32.875 27.9167 33 27 33Z" fill="#1F4068"/>
</svg>
