<svg width="24" height="24" viewBox="0 0 24 24" fill="none" xmlns="http://www.w3.org/2000/svg">
<g id="Frame">
<g id="Group">
<path id="Vector" d="M21.0072 11.1349L18.0774 8.20511V4.82069C18.0774 4.20874 17.5815 3.7128 16.9686 3.7128C16.3572 3.7128 15.8613 4.20874 15.8613 4.82069V5.98906L13.6798 3.80751C12.6013 2.72955 10.726 2.73146 9.64995 3.80946L2.32434 11.1349C1.89189 11.5682 1.89189 12.2693 2.32434 12.702C2.75698 13.1352 3.45946 13.1352 3.89195 12.702L11.2169 5.37633C11.4555 5.13896 11.8761 5.13896 12.1134 5.37563L19.4396 12.702C19.5424 12.805 19.6646 12.8866 19.7991 12.9423C19.9335 12.9979 20.0777 13.0265 20.2232 13.0263C20.5069 13.0263 20.7906 12.9185 21.0072 12.702C21.4398 12.2694 21.4398 11.5683 21.0072 11.1349Z" fill="#605D62"/>
<path id="Vector_2" d="M12.0524 7.47863C11.8395 7.26591 11.4949 7.26591 11.2827 7.47863L4.83909 13.9203C4.73699 14.0226 4.67966 14.1612 4.67969 14.3058V19.0041C4.67969 20.1066 5.57361 21.0005 6.67608 21.0005H9.86632V16.0599H13.4681V21.0005H16.6583C17.7608 21.0005 18.6547 20.1066 18.6547 19.0042V14.3058C18.6547 14.1609 18.5975 14.022 18.4953 13.9203L12.0524 7.47863Z" fill="#605D62"/>
</g>
</g>
</svg>
