<svg width="24" height="25" viewBox="0 0 24 25" fill="none" xmlns="http://www.w3.org/2000/svg">
<g id="ic:round-close">
<path id="Vector" d="M18.3002 6.58522C18.2077 6.49252 18.0978 6.41897 17.9768 6.36879C17.8559 6.31861 17.7262 6.29278 17.5952 6.29278C17.4643 6.29278 17.3346 6.31861 17.2136 6.36879C17.0926 6.41897 16.9827 6.49252 16.8902 6.58522L12.0002 11.4652L7.11022 6.57522C7.01764 6.48264 6.90773 6.4092 6.78677 6.3591C6.6658 6.30899 6.53615 6.2832 6.40522 6.2832C6.27429 6.2832 6.14464 6.30899 6.02368 6.3591C5.90272 6.4092 5.79281 6.48264 5.70022 6.57522C5.60764 6.66781 5.5342 6.77772 5.4841 6.89868C5.43399 7.01964 5.4082 7.14929 5.4082 7.28022C5.4082 7.41115 5.43399 7.5408 5.4841 7.66177C5.5342 7.78273 5.60764 7.89264 5.70022 7.98522L10.5902 12.8752L5.70022 17.7652C5.60764 17.8578 5.5342 17.9677 5.4841 18.0887C5.43399 18.2096 5.4082 18.3393 5.4082 18.4702C5.4082 18.6012 5.43399 18.7308 5.4841 18.8518C5.5342 18.9727 5.60764 19.0826 5.70022 19.1752C5.79281 19.2678 5.90272 19.3412 6.02368 19.3913C6.14464 19.4415 6.27429 19.4672 6.40522 19.4672C6.53615 19.4672 6.6658 19.4415 6.78677 19.3913C6.90773 19.3412 7.01764 19.2678 7.11022 19.1752L12.0002 14.2852L16.8902 19.1752C16.9828 19.2678 17.0927 19.3412 17.2137 19.3913C17.3346 19.4415 17.4643 19.4672 17.5952 19.4672C17.7262 19.4672 17.8558 19.4415 17.9768 19.3913C18.0977 19.3412 18.2076 19.2678 18.3002 19.1752C18.3928 19.0826 18.4662 18.9727 18.5163 18.8518C18.5665 18.7308 18.5922 18.6012 18.5922 18.4702C18.5922 18.3393 18.5665 18.2096 18.5163 18.0887C18.4662 17.9677 18.3928 17.8578 18.3002 17.7652L13.4102 12.8752L18.3002 7.98522C18.6802 7.60522 18.6802 6.96522 18.3002 6.58522Z" fill="#F9F9F9"/>
</g>
</svg>
