<svg width="34" height="41" viewBox="0 0 34 41" fill="none" xmlns="http://www.w3.org/2000/svg">
<g id="Layer 2">
<g id="Layer 1">
<path id="Vector" d="M17.8091 26.4302V29.2611H20.6362V26.4302H17.8091ZM14.0654 30.1627V32.9936H16.8926V30.1627H14.0654ZM17.8165 30.1627V32.9936H20.6437V30.1627H17.8165ZM14.0654 26.4302V29.2611H16.8926V26.4302H14.0654Z" fill="#1151B4"/>
<path id="Vector_2" d="M31.207 17.8707H32.5872V13.4927C32.1457 13.7376 31.7227 13.9639 31.3146 14.205C31.282 14.2323 31.2558 14.2663 31.2378 14.3048C31.2199 14.3432 31.2106 14.3852 31.2107 14.4277C31.2033 15.5667 31.207 16.7206 31.207 17.8707Z" fill="#1151B4"/>
<path id="Vector_3" d="M30.0529 21.1841C30.0495 21.4308 30.0948 21.6757 30.1863 21.9048C30.2777 22.134 30.4135 22.3428 30.5859 22.5193C30.7583 22.6958 30.9638 22.8365 31.1907 22.9334C31.4176 23.0302 31.6613 23.0813 31.908 23.0838C32.393 23.0622 32.8509 22.8544 33.1864 22.5037C33.522 22.1529 33.7092 21.6862 33.7092 21.2008C33.7092 20.7154 33.522 20.2487 33.1864 19.898C32.8509 19.5472 32.393 19.3394 31.908 19.3179C31.4159 19.3237 30.9458 19.5225 30.5988 19.8716C30.2518 20.2206 30.0558 20.692 30.0529 21.1841Z" fill="#1151B4"/>
<path id="Vector_4" d="M7.16073 14.1606C7.16073 16.0417 7.16073 17.9228 7.16073 19.8039V20.2305C13.9096 16.5203 20.6103 16.5203 27.3407 20.2305C27.3407 20.0821 27.3592 19.9634 27.3592 19.8595C27.3592 17.9673 27.3592 16.0714 27.3592 14.1792C27.3811 14.0671 27.3661 13.9509 27.3167 13.848C27.2672 13.745 27.1858 13.6608 27.0847 13.6078C24.1088 11.882 20.7304 10.9715 17.2903 10.9683C13.8502 10.965 10.4701 11.8691 7.49094 13.5892C7.38141 13.6358 7.28998 13.7167 7.23042 13.8198C7.17087 13.9228 7.14641 14.0425 7.16073 14.1606Z" fill="#1151B4"/>
<path id="Vector_5" d="M5.88443 15.1143C5.88443 14.4242 5.88443 13.8046 5.88443 13.1887C5.88956 13.117 5.90932 13.0471 5.9425 12.9832C5.97568 12.9194 6.02158 12.8631 6.07736 12.8177C9.40506 10.6929 13.271 9.5639 17.2192 9.5639C21.1674 9.5639 25.0333 10.6929 28.361 12.8177C28.4171 12.8628 28.4632 12.9191 28.4965 12.9829C28.5297 13.0468 28.5492 13.1169 28.5539 13.1887C28.5762 13.6785 28.5539 14.1682 28.5539 14.7285L33.9078 11.3039V11.2483C33.7854 11.1741 33.6963 11.1295 33.6147 11.0776C28.1928 7.59988 22.7635 4.11968 17.3268 0.637009C17.2212 0.553342 17.0905 0.507813 16.9558 0.507812C16.8211 0.507812 16.6903 0.553342 16.5847 0.637009C11.4646 3.92427 6.34697 7.20041 1.2318 10.4654C0.834802 10.7214 0.434097 10.97 0 11.2408V11.3076L5.88443 15.1143Z" fill="#1151B4"/>
<path id="Vector_6" d="M25.9422 20.9131V33.1568C25.9422 38.2213 21.3489 40.466 17.1267 40.492C12.8376 40.492 8.37793 38.1397 8.37793 33.1568V20.9131H9.46874V33.1568C9.46874 37.6685 13.4832 39.6349 17.1267 39.6349C20.7701 39.6349 24.8588 37.713 24.8588 33.1568V20.9131H25.9422Z" fill="#1151B4"/>
</g>
</g>
</svg>
