<svg width="24" height="24" viewBox="0 0 24 24" fill="none" xmlns="http://www.w3.org/2000/svg">
<g id="Frame">
<g id="Group">
<path id="Vector" d="M11.9978 3C9.02772 3 6.59766 5.43006 6.59766 8.40013C6.59766 11.3702 11.9978 18.3004 11.9978 18.3004C11.9978 18.3004 17.3979 11.3702 17.3979 8.40013C17.3979 5.43006 14.9679 3 11.9978 3ZM11.9978 10.2002C11.0078 10.2002 10.1977 9.39016 10.1977 8.40013C10.1977 7.41011 11.0078 6.60009 11.9978 6.60009C12.9878 6.60009 13.7978 7.41011 13.7978 8.40013C13.7978 9.39016 12.9878 10.2002 11.9978 10.2002Z" fill="#605D62"/>
<path id="Vector_2" d="M17.6704 12.9889C17.4004 13.5289 17.1303 14.069 16.7703 14.609C18.3004 15.149 19.2004 15.869 19.2004 16.499C19.2004 17.579 16.3203 19.1991 12.0002 19.1991C7.68011 19.1991 4.80004 17.579 4.80004 16.499C4.80004 15.869 5.70007 15.149 7.2301 14.519C6.87009 13.979 6.60009 13.4389 6.33008 12.8989C4.26003 13.7989 3 15.059 3 16.499C3 19.0191 6.78009 20.9991 11.8202 20.9991C16.3203 20.9991 21.0004 19.4691 21.0004 16.499C21.0004 15.059 19.7404 13.7989 17.6704 12.9889Z" fill="#605D62"/>
</g>
</g>
</svg>
