<svg width="40" height="40" viewBox="0 0 40 40" fill="none" xmlns="http://www.w3.org/2000/svg">
<rect width="40" height="40" rx="8" fill="#F2FDF7"/>
<path d="M29.6496 28.6251C29.5837 28.7391 29.489 28.8338 29.375 28.8997C29.2609 28.9655 29.1316 29.0001 28.9999 29.0001H10.9999C10.8683 29 10.7391 28.9652 10.6252 28.8993C10.5112 28.8335 10.4167 28.7388 10.3509 28.6248C10.2852 28.5108 10.2506 28.3815 10.2507 28.2499C10.2507 28.1183 10.2853 27.9891 10.3511 27.8751C11.779 25.4067 13.9793 23.6367 16.5471 22.7976C15.2769 22.0415 14.2901 20.8893 13.7381 19.518C13.1862 18.1468 13.0996 16.6322 13.4917 15.207C13.8838 13.7818 14.7329 12.5247 15.9087 11.6287C17.0844 10.7328 18.5217 10.2476 19.9999 10.2476C21.4781 10.2476 22.9154 10.7328 24.0911 11.6287C25.2668 12.5247 26.116 13.7818 26.5081 15.207C26.9002 16.6322 26.8136 18.1468 26.2617 19.518C25.7097 20.8893 24.7229 22.0415 23.4527 22.7976C26.0205 23.6367 28.2208 25.4067 29.6486 27.8751C29.7146 27.989 29.7494 28.1183 29.7496 28.25C29.7498 28.3816 29.7153 28.511 29.6496 28.6251Z" fill="#147543"/>
</svg>
