<svg width="16" height="16" viewBox="0 0 16 16" fill="none" xmlns="http://www.w3.org/2000/svg">
<g id="pajamas:export">
<path id="Vector" fill-rule="evenodd" clip-rule="evenodd" d="M11.78 5.841C11.6394 5.98145 11.4488 6.06034 11.25 6.06034C11.0512 6.06034 10.8606 5.98145 10.72 5.841L8.75 3.871V11.25C8.75 11.4489 8.67098 11.6397 8.53033 11.7803C8.38968 11.921 8.19891 12 8 12C7.80109 12 7.61032 11.921 7.46967 11.7803C7.32902 11.6397 7.25 11.4489 7.25 11.25V3.871L5.28 5.841C5.13783 5.97348 4.94978 6.0456 4.75548 6.04217C4.56118 6.03875 4.37579 5.96003 4.23838 5.82262C4.10097 5.68521 4.02225 5.49982 4.01883 5.30552C4.0154 5.11122 4.08752 4.92318 4.22 4.781L7.47 1.531L8 1L8.53 1.53L11.78 4.78C11.8497 4.84965 11.905 4.93235 11.9427 5.02338C11.9804 5.1144 11.9998 5.21197 11.9998 5.3105C11.9998 5.40903 11.9804 5.5066 11.9427 5.59762C11.905 5.68865 11.8497 5.77135 11.78 5.841ZM2.5 9.75C2.5 9.55109 2.42098 9.36032 2.28033 9.21967C2.13968 9.07902 1.94891 9 1.75 9C1.55109 9 1.36032 9.07902 1.21967 9.21967C1.07902 9.36032 1 9.55109 1 9.75V13C1 13.5304 1.21071 14.0391 1.58579 14.4142C1.96086 14.7893 2.46957 15 3 15H13C13.5304 15 14.0391 14.7893 14.4142 14.4142C14.7893 14.0391 15 13.5304 15 13V9.75C15 9.55109 14.921 9.36032 14.7803 9.21967C14.6397 9.07902 14.4489 9 14.25 9C14.0511 9 13.8603 9.07902 13.7197 9.21967C13.579 9.36032 13.5 9.55109 13.5 9.75V13C13.5 13.1326 13.4473 13.2598 13.3536 13.3536C13.2598 13.4473 13.1326 13.5 13 13.5H3C2.86739 13.5 2.74021 13.4473 2.64645 13.3536C2.55268 13.2598 2.5 13.1326 2.5 13V9.75Z" fill="#1F4068"/>
</g>
</svg>
