<svg width="46" height="33" viewBox="0 0 46 33" fill="none" xmlns="http://www.w3.org/2000/svg">
<path fill-rule="evenodd" clip-rule="evenodd" d="M20.3842 24.2364L20.6828 22.2759L20.0176 22.2598H16.8409L19.0486 7.792C19.0555 7.74819 19.0777 7.70752 19.1102 7.67859C19.1428 7.64966 19.1844 7.63379 19.2279 7.63379H24.5842C26.3625 7.63379 27.5896 8.01618 28.2302 8.77104C28.5306 9.12516 28.7219 9.49532 28.8145 9.90251C28.9116 10.3299 28.9132 10.8404 28.8185 11.4631L28.8116 11.5084V11.9075L29.112 12.0834C29.3649 12.2221 29.566 12.3809 29.7202 12.5625C29.977 12.8654 30.1432 13.2503 30.2135 13.7064C30.2861 14.1756 30.2621 14.734 30.1432 15.3662C30.0062 16.0933 29.7846 16.7267 29.4854 17.2448C29.2102 17.7222 28.8596 18.1184 28.4433 18.4252C28.0458 18.7168 27.5736 18.9382 27.0397 19.0799C26.5223 19.2191 25.9324 19.2893 25.2854 19.2893H24.8685C24.5706 19.2893 24.281 19.4003 24.0538 19.5992C23.8258 19.8022 23.6752 20.0796 23.6289 20.3829L23.5974 20.5595L23.0697 24.0152L23.0459 24.142C23.0395 24.1822 23.0286 24.2022 23.0126 24.2158C22.9984 24.2282 22.9779 24.2364 22.9579 24.2364H20.3842" fill="#28356A"/>
<path fill-rule="evenodd" clip-rule="evenodd" d="M29.3967 11.5542C29.3809 11.6598 29.3625 11.7678 29.342 11.8787C28.6357 15.6272 26.219 16.9222 23.1326 16.9222H21.561C21.1836 16.9222 20.8654 17.2054 20.8067 17.5903L19.7742 24.3594C19.736 24.6122 19.9244 24.8398 20.1711 24.8398H22.9584C23.2883 24.8398 23.5687 24.592 23.6207 24.2556L23.6481 24.1093L24.1729 20.6671L24.2066 20.4783C24.258 20.1407 24.539 19.8927 24.869 19.8927H25.2858C27.9863 19.8927 30.1003 18.7596 30.7182 15.4803C30.9762 14.1104 30.8427 12.9665 30.1597 12.1621C29.953 11.9196 29.6966 11.7182 29.3967 11.5542" fill="#298FC2"/>
<path fill-rule="evenodd" clip-rule="evenodd" d="M28.6575 11.2498C28.5495 11.2173 28.4382 11.1878 28.324 11.1612C28.2091 11.1353 28.0915 11.1123 27.9705 11.0921C27.5468 11.0214 27.0824 10.9878 26.5851 10.9878H22.3869C22.2834 10.9878 22.1852 11.0119 22.0974 11.0556C21.9037 11.1518 21.7599 11.3413 21.725 11.5732L20.8319 17.42L20.8063 17.5904C20.865 17.2056 21.1831 16.9224 21.5606 16.9224H23.1321C26.2185 16.9224 28.6352 15.6267 29.3416 11.8789C29.3627 11.7679 29.3804 11.66 29.3963 11.5544C29.2176 11.4563 29.0241 11.3725 28.8156 11.3011C28.7641 11.2834 28.711 11.2664 28.6575 11.2498" fill="#22284F"/>
<path fill-rule="evenodd" clip-rule="evenodd" d="M21.7253 11.5733C21.7602 11.3414 21.904 11.1519 22.0977 11.0564C22.1861 11.0126 22.2837 10.9884 22.3872 10.9884H26.5854C27.0827 10.9884 27.547 11.0222 27.9707 11.0929C28.0918 11.1129 28.2094 11.1361 28.3242 11.162C28.4384 11.1885 28.5497 11.2181 28.6577 11.2505C28.7113 11.267 28.7644 11.2842 28.8164 11.3012C29.0248 11.3726 29.2185 11.4571 29.3972 11.5545C29.6073 10.1693 29.3954 9.2261 28.6708 8.37204C27.8719 7.43169 26.4301 7.0293 24.585 7.0293H19.2286C18.8518 7.0293 18.5303 7.31249 18.4721 7.69803L16.2411 22.3147C16.1971 22.6038 16.4128 22.8647 16.695 22.8647H20.0018L21.7253 11.5733" fill="#28356A"/>
</svg>
