<svg width="19" height="19" viewBox="0 0 19 19" fill="none" xmlns="http://www.w3.org/2000/svg">
<path d="M6.54199 15.9375C5.09755 15.2708 3.92046 14.2639 3.01074 12.9167C2.10102 11.5694 1.64616 10.0486 1.64616 8.35417C1.64616 7.99306 1.66699 7.63889 1.70866 7.29167C1.75033 6.94444 1.81283 6.60417 1.89616 6.27083L0.937826 6.83333L0.104492 5.39583L4.08366 3.10417L6.37533 7.0625L4.91699 7.89583L3.79199 5.9375C3.63921 6.3125 3.52463 6.70139 3.44824 7.10417C3.37185 7.50694 3.33366 7.92361 3.33366 8.35417C3.33366 9.70139 3.70171 10.9271 4.43783 12.0312C5.17394 13.1354 6.1531 13.9514 7.37533 14.4792L6.54199 15.9375ZM12.917 5.83333V4.16667H15.1878C14.5489 3.375 13.7781 2.76042 12.8753 2.32292C11.9725 1.88542 11.0142 1.66667 10.0003 1.66667C9.23644 1.66667 8.51421 1.78472 7.83366 2.02083C7.1531 2.25694 6.5281 2.59028 5.95866 3.02083L5.12533 1.5625C5.81977 1.07639 6.57324 0.694444 7.38574 0.416667C8.19824 0.138889 9.06283 0 9.97949 0C11.0767 0 12.1288 0.204861 13.1357 0.614583C14.1427 1.02431 15.042 1.61806 15.8337 2.39583V1.25H17.5003V5.83333H12.917ZM12.3753 18.3333L8.39616 16.0417L10.6878 12.0833L12.1253 12.9167L10.9378 14.9583C12.5767 14.7222 13.9413 13.9826 15.0316 12.7396C16.1219 11.4965 16.667 10.0347 16.667 8.35417C16.667 8.20139 16.6635 8.05556 16.6566 7.91667C16.6496 7.77778 16.6323 7.63889 16.6045 7.5H18.292C18.3059 7.63889 18.3163 7.77431 18.3232 7.90625C18.3302 8.03819 18.3337 8.18056 18.3337 8.33333C18.3337 10.2083 17.7746 11.8854 16.6566 13.3646C15.5385 14.8438 14.0837 15.8403 12.292 16.3542L13.2087 16.8958L12.3753 18.3333Z" fill="white"/>
</svg>
