<svg width="14" height="14" viewBox="0 0 14 14" fill="none" xmlns="http://www.w3.org/2000/svg">
<g id="file-04" clip-path="url(#clip0_1451_17963)">
<path id="Icon" d="M8.14397 1.43968V3.79999C8.14397 4.12002 8.14397 4.28004 8.20625 4.40227C8.26104 4.50979 8.34846 4.59721 8.45598 4.652C8.57821 4.71428 8.73823 4.71428 9.05826 4.71428H11.4186M11.5725 5.85041V9.97142C11.5725 10.9315 11.5725 11.4116 11.3857 11.7783C11.2213 12.1008 10.9591 12.3631 10.6365 12.5274C10.2698 12.7143 9.78978 12.7143 8.82969 12.7143H5.17254C4.21245 12.7143 3.73241 12.7143 3.3657 12.5274C3.04314 12.3631 2.78089 12.1008 2.61653 11.7783C2.42969 11.4116 2.42969 10.9315 2.42969 9.97142V4.02856C2.42969 3.06847 2.42969 2.58843 2.61653 2.22172C2.78089 1.89916 3.04314 1.63691 3.3657 1.47255C3.73241 1.28571 4.21245 1.28571 5.17254 1.28571H7.00784C7.42714 1.28571 7.63679 1.28571 7.83408 1.33307C8.009 1.37507 8.17622 1.44433 8.3296 1.53832C8.5026 1.64434 8.65085 1.79258 8.94734 2.08907L10.7692 3.91091C11.0657 4.2074 11.2139 4.35565 11.3199 4.52865C11.4139 4.68203 11.4832 4.84925 11.5252 5.02417C11.5725 5.22146 11.5725 5.43111 11.5725 5.85041Z" stroke="#153576" stroke-width="1.14286" stroke-linecap="round" stroke-linejoin="round"/>
</g>
<defs>
<clipPath id="clip0_1451_17963">
<rect width="13.7143" height="13.7143" fill="white" transform="translate(0.144531 0.142883)"/>
</clipPath>
</defs>
</svg>
