<svg width="153" height="34" viewBox="0 0 153 34" fill="none" xmlns="http://www.w3.org/2000/svg">
<path d="M10.632 22.072C11.544 22.072 12.344 21.872 13.032 21.472C13.72 21.072 14.264 20.488 14.664 19.72H18.504C17.944 21.432 16.96 22.768 15.552 23.728C14.16 24.672 12.528 25.144 10.656 25.144C8.736 25.144 7.048 24.632 5.592 23.608C4.152 22.568 3.152 21.184 2.592 19.456H0.552V17.464H2.208C2.176 17.08 2.16 16.792 2.16 16.6C2.16 16.376 2.176 16.072 2.208 15.688H0.552V13.696H2.616C3.176 11.968 4.176 10.592 5.616 9.568C7.072 8.544 8.752 8.032 10.656 8.032C12.528 8.032 14.16 8.512 15.552 9.472C16.96 10.432 17.944 11.76 18.504 13.456H14.664C14.264 12.688 13.72 12.112 13.032 11.728C12.344 11.328 11.544 11.128 10.632 11.128C9.656 11.128 8.784 11.352 8.016 11.8C7.264 12.248 6.68 12.88 6.264 13.696H10.872V15.688H5.664C5.632 16.072 5.616 16.376 5.616 16.6C5.616 16.792 5.632 17.08 5.664 17.464H10.872V19.456H6.24C6.656 20.272 7.248 20.912 8.016 21.376C8.784 21.84 9.656 22.072 10.632 22.072ZM21.4999 21.208C23.0359 19.928 24.2599 18.864 25.1719 18.016C26.0839 17.152 26.8439 16.256 27.4519 15.328C28.0599 14.4 28.3639 13.488 28.3639 12.592C28.3639 11.776 28.1719 11.136 27.7879 10.672C27.4039 10.208 26.8119 9.976 26.0119 9.976C25.2119 9.976 24.5959 10.248 24.1639 10.792C23.7319 11.32 23.5079 12.048 23.4919 12.976H20.2279C20.2919 11.056 20.8599 9.6 21.9319 8.608C23.0199 7.616 24.3959 7.12 26.0599 7.12C27.8839 7.12 29.2839 7.608 30.2599 8.584C31.2359 9.544 31.7239 10.816 31.7239 12.4C31.7239 13.648 31.3879 14.84 30.7159 15.976C30.0439 17.112 29.2759 18.104 28.4119 18.952C27.5479 19.784 26.4199 20.792 25.0279 21.976H32.1079V24.76H20.2519V22.264L21.4999 21.208ZM45.9851 10.408H38.2091V14.512C38.5451 14.096 39.0251 13.76 39.6491 13.504C40.2731 13.232 40.9371 13.096 41.6411 13.096C42.9211 13.096 43.9691 13.376 44.7851 13.936C45.6011 14.496 46.1931 15.216 46.5611 16.096C46.9291 16.96 47.1131 17.888 47.1131 18.88C47.1131 20.72 46.5851 22.2 45.5291 23.32C44.4891 24.44 43.0011 25 41.0651 25C39.2411 25 37.7851 24.544 36.6971 23.632C35.6091 22.72 34.9931 21.528 34.8491 20.056H38.1131C38.2571 20.696 38.5771 21.208 39.0731 21.592C39.5851 21.976 40.2331 22.168 41.0171 22.168C41.9611 22.168 42.6731 21.872 43.1531 21.28C43.6331 20.688 43.8731 19.904 43.8731 18.928C43.8731 17.936 43.6251 17.184 43.1291 16.672C42.6491 16.144 41.9371 15.88 40.9931 15.88C40.3211 15.88 39.7611 16.048 39.3131 16.384C38.8651 16.72 38.5451 17.168 38.3531 17.728H35.1371V7.456H45.9851V10.408ZM53.7264 21.472L50.9184 28.216H48.7584L50.3184 21.472H53.7264ZM55.7642 16.024C55.7642 13.256 56.2602 11.088 57.2522 9.52C58.2602 7.952 59.9242 7.168 62.2442 7.168C64.5642 7.168 66.2202 7.952 67.2122 9.52C68.2202 11.088 68.7242 13.256 68.7242 16.024C68.7242 18.808 68.2202 20.992 67.2122 22.576C66.2202 24.16 64.5642 24.952 62.2442 24.952C59.9242 24.952 58.2602 24.16 57.2522 22.576C56.2602 20.992 55.7642 18.808 55.7642 16.024ZM65.4122 16.024C65.4122 14.84 65.3322 13.848 65.1722 13.048C65.0282 12.232 64.7242 11.568 64.2602 11.056C63.8122 10.544 63.1402 10.288 62.2442 10.288C61.3482 10.288 60.6682 10.544 60.2042 11.056C59.7562 11.568 59.4522 12.232 59.2922 13.048C59.1482 13.848 59.0762 14.84 59.0762 16.024C59.0762 17.24 59.1482 18.264 59.2922 19.096C59.4362 19.912 59.7402 20.576 60.2042 21.088C60.6682 21.584 61.3482 21.832 62.2442 21.832C63.1402 21.832 63.8202 21.584 64.2842 21.088C64.7482 20.576 65.0522 19.912 65.1962 19.096C65.3402 18.264 65.4122 17.24 65.4122 16.024ZM71.2798 16.024C71.2798 13.256 71.7758 11.088 72.7678 9.52C73.7758 7.952 75.4398 7.168 77.7598 7.168C80.0798 7.168 81.7358 7.952 82.7278 9.52C83.7358 11.088 84.2398 13.256 84.2398 16.024C84.2398 18.808 83.7358 20.992 82.7278 22.576C81.7358 24.16 80.0798 24.952 77.7598 24.952C75.4398 24.952 73.7758 24.16 72.7678 22.576C71.7758 20.992 71.2798 18.808 71.2798 16.024ZM80.9278 16.024C80.9278 14.84 80.8478 13.848 80.6878 13.048C80.5438 12.232 80.2398 11.568 79.7758 11.056C79.3278 10.544 78.6558 10.288 77.7598 10.288C76.8638 10.288 76.1838 10.544 75.7198 11.056C75.2718 11.568 74.9678 12.232 74.8078 13.048C74.6638 13.848 74.5918 14.84 74.5918 16.024C74.5918 17.24 74.6638 18.264 74.8078 19.096C74.9518 19.912 75.2558 20.576 75.7198 21.088C76.1838 21.584 76.8638 21.832 77.7598 21.832C78.6558 21.832 79.3358 21.584 79.7998 21.088C80.2638 20.576 80.5678 19.912 80.7118 19.096C80.8558 18.264 80.9278 17.24 80.9278 16.024Z" fill="#1F4068"/>
<path d="M98.328 9.636L95.088 23.172H93.444L96.684 9.636H98.328ZM110.779 14.256C111.595 14.256 112.251 14.508 112.747 15.012C113.251 15.508 113.503 16.204 113.503 17.1V21H111.823V17.328C111.823 16.808 111.691 16.412 111.427 16.14C111.163 15.86 110.803 15.72 110.347 15.72C109.891 15.72 109.527 15.86 109.255 16.14C108.991 16.412 108.859 16.808 108.859 17.328V21H107.179V17.328C107.179 16.808 107.047 16.412 106.783 16.14C106.519 15.86 106.159 15.72 105.703 15.72C105.239 15.72 104.871 15.86 104.599 16.14C104.335 16.412 104.203 16.808 104.203 17.328V21H102.523V14.352H104.203V15.156C104.419 14.876 104.695 14.656 105.031 14.496C105.375 14.336 105.751 14.256 106.159 14.256C106.679 14.256 107.143 14.368 107.551 14.592C107.959 14.808 108.275 15.12 108.499 15.528C108.715 15.144 109.027 14.836 109.435 14.604C109.851 14.372 110.299 14.256 110.779 14.256ZM118.05 21.108C117.41 21.108 116.834 20.968 116.322 20.688C115.81 20.4 115.406 19.996 115.11 19.476C114.822 18.956 114.678 18.356 114.678 17.676C114.678 16.996 114.826 16.396 115.122 15.876C115.426 15.356 115.838 14.956 116.358 14.676C116.878 14.388 117.458 14.244 118.098 14.244C118.738 14.244 119.318 14.388 119.838 14.676C120.358 14.956 120.766 15.356 121.062 15.876C121.366 16.396 121.518 16.996 121.518 17.676C121.518 18.356 121.362 18.956 121.05 19.476C120.746 19.996 120.33 20.4 119.802 20.688C119.282 20.968 118.698 21.108 118.05 21.108ZM118.05 19.644C118.354 19.644 118.638 19.572 118.902 19.428C119.174 19.276 119.39 19.052 119.55 18.756C119.71 18.46 119.79 18.1 119.79 17.676C119.79 17.044 119.622 16.56 119.286 16.224C118.958 15.88 118.554 15.708 118.074 15.708C117.594 15.708 117.19 15.88 116.862 16.224C116.542 16.56 116.382 17.044 116.382 17.676C116.382 18.308 116.538 18.796 116.85 19.14C117.17 19.476 117.57 19.644 118.05 19.644ZM126.434 14.256C127.226 14.256 127.866 14.508 128.354 15.012C128.842 15.508 129.086 16.204 129.086 17.1V21H127.406V17.328C127.406 16.8 127.274 16.396 127.01 16.116C126.746 15.828 126.386 15.684 125.93 15.684C125.466 15.684 125.098 15.828 124.826 16.116C124.562 16.396 124.43 16.8 124.43 17.328V21H122.75V14.352H124.43V15.18C124.654 14.892 124.938 14.668 125.282 14.508C125.634 14.34 126.018 14.256 126.434 14.256ZM132.639 15.732V18.948C132.639 19.172 132.691 19.336 132.795 19.44C132.907 19.536 133.091 19.584 133.347 19.584H134.127V21H133.071C131.655 21 130.947 20.312 130.947 18.936V15.732H130.155V14.352H130.947V12.708H132.639V14.352H134.127V15.732H132.639ZM139.08 14.256C139.584 14.256 140.032 14.368 140.424 14.592C140.816 14.808 141.12 15.132 141.336 15.564C141.56 15.988 141.672 16.5 141.672 17.1V21H139.992V17.328C139.992 16.8 139.86 16.396 139.596 16.116C139.332 15.828 138.972 15.684 138.516 15.684C138.052 15.684 137.684 15.828 137.412 16.116C137.148 16.396 137.016 16.8 137.016 17.328V21H135.336V12.12H137.016V15.18C137.232 14.892 137.52 14.668 137.88 14.508C138.24 14.34 138.64 14.256 139.08 14.256Z" fill="#1F4068"/>
</svg>
