<svg width="17" height="16" viewBox="0 0 17 16" fill="none" xmlns="http://www.w3.org/2000/svg">
<path d="M11.8337 4.66667V2.16667H5.16699V4.66667H3.50033V1.33333C3.50033 1.09722 3.58019 0.899306 3.73991 0.739583C3.89963 0.579861 4.09755 0.5 4.33366 0.5H12.667C12.9031 0.5 13.101 0.579861 13.2607 0.739583C13.4205 0.899306 13.5003 1.09722 13.5003 1.33333V4.66667H11.8337ZM13.5003 8.41667C13.7364 8.41667 13.9344 8.33681 14.0941 8.17708C14.2538 8.01736 14.3337 7.81944 14.3337 7.58333C14.3337 7.34722 14.2538 7.14931 14.0941 6.98958C13.9344 6.82986 13.7364 6.75 13.5003 6.75C13.2642 6.75 13.0663 6.82986 12.9066 6.98958C12.7469 7.14931 12.667 7.34722 12.667 7.58333C12.667 7.81944 12.7469 8.01736 12.9066 8.17708C13.0663 8.33681 13.2642 8.41667 13.5003 8.41667ZM5.16699 13.8333H11.8337V10.5H5.16699V13.8333ZM5.16699 15.5C4.70866 15.5 4.3163 15.3368 3.98991 15.0104C3.66352 14.684 3.50033 14.2917 3.50033 13.8333V12.1667H1.00033C0.764215 12.1667 0.566298 12.0868 0.406576 11.9271C0.246853 11.7674 0.166992 11.5694 0.166992 11.3333V7.16667C0.166992 6.45833 0.410048 5.86458 0.896159 5.38542C1.38227 4.90625 1.97255 4.66667 2.66699 4.66667H14.3337C15.042 4.66667 15.6357 4.90625 16.1149 5.38542C16.5941 5.86458 16.8337 6.45833 16.8337 7.16667V11.3333C16.8337 11.5694 16.7538 11.7674 16.5941 11.9271C16.4344 12.0868 16.2364 12.1667 16.0003 12.1667H13.5003V13.8333C13.5003 14.2917 13.3371 14.684 13.0107 15.0104C12.6844 15.3368 12.292 15.5 11.8337 15.5H5.16699ZM15.167 10.5V7.16667C15.167 6.93056 15.0871 6.73264 14.9274 6.57292C14.7677 6.41319 14.5698 6.33333 14.3337 6.33333H2.66699C2.43088 6.33333 2.23296 6.41319 2.07324 6.57292C1.91352 6.73264 1.83366 6.93056 1.83366 7.16667V10.5H3.50033V8.83333H13.5003V10.5H15.167Z" fill="#1F4068"/>
</svg>
