<svg width="51" height="52" viewBox="0 0 51 52" fill="none" xmlns="http://www.w3.org/2000/svg">
<rect y="0.5" width="51" height="51" rx="25.5" fill="#FFF7E1"/>
<path d="M24.8438 13.75V12.875C24.8438 12.701 24.9129 12.534 25.036 12.411C25.159 12.2879 25.326 12.2188 25.5 12.2188C25.674 12.2188 25.841 12.2879 25.964 12.411C26.0871 12.534 26.1562 12.701 26.1562 12.875V13.75C26.1562 13.924 26.0871 14.091 25.964 14.214C25.841 14.3371 25.674 14.4062 25.5 14.4062C25.326 14.4062 25.159 14.3371 25.036 14.214C24.9129 14.091 24.8438 13.924 24.8438 13.75ZM33.375 17.0312C33.549 17.0311 33.7158 16.9619 33.8388 16.8388L34.7138 15.9638C34.7782 15.9037 34.8299 15.8312 34.8658 15.7507C34.9017 15.6702 34.921 15.5833 34.9225 15.4952C34.9241 15.4071 34.9079 15.3196 34.8749 15.2379C34.8419 15.1561 34.7927 15.0819 34.7304 15.0196C34.6681 14.9573 34.5939 14.9081 34.5121 14.8751C34.4304 14.8421 34.3429 14.8259 34.2548 14.8275C34.1667 14.829 34.0798 14.8483 33.9993 14.8842C33.9188 14.9201 33.8463 14.9718 33.7862 15.0363L32.9112 15.9112C32.8196 16.003 32.7572 16.1199 32.7319 16.2471C32.7066 16.3744 32.7196 16.5062 32.7692 16.6261C32.8189 16.7459 32.9029 16.8484 33.0107 16.9205C33.1185 16.9926 33.2453 17.0311 33.375 17.0312ZM17.1612 16.8388C17.2857 16.9547 17.4502 17.0178 17.6202 17.0148C17.7902 17.0118 17.9524 16.9429 18.0727 16.8227C18.1929 16.7024 18.2618 16.5402 18.2648 16.3702C18.2678 16.2002 18.2047 16.0357 18.0888 15.9112L17.2138 15.0363C17.0893 14.9203 16.9248 14.8572 16.7548 14.8602C16.5848 14.8632 16.4226 14.9321 16.3023 15.0523C16.1821 15.1726 16.1132 15.3348 16.1102 15.5048C16.1072 15.6748 16.1703 15.8393 16.2862 15.9638L17.1612 16.8388ZM26.4844 20.1025C26.3993 20.0881 26.3123 20.0907 26.2283 20.1099C26.1442 20.1292 26.0648 20.1648 25.9945 20.2148C25.8525 20.3157 25.7565 20.4689 25.7275 20.6406C25.6985 20.8124 25.7389 20.9886 25.8398 21.1305C25.9407 21.2725 26.0939 21.3685 26.2656 21.3975C28.4531 21.7628 30.0938 23.7425 30.0938 26C30.0938 26.174 30.1629 26.341 30.286 26.464C30.409 26.5871 30.576 26.6562 30.75 26.6562C30.924 26.6562 31.091 26.5871 31.214 26.464C31.3371 26.341 31.4062 26.174 31.4062 26C31.4062 23.1092 29.2898 20.5739 26.4844 20.1025ZM36.6562 31.25V33.875C36.6562 34.2811 36.4949 34.6706 36.2078 34.9578C35.9206 35.2449 35.5311 35.4062 35.125 35.4062H15.875C15.4689 35.4062 15.0794 35.2449 14.7922 34.9578C14.5051 34.6706 14.3438 34.2811 14.3438 33.875V31.25C14.3438 30.8439 14.5051 30.4544 14.7922 30.1672C15.0794 29.8801 15.4689 29.7188 15.875 29.7188H16.0938V26C16.0938 23.5053 17.0848 21.1128 18.8488 19.3488C20.6128 17.5848 23.0053 16.5938 25.5 16.5938H25.5711C30.7183 16.632 34.9062 20.9009 34.9062 26.1094V29.7188H35.125C35.5311 29.7188 35.9206 29.8801 36.2078 30.1672C36.4949 30.4544 36.6562 30.8439 36.6562 31.25ZM17.4062 29.7188H33.5938V26.1094C33.5938 21.625 29.9909 17.9391 25.5612 17.9062H25.5C23.3534 17.9062 21.2947 18.759 19.7769 20.2769C18.259 21.7947 17.4062 23.8534 17.4062 26V29.7188ZM35.3438 31.25C35.3438 31.192 35.3207 31.1363 35.2797 31.0953C35.2387 31.0543 35.183 31.0312 35.125 31.0312H15.875C15.817 31.0312 15.7613 31.0543 15.7203 31.0953C15.6793 31.1363 15.6562 31.192 15.6562 31.25V33.875C15.6562 33.933 15.6793 33.9887 15.7203 34.0297C15.7613 34.0707 15.817 34.0938 15.875 34.0938H35.125C35.183 34.0938 35.2387 34.0707 35.2797 34.0297C35.3207 33.9887 35.3438 33.933 35.3438 33.875V31.25Z" fill="#C18801"/>
</svg>
