<svg xmlns="http://www.w3.org/2000/svg" width="25" height="26" viewBox="0 0 25 26" fill="none">
  <g clip-path="url(#clip0_1337_37896)">
    <path d="M13.8136 1.74327C13.5902 1.28622 13.1218 0.997243 12.6093 1.00019C12.0968 1.00314 11.636 1.29746 11.4137 1.75708L8.76626 7.28491L2.78811 8.20266C2.28855 8.28053 1.87391 8.63292 1.7225 9.11297C1.57109 9.59301 1.69913 10.1215 2.0595 10.4736L6.42581 14.7443L5.43576 20.821C5.35531 21.3214 5.56656 21.8286 5.98076 22.122C6.39495 22.4155 6.94099 22.4498 7.38962 22.2097L12.7189 19.3249L18.0811 22.1482C18.5325 22.3831 19.0781 22.3467 19.4889 22.0443C19.8996 21.7419 20.1051 21.2366 20.0189 20.737L18.9548 14.6722L23.2716 10.3515C23.6279 9.99527 23.7541 9.46537 23.593 8.98712C23.4319 8.50888 23.0174 8.16125 22.517 8.08913L16.5245 7.24027L13.8136 1.74327Z" fill="#FFD000"/>
  </g>
  <defs>
    <clipPath id="clip0_1337_37896">
      <rect width="24" height="24" fill="white" transform="translate(0.863281 1.06836) rotate(-0.329685)"/>
    </clipPath>
  </defs>
</svg>