<svg width="16" height="16" viewBox="0 0 16 16" fill="none" xmlns="http://www.w3.org/2000/svg">
<g id="ic:round-expand-more">
<path id="Vector" d="M10.5867 6.19322L8 8.77988L5.41334 6.19322C5.35162 6.13149 5.27834 6.08253 5.1977 6.04913C5.11706 6.01573 5.03062 5.99854 4.94334 5.99854C4.85605 5.99854 4.76962 6.01573 4.68897 6.04913C4.60833 6.08253 4.53506 6.13149 4.47334 6.19322C4.41162 6.25494 4.36266 6.32821 4.32925 6.40885C4.29585 6.4895 4.27866 6.57593 4.27866 6.66322C4.27866 6.7505 4.29585 6.83693 4.32925 6.91758C4.36266 6.99822 4.41162 7.07149 4.47334 7.13322L7.53334 10.1932C7.79334 10.4532 8.21334 10.4532 8.47334 10.1932L11.5333 7.13322C11.5951 7.07154 11.6442 6.99828 11.6776 6.91763C11.7111 6.83698 11.7283 6.75053 11.7283 6.66322C11.7283 6.5759 11.7111 6.48945 11.6776 6.4088C11.6442 6.32815 11.5951 6.25489 11.5333 6.19322C11.2733 5.93988 10.8467 5.93322 10.5867 6.19322Z" fill="#EF2011"/>
</g>
</svg>
