<svg width="24" height="24" viewBox="0 0 24 24" fill="none" xmlns="http://www.w3.org/2000/svg">
<path d="M5.00121 20.8574V14.2362C5.00121 13.6786 5.1879 13.2126 5.56126 12.8385C5.93463 12.4643 6.40053 12.2776 6.95897 12.2784H8.03179V9.76062H6.95897C6.40134 9.76062 5.93544 9.57353 5.56126 9.19935C5.18709 8.82518 5 8.36009 5 7.80408V4.95775C5 4.40013 5.18709 3.93463 5.56126 3.56126C5.93544 3.1879 6.40134 3.00081 6.95897 3H16.6568C17.2144 3 17.6804 3.18709 18.0545 3.56126C18.4287 3.93544 18.6158 4.40094 18.6158 4.95775V7.80408C18.6158 8.3617 18.4287 8.8272 18.0545 9.20057C17.6804 9.57393 17.2144 9.76062 16.6568 9.76062H15.584V12.2784H16.6568C17.2144 12.2784 17.6804 12.4651 18.0545 12.8385C18.4287 13.2118 18.6158 13.6777 18.6158 14.2362V20.8574C18.6158 21.0295 18.5576 21.1738 18.4412 21.2902C18.3257 21.4057 18.1814 21.4635 18.0085 21.4635C17.8363 21.4635 17.6925 21.4057 17.5769 21.2902C17.4613 21.1746 17.4032 21.0303 17.4023 20.8574V17.8268H6.21344V20.8574C6.21344 21.0295 6.15526 21.1734 6.03888 21.2889C5.92251 21.4045 5.77825 21.4627 5.60612 21.4635C5.43398 21.4643 5.29013 21.4061 5.17456 21.2889C5.059 21.1718 5.00081 21.0279 5 20.8574M6.95897 8.54839H16.6568C16.8427 8.54839 17.0136 8.4708 17.1696 8.31564C17.3256 8.15966 17.4036 7.98874 17.4036 7.80286V4.95775C17.4036 4.77188 17.3256 4.60095 17.1696 4.44498C17.0144 4.28981 16.8435 4.21223 16.6568 4.21223H6.95897C6.77309 4.21223 6.60217 4.28981 6.44619 4.44498C6.29022 4.60015 6.21264 4.77107 6.21344 4.95775V7.80165C6.21344 7.98833 6.29103 8.15926 6.44619 8.31443C6.60136 8.4704 6.77228 8.54839 6.95897 8.54839ZM9.24402 12.2784H14.3718V9.76062H9.24402V12.2784ZM6.21344 16.6146H17.4023V14.2362C17.4023 14.0503 17.3248 13.8794 17.1696 13.7234C17.0144 13.5674 16.8435 13.4898 16.6568 13.4907H6.95897C6.77309 13.4907 6.60217 13.5682 6.44619 13.7234C6.29022 13.8786 6.21264 14.0495 6.21344 14.2362V16.6146Z" fill="#1151B4"/>
</svg>
