<svg width="21" height="20" viewBox="0 0 21 20" fill="none" xmlns="http://www.w3.org/2000/svg">
<g id="icon/share">
<path id="Vector" d="M15.5 18.3337C14.8056 18.3337 14.2153 18.0906 13.7292 17.6045C13.2431 17.1184 13 16.5281 13 15.8337C13 15.7364 13.0069 15.6357 13.0208 15.5316C13.0347 15.4274 13.0556 15.3337 13.0833 15.2503L7.20833 11.8337C6.97222 12.042 6.70833 12.2052 6.41667 12.3232C6.125 12.4413 5.81944 12.5003 5.5 12.5003C4.80556 12.5003 4.21528 12.2573 3.72917 11.7712C3.24306 11.285 3 10.6948 3 10.0003C3 9.30588 3.24306 8.7156 3.72917 8.22949C4.21528 7.74338 4.80556 7.50033 5.5 7.50033C5.81944 7.50033 6.125 7.55935 6.41667 7.67741C6.70833 7.79546 6.97222 7.95866 7.20833 8.16699L13.0833 4.75033C13.0556 4.66699 13.0347 4.57324 13.0208 4.46908C13.0069 4.36491 13 4.26421 13 4.16699C13 3.47255 13.2431 2.88227 13.7292 2.39616C14.2153 1.91005 14.8056 1.66699 15.5 1.66699C16.1944 1.66699 16.7847 1.91005 17.2708 2.39616C17.7569 2.88227 18 3.47255 18 4.16699C18 4.86144 17.7569 5.45171 17.2708 5.93783C16.7847 6.42394 16.1944 6.66699 15.5 6.66699C15.1806 6.66699 14.875 6.60796 14.5833 6.48991C14.2917 6.37185 14.0278 6.20866 13.7917 6.00033L7.91667 9.41699C7.94444 9.50033 7.96528 9.59408 7.97917 9.69824C7.99306 9.80241 8 9.9031 8 10.0003C8 10.0975 7.99306 10.1982 7.97917 10.3024C7.96528 10.4066 7.94444 10.5003 7.91667 10.5837L13.7917 14.0003C14.0278 13.792 14.2917 13.6288 14.5833 13.5107C14.875 13.3927 15.1806 13.3337 15.5 13.3337C16.1944 13.3337 16.7847 13.5767 17.2708 14.0628C17.7569 14.5489 18 15.1392 18 15.8337C18 16.5281 17.7569 17.1184 17.2708 17.6045C16.7847 18.0906 16.1944 18.3337 15.5 18.3337ZM15.5 5.00033C15.7361 5.00033 15.934 4.92046 16.0938 4.76074C16.2535 4.60102 16.3333 4.4031 16.3333 4.16699C16.3333 3.93088 16.2535 3.73296 16.0938 3.57324C15.934 3.41352 15.7361 3.33366 15.5 3.33366C15.2639 3.33366 15.066 3.41352 14.9062 3.57324C14.7465 3.73296 14.6667 3.93088 14.6667 4.16699C14.6667 4.4031 14.7465 4.60102 14.9062 4.76074C15.066 4.92046 15.2639 5.00033 15.5 5.00033ZM5.5 10.8337C5.73611 10.8337 5.93403 10.7538 6.09375 10.5941C6.25347 10.4344 6.33333 10.2364 6.33333 10.0003C6.33333 9.76422 6.25347 9.5663 6.09375 9.40658C5.93403 9.24685 5.73611 9.16699 5.5 9.16699C5.26389 9.16699 5.06597 9.24685 4.90625 9.40658C4.74653 9.5663 4.66667 9.76422 4.66667 10.0003C4.66667 10.2364 4.74653 10.4344 4.90625 10.5941C5.06597 10.7538 5.26389 10.8337 5.5 10.8337ZM15.5 16.667C15.7361 16.667 15.934 16.5871 16.0938 16.4274C16.2535 16.2677 16.3333 16.0698 16.3333 15.8337C16.3333 15.5975 16.2535 15.3996 16.0938 15.2399C15.934 15.0802 15.7361 15.0003 15.5 15.0003C15.2639 15.0003 15.066 15.0802 14.9062 15.2399C14.7465 15.3996 14.6667 15.5975 14.6667 15.8337C14.6667 16.0698 14.7465 16.2677 14.9062 16.4274C15.066 16.5871 15.2639 16.667 15.5 16.667Z" fill="#1F4068"/>
</g>
</svg>
