<svg width="58" height="70" viewBox="0 0 58 70" fill="none" xmlns="http://www.w3.org/2000/svg">
<g id="Group">
<path id="Vector" d="M20.1402 30.0764C20.0242 30.3127 19.9332 30.4978 19.8213 30.7236C20.0597 30.8804 20.2855 31.0299 20.4413 31.1324C20.1935 31.7147 19.8757 32.2437 19.7461 32.8156C19.5527 33.6656 19.8088 34.4528 20.4957 35.0226C21.1397 35.5568 21.8883 35.6018 22.6619 35.3143C23.2003 35.1146 23.4554 34.6567 23.6698 34.1768C23.7816 33.9248 23.836 33.6478 23.9479 33.2777C24.8376 33.9468 25.7701 34.5333 26.5574 35.2745C27.2913 35.9656 27.1136 37.17 26.2949 37.6122C25.9876 37.7774 25.5819 37.7596 25.1878 37.8307C24.9975 38.8856 24.3681 39.3854 23.1491 38.5343C22.7361 38.9891 22.5197 39.8767 21.6143 39.4031C21.1627 39.1669 21.1564 38.7204 21.5244 37.8088C21.0289 38.1799 20.7424 39.0979 19.9771 38.4758C19.3028 37.928 19.7618 37.3258 20.0984 36.7372C19.6164 37.1324 19.2965 38.0127 18.4894 37.2944C18.1068 36.9546 18.1747 36.5981 18.7058 35.7189C18.2782 35.3697 17.8517 35.0205 17.3728 34.6284C17.2296 34.8856 17.0916 35.1345 16.9484 35.3927C14.0095 33.6426 11.0874 31.9039 8.13081 30.1433C7.89871 30.595 7.67184 30.9818 7.51188 31.3937C7.47529 31.4868 7.63943 31.7283 7.76803 31.8046C9.35402 32.7424 10.9421 33.6802 12.5521 34.5772C13.0383 34.848 13.2035 35.1627 13.2233 35.7241C13.3216 38.596 12.9693 41.4115 12.4591 44.2322C12.1632 45.8673 12.1611 47.5589 12.0681 49.2265C11.8381 53.3111 11.63 57.3979 11.4199 61.4836C11.3979 61.9133 11.4167 62.3462 11.4167 62.8062C8.34095 62.8062 5.36761 62.8062 2.34199 62.8062C2.31377 62.2165 2.28449 61.6321 2.25731 61.0477C2.10258 57.7252 1.9583 54.4026 1.79103 51.0801C1.67603 48.7853 1.58089 46.4873 1.37702 44.1998C1.26933 42.9923 0.917007 41.8098 0.736139 40.6065C0.620091 39.8349 0.567818 39.0477 0.566772 38.2667C0.553181 32.2552 0.533317 26.2437 0.568864 20.2332C0.584546 17.5683 1.75966 15.5255 4.23536 14.4037C6.92746 13.1846 10.1967 14.4538 11.6196 17.1606C12.3441 18.5396 12.4288 20.0618 12.6765 21.5495C12.8971 22.871 13.0874 24.1977 13.331 25.514C13.3666 25.7084 13.5924 25.9071 13.7795 26.0262C15.8182 27.3289 17.8673 28.6159 19.9133 29.9081C19.9823 29.9531 20.0472 30.0074 20.1402 30.0764ZM18.2991 30.6619C18.1935 30.5866 18.1266 30.5323 18.0545 30.4883C16.2009 29.3519 14.3671 28.181 12.481 27.101C11.8558 26.7424 11.6279 26.2897 11.5265 25.6352C11.2014 23.538 10.8386 21.4471 10.4884 19.355C10.1643 17.4146 9.10624 16.113 7.15851 15.6457C5.07697 15.146 2.83755 16.7037 2.65877 18.7602C3.43661 18.5145 4.20817 18.2698 5.00065 18.02C5.10519 18.2437 5.20242 18.4277 5.27665 18.619C6.35036 21.3718 7.41466 24.1287 8.50195 26.8762C8.59605 27.1146 8.79469 27.3561 9.01006 27.4941C10.665 28.5553 12.3315 29.5986 14.0033 30.6316C15.0048 31.2505 16.0231 31.8433 17.0581 32.4633C17.4826 31.8475 17.8747 31.2787 18.2991 30.6619ZM2.84696 23.5641C2.81873 23.5673 2.79155 23.5704 2.76332 23.5736C2.75182 23.7366 2.73091 23.9008 2.73091 24.0639C2.72987 27.4931 2.7351 30.9222 2.72359 34.3514C2.72255 34.6765 2.84069 34.8532 3.11147 35.0111C4.0984 35.5871 5.16792 35.6603 6.24895 35.4816C7.23483 35.3195 7.93949 34.7163 8.40054 33.8266C8.53854 33.5589 8.52182 33.4115 8.22595 33.2536C7.46275 32.8459 6.72046 32.3984 5.97608 31.9552C5.85167 31.8809 5.7053 31.7712 5.66034 31.6446C5.15538 30.2218 4.67028 28.7915 4.17576 27.3655C3.73666 26.0973 3.29024 24.8313 2.84696 23.5641ZM5.0571 53.1094C5.0571 53.9207 5.0571 54.6954 5.0571 55.4711C5.0571 56.5845 5.11565 56.6368 6.2249 56.504C6.2594 56.4998 6.3054 56.5103 6.32631 56.4915C6.40681 56.4204 6.54586 56.3409 6.54691 56.2625C6.56155 55.2139 6.55632 54.1643 6.55632 53.1094C6.00117 53.1094 5.55998 53.1094 5.0571 53.1094ZM6.54482 37.8234C6.12976 37.8234 5.80253 37.8422 5.47738 37.8182C5.14492 37.7931 5.05501 37.951 5.05919 38.2458C5.06965 38.9044 5.0686 39.5631 5.06965 40.2218C5.07069 41.3498 5.06965 41.3498 6.18204 41.2693C6.19981 41.2683 6.22386 41.2756 6.23326 41.2672C6.33886 41.1669 6.52914 41.0655 6.53123 40.9599C6.55423 39.9405 6.54482 38.9201 6.54482 37.8234ZM5.92485 44.503C5.14701 44.503 5.07174 44.5657 5.06756 45.147C5.06338 45.7785 5.15433 45.8558 5.90917 45.8548C6.56886 45.8537 6.54168 45.8527 6.57618 45.0707C6.60127 44.4863 6.27613 44.4528 5.92485 44.503ZM5.86107 58.1768C5.10415 58.1747 5.06756 58.205 5.06547 58.8511C5.06337 59.5171 5.11042 59.561 5.83285 59.5641C6.53332 59.5673 6.55109 59.5516 6.55318 58.9421C6.55736 58.2019 6.53541 58.1778 5.86107 58.1768ZM5.79416 48.7079C6.52704 48.7069 6.5375 48.6985 6.53436 48.067C6.53227 47.4512 6.46118 47.4115 5.73248 47.3895C5.22961 47.3739 5.0571 47.583 5.0801 48.0691C5.10938 48.6703 5.13029 48.7089 5.79416 48.7079Z" fill="#1151B3"/>
<path id="Vector_2" d="M33.2791 33.3393C32.1469 33.8683 31.1024 34.3555 30.0245 34.8594C29.0355 33.0193 28.058 31.2013 27.0449 29.3152C27.5405 29.0695 28.0005 28.8447 28.4574 28.6137C29.3596 28.16 30.2524 27.6884 31.1631 27.2535C31.5875 27.0507 31.7527 26.7465 31.8196 26.2938C32.1103 24.3325 32.3988 22.3691 32.7532 20.4182C33.1432 18.275 34.2577 16.5478 35.9775 15.2159C36.2002 15.0434 36.4657 14.9273 36.7125 14.7852C36.7459 14.8186 36.7783 14.8521 36.8118 14.8855C36.1845 15.977 35.5583 17.0674 34.9132 18.1903C35.1442 18.3753 35.3669 18.5541 35.713 18.8312C35.1599 19.0612 34.6968 19.2535 34.2315 19.4469C35.3084 22.6817 36.3758 25.8881 37.4955 29.2535C39.4589 25.9268 41.3502 22.7203 43.2728 19.4637C42.8369 19.2713 42.4344 19.0925 42.0172 18.9085C43.4642 17.3016 44.8787 15.7324 46.3225 14.1296C48.3162 15.6811 50.6393 16.8552 51.4568 19.4574C51.7203 20.2948 51.9472 21.1866 51.9534 22.0565C51.9974 27.8756 51.9764 33.6947 51.9754 39.5139C51.9754 39.5818 51.9639 39.6508 51.9534 39.7669C50.3068 39.7669 48.6644 39.7669 46.955 39.7669C46.9383 39.5034 46.9048 39.2326 46.9048 38.9629C46.9006 35.7219 46.9717 32.4799 46.8766 29.242C46.8139 27.1072 46.5452 24.9765 46.3089 22.851C46.1437 21.3696 46.0528 19.9049 46.448 18.4475C46.4605 18.4025 46.4417 18.3481 46.4323 18.2279C45.6659 19.0246 45.2781 19.9519 44.9791 20.9367C44.6487 22.024 44.8421 23.1134 44.9174 24.2028C45.0376 25.955 45.2488 27.7052 45.2802 29.4595C45.3397 32.8385 45.2948 36.2196 45.3073 39.5996C45.3084 39.953 45.2436 40.2248 44.9655 40.4694C44.4239 40.9462 44.104 41.5546 44.0684 42.3314C42.4856 42.2614 40.8745 42.6524 39.5175 41.5306C38.2284 40.4663 37.7726 38.9984 37.5436 37.3957C37.2854 39.0883 36.8348 40.6534 35.3324 41.6613C34.7355 42.0617 34.0831 42.3251 33.2812 42.2844C33.2791 39.3131 33.2791 36.3806 33.2791 33.3393ZM38.7313 32.1892C38.7323 31.6466 38.3173 31.218 37.7945 31.2211C37.3011 31.2253 36.84 31.6989 36.8431 32.1997C36.8463 32.6827 37.3366 33.1803 37.8102 33.1803C38.311 33.1803 38.7292 32.7297 38.7313 32.1892Z" fill="#1151B3"/>
<path id="Vector_3" d="M47.9478 48.023C50.7685 48.023 53.5892 48.0251 56.4099 48.022C57.0664 48.0209 57.4449 48.4193 57.447 49.171C57.4533 51.4344 57.4501 53.6979 57.4491 55.9613C57.4491 57.058 57.4491 58.1548 57.4438 59.2525C57.4386 60.5249 56.642 61.3173 55.3362 61.3152C52.7423 61.3121 50.1485 61.2828 47.5547 61.2807C45.2734 61.2786 42.9932 61.3006 40.712 61.309C39.4522 61.3131 38.6127 60.7036 38.3597 59.5996C38.3252 59.4491 38.3105 59.2912 38.3105 59.1365C38.3241 55.8463 38.3398 52.5552 38.3576 49.2651C38.3618 48.5039 38.8218 48.0533 39.5881 48.0533C42.3743 48.0533 45.1595 48.0533 47.9457 48.0533C47.9478 48.0429 47.9478 48.0335 47.9478 48.023ZM49.5881 54.7381C49.586 54.7381 49.585 54.7381 49.5829 54.7381C49.5829 54.3032 49.5703 53.8672 49.5871 53.4323C49.5996 53.1176 49.4783 52.9974 49.1626 52.9995C48.3095 53.0047 47.4564 52.9953 46.6033 52.9786C46.3043 52.9723 46.1464 53.0664 46.1537 53.3926C46.1725 54.298 46.1799 55.2023 46.1893 56.1077C46.1924 56.3785 46.2875 56.5196 46.5928 56.5123C47.4459 56.4935 48.299 56.4966 49.1511 56.4935C49.4533 56.4924 49.5944 56.3513 49.5881 56.0439C49.5818 55.608 49.5881 55.1731 49.5881 54.7381ZM39.586 51.1657C39.5839 51.1657 39.5829 51.1657 39.5808 51.1657C39.5808 51.5839 39.5599 52.0021 39.585 52.4182C39.631 53.1772 39.9436 53.8756 40.6284 54.1704C41.8526 54.6994 43.1386 55.0894 44.4036 55.5212C44.504 55.5557 44.6963 55.5139 44.758 55.4376C45.0528 55.0716 44.7852 54.275 44.3377 54.1171C43.4522 53.8056 42.5646 53.4992 41.6833 53.1751C41.0978 52.9598 40.7988 52.5437 40.8176 51.8976C40.8364 51.219 40.7998 50.5395 40.8281 49.862C40.8469 49.424 40.6963 49.2232 40.2499 49.2096C39.7815 49.195 39.5766 49.401 39.5839 49.8589C39.5923 50.2959 39.586 50.7308 39.586 51.1657ZM56.1955 51.2055C56.1893 51.2055 56.183 51.2055 56.1778 51.2055C56.1778 50.7528 56.161 50.299 56.183 49.8474C56.2018 49.4616 56.1328 49.2117 55.6644 49.219C55.2243 49.2253 55.0277 49.4104 55.033 49.8474C55.0413 50.5614 55.0361 51.2755 55.034 51.9885C55.0319 52.7444 54.8981 52.9744 54.1746 53.2337C53.3571 53.5264 52.5196 53.7627 51.6948 54.0366C50.964 54.2792 50.8887 54.4203 50.9462 55.1657C50.9744 55.5243 51.1229 55.6184 51.4585 55.5055C52.6106 55.1176 53.7711 54.7528 54.919 54.3544C55.677 54.092 56.1736 53.3727 56.1945 52.5625C56.205 52.1108 56.1955 51.6581 56.1955 51.2055ZM40.8166 57.9561C40.8166 57.6602 40.7831 57.3602 40.8228 57.0695C40.918 56.3722 40.7131 55.8077 40.1569 55.3769C40.0293 55.2776 39.8819 55.2044 39.7439 55.1187C39.6927 55.2734 39.5996 55.4261 39.5975 55.5818C39.5787 56.712 39.5453 57.8442 39.5913 58.9723C39.6038 59.2734 39.8422 59.5902 40.045 59.8474C40.1276 59.9519 40.4235 59.9854 40.5604 59.9216C40.688 59.861 40.7946 59.631 40.8051 59.47C40.8364 58.966 40.8166 58.46 40.8166 57.9561ZM56.1788 55.2964C56.1276 55.2786 56.0753 55.2598 56.0241 55.242C55.6352 55.7355 54.9828 56.023 55.0288 56.8479C55.0737 57.6467 55.0183 58.4506 55.0549 59.2504C55.0654 59.4909 55.2358 59.723 55.333 59.9593C55.5808 59.7993 55.8683 59.6759 56.0617 59.4668C56.1788 59.3393 56.182 59.0779 56.184 58.8772C56.1935 58.1286 56.1809 57.379 56.1788 56.6304C56.1778 56.1851 56.1788 55.7407 56.1788 55.2964Z" fill="#1151B3"/>
<path id="Vector_4" d="M44.7308 12.1704C43.6718 11.5599 43.0309 10.735 42.5186 9.72818C42.344 10.2373 42.2489 10.6796 42.0481 11.0674C41.2651 12.5813 39.5547 13.3915 37.8808 13.0821C36.0753 12.7475 34.8814 11.5766 34.7392 9.75431C34.6639 8.7862 34.8835 7.79404 34.9765 6.81338C35.0089 6.47047 35.0643 6.12859 35.1208 5.69054C36.4193 6.04077 37.7167 6.15055 39.0591 5.70831C39.1386 5.90382 39.2086 6.07318 39.2755 6.2436C39.5944 7.06221 40.1652 7.63408 40.9514 8.023C41.2462 8.16832 41.3937 8.11082 41.5254 7.839C41.6529 7.57554 41.8014 7.32149 41.884 7.1678C41.4062 6.7057 40.8897 6.35233 40.5803 5.86722C40.276 5.39049 40.1799 4.77993 39.9854 4.20805C39.3947 4.33664 38.7455 4.52378 38.0826 4.61265C36.6116 4.8092 35.2285 4.58965 34.0952 3.53058C33.2212 2.71302 32.964 0.880293 33.5975 0C34.8291 1.60167 36.4465 1.35494 38.1056 0.953476C38.965 0.745426 39.8296 0.464193 40.7026 0.41401C45.0748 0.164141 46.9054 4.03555 46.2656 7.13644C45.9185 8.82593 45.2661 10.4516 44.7308 12.1704Z" fill="#1151B3"/>
<path id="Vector_5" d="M38.1354 65.7981C37.1694 65.8849 36.2588 65.9664 35.252 66.0563C34.8568 58.7181 34.4595 51.3256 34.0664 44.0124C34.7941 43.6873 35.4684 43.473 36.0434 43.105C36.6184 42.737 37.0952 42.2153 37.6493 41.7312C38.8704 43.6444 40.7292 44.1713 42.9645 43.9455C42.9645 44.7234 42.9728 45.4458 42.9509 46.1682C42.9488 46.2414 42.7637 46.3689 42.6623 46.371C41.7078 46.3867 40.7533 46.3804 39.7381 46.3804C39.7381 45.9988 39.7183 45.6727 39.7434 45.3506C39.7695 45.0307 39.643 44.8478 39.3795 44.6732C38.9822 44.4097 38.6257 44.0867 38.1563 43.7145C38.1563 44.669 38.1438 45.5294 38.1626 46.3899C38.1699 46.7098 38.0978 46.9377 37.8364 47.153C37.1516 47.7166 36.8181 48.4829 36.8118 49.3548C36.7867 52.716 36.7899 56.0773 36.7773 59.4385C36.7742 60.393 37.1851 61.1363 37.8719 61.7709C38.012 61.9006 38.1187 62.14 38.1229 62.3313C38.1469 63.4918 38.1354 64.6544 38.1354 65.7981Z" fill="#1151B3"/>
<path id="Vector_6" d="M47.2686 69.9978C42.773 69.9978 38.3224 69.9978 33.8729 69.9978C33.8164 69.0558 34.4019 68.1128 35.3428 67.7375C35.7851 67.5608 36.2785 67.4636 36.7553 67.4322C37.5185 67.382 38.2869 67.4155 39.0522 67.4155C39.9994 67.4155 42.129 66.761 43.0825 66.1348C42.1113 66.1348 41.254 66.1348 40.3956 66.1348C39.6722 66.1348 39.6722 66.1358 39.6701 65.4249C39.669 64.7108 39.6544 63.9968 39.6816 63.2838C39.6868 63.1583 39.8698 62.9335 39.9712 62.9335C42.3883 62.9137 44.8065 62.9178 47.2676 62.9178C47.2686 65.2796 47.2686 67.6173 47.2686 69.9978Z" fill="#1151B3"/>
<path id="Vector_7" d="M2.30469 69.9982C2.30469 68.2355 2.30469 66.5303 2.30573 64.8262C2.30573 64.707 2.32141 64.5878 2.33291 64.4331C5.3188 64.4331 8.289 64.4331 11.3669 64.4331C11.3669 64.9098 11.3941 65.3897 11.3449 65.8623C11.3345 65.9626 11.0501 66.1048 10.8881 66.109C9.68681 66.1404 8.48451 66.1414 7.28325 66.1519C7.14525 66.1529 7.0062 66.1519 6.83474 66.247C7.07207 66.3463 7.31148 66.4394 7.54567 66.545C8.94348 67.1754 10.38 67.5549 11.9409 67.4305C12.8577 67.3573 13.7872 67.4012 14.7093 67.4357C16.1395 67.488 17.1954 68.5993 17.1494 69.9982C12.2315 69.9982 7.31253 69.9982 2.30469 69.9982Z" fill="#1151B3"/>
<path id="Vector_8" d="M4.04301 11.8744C3.74609 10.4034 3.44918 8.93241 3.13867 7.3966C4.19251 7.32969 5.17735 7.27951 6.1601 7.20215C8.30543 7.03382 10.3849 7.38929 12.4434 7.95175C13.7325 8.30408 13.7524 8.28526 13.697 9.63916C13.6102 11.7427 11.3551 13.889 8.58352 12.8812C7.22126 12.3856 6.40579 11.4426 6.12456 10.0281C6.10783 9.94339 6.09215 9.85871 6.07333 9.77507C6.07124 9.76566 6.04928 9.76043 6.07124 9.77298C5.45232 10.509 4.83757 11.2398 4.22179 11.9716C4.1622 11.9382 4.1026 11.9058 4.04301 11.8744Z" fill="#1151B3"/>
<path id="Vector_9" d="M3.15654 5.93715C2.97672 3.58796 4.16647 1.5911 6.17274 0.747397C6.68503 0.532029 7.12413 0.571757 7.59355 0.8739C8.98404 1.77092 9.62596 3.12586 9.92706 4.67421C10.0034 5.06522 10.1571 5.13109 10.5094 5.12168C12.7551 5.06104 15.0008 5.01713 17.2475 4.97636C18.133 4.95963 18.6192 5.20427 18.7164 5.6831C18.7958 6.07516 18.3547 6.61985 17.6939 6.94604C16.9171 7.32973 16.0912 7.29837 15.2904 7.12377C13.7106 6.77981 12.1487 6.3543 10.5732 5.99047C10.1027 5.88174 9.61028 5.81379 9.12831 5.81797C7.33532 5.83679 5.54232 5.89324 3.74933 5.93506C3.56009 5.94133 3.37191 5.93715 3.15654 5.93715Z" fill="#1151B3"/>
<path id="Vector_10" d="M45.5938 46.5779C45.2404 46.5779 44.8818 46.5779 44.5274 46.5779C44.2315 44.788 44.4417 44.2852 45.5593 44.1451C45.5593 43.7217 45.5561 43.2909 45.5603 42.8602C45.5697 41.8293 46.035 41.3672 47.0428 41.3662C48.2953 41.3641 49.5478 41.3547 50.8003 41.3516C50.9341 41.3516 51.0679 41.3704 51.2362 41.3829C51.2362 42.3113 51.2362 43.2104 51.2362 44.097C52.266 44.4378 52.7198 45.3537 52.3842 46.3918C52.3549 46.4817 52.1908 46.5716 52.082 46.5821C51.7903 46.6082 51.4945 46.5915 51.1442 46.5915C51.1087 46.2078 51.0763 45.8565 51.0418 45.4812C50.7794 45.4812 50.542 45.4812 50.3047 45.4822C49.9357 46.6845 49.324 46.8936 48.4939 46.1012C47.4108 46.8602 46.8055 46.6793 46.5316 45.5168C45.8133 45.3777 45.8102 45.3819 45.5938 46.5779Z" fill="#1151B3"/>
<path id="Vector_11" d="M37.2102 16.8604C37.6116 16.3084 37.9556 15.8348 38.3351 15.312C38.6833 15.84 39.0042 16.3261 39.3607 16.8666C38.4595 17.3162 38.7084 18.0418 38.861 18.7631C39.0983 19.8839 39.3168 21.0088 39.5259 22.1348C39.5594 22.3125 39.5521 22.531 39.4778 22.6899C38.9802 23.7595 38.4595 24.8175 37.8772 26.0208C37.7287 25.588 37.6482 25.265 37.5102 24.967C36.8234 23.4824 36.7648 21.9801 37.2781 20.4265C37.4726 19.8368 37.5196 19.2001 37.6702 18.5948C37.8375 17.9247 37.9368 17.289 37.2102 16.8604Z" fill="#1151B3"/>
<path id="Vector_12" d="M28.2299 34.8515C27.8494 34.5661 27.5316 34.3141 27.1991 34.082C26.2038 33.3868 25.2001 32.702 24.2059 32.0057C23.9497 31.8269 23.7354 31.8468 23.5106 32.0548C23.2942 32.2556 23.0276 32.4114 22.8499 32.6382C22.7056 32.8222 22.6094 33.0763 22.5823 33.3105C22.531 33.7569 22.3721 34.0873 21.9006 34.1678C21.4605 34.243 21.152 33.9806 21.0329 33.4652C20.8123 32.5107 21.3559 31.4432 22.4296 30.7166C22.9879 30.3392 23.5765 30.1939 24.2592 30.3309C24.6952 30.4187 25.1583 30.3643 25.6068 30.3988C25.7365 30.4082 25.9236 30.4678 25.978 30.564C26.7391 31.9085 27.4824 33.2624 28.2268 34.6163C28.2477 34.6518 28.2299 34.7093 28.2299 34.8515Z" fill="#1151B3"/>
<path id="Vector_13" d="M32.3148 69.9999C31.1626 69.9999 30.0544 69.9999 28.9462 69.9999C28.7152 67.8107 30.9201 66.4181 34.596 66.5174C33.2013 67.3183 32.4883 68.4589 32.3148 69.9999Z" fill="#1151B3"/>
<path id="Vector_14" d="M45.1381 13.384C43.7664 14.8216 42.4648 16.1859 41.0952 17.6224C40.6456 16.6292 40.2274 15.7081 39.8438 14.8603C41.2719 14.1127 42.6519 13.3914 44.125 12.6208C44.3717 12.8069 44.7251 13.0725 45.1381 13.384Z" fill="#1151B3"/>
<path id="Vector_15" d="M13.3073 3.84403C12.5995 3.84403 11.9105 3.85135 11.2226 3.83358C11.1452 3.83148 11.0344 3.69871 11.0009 3.60357C10.6078 2.48386 10.1405 1.40702 9.20898 0.566455C10.6047 0.335404 12.9947 2.14094 13.3073 3.84403Z" fill="#1151B3"/>
</g>
</svg>
