<svg width="24" height="24" viewBox="0 0 24 24" fill="none" xmlns="http://www.w3.org/2000/svg">
<g id="staff &#38; worker">
<path id="Vector" d="M1.05078 21V18.2C1.05078 17.65 1.19245 17.1333 1.47578 16.65C1.75911 16.1667 2.15078 15.8 2.65078 15.55C3.50078 15.1167 4.45911 14.75 5.52578 14.45C6.59245 14.15 7.76745 14 9.05078 14C10.3341 14 11.5091 14.15 12.5758 14.45C13.6424 14.75 14.6008 15.1167 15.4508 15.55C15.9508 15.8 16.3424 16.1667 16.6258 16.65C16.9091 17.1333 17.0508 17.65 17.0508 18.2V21H1.05078ZM3.05078 19H15.0508V18.2C15.0508 18.0167 15.0049 17.85 14.9133 17.7C14.8216 17.55 14.7008 17.4333 14.5508 17.35C13.9508 17.05 13.1799 16.75 12.2383 16.45C11.2966 16.15 10.2341 16 9.05078 16C7.86745 16 6.80495 16.15 5.86328 16.45C4.92161 16.75 4.15078 17.05 3.55078 17.35C3.40078 17.4333 3.27995 17.55 3.18828 17.7C3.09661 17.85 3.05078 18.0167 3.05078 18.2V19ZM9.05078 13C7.95078 13 7.00911 12.6083 6.22578 11.825C5.44245 11.0417 5.05078 10.1 5.05078 9H4.80078C4.65078 9 4.52995 8.95417 4.43828 8.8625C4.34661 8.77083 4.30078 8.65 4.30078 8.5C4.30078 8.35 4.34661 8.22917 4.43828 8.1375C4.52995 8.04583 4.65078 8 4.80078 8H5.05078C5.05078 7.25 5.23411 6.575 5.60078 5.975C5.96745 5.375 6.45078 4.9 7.05078 4.55V5.5C7.05078 5.65 7.09661 5.77083 7.18828 5.8625C7.27995 5.95417 7.40078 6 7.55078 6C7.70078 6 7.82161 5.95417 7.91328 5.8625C8.00495 5.77083 8.05078 5.65 8.05078 5.5V4.15C8.20078 4.1 8.35911 4.0625 8.52578 4.0375C8.69245 4.0125 8.86745 4 9.05078 4C9.23411 4 9.40911 4.0125 9.57578 4.0375C9.74245 4.0625 9.90078 4.1 10.0508 4.15V5.5C10.0508 5.65 10.0966 5.77083 10.1883 5.8625C10.2799 5.95417 10.4008 6 10.5508 6C10.7008 6 10.8216 5.95417 10.9133 5.8625C11.0049 5.77083 11.0508 5.65 11.0508 5.5V4.55C11.6508 4.9 12.1341 5.375 12.5008 5.975C12.8674 6.575 13.0508 7.25 13.0508 8H13.3008C13.4508 8 13.5716 8.04583 13.6633 8.1375C13.7549 8.22917 13.8008 8.35 13.8008 8.5C13.8008 8.65 13.7549 8.77083 13.6633 8.8625C13.5716 8.95417 13.4508 9 13.3008 9H13.0508C13.0508 10.1 12.6591 11.0417 11.8758 11.825C11.0924 12.6083 10.1508 13 9.05078 13ZM9.05078 11C9.60078 11 10.0716 10.8042 10.4633 10.4125C10.8549 10.0208 11.0508 9.55 11.0508 9H7.05078C7.05078 9.55 7.24661 10.0208 7.63828 10.4125C8.02995 10.8042 8.50078 11 9.05078 11ZM16.5508 15L16.4008 14.25C16.3008 14.2167 16.2049 14.1792 16.1133 14.1375C16.0216 14.0958 15.9341 14.0333 15.8508 13.95L15.1508 14.2L14.6508 13.3L15.2008 12.8V12.2L14.6508 11.7L15.1508 10.8L15.8508 11.05C15.9174 10.9833 16.0008 10.925 16.1008 10.875C16.2008 10.825 16.3008 10.7833 16.4008 10.75L16.5508 10H17.5508L17.7008 10.75C17.8008 10.7833 17.9008 10.825 18.0008 10.875C18.1008 10.925 18.1841 10.9833 18.2508 11.05L18.9508 10.8L19.4508 11.7L18.9008 12.2V12.8L19.4508 13.3L18.9508 14.2L18.2508 13.95C18.1674 14.0333 18.0799 14.0958 17.9883 14.1375C17.8966 14.1792 17.8008 14.2167 17.7008 14.25L17.5508 15H16.5508ZM17.0508 13.25C17.2508 13.25 17.4258 13.175 17.5758 13.025C17.7258 12.875 17.8008 12.7 17.8008 12.5C17.8008 12.3 17.7258 12.125 17.5758 11.975C17.4258 11.825 17.2508 11.75 17.0508 11.75C16.8508 11.75 16.6758 11.825 16.5258 11.975C16.3758 12.125 16.3008 12.3 16.3008 12.5C16.3008 12.7 16.3758 12.875 16.5258 13.025C16.6758 13.175 16.8508 13.25 17.0508 13.25ZM18.8508 10L18.6508 8.95C18.5008 8.9 18.3633 8.8375 18.2383 8.7625C18.1133 8.6875 18.0008 8.6 17.9008 8.5L16.8508 8.85L16.1508 7.65L17.0008 6.9C16.9674 6.81667 16.9508 6.75 16.9508 6.7V6.3C16.9508 6.25 16.9674 6.18333 17.0008 6.1L16.1508 5.35L16.8508 4.15L17.9008 4.5C18.0008 4.4 18.1133 4.3125 18.2383 4.2375C18.3633 4.1625 18.5008 4.1 18.6508 4.05L18.8508 3H20.2508L20.4508 4.05C20.6008 4.1 20.7383 4.1625 20.8633 4.2375C20.9883 4.3125 21.1008 4.4 21.2008 4.5L22.2508 4.15L22.9508 5.35L22.1008 6.1C22.1341 6.18333 22.1508 6.25 22.1508 6.3V6.7C22.1508 6.75 22.1341 6.81667 22.1008 6.9L22.9508 7.65L22.2508 8.85L21.2008 8.5C21.1008 8.6 20.9883 8.6875 20.8633 8.7625C20.7383 8.8375 20.6008 8.9 20.4508 8.95L20.2508 10H18.8508ZM19.5508 7.75C19.9008 7.75 20.1966 7.62917 20.4383 7.3875C20.6799 7.14583 20.8008 6.85 20.8008 6.5C20.8008 6.15 20.6799 5.85417 20.4383 5.6125C20.1966 5.37083 19.9008 5.25 19.5508 5.25C19.2008 5.25 18.9049 5.37083 18.6633 5.6125C18.4216 5.85417 18.3008 6.15 18.3008 6.5C18.3008 6.85 18.4216 7.14583 18.6633 7.3875C18.9049 7.62917 19.2008 7.75 19.5508 7.75Z" fill="white"/>
</g>
</svg>
