<svg width="46" height="33" viewBox="0 0 46 33" fill="none" xmlns="http://www.w3.org/2000/svg">
<path fill-rule="evenodd" clip-rule="evenodd" d="M24.7158 11.28L22.3791 11.7963V9.84603L24.7158 9.33936V11.28ZM29.5753 12.3603C28.6629 12.3603 28.0764 12.8 27.7506 13.106L27.6296 12.5132H25.5815V23.6601L27.9088 23.1535L27.9181 20.448C28.2533 20.6966 28.7467 21.0503 29.5659 21.0503C31.2324 21.0503 32.7498 19.6736 32.7498 16.6431C32.7405 13.8708 31.2044 12.3603 29.5753 12.3603ZM29.0167 18.9471C28.4674 18.9471 28.1416 18.7463 27.9181 18.4978L27.9088 14.951C28.1509 14.6738 28.486 14.4826 29.0167 14.4826C29.8638 14.4826 30.4503 15.4577 30.4503 16.71C30.4503 17.9911 29.8731 18.9471 29.0167 18.9471ZM40.0858 16.7387C40.0858 14.2914 38.9314 12.3603 36.7251 12.3603C34.5094 12.3603 33.1688 14.2914 33.1688 16.7196C33.1688 19.5971 34.7515 21.0503 37.023 21.0503C38.1308 21.0503 38.9687 20.7921 39.6017 20.4289V18.5169C38.9687 18.8419 38.2425 19.0427 37.3209 19.0427C36.4179 19.0427 35.6172 18.7176 35.5148 17.5896H40.0672C40.0672 17.5369 40.0706 17.4172 40.0744 17.2793L40.0744 17.2788L40.0744 17.2784L40.0745 17.2777L40.0745 17.2773L40.0745 17.2768C40.0797 17.09 40.0858 16.8703 40.0858 16.7387ZM35.4869 15.8305C35.4869 14.7503 36.1292 14.301 36.7157 14.301C37.2836 14.301 37.8887 14.7503 37.8887 15.8305H35.4869ZM22.379 12.5228H24.7157V20.8878H22.379V12.5228ZM19.726 12.5228L19.8749 13.2302C20.4242 12.1978 21.5134 12.4081 21.8113 12.5228V14.7216C21.5227 14.6164 20.5918 14.4826 20.0425 15.2187V20.8878H17.7151V12.5228H19.726ZM15.22 10.4483L12.9485 10.9454L12.9392 18.6029C12.9392 20.0178 13.9725 21.0598 15.3503 21.0598C16.1137 21.0598 16.6723 20.9164 16.9795 20.7443V18.8037C16.6816 18.928 15.2107 19.3677 15.2107 17.9528V14.5591H16.9795V12.5228H15.2107L15.22 10.4483ZM9.71817 14.4348C9.22476 14.4348 8.92685 14.5782 8.92685 14.951C8.92685 15.3581 9.43956 15.5372 10.0756 15.7594C11.1126 16.1215 12.4773 16.5982 12.4831 18.3639C12.4831 20.0752 11.1518 21.0598 9.21545 21.0598C8.41483 21.0598 7.53973 20.8973 6.67394 20.5149V18.2397C7.45594 18.6794 8.44276 19.0045 9.21545 19.0045C9.73679 19.0045 10.1092 18.8611 10.1092 18.4213C10.1092 17.9704 9.55339 17.7643 8.88242 17.5155C7.86056 17.1365 6.57153 16.6585 6.57153 15.0658C6.57153 13.3737 7.82833 12.3603 9.71817 12.3603C10.4909 12.3603 11.2542 12.4846 12.0269 12.8001V15.0466C11.3194 14.6547 10.4257 14.4348 9.71817 14.4348Z" fill="#6461FC"/>
</svg>
