<svg xmlns="http://www.w3.org/2000/svg" width="50" height="50" viewBox="0 0 50 50" fill="none">
  <path d="M47.1775 24.4379V26.3545C47.175 30.8471 45.7202 35.2184 43.0303 38.8167C40.3404 42.4149 36.5594 45.0472 32.2512 46.321C27.943 47.5948 23.3385 47.4418 19.1243 45.8849C14.9102 44.328 11.3122 41.4506 8.86703 37.6818C6.42184 33.9129 5.26043 29.4547 5.55602 24.9719C5.85162 20.489 7.58838 16.2219 10.5073 12.8068C13.4262 9.39166 17.3708 7.01158 21.7529 6.02151C26.135 5.03143 30.7198 5.4844 34.8234 7.31287M47.1775 9.6879L32.2367 24.6436C29.4591 27.4241 28.0703 28.8143 26.3438 28.8147C24.6173 28.8151 23.2277 27.4256 20.4487 24.6466L20.0942 24.2921" stroke="#34C759" stroke-width="4.16667" stroke-linecap="round" stroke-linejoin="round"/>
</svg>