<svg width="32" height="33" viewBox="0 0 32 33" fill="none" xmlns="http://www.w3.org/2000/svg">
<rect x="0.615194" y="1.11519" width="30.7696" height="30.7696" rx="7.38481" stroke="#EBEBEB" stroke-width="1.23039"/>
<path d="M16.9375 16.5C16.9375 16.6854 16.8825 16.8667 16.7795 17.0208C16.6765 17.175 16.5301 17.2952 16.3588 17.3661C16.1875 17.4371 15.999 17.4557 15.8171 17.4195C15.6352 17.3833 15.4682 17.294 15.3371 17.1629C15.206 17.0318 15.1167 16.8648 15.0805 16.6829C15.0443 16.501 15.0629 16.3125 15.1339 16.1412C15.2048 15.9699 15.325 15.8235 15.4792 15.7205C15.6333 15.6175 15.8146 15.5625 16 15.5625C16.2486 15.5625 16.4871 15.6613 16.6629 15.8371C16.8387 16.0129 16.9375 16.2514 16.9375 16.5ZM16 12.125C16.1854 12.125 16.3667 12.07 16.5208 11.967C16.675 11.864 16.7952 11.7176 16.8661 11.5463C16.9371 11.375 16.9557 11.1865 16.9195 11.0046C16.8833 10.8227 16.794 10.6557 16.6629 10.5246C16.5318 10.3935 16.3648 10.3042 16.1829 10.268C16.001 10.2318 15.8125 10.2504 15.6412 10.3214C15.4699 10.3923 15.3235 10.5125 15.2205 10.6667C15.1175 10.8208 15.0625 11.0021 15.0625 11.1875C15.0625 11.4361 15.1613 11.6746 15.3371 11.8504C15.5129 12.0262 15.7514 12.125 16 12.125ZM16 20.875C15.8146 20.875 15.6333 20.93 15.4792 21.033C15.325 21.136 15.2048 21.2824 15.1339 21.4537C15.0629 21.625 15.0443 21.8135 15.0805 21.9954C15.1167 22.1773 15.206 22.3443 15.3371 22.4754C15.4682 22.6065 15.6352 22.6958 15.8171 22.732C15.999 22.7682 16.1875 22.7496 16.3588 22.6786C16.5301 22.6077 16.6765 22.4875 16.7795 22.3333C16.8825 22.1792 16.9375 21.9979 16.9375 21.8125C16.9375 21.5639 16.8387 21.3254 16.6629 21.1496C16.4871 20.9738 16.2486 20.875 16 20.875Z" fill="#0A0C0F"/>
</svg>
