<svg width="16" height="16" viewBox="0 0 16 16" fill="none" xmlns="http://www.w3.org/2000/svg">
<path d="M7.06634 9.20004L5.63301 7.76671C5.51079 7.64449 5.35523 7.58337 5.16634 7.58337C4.97745 7.58337 4.8219 7.64449 4.69967 7.76671C4.57745 7.88893 4.51634 8.04449 4.51634 8.23337C4.51634 8.42226 4.57745 8.57782 4.69967 8.70004L6.59967 10.6C6.73301 10.7334 6.88856 10.8 7.06634 10.8C7.24412 10.8 7.39967 10.7334 7.53301 10.6L11.2997 6.83337C11.4219 6.71115 11.483 6.5556 11.483 6.36671C11.483 6.17782 11.4219 6.02226 11.2997 5.90004C11.1775 5.77782 11.0219 5.71671 10.833 5.71671C10.6441 5.71671 10.4886 5.77782 10.3663 5.90004L7.06634 9.20004ZM7.99967 14.6667C7.07745 14.6667 6.21079 14.4917 5.39967 14.1417C4.58856 13.7917 3.88301 13.3167 3.28301 12.7167C2.68301 12.1167 2.20801 11.4112 1.85801 10.6C1.50801 9.78893 1.33301 8.92226 1.33301 8.00004C1.33301 7.07782 1.50801 6.21115 1.85801 5.40004C2.20801 4.58893 2.68301 3.88337 3.28301 3.28337C3.88301 2.68337 4.58856 2.20837 5.39967 1.85837C6.21079 1.50837 7.07745 1.33337 7.99967 1.33337C8.9219 1.33337 9.78856 1.50837 10.5997 1.85837C11.4108 2.20837 12.1163 2.68337 12.7163 3.28337C13.3163 3.88337 13.7913 4.58893 14.1413 5.40004C14.4913 6.21115 14.6663 7.07782 14.6663 8.00004C14.6663 8.92226 14.4913 9.78893 14.1413 10.6C13.7913 11.4112 13.3163 12.1167 12.7163 12.7167C12.1163 13.3167 11.4108 13.7917 10.5997 14.1417C9.78856 14.4917 8.9219 14.6667 7.99967 14.6667ZM7.99967 13.3334C9.48856 13.3334 10.7497 12.8167 11.783 11.7834C12.8163 10.75 13.333 9.48893 13.333 8.00004C13.333 6.51115 12.8163 5.25004 11.783 4.21671C10.7497 3.18337 9.48856 2.66671 7.99967 2.66671C6.51079 2.66671 5.24967 3.18337 4.21634 4.21671C3.18301 5.25004 2.66634 6.51115 2.66634 8.00004C2.66634 9.48893 3.18301 10.75 4.21634 11.7834C5.24967 12.8167 6.51079 13.3334 7.99967 13.3334Z" fill="#12B76A"/>
</svg>
