<svg width="32" height="33" viewBox="0 0 32 33" fill="none" xmlns="http://www.w3.org/2000/svg">
<rect x="0.615194" y="1.11519" width="30.7696" height="30.7696" rx="7.38481" stroke="#EBEBEB" stroke-width="1.23039"/>
<path d="M22.8748 10.0146H19.7498V9.38965C19.7498 8.89237 19.5522 8.41545 19.2006 8.06382C18.8489 7.71219 18.372 7.51465 17.8748 7.51465H14.1248C13.6275 7.51465 13.1506 7.71219 12.7989 8.06382C12.4473 8.41545 12.2498 8.89237 12.2498 9.38965V10.0146H9.12476C8.959 10.0146 8.80002 10.0805 8.68281 10.1977C8.5656 10.3149 8.49976 10.4739 8.49976 10.6396C8.49976 10.8054 8.5656 10.9644 8.68281 11.0816C8.80002 11.1988 8.959 11.2646 9.12476 11.2646H9.74976V22.5146C9.74976 22.8462 9.88145 23.1641 10.1159 23.3985C10.3503 23.6329 10.6682 23.7646 10.9998 23.7646H20.9998C21.3313 23.7646 21.6492 23.6329 21.8836 23.3985C22.1181 23.1641 22.2498 22.8462 22.2498 22.5146V11.2646H22.8748C23.0405 11.2646 23.1995 11.1988 23.3167 11.0816C23.4339 10.9644 23.4998 10.8054 23.4998 10.6396C23.4998 10.4739 23.4339 10.3149 23.3167 10.1977C23.1995 10.0805 23.0405 10.0146 22.8748 10.0146ZM13.4998 9.38965C13.4998 9.22389 13.5656 9.06492 13.6828 8.94771C13.8 8.8305 13.959 8.76465 14.1248 8.76465H17.8748C18.0405 8.76465 18.1995 8.8305 18.3167 8.94771C18.4339 9.06492 18.4998 9.22389 18.4998 9.38965V10.0146H13.4998V9.38965ZM20.9998 22.5146H10.9998V11.2646H20.9998V22.5146ZM14.7498 14.3896V19.3896C14.7498 19.5554 14.6839 19.7144 14.5667 19.8316C14.4495 19.9488 14.2905 20.0146 14.1248 20.0146C13.959 20.0146 13.8 19.9488 13.6828 19.8316C13.5656 19.7144 13.4998 19.5554 13.4998 19.3896V14.3896C13.4998 14.2239 13.5656 14.0649 13.6828 13.9477C13.8 13.8305 13.959 13.7646 14.1248 13.7646C14.2905 13.7646 14.4495 13.8305 14.5667 13.9477C14.6839 14.0649 14.7498 14.2239 14.7498 14.3896ZM18.4998 14.3896V19.3896C18.4998 19.5554 18.4339 19.7144 18.3167 19.8316C18.1995 19.9488 18.0405 20.0146 17.8748 20.0146C17.709 20.0146 17.55 19.9488 17.4328 19.8316C17.3156 19.7144 17.2498 19.5554 17.2498 19.3896V14.3896C17.2498 14.2239 17.3156 14.0649 17.4328 13.9477C17.55 13.8305 17.709 13.7646 17.8748 13.7646C18.0405 13.7646 18.1995 13.8305 18.3167 13.9477C18.4339 14.0649 18.4998 14.2239 18.4998 14.3896Z" fill="#343330"/>
</svg>
