<svg width="32" height="32" viewBox="0 0 32 32" fill="none" xmlns="http://www.w3.org/2000/svg">
<rect width="32" height="32" rx="16" fill="white"/>
<path d="M26.781 13.0045C26.667 12.6551 26.4529 12.3469 26.1652 12.1183C25.8775 11.8896 25.5289 11.7505 25.1629 11.7183L19.8191 11.2561L17.7285 6.27419C17.5847 5.9354 17.3443 5.64643 17.0374 5.44329C16.7305 5.24016 16.3706 5.13184 16.0025 5.13184C15.6345 5.13184 15.2746 5.24016 14.9677 5.44329C14.6608 5.64643 14.4204 5.9354 14.2766 6.27419L12.1832 11.2561L6.83942 11.7183C6.47135 11.7487 6.12047 11.8872 5.83082 12.1164C5.54117 12.3455 5.32564 12.6551 5.21128 13.0063C5.09693 13.3575 5.08883 13.7346 5.18802 14.0904C5.2872 14.4462 5.48924 14.7647 5.76879 15.0061L9.83004 18.5498L8.61129 23.8223C8.52771 24.1813 8.55181 24.557 8.68058 24.9024C8.80936 25.2479 9.03709 25.5476 9.3353 25.7643C9.63352 25.981 9.98899 26.105 10.3573 26.1207C10.7256 26.1365 11.0903 26.0434 11.406 25.8529L15.9997 23.0629L20.5935 25.8529C20.9091 26.0431 21.2738 26.136 21.6419 26.12C22.01 26.1041 22.3653 25.9801 22.6633 25.7635C22.9614 25.5469 23.189 25.2472 23.3177 24.902C23.4465 24.5567 23.4706 24.1812 23.3872 23.8223L22.1685 18.5498L26.2297 15.0061C26.5085 14.7638 26.7096 14.4446 26.8077 14.0885C26.9057 13.7325 26.8964 13.3553 26.781 13.0045ZM20.5232 17.0001C20.2661 17.2238 20.0748 17.5134 19.9699 17.8376C19.865 18.1618 19.8505 18.5086 19.9279 18.8404L20.9957 23.4642L16.97 21.0192C16.6777 20.8412 16.342 20.747 15.9997 20.747C15.6574 20.747 15.3218 20.8412 15.0294 21.0192L11.0038 23.4642L12.0716 18.8404C12.149 18.5086 12.1345 18.1618 12.0296 17.8376C11.9247 17.5134 11.7334 17.2238 11.4763 17.0001L7.90536 13.8848L12.606 13.4779C12.9464 13.4488 13.2722 13.3268 13.5481 13.1253C13.824 12.9238 14.0393 12.6505 14.1707 12.3351L15.9997 7.97669L17.8288 12.3351C17.9601 12.6505 18.1754 12.9238 18.4513 13.1253C18.7272 13.3268 19.0531 13.4488 19.3935 13.4779L24.0941 13.8848L20.5232 17.0001Z" fill="#262626"/>
</svg>
