<svg width="20" height="20" viewBox="0 0 20 20" fill="none" xmlns="http://www.w3.org/2000/svg">
<g id="icon/upload 1">
<path id="Vector" d="M5.41671 16.6668C4.15282 16.6668 3.07296 16.2293 2.17712 15.3543C1.28129 14.4793 0.833374 13.4099 0.833374 12.146C0.833374 11.0627 1.15976 10.0974 1.81254 9.25016C2.46532 8.40294 3.31948 7.86127 4.37504 7.62516C4.72226 6.34738 5.41671 5.31266 6.45837 4.521C7.50004 3.72933 8.6806 3.3335 10 3.3335C11.625 3.3335 13.0035 3.89947 14.1355 5.03141C15.2674 6.16336 15.8334 7.54183 15.8334 9.16683C16.7917 9.27794 17.5868 9.69113 18.2188 10.4064C18.8507 11.1217 19.1667 11.9585 19.1667 12.9168C19.1667 13.9585 18.8021 14.8439 18.073 15.5731C17.3438 16.3022 16.4584 16.6668 15.4167 16.6668H10.8334C10.375 16.6668 9.98268 16.5036 9.65629 16.1772C9.3299 15.8509 9.16671 15.4585 9.16671 15.0002V10.6668L8.41671 11.4168C8.26393 11.5696 8.06948 11.646 7.83337 11.646C7.59726 11.646 7.40282 11.5696 7.25004 11.4168C7.09726 11.2641 7.02087 11.0696 7.02087 10.8335C7.02087 10.5974 7.09726 10.4029 7.25004 10.2502L9.41671 8.0835C9.50004 8.00016 9.59032 7.94113 9.68754 7.90641C9.78476 7.87169 9.88893 7.85433 10 7.85433C10.1112 7.85433 10.2153 7.87169 10.3125 7.90641C10.4098 7.94113 10.5 8.00016 10.5834 8.0835L12.75 10.2502C12.9028 10.4029 12.9792 10.5974 12.9792 10.8335C12.9792 11.0696 12.9028 11.2641 12.75 11.4168C12.5973 11.5696 12.4028 11.646 12.1667 11.646C11.9306 11.646 11.7362 11.5696 11.5834 11.4168L10.8334 10.6668V15.0002H15.4167C16 15.0002 16.4931 14.7988 16.8959 14.396C17.2987 13.9932 17.5 13.5002 17.5 12.9168C17.5 12.3335 17.2987 11.8404 16.8959 11.4377C16.4931 11.0349 16 10.8335 15.4167 10.8335H14.1667V9.16683C14.1667 8.01405 13.7605 7.03141 12.948 6.21891C12.1355 5.40641 11.1528 5.00016 10 5.00016C8.84726 5.00016 7.86462 5.40641 7.05212 6.21891C6.23962 7.03141 5.83337 8.01405 5.83337 9.16683H5.41671C4.61115 9.16683 3.92365 9.45155 3.35421 10.021C2.78476 10.5904 2.50004 11.2779 2.50004 12.0835C2.50004 12.8891 2.78476 13.5766 3.35421 14.146C3.92365 14.7154 4.61115 15.0002 5.41671 15.0002H6.66671C6.90282 15.0002 7.10073 15.08 7.26046 15.2397C7.42018 15.3995 7.50004 15.5974 7.50004 15.8335C7.50004 16.0696 7.42018 16.2675 7.26046 16.4272C7.10073 16.587 6.90282 16.6668 6.66671 16.6668H5.41671Z" fill="#484649"/>
</g>
</svg>
