<svg width="21" height="19" viewBox="0 0 21 19" fill="none" xmlns="http://www.w3.org/2000/svg">
<path id="Vector" d="M20.1499 18.4591C20.0841 18.5731 19.9894 18.6678 19.8753 18.7337C19.7613 18.7995 19.6319 18.8341 19.5002 18.8341H1.50021C1.36862 18.834 1.23938 18.7992 1.12548 18.7333C1.01157 18.6674 0.917001 18.5728 0.851265 18.4588C0.78553 18.3448 0.750943 18.2155 0.750977 18.0839C0.75101 17.9523 0.785664 17.8231 0.851458 17.7091C2.27927 15.2407 4.47958 13.4707 7.04739 12.6316C5.77724 11.8755 4.79041 10.7233 4.23845 9.35203C3.68648 7.98076 3.59991 6.46622 3.99203 5.04099C4.38414 3.61576 5.23326 2.35865 6.40898 1.46271C7.5847 0.566771 9.02202 0.081543 10.5002 0.081543C11.9784 0.081543 13.4157 0.566771 14.5914 1.46271C15.7672 2.35865 16.6163 3.61576 17.0084 5.04099C17.4005 6.46622 17.3139 7.98076 16.762 9.35203C16.21 10.7233 15.2232 11.8755 13.953 12.6316C16.5208 13.4707 18.7211 15.2407 20.149 17.7091C20.2149 17.823 20.2497 17.9523 20.2499 18.084C20.2501 18.2156 20.2156 18.345 20.1499 18.4591Z" fill="#1151B4"/>
</svg>
