<svg width="14" height="14" viewBox="0 0 14 14" fill="none" xmlns="http://www.w3.org/2000/svg">
<path d="M6.99967 9.97921C6.88856 9.97921 6.7844 9.96185 6.68717 9.92712C6.58995 9.8924 6.49967 9.83337 6.41634 9.75004L3.41634 6.75004C3.26356 6.59726 3.18717 6.40282 3.18717 6.16671C3.18717 5.9306 3.26356 5.73615 3.41634 5.58337C3.56912 5.4306 3.76704 5.35073 4.01009 5.34379C4.25315 5.33685 4.45106 5.40976 4.60384 5.56254L6.16634 7.12504V1.16671C6.16634 0.930596 6.2462 0.73268 6.40592 0.572957C6.56565 0.413235 6.76356 0.333374 6.99967 0.333374C7.23579 0.333374 7.4337 0.413235 7.59342 0.572957C7.75315 0.73268 7.83301 0.930596 7.83301 1.16671V7.12504L9.39551 5.56254C9.54829 5.40976 9.7462 5.33685 9.98926 5.34379C10.2323 5.35073 10.4302 5.4306 10.583 5.58337C10.7358 5.73615 10.8122 5.9306 10.8122 6.16671C10.8122 6.40282 10.7358 6.59726 10.583 6.75004L7.58301 9.75004C7.49967 9.83337 7.4094 9.8924 7.31217 9.92712C7.21495 9.96185 7.11079 9.97921 6.99967 9.97921ZM1.99967 13.6667C1.54134 13.6667 1.14898 13.5035 0.822591 13.1771C0.496202 12.8507 0.333008 12.4584 0.333008 12V10.3334C0.333008 10.0973 0.412869 9.89935 0.572591 9.73962C0.732313 9.5799 0.93023 9.50004 1.16634 9.50004C1.40245 9.50004 1.60037 9.5799 1.76009 9.73962C1.91981 9.89935 1.99967 10.0973 1.99967 10.3334V12H11.9997V10.3334C11.9997 10.0973 12.0795 9.89935 12.2393 9.73962C12.399 9.5799 12.5969 9.50004 12.833 9.50004C13.0691 9.50004 13.267 9.5799 13.4268 9.73962C13.5865 9.89935 13.6663 10.0973 13.6663 10.3334V12C13.6663 12.4584 13.5031 12.8507 13.1768 13.1771C12.8504 13.5035 12.458 13.6667 11.9997 13.6667H1.99967Z" fill="white"/>
</svg>
