<svg width="24" height="24" viewBox="0 0 24 24" fill="none" xmlns="http://www.w3.org/2000/svg">
<path d="M15.3816 9.92763L15.3816 9.92766C15.4759 9.99041 15.5533 10.0755 15.6068 10.1754C15.6602 10.2752 15.6882 10.3867 15.6882 10.5C15.6882 10.6133 15.6602 10.7248 15.6068 10.8246C15.5533 10.9245 15.4759 11.0096 15.3816 11.0723L15.3816 11.0724L10.8816 14.0724L10.8816 14.0724C10.778 14.1415 10.6576 14.1812 10.5333 14.1872C10.4089 14.1932 10.2853 14.1654 10.1755 14.1066C10.0658 14.0478 9.97401 13.9604 9.91008 13.8535C9.84615 13.7467 9.81242 13.6245 9.8125 13.5V13.5V7.5V7.49996C9.81242 7.37546 9.84615 7.25328 9.91008 7.14646C9.97401 7.03963 10.0658 6.95217 10.1755 6.89341C10.2853 6.83465 10.4089 6.80679 10.5333 6.81282C10.6576 6.81884 10.778 6.85852 10.8816 6.92762L10.8816 6.92763L15.3816 9.92763ZM11.1875 12.0984V12.2152L11.2847 12.1504L13.6828 10.552L13.7609 10.4999L13.6827 10.4479L11.2846 8.8542L11.1875 8.78967V8.90625V12.0984ZM20.25 15.8125H20.3125V15.75V5.25V5.1875H20.25H3.75H3.6875V5.25V15.75V15.8125H3.75H20.25ZM3.75 3.8125H20.25C20.6312 3.8125 20.9969 3.96395 21.2665 4.23353C21.536 4.50312 21.6875 4.86875 21.6875 5.25V15.75C21.6875 16.1312 21.536 16.4969 21.2665 16.7665C20.9969 17.036 20.6312 17.1875 20.25 17.1875H3.75C3.36875 17.1875 3.00312 17.036 2.73353 16.7665C2.46395 16.4969 2.3125 16.1312 2.3125 15.75V5.25C2.3125 4.86875 2.46395 4.50312 2.73353 4.23353C3.00312 3.96395 3.36875 3.8125 3.75 3.8125ZM21.6875 19.5C21.6875 19.6823 21.6151 19.8572 21.4861 19.9861C21.3572 20.1151 21.1823 20.1875 21 20.1875H3C2.81766 20.1875 2.6428 20.1151 2.51386 19.9861C2.38493 19.8572 2.3125 19.6823 2.3125 19.5C2.3125 19.3177 2.38493 19.1428 2.51386 19.0139C2.6428 18.8849 2.81766 18.8125 3 18.8125H21C21.1823 18.8125 21.3572 18.8849 21.4861 19.0139C21.6151 19.1428 21.6875 19.3177 21.6875 19.5Z" fill="#1151B4" stroke="#1151B4" stroke-width="0.125"/>
</svg>
