<svg width="32" height="33" viewBox="0 0 32 33" fill="none" xmlns="http://www.w3.org/2000/svg">
<rect x="0.615194" y="1.11519" width="30.7696" height="30.7696" rx="7.38481" stroke="#EBEBEB" stroke-width="1.23039"/>
<path d="M18.9833 16.2646C18.9833 17.9146 17.6499 19.2479 15.9999 19.2479C14.3499 19.2479 13.0166 17.9146 13.0166 16.2646C13.0166 14.6146 14.3499 13.2812 15.9999 13.2812C17.6499 13.2812 18.9833 14.6146 18.9833 16.2646Z" stroke="#292D32" stroke-width="1.23039" stroke-linecap="round" stroke-linejoin="round"/>
<path d="M15.9999 23.1567C18.9415 23.1567 21.6832 21.4233 23.5915 18.4233C24.3415 17.2483 24.3415 15.2733 23.5915 14.0983C21.6832 11.0983 18.9415 9.36499 15.9999 9.36499C13.0582 9.36499 10.3165 11.0983 8.4082 14.0983C7.6582 15.2733 7.6582 17.2483 8.4082 18.4233C10.3165 21.4233 13.0582 23.1567 15.9999 23.1567Z" stroke="#292D32" stroke-width="1.23039" stroke-linecap="round" stroke-linejoin="round"/>
</svg>
