<svg width="21" height="21" viewBox="0 0 21 21" fill="none" xmlns="http://www.w3.org/2000/svg">
<g id="visibility_FILL0_wght400_GRAD0_opsz24 1">
<path id="Vector" d="M10.4987 13.833C11.5404 13.833 12.4258 13.4684 13.1549 12.7393C13.8841 12.0101 14.2487 11.1247 14.2487 10.083C14.2487 9.04134 13.8841 8.15592 13.1549 7.42676C12.4258 6.69759 11.5404 6.33301 10.4987 6.33301C9.45703 6.33301 8.57161 6.69759 7.84245 7.42676C7.11328 8.15592 6.7487 9.04134 6.7487 10.083C6.7487 11.1247 7.11328 12.0101 7.84245 12.7393C8.57161 13.4684 9.45703 13.833 10.4987 13.833ZM10.4987 12.333C9.8737 12.333 9.34245 12.1143 8.90495 11.6768C8.46745 11.2393 8.2487 10.708 8.2487 10.083C8.2487 9.45801 8.46745 8.92676 8.90495 8.48926C9.34245 8.05176 9.8737 7.83301 10.4987 7.83301C11.1237 7.83301 11.6549 8.05176 12.0924 8.48926C12.5299 8.92676 12.7487 9.45801 12.7487 10.083C12.7487 10.708 12.5299 11.2393 12.0924 11.6768C11.6549 12.1143 11.1237 12.333 10.4987 12.333ZM10.4987 16.333C8.47092 16.333 6.6237 15.767 4.95703 14.6351C3.29036 13.5031 2.08203 11.9858 1.33203 10.083C2.08203 8.18023 3.29036 6.66287 4.95703 5.53092C6.6237 4.39898 8.47092 3.83301 10.4987 3.83301C12.5265 3.83301 14.3737 4.39898 16.0404 5.53092C17.707 6.66287 18.9154 8.18023 19.6654 10.083C18.9154 11.9858 17.707 13.5031 16.0404 14.6351C14.3737 15.767 12.5265 16.333 10.4987 16.333ZM10.4987 14.6663C12.0681 14.6663 13.5091 14.2531 14.8216 13.4268C16.1341 12.6004 17.1376 11.4858 17.832 10.083C17.1376 8.68023 16.1341 7.56565 14.8216 6.73926C13.5091 5.91287 12.0681 5.49967 10.4987 5.49967C8.92925 5.49967 7.48828 5.91287 6.17578 6.73926C4.86328 7.56565 3.85981 8.68023 3.16536 10.083C3.85981 11.4858 4.86328 12.6004 6.17578 13.4268C7.48828 14.2531 8.92925 14.6663 10.4987 14.6663Z" fill="#1F4068"/>
</g>
</svg>
