<svg width="112" height="77" viewBox="0 0 112 77" fill="none" xmlns="http://www.w3.org/2000/svg">
<path fill-rule="evenodd" clip-rule="evenodd" d="M47.815 43.5849H45.0283L42.9386 35.3781C42.8394 35.0006 42.6288 34.6669 42.319 34.5096C41.5459 34.1143 40.694 33.7997 39.7646 33.641V33.325H44.2538C44.8734 33.325 45.3381 33.7997 45.4155 34.3509L46.4998 40.2707L49.2851 33.325H51.9944L47.815 43.5849ZM53.5433 43.5849H50.9115L53.0786 33.325H55.7104L53.5433 43.5849ZM59.1154 36.1673C59.1928 35.6147 59.6575 35.2987 60.1996 35.2987C61.0515 35.2194 61.9795 35.3781 62.754 35.772L63.2187 33.563C62.4442 33.247 61.5923 33.0884 60.8192 33.0884C58.2648 33.0884 56.4061 34.5095 56.4061 36.4819C56.4061 37.9823 57.7227 38.7702 58.652 39.2448C59.6575 39.7181 60.0447 40.034 59.9673 40.5073C59.9673 41.2172 59.1928 41.5331 58.4197 41.5331C57.4904 41.5331 56.561 41.2965 55.7104 40.9012L55.2458 43.1116C56.1751 43.5055 57.1806 43.6642 58.1099 43.6642C60.9741 43.7421 62.754 42.3224 62.754 40.1913C62.754 37.5077 59.1154 37.3504 59.1154 36.1673ZM71.9647 43.5849L69.875 33.325H67.6304C67.1657 33.325 66.701 33.641 66.5461 34.1143L62.6765 43.5849H65.3858L65.9266 42.0858H69.2554L69.5652 43.5849H71.9647ZM68.0176 36.0879L68.7907 39.9547H66.6236L68.0176 36.0879Z" fill="#172B85"/>
</svg>
