<svg width="80" height="60" viewBox="0 0 80 60" fill="none" xmlns="http://www.w3.org/2000/svg">
<g id="Frame" clip-path="url(#clip0_1449_21738)">
<g id="Group">
<path id="Vector" d="M79.4823 53.8168C77.6577 53.8276 75.833 53.8384 74.0083 53.8492C72.8901 53.8554 71.7718 53.8554 70.6543 53.8708C70.3574 53.8747 70.1608 53.8022 70.015 53.5091C69.8754 53.2276 69.6764 52.9508 69.4389 52.7472C69.1898 52.5335 69.1374 52.313 69.1536 52.0114C69.4204 47.2006 69.678 42.3898 69.9464 37.5798C69.9525 37.4641 70.0343 37.3207 70.126 37.2466C70.635 36.8348 71.1664 36.4508 71.67 36.0328C71.7772 35.9441 71.8428 35.7567 71.8551 35.6086C72.051 33.369 72.2353 31.1294 72.4235 28.8891C72.4312 28.8004 72.4505 28.7125 72.4528 28.7001C72.7142 28.6322 72.9487 28.6022 73.1461 28.5011C73.1985 28.4749 73.1908 28.1433 73.1222 28.1032C72.9294 27.9906 72.6911 27.9567 72.4705 27.8919C72.4296 27.9312 72.388 27.9698 72.3471 28.0091C72.1042 26.8238 71.8605 25.6384 71.6176 24.4531C71.6708 24.4245 71.7232 24.396 71.7764 24.3675C72.0494 24.7137 72.3224 25.0592 72.5947 25.4055C72.6317 25.3963 72.6695 25.387 72.7065 25.3777C72.6865 25.2551 72.7111 25.0878 72.6394 25.0153C71.8798 24.2472 71.8636 23.3495 72.1258 22.3816C72.2484 21.9281 72.351 21.4639 72.398 20.9981C72.4142 20.8353 72.2353 20.6526 72.1312 20.452C71.9885 20.624 71.8613 20.7775 71.7317 20.9333C71.569 20.7952 71.4186 20.668 71.2636 20.5369C70.9505 19.9585 70.6158 19.3407 70.2348 18.6358C70.4253 18.46 70.7083 18.2001 70.9898 17.9387C71.1602 17.7813 71.1548 17.6649 70.9975 17.4598C70.7068 17.0803 70.4885 16.6446 70.2332 16.2374C70.17 16.1364 70.0952 16.0261 69.998 15.9636C69.4805 15.6328 69.4073 15.0212 69.7127 14.5022C69.8461 14.2754 69.735 13.9045 69.735 13.5898C69.3255 13.5104 68.9515 13.4379 68.535 13.3577C68.6206 15.2394 68.2991 16.9438 66.5831 18.1407C67.0366 18.2641 67.4469 18.3767 67.8579 18.4878C69.3109 18.8803 70.15 19.8158 70.4068 21.3027C70.5595 22.1873 70.7723 23.061 70.9335 23.9441C70.9566 24.0713 70.834 24.2209 70.7916 24.3644C70.7546 24.4885 70.6921 24.6281 70.7168 24.7446C70.9667 25.9361 71.2358 27.1245 71.4895 28.3153C71.5258 28.4865 71.5296 28.67 71.515 28.8451C71.3476 30.7893 71.1533 32.732 71.0137 34.6777C70.9744 35.2199 70.8703 35.6402 70.3512 35.9078C69.9656 36.1068 69.607 36.3613 69.2492 36.6096C69.162 36.6698 69.0795 36.7993 69.0718 36.9019C68.9392 38.6826 68.8011 40.4633 68.6985 42.2456C68.5096 45.5418 68.3461 48.8402 68.1587 52.1364C68.1502 52.2852 68.0068 52.4256 67.8996 52.6199C68.2289 52.9531 68.6268 53.3448 69.0132 53.7474C69.4127 54.1639 69.5955 54.6752 69.6109 55.3423C70.6667 55.3423 71.7047 55.3423 72.7435 55.3423C72.7482 55.3955 72.7528 55.4479 72.7574 55.5011C72.6224 55.5297 72.4875 55.5837 72.3518 55.5844C68.5096 55.6076 64.6667 55.6261 60.8245 55.6376C60.7173 55.6376 60.5769 55.5759 60.5068 55.4957C60.1929 55.1325 59.8983 54.7515 59.5566 54.3266C59.8235 53.6418 60.4366 53.1281 60.9456 52.6546C60.8376 52.4456 60.7011 52.2983 60.6895 52.141C60.4906 49.451 60.3063 46.7595 60.1204 44.068C60.1127 43.9554 60.1196 43.8412 60.1196 43.6978C61.2117 43.6006 62.117 43.1757 62.7649 42.2903C63.2137 41.6772 63.4027 40.9793 63.3926 40.2274C63.371 38.705 62.4903 37.5891 60.9795 37.195C61.4045 36.8572 61.807 36.5294 62.2189 36.214C62.4757 36.0173 62.6183 35.7945 62.6361 35.4482C62.7016 34.1911 62.8034 32.9364 62.8921 31.6801C62.9276 31.1718 62.9284 31.1811 63.4559 31.1572C64.4816 31.1101 65.5088 31.0793 66.5307 30.9875C67.0219 30.9436 67.5016 30.777 68.0268 30.6567C67.878 30.251 67.7469 29.8963 67.6466 29.6225C66.078 29.6695 64.5579 29.7158 63.0009 29.7621C63.0325 29.3479 63.0078 29.0047 63.0926 28.6916C63.3055 27.9073 63.0649 27.1662 62.9453 26.4112C62.8212 25.6276 62.6939 24.8441 62.5628 24.025C62.7024 24.0073 62.8111 23.9819 62.9191 23.9826C63.934 23.9857 64.9497 23.9973 65.9646 23.9981C66.2338 23.9981 66.5075 23.9988 66.7705 23.9518C67.3613 23.8461 67.6528 23.4945 67.6898 22.896C67.7577 21.8063 67.8186 20.715 67.898 19.6261C67.9173 19.3616 67.8633 19.2073 67.5726 19.1865C67.4476 19.1772 67.325 19.1279 67.1338 19.0793C67.0142 20.2214 66.8978 21.3382 66.7782 22.4819C65.2852 22.4819 63.8145 22.4819 62.3153 22.4819C62.0376 21.1307 61.7584 19.7672 61.4746 18.3837C61.6744 18.3258 61.8895 18.2634 62.1302 18.1932C60.0039 16.579 59.8235 14.4112 60.2206 12.0598C60.2461 11.9101 60.2029 11.7212 60.1273 11.5878C59.8937 11.1783 60.0348 10.505 60.4381 10.1487C60.5415 10.0577 60.634 9.92042 60.6679 9.78854C60.9926 8.51913 61.6281 7.53044 62.9662 7.1379C63.044 7.11476 63.1104 6.98289 63.1428 6.8888C63.2507 6.57415 63.4505 6.38751 63.7906 6.38443C64.2278 6.38057 64.6644 6.38443 65.1016 6.38751C65.4093 6.38906 65.5859 6.56798 65.7278 6.82248C65.7988 6.94895 65.9052 7.08854 66.0309 7.14638C67.1908 7.67775 67.8757 8.5762 68.1487 9.81091C68.1757 9.93276 68.2443 10.0731 68.3384 10.1487C68.923 10.6176 68.9384 11.1474 68.4649 11.7173C68.326 11.8847 68.407 12.234 68.3831 12.5533C68.8829 12.4083 69.3001 12.3035 69.7019 12.1577C69.7983 12.123 69.8823 11.958 69.907 11.8392C70.0705 11.061 70.2232 10.2798 70.3651 9.49703C70.4314 9.1307 70.6528 8.96412 70.9898 9.04818C71.4309 9.15847 71.879 9.28803 72.2793 9.49625C72.5769 9.65127 72.7728 9.66978 73.0798 9.50782C73.4901 9.29111 73.9512 9.15615 74.4047 9.04356C74.714 8.96721 74.9469 9.12222 75.0194 9.46849C75.1852 10.2598 75.3718 11.0456 75.5245 11.8392C75.5731 12.0921 75.6718 12.2063 75.9286 12.2618C76.2772 12.3374 76.6219 12.4546 76.9497 12.5957C77.0808 12.652 77.262 12.841 77.2443 12.9358C77.2173 13.077 77.0554 13.2436 76.9127 13.2999C76.6165 13.4155 76.2973 13.4819 75.9818 13.5351C75.7674 13.5713 75.6741 13.643 75.6718 13.8767C75.6687 14.1621 75.5284 14.4143 75.8214 14.6973C76.1006 14.9672 75.8793 15.6436 75.5392 15.9412C75.4057 16.0585 75.3248 16.2358 75.2222 16.3878C74.9739 16.7556 74.7479 17.1412 74.4695 17.4852C74.3176 17.6726 74.2913 17.7682 74.4564 17.9618C74.9176 18.5017 75.4289 18.9335 76.1561 19.0747C76.5055 19.1425 76.8425 19.286 77.1787 19.4117C78.2546 19.8143 78.8152 20.5831 78.8692 21.7415C79.0296 25.1811 79.2672 28.6184 79.1939 32.0649C79.1723 33.0968 79.1353 34.1286 79.0875 35.1598C79.0821 35.2777 78.9903 35.4243 78.8931 35.4999C78.5399 35.7775 78.1582 36.0189 77.8065 36.2973C77.4579 36.5734 77.1194 36.5973 76.7068 36.2178C76.7068 41.4096 76.7068 46.4772 76.7068 51.4963C76.4361 51.6312 76.2248 51.7361 76.0142 51.841C76.4962 51.8263 76.9435 51.8356 77.3145 52.1703C77.687 52.505 77.7834 52.9515 77.7949 53.5068C78.3656 53.5068 78.924 53.5068 79.4831 53.5068C79.4823 53.6117 79.4823 53.7143 79.4823 53.8168ZM64.1021 37.0107C64.0659 37.5042 64.0312 37.9639 63.998 38.4235C63.8176 40.9461 63.644 43.4695 63.4566 45.9921C63.3055 48.0281 63.132 50.0618 62.9839 52.0978C62.9615 52.4078 62.9446 52.6631 62.6253 52.633C62.6253 53.3572 62.6253 54.0605 62.6253 54.7438C63.8723 54.7438 65.0314 54.7438 66.1998 54.7438C66.1998 54.0035 66.1998 53.3071 66.1998 52.5983C66.1196 52.5891 66.0086 52.5759 65.8898 52.5613C65.4764 47.3695 65.0638 42.1932 64.6505 37.0107C64.4561 37.0107 64.3034 37.0107 64.1021 37.0107ZM73.8039 53.0125C73.5224 47.5585 73.2425 42.1268 72.9626 36.7029C72.3255 36.6351 72.3248 36.6351 72.2962 37.2204C72.2345 38.4767 72.1852 39.7346 72.1104 40.9901C71.9523 43.643 71.7857 46.2952 71.6114 48.9474C71.5397 50.0294 71.4325 51.1091 71.3515 52.1903C71.3307 52.4641 71.3484 52.741 71.3484 53.0132C72.2052 53.0124 72.9973 53.0125 73.8039 53.0125ZM60.6487 10.8991C63.1798 10.6145 65.6476 10.6677 68.1733 10.8829C67.7353 10.2968 67.005 10.4726 66.5268 10.1317C66.5345 10.0924 66.5415 10.0523 66.5492 10.013C66.8554 10.013 67.1615 10.013 67.4708 10.013C67.3913 9.02813 66.5793 8.00628 65.7471 7.85127C65.7471 8.1235 65.761 8.38803 65.7425 8.65101C65.7286 8.8523 65.7063 9.06515 65.6245 9.2433C65.5798 9.34047 65.4032 9.37749 65.2859 9.4415C65.2335 9.33816 65.1417 9.23636 65.1371 9.1307C65.1186 8.75898 65.1325 8.38572 65.1294 8.01322C65.1209 6.905 65.2582 7.06695 64.1245 7.06078C63.8507 7.05924 63.7327 7.15178 63.742 7.44253C63.759 7.9816 63.7559 8.52222 63.7366 9.06052C63.7327 9.17543 63.6232 9.28649 63.5615 9.39908C63.4343 9.31116 63.2769 9.24638 63.1906 9.12916C63.125 9.0397 63.1397 8.88314 63.1374 8.75667C63.1312 8.45281 63.135 8.14818 63.135 7.84047C62.2674 7.9469 61.3343 9.08751 61.3389 9.99677C61.6597 10.0122 61.9805 10.0276 62.3014 10.043C62.3091 10.0862 62.316 10.1302 62.3237 10.1734C61.8317 10.5035 61.0605 10.2513 60.6487 10.8991ZM68.7718 35.7374C68.9631 35.6927 69.0587 35.6849 69.1404 35.6479C69.3973 35.533 69.6425 35.388 69.9055 35.2916C70.1715 35.1945 70.2656 35.0348 70.2849 34.7526C70.3767 33.3952 70.5009 32.0402 70.5965 30.6829C70.6782 29.5276 70.9458 28.3639 70.4515 27.2286C70.3659 27.032 70.3466 26.8068 70.2996 26.5939C70.1739 26.0248 70.0505 25.4549 69.9178 24.8487C69.688 24.9628 69.5153 25.0793 69.324 25.1387C68.9145 25.2659 68.8813 25.5089 68.9484 25.9022C69.1805 27.2641 69.5207 28.613 69.4728 30.0142C69.4458 30.8225 69.462 31.6322 69.479 32.4412C69.4852 32.7243 69.4165 32.8909 69.1458 33.0428C68.5281 33.3891 68.1911 34.3438 68.4579 34.8721C68.6978 34.6538 68.9361 34.4379 69.1906 34.2065C69.624 34.8651 69.1913 35.2523 68.7718 35.7374ZM65.2667 17.1867C64.6759 17.2484 64.0852 17.3109 63.4443 17.378C63.6548 18.1592 63.0803 18.4855 62.4618 18.7461C62.6677 19.8513 63.4065 20.5045 64.3829 20.4775C65.3476 20.4513 66.1304 19.7217 66.2284 18.7577C65.3731 18.2456 65.3731 18.2456 65.2667 17.1867ZM62.0245 14.5145C62.4024 15.797 63.4404 16.5266 64.6482 16.3824C65.6392 16.2636 66.5777 15.3852 66.6093 14.5454C65.4541 14.86 65.0338 14.6387 64.6412 13.5073C64.1677 13.4356 64.1677 13.4356 63.9672 13.8636C63.6973 14.4412 63.2662 14.7065 62.6476 14.651C62.4494 14.634 62.2559 14.5669 62.0245 14.5145ZM70.632 15.2973C70.8448 16.6924 71.6831 17.4651 72.8777 17.4035C73.9667 17.3472 74.7556 16.5019 74.8327 15.3104C74.1672 15.925 73.1561 15.7654 72.9687 14.5862C72.5291 14.5322 72.5291 14.5322 72.4651 14.7783C72.2322 15.6821 71.4032 15.932 70.632 15.2973ZM65.8273 11.1914C64.6751 12.0466 63.3641 12.5317 61.8926 12.5672C61.8965 12.6011 61.9003 12.6351 61.9042 12.6698C63.4497 12.6698 64.9952 12.6698 66.5222 12.6698C66.3001 12.1963 66.0733 11.7142 65.8273 11.1914ZM72.6872 26.9834C72.7242 27.005 72.7613 27.0266 72.7983 27.049C72.9132 26.8747 73.042 26.7073 73.1415 26.5238C73.9674 25.0037 74.7849 23.4798 75.6109 21.9598C75.9633 21.3104 75.9687 21.3127 75.4212 20.7968C75.6602 20.5893 75.8985 20.3834 76.1546 20.1613C75.8183 19.8058 75.5214 19.4919 75.1782 19.1294C75.0055 19.6754 75.5623 19.8513 75.6109 20.24C75.5823 20.2731 75.5507 20.3132 75.5152 20.3502C75.3479 20.5268 75.0687 20.6903 75.0479 20.8824C75.0302 21.0397 75.3201 21.231 75.4705 21.4045C74.5412 23.2646 73.6142 25.124 72.6872 26.9834ZM74.5643 11.6711C74.5389 11.4513 74.5165 11.2554 74.4926 11.0472C73.2919 11.0472 72.1242 11.0472 70.942 11.0472C70.9273 11.2739 70.9158 11.4613 70.9019 11.6711C72.1343 11.6711 73.3296 11.6711 74.5643 11.6711ZM70.6643 13.8582C72.0525 13.8582 73.4075 13.8582 74.7926 13.8582C74.7834 13.6916 74.7749 13.5482 74.7672 13.3986C73.4515 13.3986 72.1821 13.3978 70.9135 13.3993C70.5903 13.3993 70.6304 13.6145 70.6643 13.8582ZM68.1957 25.9546C68.1572 25.9569 68.1186 25.9592 68.08 25.9616C67.8803 27.1407 67.5456 28.323 68.3492 29.4405C68.5235 29.6826 68.5798 30.0096 68.6901 30.2973C68.7294 30.2873 68.7695 30.278 68.8088 30.268C68.6045 28.8297 68.4001 27.3921 68.1957 25.9546ZM76.8248 34.9022C76.9605 34.7433 77.0592 34.6107 77.1764 34.4973C77.2428 34.4333 77.3847 34.3423 77.4132 34.3646C77.5042 34.4356 77.6122 34.5536 77.6137 34.6546C77.616 34.8104 77.5551 34.9762 77.4849 35.1204C77.4001 35.2947 77.2767 35.4497 77.1703 35.6132C77.5281 35.4999 77.8204 35.3063 78.1327 35.1567C78.3548 35.0502 78.415 34.9045 78.4057 34.6762C78.3618 33.5695 78.6494 33.7477 77.4155 33.7585C76.915 33.7646 76.5872 34.3816 76.8248 34.9022ZM73.5224 23.3464C73.5548 23.3487 73.588 23.3518 73.6204 23.3541C73.8795 22.3824 74.1379 21.4107 74.4263 20.3302C74.2127 20.604 74.0746 20.7813 73.9158 20.9849C73.7353 20.7937 73.5849 20.634 73.433 20.4729C73.2888 20.6479 73.1677 20.7945 73.0991 20.8777C73.2456 21.7315 73.3844 22.5389 73.5224 23.3464ZM74.4487 35.9772C73.7592 35.3934 73.2834 34.6693 73.1631 33.7739C73.0582 32.9896 73.0489 32.1929 72.998 31.4017C72.9764 31.0623 72.9564 30.723 72.9363 30.3837C72.8361 30.4747 72.796 30.5687 72.7952 30.6636C72.7867 31.4834 72.7181 32.3101 72.8029 33.1207C72.8685 33.7438 73.0867 34.3623 73.3158 34.9523C73.5086 35.4474 73.8911 35.816 74.4487 35.9772ZM67.1068 31.724C67.0404 31.815 66.917 31.9068 66.924 31.9862C66.9934 32.705 67.2024 33.379 67.6705 33.9767C67.7554 33.7508 67.878 33.4939 67.8117 33.3035C67.6327 32.7906 67.3736 32.3063 67.1068 31.724ZM73.8672 20.0603C74.1078 19.697 74.3245 19.37 74.5844 18.9775C74.4363 18.8379 74.2867 18.6975 74.1201 18.541C73.8325 18.851 73.5857 19.1171 73.3327 19.3901C73.5248 19.6307 73.689 19.8366 73.8672 20.0603ZM71.3345 18.5487C71.1934 18.7168 71.0661 18.8672 70.935 19.023C71.2057 19.3723 71.4541 19.6924 71.724 20.0418C71.8829 19.7973 72.0186 19.5875 72.1597 19.3716C71.8844 19.0978 71.6245 18.8379 71.3345 18.5487ZM73.5988 18.14C72.9996 18.14 72.4875 18.14 71.8636 18.14C72.1744 18.4639 72.4451 18.7446 72.7381 19.05C73.0412 18.7292 73.3088 18.4469 73.5988 18.14ZM76.7769 32.5168C76.8039 32.5176 76.8317 32.5191 76.8587 32.5199C76.8587 30.9698 76.8587 29.4196 76.8587 27.8695C76.8317 27.8695 76.8039 27.8695 76.7769 27.8695C76.7769 29.4181 76.7769 30.9675 76.7769 32.5168ZM76.8572 22.1911C76.1222 22.1788 76.059 22.2127 76.0073 22.6199C76.2895 22.6199 76.571 22.6199 76.8572 22.6199C76.8572 22.4626 76.8572 22.34 76.8572 22.1911ZM68.8859 23.678C68.9083 23.722 68.9307 23.7659 68.953 23.8099C69.2407 23.7027 69.526 23.5916 69.816 23.4906C70.089 23.395 70.1361 23.2415 69.9487 22.997C69.5901 23.2261 69.2384 23.452 68.8859 23.678ZM78.4512 33.042C78.4497 33.0143 78.4489 32.9857 78.4474 32.958C78.1003 32.958 77.7533 32.958 77.407 32.958C77.4093 32.9857 77.4109 33.0143 77.4132 33.042C77.7595 33.042 78.1057 33.042 78.4512 33.042Z" fill="#1151B3"/>
<path id="Vector_2" d="M0.511719 27.4409C0.639739 26.5147 0.791667 25.5908 0.889611 24.6607C0.996037 23.652 1.04154 22.6371 1.13485 21.6276C1.22971 20.6026 1.76416 19.8731 2.71815 19.489C3.28807 19.2592 3.87419 19.0563 4.46956 18.9075C5.00478 18.7733 5.31866 18.4024 5.62252 18.006C5.66956 17.945 5.63794 17.7569 5.57547 17.6913C5.21686 17.3111 4.92457 16.9024 4.79732 16.3833C4.77187 16.2808 4.64771 16.1898 4.54976 16.1204C4.10169 15.8057 3.98678 15.1787 4.30529 14.7353C4.45105 14.5324 4.28293 14.0196 4.04 13.9648C3.72149 13.8931 3.41995 13.7767 3.37521 13.4204C3.32432 13.0162 3.3729 12.6268 3.80015 12.3893C3.89424 12.3368 3.94899 12.1664 3.97136 12.0414C4.13485 11.1114 4.54591 10.3463 5.38807 9.86046C5.6819 9.69079 5.9819 9.5327 6.27419 9.35995C6.34437 9.3183 6.4238 9.25352 6.44925 9.18103C6.60349 8.73835 6.96133 8.63732 7.36545 8.62576C7.78036 8.61419 8.07727 8.79851 8.22611 9.20108C8.24617 9.25506 8.28935 9.31213 8.33794 9.34067C8.67342 9.53578 9.01737 9.71547 9.34976 9.91522C10.1742 10.4103 10.5359 11.1893 10.6971 12.0993C10.7217 12.2381 10.8251 12.3916 10.9369 12.4818C11.2331 12.7193 11.304 13.017 11.2662 13.3718C11.23 13.7111 10.9886 13.8438 10.7163 13.944C10.3091 14.0936 10.1726 14.4815 10.4171 14.8193C10.6886 15.1934 10.5397 15.8651 10.158 16.1273C10.0207 16.2214 9.9328 16.3934 9.83485 16.5376C9.58575 16.9039 9.36982 17.2964 9.08832 17.6358C8.9094 17.8509 8.87624 17.9851 9.08447 18.1779C9.29192 18.3692 9.45619 18.616 9.6837 18.7749C10.0045 18.9977 9.90889 19.2283 9.75465 19.4605C9.39218 20.0034 9.01198 20.534 8.6094 21.1124C8.39578 20.8741 8.21455 20.672 8.02097 20.4553C7.77342 20.733 7.62072 20.9659 7.74334 21.3476C7.87521 21.7579 7.90452 22.2006 7.98395 22.6579C8.36879 22.6579 8.72509 22.6579 9.12226 22.6579C9.02586 23.1222 8.94025 23.5448 8.84771 23.9666C8.83228 24.0376 8.79912 24.1448 8.74976 24.161C8.2855 24.3152 8.37033 24.7016 8.35568 25.0486C8.34488 25.3031 8.33177 25.5569 8.31789 25.8599C7.29372 25.8599 6.29809 25.8599 5.25388 25.8599C5.25388 26.4707 5.24 27.033 5.27007 27.5929C5.27393 27.6707 5.49835 27.7957 5.62174 27.7972C6.4693 27.8096 7.31763 27.7934 8.16596 27.7903C8.32946 27.7895 8.49295 27.808 8.6819 27.8196C8.73434 28.836 8.79141 29.8216 8.8346 30.8088C8.90169 32.3489 8.94257 33.8905 9.03743 35.4291C9.05516 35.7183 9.27804 35.9952 9.40066 36.2666C8.93177 36.3576 8.42894 36.4548 7.88678 36.5597C7.86673 36.1633 7.84437 35.7337 7.82123 35.2795C7.65619 35.2795 7.50812 35.2795 7.30992 35.2795C7.27907 35.7376 7.25131 36.1941 7.2166 36.6507C7.20581 36.7895 7.22586 36.9684 7.14874 37.0579C6.61969 37.6702 6.64899 38.4075 6.64128 39.1409C6.63974 39.2813 6.62894 39.4216 6.62046 39.6175C5.04642 39.6175 3.48704 39.6175 1.8945 39.6175C1.8945 39.909 1.8945 40.145 1.8945 40.4219C2.06802 40.4327 2.24308 40.452 2.41815 40.452C3.71609 40.4558 5.01403 40.4628 6.31198 40.4527C6.59424 40.4504 6.73306 40.5183 6.63897 40.8623C6.48858 40.8692 6.32586 40.8823 6.16313 40.8831C4.86519 40.8893 3.56725 40.8923 2.2693 40.897C2.17984 40.897 2.08653 40.8923 2.00169 40.9139C1.95311 40.9263 1.87753 40.9988 1.88447 41.0273C1.89989 41.089 1.95079 41.1754 2.00324 41.1885C2.11275 41.2155 2.23228 41.2047 2.34797 41.2039C3.68447 41.1962 5.02097 41.1877 6.35748 41.1808C6.43383 41.18 6.51018 41.1877 6.55413 41.19C6.97367 42.3291 6.79938 43.4828 6.73614 44.6273C6.60812 46.9232 6.46005 49.2175 6.31275 51.5119C6.28113 52.0039 6.22097 52.4936 6.17084 53.0173C7.04308 53.0173 7.84437 53.0173 8.70195 53.0173C8.52611 49.8877 8.35182 46.7836 8.17213 43.5916C9.03588 43.5916 9.86647 43.5954 10.6971 43.5908C11.4667 43.5862 11.4652 43.5823 11.4644 44.362C11.4606 46.6108 11.4552 48.8605 11.4598 51.1093C11.4606 51.3777 11.4582 51.5844 11.1097 51.6129C10.9932 51.6222 10.8876 51.7594 10.8058 51.9075C10.9091 51.889 11.0117 51.8558 11.1151 51.8566C11.3048 51.8574 11.5238 51.8227 11.675 51.9052C11.813 51.98 11.9225 52.1805 11.9564 52.3448C11.9734 52.4273 11.8161 52.5962 11.7027 52.6471C11.2385 52.8545 10.8922 53.1723 10.6385 53.6126C10.5775 53.7191 10.4202 53.8363 10.3068 53.8371C7.03923 53.8378 3.77547 53.8263 0.511719 53.817C0.511719 53.7144 0.511719 53.6111 0.511719 53.5085C1.07239 53.5085 1.63306 53.5085 2.06647 53.5085C2.30709 52.9903 2.43511 52.5337 2.70272 52.1851C3.01429 51.7795 3.51789 51.8026 4.00838 51.906C3.91506 51.7988 3.8202 51.6854 3.71069 51.6692C3.31815 51.6129 3.29655 51.3638 3.29732 51.0414C3.30658 48.1633 3.30349 45.2851 3.30349 42.407C3.30349 42.2335 3.30349 42.0607 3.30349 41.8633C2.76056 41.8633 2.28627 41.8749 1.81275 41.8602C1.35311 41.8456 1.15568 41.6373 1.15645 41.1846C1.15722 40.7096 1.14874 40.2314 1.19501 39.7602C1.21429 39.5643 1.3184 39.3098 1.46956 39.2096C1.69475 39.0584 1.72714 38.8849 1.72791 38.662C1.72869 38.4823 1.73023 38.3019 1.73717 38.1222C1.75953 37.5576 2.00092 37.1335 2.54848 36.9345C2.78216 36.8497 3.03357 36.8119 3.26802 36.7548C3.26802 36.6121 3.26802 36.4795 3.26802 36.2358C2.74822 36.7625 2.41198 36.3592 2.04874 36.1178C1.78113 35.9404 1.52971 35.7368 1.25516 35.5725C1.03228 35.4399 0.938968 35.2702 0.928171 35.0126C0.841796 32.9211 0.747708 30.8296 0.647451 28.7389C0.640511 28.5869 0.558762 28.4396 0.511719 28.2893C0.511719 28.007 0.511719 27.724 0.511719 27.4409ZM3.5927 25.5576C3.62354 25.5576 3.65439 25.5576 3.68524 25.5576C3.73383 24.9198 3.76622 24.2797 3.83717 23.645C3.87804 23.2803 4.08318 22.9078 4.0346 22.5638C3.91583 21.7201 3.69218 20.8918 3.51095 20.0589C2.47367 20.2617 2.00941 20.6797 1.8891 21.643C1.72946 22.927 1.64462 24.2196 1.51737 25.5075C1.42714 26.4229 1.41866 26.4245 2.31712 26.6736C2.46673 26.7152 2.62483 26.7252 2.77907 26.7507C2.79141 26.699 2.80452 26.6481 2.81686 26.5965C2.54077 26.4831 2.25851 26.3813 1.99167 26.2486C1.91609 26.2108 1.88293 26.0867 1.83126 26.0018C1.91609 25.9695 2.00401 25.9024 2.08421 25.9116C2.33331 25.9409 2.57933 25.9995 2.85773 26.0527C2.93871 25.2229 3.0166 24.4309 3.09372 23.6396C3.12072 23.6381 3.14771 23.6358 3.1747 23.6342C3.31429 24.2751 3.45311 24.9168 3.5927 25.5576ZM3.25799 34.8546C3.46005 34.6162 3.48473 34.3903 3.322 34.1651C3.09064 33.8435 2.86853 33.5088 2.59321 33.2281C2.41969 33.0515 2.37573 32.8995 2.39192 32.6635C2.47676 31.4227 2.54231 30.181 2.60246 28.9386C2.60786 28.8198 2.55388 28.6139 2.48138 28.59C2.13665 28.4767 1.77573 28.4126 1.41172 28.3294C1.41172 28.809 1.39861 29.217 1.41403 29.6242C1.47187 31.1875 1.53357 32.7507 1.60683 34.3124C1.6184 34.5599 1.61532 34.9 1.76416 35.0312C2.07342 35.3034 2.47984 35.4638 2.84694 35.6697C2.86545 35.6389 2.88396 35.6088 2.90246 35.5779C2.79064 35.4245 2.63717 35.2864 2.57856 35.1144C2.50992 34.9108 2.48524 34.6749 2.513 34.462C2.53923 34.263 2.68884 34.2229 2.84077 34.3926C2.9765 34.5445 3.11223 34.6934 3.25799 34.8546ZM5.32174 15.8543C5.56159 17.0057 6.33357 17.709 7.36467 17.6898C8.34565 17.6713 9.21635 16.8453 9.35979 15.7972C8.3819 16.3116 7.87599 16.0679 7.56133 14.9319C7.26133 14.8363 7.13254 14.9512 7.06853 15.2581C6.95671 15.7918 6.6675 16.0278 6.12226 16.0209C5.85542 16.017 5.58935 15.9129 5.32174 15.8543ZM6.65054 22.6579C6.72997 22.2036 6.76699 21.7787 6.88575 21.3777C6.99989 20.9936 6.89424 20.7345 6.58344 20.497C6.42303 20.6851 6.26802 20.8664 6.07907 21.0869C5.64719 20.517 5.23306 19.9702 4.78113 19.3733C4.75799 19.4936 4.74488 19.5198 4.74951 19.543C4.95928 20.5324 5.16827 21.5227 5.38884 22.5098C5.40195 22.57 5.50838 22.6486 5.57393 22.6517C5.93023 22.6648 6.2873 22.6579 6.65054 22.6579ZM10.6678 13.0617C10.6863 13.0417 10.7055 13.0209 10.7241 13.0008C10.5783 12.9268 10.4395 12.8142 10.2852 12.7872C9.81866 12.7039 9.34514 12.5967 8.87624 12.6029C7.42868 12.6222 5.98036 12.6815 4.53357 12.7479C4.34 12.7563 4.15259 12.8905 3.9621 12.9669C3.97753 12.9985 3.99372 13.0309 4.00915 13.0625C6.22868 13.0617 8.44822 13.0617 10.6678 13.0617ZM7.61223 9.31059C7.33845 9.30442 7.05542 9.1656 7.04617 9.54889C7.03074 10.2268 7.03228 10.9054 7.05773 11.5826C7.06159 11.6828 7.23588 11.7761 7.33151 11.8725C7.42483 11.7731 7.59604 11.6767 7.59912 11.5749C7.62226 10.8345 7.61223 10.0934 7.61223 9.31059ZM3.27727 37.5761C2.41892 37.4358 2.34642 37.9695 2.48293 39.0823C2.74205 39.0823 3.00349 39.0823 3.27727 39.0823C3.27727 38.561 3.27727 38.0666 3.27727 37.5761ZM5.49604 10.5144C4.88061 10.9702 4.67624 11.5563 4.5891 12.2713C4.86288 12.2489 5.10118 12.2404 5.33485 12.2034C5.39578 12.1934 5.48755 12.0954 5.4891 12.0353C5.50221 11.5548 5.49604 11.0743 5.49604 10.5144ZM10.0955 12.2605C9.98293 11.5494 9.74385 10.9857 9.16776 10.5191C9.16776 11.1075 9.16776 11.6242 9.16776 12.1687C9.46776 12.1988 9.75233 12.2265 10.0955 12.2605ZM6.49552 9.98231C6.44925 9.96612 6.40221 9.95069 6.35593 9.9345C6.25568 10.0178 6.07136 10.098 6.06827 10.1844C6.0436 10.8399 6.05516 11.497 6.05516 12.1579C6.2418 12.1579 6.40452 12.1579 6.49629 12.1579C6.49552 11.4183 6.49552 10.7003 6.49552 9.98231ZM8.11814 12.1471C8.63485 12.2034 8.63485 12.2034 8.63485 11.6666C8.63485 11.2563 8.62097 10.8453 8.63948 10.435C8.65491 10.0964 8.52843 9.95455 8.11814 10.0317C8.11814 10.7188 8.11814 11.416 8.11814 12.1471ZM5.14514 14.0898C5.15131 14.133 5.15671 14.1754 5.16288 14.2186C5.23306 14.2355 5.30324 14.2671 5.37341 14.2671C6.6436 14.2679 7.91455 14.2671 9.18473 14.2571C9.27881 14.2563 9.3729 14.1839 9.46699 14.1453C9.36596 14.099 9.26493 14.0134 9.1639 14.0126C7.93228 14.0088 6.69989 14.0157 5.46827 14.0258C5.3603 14.0258 5.25234 14.0674 5.14514 14.0898ZM8.57007 20.163C9.33357 19.1103 9.29578 19.3502 8.71352 18.7132C8.47753 18.963 8.24308 19.2121 7.99475 19.4751C8.19372 19.7126 8.37264 19.927 8.57007 20.163ZM6.65671 19.4983C6.41455 19.2121 6.19167 18.9499 5.98267 18.7031C5.75208 18.8828 5.57393 19.0216 5.40426 19.1551C5.67958 19.5237 5.90323 19.8229 6.1292 20.1252C6.32817 19.8885 6.50092 19.6841 6.65671 19.4983ZM8.17367 18.3422C7.56827 18.3422 7.05079 18.3422 6.46159 18.3422C6.77856 18.6276 7.04925 18.8713 7.37856 19.1674C7.64308 18.8929 7.89527 18.6306 8.17367 18.3422ZM3.35902 29.7407C3.34822 29.7391 3.33743 29.7368 3.32663 29.7353C3.25645 30.7402 3.18241 31.745 3.12226 32.7499C3.11686 32.8448 3.20015 32.945 3.24257 33.043C3.28113 33.0337 3.31969 33.0252 3.35902 33.016C3.35902 31.924 3.35902 30.8319 3.35902 29.7407ZM5.38807 23.7977C5.20144 23.6651 5.08267 23.5155 4.97856 23.5255C4.8783 23.5348 4.71635 23.7121 4.72174 23.8078C4.72791 23.9134 4.88678 24.0815 4.9909 24.0908C5.09192 24.0993 5.20683 23.9404 5.38807 23.7977ZM5.07881 22.6C4.91686 22.4674 4.82971 22.3525 4.7202 22.3247C4.66082 22.3093 4.4873 22.4612 4.49809 22.5029C4.5274 22.6147 4.60992 22.752 4.70709 22.7929C4.77187 22.8198 4.89912 22.6995 5.07881 22.6ZM1.98164 27.6237C1.98858 27.6021 1.99552 27.5813 2.00246 27.5597C1.80658 27.4494 1.61069 27.3391 1.37701 27.208C1.35079 27.3584 1.33074 27.4733 1.30529 27.6237C1.56056 27.6237 1.7711 27.6237 1.98164 27.6237Z" fill="#1151B3"/>
<path id="Vector_3" d="M44.0469 8.38262C44.8065 9.00267 44.6739 10.1996 43.8179 10.6423C43.7122 10.697 43.5757 10.7811 43.5464 10.879C43.2418 11.8924 42.6279 12.6752 41.667 13.3446C42.0788 13.7225 42.4459 14.0803 42.8392 14.4065C42.9564 14.5037 43.1438 14.5284 43.3042 14.5623C43.969 14.7034 44.6446 14.8037 45.3001 14.978C46.8834 15.4006 47.7063 16.4811 47.9338 18.0798C48.2107 20.024 48.5184 21.9636 48.8053 23.907C48.8384 24.1338 48.9078 24.295 49.1546 24.3389C49.396 24.3821 49.4677 24.5317 49.4801 24.777C49.5163 25.5081 49.5996 26.2369 49.6312 26.968C49.6382 27.1322 49.558 27.3713 49.4353 27.4546C49.2379 27.5888 49.1708 27.7307 49.1538 27.952C49.0089 29.8091 48.8392 31.6639 48.7104 33.5217C48.6125 34.9315 48.57 36.3443 48.4852 37.7549C48.476 37.9114 48.388 38.1112 48.2685 38.2052C47.6353 38.7081 46.9945 39.204 46.3235 39.6543C46.1569 39.7662 45.87 39.6975 45.5824 39.7153C45.5824 45.305 45.5824 50.9772 45.5824 56.5531C45.1682 56.7806 44.8328 56.9649 44.4973 57.1492C44.5112 57.1916 44.5243 57.234 44.5382 57.2757C45.2909 57.0405 46.0119 57.0158 46.6605 57.5333C47.3053 58.0484 47.5281 58.7502 47.5374 59.587C48.941 59.6202 50.3238 59.6533 51.7065 59.6857C51.7112 59.7358 51.7166 59.7867 51.7212 59.8369C51.5901 59.8654 51.459 59.9163 51.3271 59.9194C50.0816 59.9518 48.8353 59.9988 47.5891 59.9988C41.2922 59.9957 34.9952 59.9803 28.6976 59.9657C28.3428 59.9649 27.9888 59.9256 27.6341 59.904C27.6256 59.8585 27.6171 59.8137 27.6094 59.7682C27.7312 59.7351 27.8515 59.6757 27.9742 59.6726C29.0276 59.6456 30.0811 59.6286 31.1346 59.6101C31.2734 59.6078 31.413 59.6101 31.5826 59.6101C31.6405 58.8065 31.8294 58.0847 32.468 57.5695C33.1227 57.0412 33.8554 57.042 34.6204 57.268C34.6359 57.2379 34.6513 57.2078 34.6667 57.1777C34.3952 57.0181 34.1346 56.8315 33.8477 56.7096C33.6464 56.624 33.5816 56.5261 33.5816 56.3148C33.5778 53.0124 33.5639 49.7094 33.5662 46.407C33.5662 46.2559 33.6657 46.0669 33.779 45.9605C34.6312 45.1615 35.5058 44.3849 36.3556 43.5837C36.4752 43.4703 36.5616 43.2597 36.5639 43.0932C36.5778 41.7698 36.5677 40.4464 36.5654 39.1222C36.5654 38.995 36.5654 38.8677 36.5654 38.7004C37.0667 38.7004 37.5479 38.7004 38.0924 38.7004C37.9976 37.2944 38.3276 35.8924 37.6073 34.5952C37.0011 33.504 36.0495 32.8839 34.8742 32.5669C34.6945 32.5184 34.4994 32.5253 34.2649 32.5669C34.831 33.0505 35.4618 33.46 35.7834 34.205C35.1024 34.205 34.4685 34.205 33.7968 34.205C33.776 34.1387 33.7474 34.0477 33.6996 33.8973C33.688 34.0754 33.6796 34.195 33.6711 34.3214C34.9736 34.559 36.2053 34.869 36.4143 36.5024C36.6024 36.5124 36.8045 36.5225 37.0359 36.5348C37.0359 36.9374 37.0359 37.3268 37.0359 37.7703C36.55 37.7703 36.0826 37.7703 35.579 37.7703C35.579 39.389 35.569 40.9546 35.5868 42.5194C35.5906 42.861 35.4834 43.0901 35.2274 43.306C34.6135 43.825 34.0204 44.3687 33.3672 44.9487C33.3672 43.1502 33.3672 41.4243 33.3672 39.6405C33.0263 39.895 32.7927 39.7091 32.5544 39.5387C31.949 39.1052 31.3312 38.6872 30.7428 38.2322C30.5963 38.1189 30.4659 37.8906 30.4551 37.7078C30.2878 34.9646 30.142 32.2199 29.9909 29.4759C29.9608 28.9245 29.9369 28.3723 29.8883 27.8225C29.8783 27.7076 29.7942 27.541 29.7009 27.5024C29.4202 27.3867 29.4132 27.1885 29.4356 26.9402C29.4996 26.2245 29.5621 25.5073 29.5968 24.7901C29.6091 24.5325 29.6978 24.3713 29.9353 24.3004C30.1852 24.2263 30.2407 24.0551 30.2793 23.813C30.6148 21.6821 30.9341 19.5482 31.3297 17.4281C31.5711 16.134 32.4456 15.3459 33.6934 14.995C34.322 14.8184 34.9659 14.6888 35.6099 14.5808C35.9955 14.5168 36.3086 14.3911 36.5716 14.0888C36.8222 13.8011 37.1207 13.5551 37.4153 13.2744C37.1407 13.0207 36.8492 12.8063 36.6294 12.534C36.3664 12.2078 36.1366 11.8469 35.9446 11.4752C35.741 11.0803 35.6307 10.6993 35.1664 10.4279C34.4238 9.99291 34.4469 8.90396 35.0747 8.42427C35.0245 8.11964 34.9891 7.82812 34.9243 7.54355C34.9035 7.45254 34.8202 7.36077 34.7415 7.30062C34.6413 7.22427 34.5163 7.17877 34.4014 7.1217C33.9078 6.87722 33.6256 6.50936 33.6765 5.92787C33.7258 5.37028 33.8963 4.90447 34.4693 4.67388C34.5587 4.63763 34.649 4.5019 34.6652 4.4001C34.8819 3.05203 35.576 2.02092 36.7104 1.27825C36.8276 1.20113 36.9541 1.13249 37.0852 1.08468C37.2163 1.03686 37.359 1.01913 37.4955 0.988277C37.713 0.144575 37.858 0.0242666 38.7371 0.0049864C39.277 -0.00658172 39.8168 -0.00118326 40.3567 -0.00118326C41.1865 -0.00195447 41.3839 0.146117 41.6068 0.898046C43.0883 1.48956 43.9497 2.58853 44.3762 4.05614C44.4703 4.37928 44.549 4.63069 44.8729 4.83892C45.6711 5.35254 45.6024 6.70756 44.7695 7.11707C44.4032 7.29753 44.1634 7.48031 44.1842 7.9199C44.1934 8.06488 44.1017 8.21218 44.0469 8.38262ZM41.4317 58.9122C41.37 58.3777 41.2883 57.8734 41.2582 57.3667C41.1348 55.2898 41.0407 53.2106 40.9112 51.1338C40.6883 47.5569 40.4469 43.9816 40.2125 40.4063C40.1608 39.6158 40.1037 38.8253 40.049 38.0256C39.7158 38.0256 39.4143 38.0256 39.1019 38.0256C38.6446 44.9919 38.188 51.9343 37.7299 58.9114C38.9662 58.9122 40.1431 58.9122 41.4317 58.9122ZM35.232 15.7222C34.9328 15.7739 34.6929 15.8078 34.4562 15.8587C32.8135 16.2119 32.3569 16.8713 32.1603 18.2371C31.9536 19.6708 31.6883 21.096 31.4492 22.5243C31.3675 23.0124 31.2857 23.5014 31.1986 24.0227C32.0616 24.2001 32.8798 24.3682 33.7011 24.5371C33.7937 23.924 33.7937 23.9232 33.2978 23.7875C32.8582 23.6672 32.4179 23.5507 31.9652 23.4297C32.0245 23.2238 32.0693 23.0664 32.1263 22.8667C32.6639 22.9554 33.1891 23.0417 33.7891 23.1405C33.7891 21.9806 33.7891 20.8615 33.7891 19.7502C34.1377 19.7502 34.4137 19.7502 34.7461 19.7502C34.7461 21.7453 34.7461 23.7142 34.7461 25.6831C34.7855 25.6901 34.8256 25.6962 34.8649 25.7032C35.3407 24.6536 36.2153 23.7381 35.8975 22.4209C35.852 22.2312 35.9685 21.9613 35.6253 21.932C35.5945 21.9297 35.5513 21.8286 35.5505 21.7731C35.5466 21.4523 35.4325 21.0505 35.5814 20.8268C35.9184 20.3194 35.6608 19.8459 35.65 19.3639C35.64 18.9034 35.5621 18.4446 35.5073 17.9857C35.4209 17.2469 35.3284 16.5104 35.232 15.7222ZM43.9173 15.8194C43.9019 15.8741 43.878 15.9335 43.8703 15.9944C43.7099 17.2808 43.541 18.5664 43.3991 19.8551C43.3659 20.159 43.1384 20.5191 43.5449 20.7675C43.5726 20.7844 43.5788 20.8693 43.5657 20.9148C43.4623 21.2811 43.8125 21.76 43.2934 22.0261C43.2726 22.0369 43.2726 22.0978 43.2711 22.1356C43.241 22.8613 43.1161 23.5893 43.5479 24.2672C43.8163 24.6875 44.0122 25.1541 44.2405 25.6006C44.2837 25.5914 44.3269 25.5821 44.37 25.5736C44.37 23.6309 44.37 21.689 44.37 19.7502C44.7379 19.7502 45.0256 19.7502 45.3564 19.7502C45.3564 20.8893 45.3564 21.9975 45.3564 23.1389C45.9418 23.0371 46.4801 22.9438 47.0477 22.8443C47.0947 23.0533 47.1325 23.223 47.1765 23.4212C46.5726 23.5855 45.9958 23.742 45.422 23.8978C45.422 24.0991 45.422 24.2811 45.422 24.4986C46.2595 24.3297 47.0585 24.1693 47.8528 24.0088C47.8528 23.9016 47.8613 23.8369 47.8513 23.7752C47.5459 21.8487 47.2451 19.9214 46.9297 17.9965C46.7053 16.6199 45.3664 15.6559 43.9173 15.8194ZM37.0081 4.53969C37.0644 4.80113 36.9888 4.89907 36.7505 4.92915C36.2546 4.99239 35.7587 5.0672 35.2706 5.17362C34.9698 5.23918 34.6906 5.37954 34.6119 5.73969C37.915 5.45434 41.2011 5.41501 44.5251 5.72581C44.4479 5.31476 44.0963 5.23918 43.7955 5.16823C43.3474 5.06257 42.8824 5.03095 42.4289 4.94303C42.3325 4.92452 42.2562 4.79882 42.1706 4.72247C42.2616 4.65846 42.3487 4.54432 42.4428 4.53892C42.8122 4.51733 43.1847 4.53044 43.5958 4.53044C43.4323 3.71373 43.0297 3.06668 42.4644 2.40653C42.4551 2.60396 42.4814 2.72272 42.4382 2.8037C42.3826 2.90859 42.2708 2.98339 42.1837 3.07131C42.122 2.97722 42.024 2.88931 42.0063 2.78751C41.9762 2.61244 42.0009 2.42889 41.994 2.2492C41.9793 1.88673 41.9423 1.8636 41.5281 1.94766C41.5281 2.43121 41.5243 2.91861 41.5297 3.40601C41.5328 3.70447 41.4572 3.97362 41.1202 3.99059C40.7492 4.0091 40.7107 3.7145 40.7099 3.42529C40.7083 2.71887 40.7014 2.01167 40.7076 1.30524C40.7099 1.01604 40.6089 0.884935 40.2996 0.899588C39.8639 0.920411 39.4258 0.904986 38.9893 0.905758C38.4032 0.9073 38.404 0.9073 38.4047 1.47877C38.4055 2.17285 38.4094 2.86617 38.4024 3.56026C38.4001 3.77851 38.3299 4.02915 38.0731 3.97671C37.905 3.94278 37.7438 3.74072 37.6389 3.57645C37.5734 3.47388 37.615 3.30113 37.6143 3.16C37.6127 2.74046 37.6135 2.32092 37.6135 1.89985C37.1654 1.93069 37.1446 1.95152 37.1299 2.3109C37.1222 2.50293 37.1269 2.69882 37.0906 2.88622C37.0767 2.95794 36.9641 3.05743 36.8963 3.05743C36.8307 3.05743 36.7297 2.9564 36.7073 2.88082C36.6703 2.75434 36.6826 2.61321 36.6711 2.4181C35.9978 3.00036 35.7171 3.71913 35.5143 4.54046C36.041 4.53969 36.5238 4.53969 37.0081 4.53969ZM42.8276 9.90576C41.7626 10.7649 40.2379 10.4502 40.0305 8.88236C39.985 8.53763 39.8076 8.55383 39.5685 8.53995C39.3001 8.52452 39.1952 8.61244 39.1544 8.89625C39.0287 9.76154 38.458 10.3207 37.6798 10.3716C37.1785 10.4047 36.7467 10.222 36.3757 9.81707C36.54 11.6024 37.9783 12.959 39.6171 12.932C41.2868 12.905 42.7289 11.5461 42.8276 9.90576ZM44.0261 38.6579C44.0261 36.0243 44.033 33.3906 44.023 30.7569C44.0176 29.4119 42.6726 28.2212 41.3407 28.3785C41.1256 28.404 40.905 28.5189 40.7245 28.6461C40.6405 28.7055 40.6035 28.9006 40.6274 29.0178C40.6397 29.0788 40.8294 29.1335 40.9405 29.1381C41.1441 29.1466 41.3515 29.088 41.5528 29.1058C42.5245 29.1921 43.2904 30.1315 43.2904 31.222C43.2896 36.322 43.2873 41.4227 43.2873 46.5227C43.2873 46.6754 43.2803 46.842 43.3359 46.9777C43.3767 47.078 43.5055 47.1867 43.6096 47.2037C43.7107 47.2199 43.8788 47.1543 43.9305 47.0711C44.0037 46.9515 44.0222 46.7834 44.0222 46.6361C44.0269 43.9762 44.0261 41.3171 44.0261 38.6579ZM30.8754 27.5333C31.0436 29.9294 31.2047 32.2292 31.3675 34.559C31.8171 34.559 32.2312 34.559 32.6747 34.559C32.7711 32.4266 32.8682 30.325 32.9515 28.2227C32.9546 28.1387 32.8382 27.9937 32.7533 27.9721C32.1595 27.8178 31.5603 27.6898 30.8754 27.5333ZM47.6546 34.5382C47.8227 32.2222 47.9893 29.9256 48.1613 27.5587C47.5721 27.6736 47.05 27.7862 46.5233 27.8734C46.2287 27.9227 46.1238 28.0531 46.1392 28.3608C46.194 29.4513 46.2132 30.5425 46.2626 31.633C46.3058 32.5924 46.3706 33.5502 46.4276 34.5374C46.8418 34.5381 47.232 34.5382 47.6546 34.5382ZM36.641 16.0785C36.8091 17.4235 36.9595 18.6682 37.1253 19.9106C37.1616 20.1821 37.0305 20.5484 37.4724 20.6479C37.5179 20.6579 37.5618 20.806 37.5556 20.8862C37.5248 21.2765 37.7076 21.6474 37.4161 22.07C37.2271 22.3438 37.3806 22.8536 37.3806 23.27C37.6166 23.27 37.7986 23.2492 37.9736 23.2739C38.3469 23.3263 38.4371 23.159 38.4703 22.8088C38.6037 21.3921 38.7695 19.9785 38.933 18.5657C38.9523 18.3983 39.0333 18.2387 39.0873 18.0675C38.9361 17.843 38.768 17.5908 38.579 17.3101C38.367 17.5091 38.1657 17.6973 37.9359 17.9124C37.5132 17.3148 37.1099 16.7433 36.641 16.0785ZM41.8428 23.2461C41.6045 22.7865 42.068 22.2327 41.5035 21.8603C41.4765 21.8425 41.4834 21.7623 41.485 21.7122C41.4965 21.4176 41.5019 21.1214 41.532 20.8284C41.5405 20.7435 41.6245 20.6664 41.677 20.587C41.7587 20.4628 41.896 20.3487 41.9153 20.216C42.0132 19.5559 42.0726 18.8911 42.1598 18.2294C42.2492 17.5546 42.3556 16.8813 42.469 16.1101C42.0001 16.7433 41.5929 17.2924 41.1688 17.8662C40.9466 17.6618 40.7562 17.4867 40.5811 17.3263C40.3544 17.6055 40.1554 17.8515 39.9981 18.0459C40.0505 18.1716 40.1323 18.2919 40.1485 18.4199C40.3112 19.731 40.4677 21.0428 40.6173 22.3546C40.7307 23.3387 40.7253 23.3394 41.8428 23.2461ZM40.1585 29.9417C39.8492 29.5022 39.4682 29.3502 38.9862 29.2831C38.3145 29.189 37.7269 28.8258 37.6328 28.1047C37.5402 27.389 37.6127 26.6525 37.6127 25.9045C38.9215 25.9045 40.1847 25.9045 41.4981 25.9045C41.4981 26.513 41.4981 27.096 41.4981 27.6798C41.6924 27.6798 41.8359 27.6798 41.9808 27.6798C41.9808 26.8901 41.9808 26.1366 41.9808 25.3646C40.3682 25.3646 38.7742 25.3646 37.1323 25.3646C37.1323 26.1883 37.15 26.9819 37.1269 27.7739C37.1076 28.4572 37.413 28.9561 37.9335 29.3456C38.5821 29.8292 39.3441 29.907 40.1585 29.9417ZM36.2531 7.67542C38.4942 7.67542 40.7053 7.67542 42.9441 7.67542C42.8739 7.35769 42.8114 7.07465 42.7428 6.76386C42.6017 6.76386 42.4752 6.76386 42.3495 6.76386C40.6682 6.76154 38.987 6.75923 37.3058 6.75692C36.4173 6.75614 36.4173 6.75537 36.2531 7.67542ZM45.7582 38.4852C45.7744 38.5199 45.7906 38.5546 45.8068 38.5893C45.9063 38.5669 46.0204 38.5685 46.1014 38.5168C46.5456 38.2376 46.9852 37.95 47.4179 37.6515C47.4873 37.6037 47.5428 37.4903 47.5482 37.4032C47.5814 36.8657 47.596 36.3274 47.623 35.7898C47.633 35.5901 47.5883 35.4767 47.3515 35.486C46.9675 35.5014 46.5819 35.5006 46.1978 35.4883C45.4451 35.4651 44.7271 36.8811 45.2338 37.4934C45.4374 37.2829 45.6287 37.0639 45.8454 36.8726C45.9402 36.7893 46.0844 36.7423 46.2109 36.7292C46.2449 36.7261 46.305 36.9058 46.3413 37.0068C46.4808 37.397 46.3806 37.7309 46.1076 38.0317C45.9803 38.1736 45.8739 38.334 45.7582 38.4852ZM33.6826 37.5505C33.752 37.5204 33.8215 37.4903 33.8909 37.4603C33.924 37.2829 34.0351 37.0723 33.9765 36.9343C33.8091 36.541 33.5893 36.1654 33.3541 35.8068C33.2724 35.6826 33.0896 35.5608 32.9454 35.5523C32.4526 35.5214 31.9567 35.5399 31.4369 35.5399C31.4369 36.1507 31.4315 36.7754 31.4438 37.4001C31.4454 37.4834 31.5179 37.5921 31.5904 37.6423C32.0538 37.9615 32.5251 38.2708 32.9986 38.5754C33.0734 38.6232 33.1752 38.6286 33.2646 38.6541C33.2909 38.6248 33.3171 38.5962 33.3433 38.5669C33.1713 38.3248 33.0163 38.0664 32.822 37.8435C32.5906 37.5775 32.5729 37.2983 32.6739 36.9852C32.7734 36.6767 32.9014 36.6297 33.1289 36.8626C33.3341 37.0723 33.4999 37.3199 33.6826 37.5505ZM33.6487 25.3901C32.7765 25.2073 31.915 25.013 31.0467 24.8549C30.8207 24.814 30.5716 24.895 30.5461 25.1996C30.5083 25.643 30.4875 26.088 30.4628 26.4798C31.5325 26.6024 32.5798 26.722 33.6487 26.8446C33.6487 26.3657 33.6487 25.906 33.6487 25.3901ZM48.6209 26.4397C48.6032 26.1227 48.5808 25.7664 48.5631 25.4101C48.5438 25.0145 48.2993 24.7878 47.9014 24.8633C47.1595 25.0037 46.423 25.1718 45.6873 25.3423C45.5978 25.3631 45.4636 25.4687 45.4605 25.5405C45.4397 25.9831 45.4497 26.4266 45.4497 26.8523C46.5225 26.7135 47.5459 26.5801 48.6209 26.4397ZM40.777 33.7685C40.777 33.123 40.7724 32.5345 40.7793 31.9461C40.7816 31.7456 40.6999 31.6762 40.504 31.6785C39.877 31.6839 39.2492 31.6831 38.6215 31.6731C38.4171 31.67 38.3538 31.7587 38.3569 31.9492C38.3646 32.4613 38.3469 32.9741 38.3739 33.4847C38.3793 33.5834 38.5397 33.7523 38.633 33.7554C39.3348 33.7785 40.0359 33.7685 40.777 33.7685ZM45.0341 28.4148C44.9824 28.4148 44.9307 28.4148 44.8783 28.4148C44.8783 30.6497 44.8783 32.8854 44.8783 35.2608C45.0973 34.9145 45.4089 34.6507 45.4058 34.3893C45.3904 32.9795 45.3078 31.5705 45.2253 30.1623C45.1906 29.5777 45.0996 28.997 45.0341 28.4148ZM34.177 43.2042C34.6952 42.9528 34.7924 42.6042 34.777 42.1307C34.7361 40.8752 34.7569 39.6173 34.7515 38.3603C34.7508 38.2677 34.7377 38.1752 34.7292 38.0795C34.2587 38.3633 34.1546 38.7621 34.1731 39.2618C34.2063 40.1842 34.1793 41.1088 34.1778 42.032C34.1762 42.4114 34.177 42.7901 34.177 43.2042ZM40.8063 13.7834C39.9703 14.0564 39.1559 14.0371 38.2328 13.7765C38.5204 14.5099 39.1413 14.8014 39.4898 15.3173C40.5973 14.4351 40.8549 14.142 40.8063 13.7834ZM38.7271 15.8687C38.296 15.3829 37.9004 14.9363 37.5279 14.516C37.2904 14.7096 37.0976 14.8677 36.9017 15.0274C37.3127 15.6104 37.6837 16.1356 38.0708 16.6847C38.3276 16.3662 38.5497 16.0901 38.7271 15.8687ZM41.6454 14.479C41.2089 14.9495 40.8032 15.3852 40.376 15.8456C40.5919 16.087 40.8325 16.3554 41.0778 16.6292C41.4826 16.0747 41.8551 15.5633 42.2361 15.0405C42.0479 14.8623 41.8736 14.6965 41.6454 14.479ZM41.4055 32.1196C41.4055 32.4968 41.3955 32.8415 41.414 33.1847C41.4179 33.2533 41.5243 33.3682 41.5883 33.3721C41.9176 33.3914 42.2484 33.3806 42.5909 33.3806C42.5909 32.931 42.5909 32.5299 42.5909 32.1196C42.1821 32.1196 41.8035 32.1196 41.4055 32.1196ZM34.1415 28.1741C34.1122 28.178 34.0821 28.1819 34.0528 28.1857C33.9449 29.3541 33.8377 30.5225 33.7289 31.6978C33.9657 31.6978 34.1238 31.6978 34.3212 31.6978C34.2603 30.5024 34.2009 29.3379 34.1415 28.1741ZM35.495 37.0292C35.6045 35.8322 35.222 35.3317 34.3505 35.5029C34.5788 36.0158 34.8055 36.524 35.0407 37.0507C35.1757 37.0446 35.3253 37.0369 35.495 37.0292ZM37.6682 33.1978C37.6682 32.8423 37.6682 32.4929 37.6682 32.0996C37.0528 32.0996 36.4636 32.0996 35.9384 32.0996C36.476 32.4412 37.0605 32.8122 37.6682 33.1978ZM42.0564 20.988C42.0564 21.1361 42.0564 21.2664 42.0564 21.4137C42.388 21.4137 42.6896 21.4137 43.0204 21.4137C43.0305 21.2757 43.0405 21.1423 43.052 20.988C42.7042 20.988 42.3919 20.988 42.0564 20.988ZM37.0305 21.0096C36.6865 21.0096 36.3965 21.0096 36.0896 21.0096C36.0896 21.1507 36.0896 21.2672 36.0896 21.3844C36.4189 21.3844 36.7197 21.3844 37.0305 21.3844C37.0305 21.2471 37.0305 21.1392 37.0305 21.0096ZM36.6217 21.7924C36.4906 21.9852 36.3456 22.1094 36.3672 22.188C36.3988 22.3029 36.5492 22.3854 36.6495 22.4826C36.7366 22.3893 36.8932 22.296 36.8924 22.2034C36.8916 22.0932 36.7559 21.9836 36.6217 21.7924ZM42.9163 22.1926C42.7104 22.0677 42.6086 21.9574 42.5076 21.9597C42.4189 21.9613 42.3325 22.0878 42.2446 22.1587C42.3263 22.2551 42.3957 22.4101 42.4937 22.4317C42.5824 22.4495 42.7019 22.3214 42.9163 22.1926Z" fill="#1151B3"/>
<path id="Vector_4" d="M63.4439 57.4244C63.1717 57.4491 62.9002 57.4938 62.628 57.4954C57.8596 57.5216 53.0912 57.544 48.3236 57.554C48.1786 57.554 48.0136 57.4337 47.8933 57.328C47.5956 57.0681 47.3403 56.755 47.0264 56.5198C46.8205 56.3656 46.8213 56.2267 46.8938 56.034C47.1791 55.2828 47.9789 54.8856 48.7802 55.0977C48.912 55.1324 49.0424 55.1694 49.1735 55.2057C49.1897 55.1748 49.2059 55.144 49.2221 55.1131C49.0108 54.9882 48.8118 54.8332 48.5858 54.7476C48.3807 54.6689 48.319 54.5663 48.3198 54.3543C48.3228 51.5648 48.3151 48.7761 48.3144 45.9866C48.3136 44.0201 48.3221 42.0535 48.3159 40.0869C48.3151 39.837 48.3761 39.6512 48.5689 39.4846C49.3285 38.8291 49.647 38.044 49.6131 36.9913C49.5645 35.4959 49.7303 33.9944 49.8066 32.4512C50.3758 32.4512 50.9072 32.4512 51.464 32.4512C51.464 32.0278 51.464 31.6507 51.464 31.2172C50.9658 31.2172 50.4853 31.2172 49.9547 31.2172C50.0357 30.1167 50.112 29.0756 50.1899 28.009C50.3943 28.0206 50.564 28.0298 50.7521 28.0406C50.7113 27.2239 50.6696 26.4319 50.6318 25.6399C50.6234 25.4602 50.6087 25.2789 50.6257 25.1008C50.6727 24.6095 50.6935 24.1545 50.0696 23.9795C49.9647 23.9501 49.8776 23.7196 49.8514 23.5699C49.5707 21.9296 49.3023 20.2869 49.0331 18.645C48.9437 18.1013 48.8604 17.5561 48.7593 16.9167C49.9377 16.8836 50.574 16.0591 51.3306 15.092C51.2141 15.0319 51.0568 14.9833 50.9411 14.8854C50.4367 14.4558 50.1352 13.8998 49.9462 13.2689C49.9069 13.1378 49.775 12.9967 49.6493 12.9365C48.8727 12.564 48.7146 11.4365 49.3748 10.8789C49.3732 10.8543 49.3717 10.8288 49.3694 10.8041C49.3208 10.2064 49.1295 9.73909 48.5673 9.37816C48.0421 9.04037 48.1671 8.08408 48.7246 7.76171C48.9599 7.62598 49.0339 7.45477 49.0879 7.22572C49.3154 6.25554 49.8606 5.49667 50.6758 4.94063C50.9342 4.76402 51.2457 4.66531 51.582 4.50798C51.8442 3.8031 51.919 3.75143 52.7596 3.75297C53.1838 3.75374 53.6079 3.74526 54.0321 3.75837C54.427 3.77071 54.7208 3.92803 54.8203 4.35374C54.8419 4.44629 54.9321 4.56274 55.0177 4.59436C56.3079 5.07097 57.0298 6.0396 57.42 7.3121C57.4671 7.46557 57.565 7.63446 57.6899 7.72932C58.2583 8.1612 58.4442 9.28793 57.5272 9.66197C57.2889 9.75914 57.1647 9.89179 57.1732 10.1764C57.1802 10.4131 57.0946 10.6522 57.0483 10.8974C57.6575 11.3702 57.5912 12.345 56.9295 12.8725C56.7336 13.0283 56.5501 13.2496 56.4622 13.4794C56.2455 14.0455 55.9339 14.5321 55.4766 14.9262C55.3802 15.0088 55.2699 15.0759 55.1434 15.1661C55.593 15.6589 55.9501 16.1201 56.3827 16.4941C56.5964 16.6792 56.9473 16.71 57.2395 16.8003C57.7054 16.9429 58.1858 17.0447 58.6385 17.2206C59.9588 17.7319 60.6375 18.7383 60.8789 20.1142C61.1465 21.6427 61.5707 23.1496 61.748 24.6859C61.8614 25.6699 62.0627 26.6339 62.1784 27.6103C62.2555 28.2597 62.0773 28.9368 62.0372 29.6023C61.9308 31.346 61.8259 33.0897 61.7465 34.835C61.7295 35.2028 61.6354 35.4681 61.3123 35.6633C60.8627 35.9355 60.4231 36.227 59.9912 36.5262C59.7413 36.6998 59.5185 36.763 59.2832 36.5147C59.2439 36.473 59.1745 36.4599 59.0812 36.4152C59.0812 37.1309 59.0812 37.8118 59.0812 38.5275C59.6904 38.5275 60.2781 38.5252 60.8658 38.5283C61.8483 38.5329 62.3519 39.0342 62.3658 40.0206C62.3858 41.4311 61.7365 42.3481 60.5311 42.5825C60.3205 42.6234 60.0822 42.655 59.884 42.598C59.5617 42.5039 59.3766 42.6581 59.1298 42.817C58.3809 43.2967 58.1712 43.9314 58.1874 44.819C58.2444 47.954 58.2036 51.0913 58.2128 54.2278C58.2136 54.5201 58.1596 54.7028 57.8581 54.8054C57.6899 54.8625 57.555 55.0183 57.4154 55.174C58.074 54.9751 58.6763 54.9951 59.2277 55.437C59.7645 55.8674 59.938 56.4519 59.9704 57.2139C61.138 57.2139 62.291 57.2139 63.4447 57.2139C63.4439 57.281 63.4439 57.3527 63.4439 57.4244ZM52.8375 36.8609C52.4473 43.4532 52.0586 50.0255 51.6699 56.5969C52.7041 56.5969 53.6704 56.5969 54.7216 56.5969C54.3136 49.9892 53.9087 43.427 53.5038 36.8609C53.2347 36.8609 53.0473 36.8609 52.8375 36.8609ZM57.5118 17.9023C57.3344 19.0175 57.1547 20.1419 56.9804 21.2671C56.9719 21.3211 56.9943 21.392 57.0259 21.4391C57.1516 21.628 57.1848 22.5365 57.0136 22.6399C56.7637 22.7902 56.83 22.9846 56.8563 23.1735C56.9804 24.0635 57.4755 24.8008 57.8928 25.592C57.9668 24.6897 58.0015 23.7951 57.9529 22.9052C57.9259 22.3992 58.1904 22.181 58.5761 21.9519C58.7156 22.7255 58.8491 23.4643 58.9863 24.2208C59.5825 23.9941 60.1416 23.7812 60.727 23.5584C60.6506 23.2221 60.5743 22.9013 60.5056 22.5789C60.3028 21.6265 60.1354 20.6648 59.8933 19.7224C59.6241 18.6751 58.4804 17.8198 57.5118 17.9023ZM57.4624 8.48896C57.2866 8.34012 57.1933 8.20439 57.0707 8.16737C56.655 8.04089 56.2285 7.95374 55.809 7.8396C55.7126 7.81338 55.6293 7.74012 55.5398 7.68845C55.6378 7.63215 55.7326 7.53652 55.8344 7.52804C56.1082 7.50567 56.3858 7.52032 56.665 7.52032C56.5431 6.54783 55.6216 5.47277 54.8288 5.40644C54.8288 5.54526 54.8303 5.68099 54.8288 5.81595C54.8249 6.0851 54.8388 6.35734 54.8079 6.62341C54.7802 6.86094 54.6815 7.09539 54.3861 7.07688C54.093 7.05837 54.1246 6.81004 54.1231 6.60798C54.1169 6.04346 54.1038 5.47816 54.1185 4.91364C54.127 4.60361 54.0005 4.50567 53.7066 4.52264C53.3997 4.54115 53.0897 4.54346 52.7827 4.52341C52.465 4.50259 52.3447 4.62829 52.3501 4.94372C52.3609 5.53369 52.3593 6.12521 52.3339 6.71518C52.3285 6.83472 52.2066 7.02829 52.1133 7.04526C52.0023 7.06454 51.8234 6.95888 51.7493 6.854C51.6699 6.74063 51.6583 6.56711 51.6521 6.41827C51.639 6.07816 51.6483 5.73806 51.6483 5.38947C50.7144 5.52983 49.8545 6.57945 49.8506 7.55271C50.2339 7.55271 50.6187 7.55271 51.0036 7.55271C51.0159 7.59822 51.0282 7.64372 51.0406 7.68922C50.9357 7.7378 50.8347 7.80875 50.7244 7.83035C50.3727 7.90053 50.0149 7.94217 49.6632 8.01467C49.3077 8.08793 49.1342 8.26608 49.138 8.46274C51.8673 8.19282 54.5958 8.17354 57.4624 8.48896ZM50.4984 12.21C50.8246 13.9437 51.8388 14.9023 53.2709 14.8699C54.7277 14.8375 55.7835 13.8041 56.0072 12.1483C55.5151 12.6188 54.9668 12.7622 54.3691 12.4923C53.746 12.2116 53.7313 11.5553 53.5539 11.0232C52.9732 10.9784 52.9856 10.9823 52.8174 11.5067C52.7449 11.7334 52.6455 11.9717 52.4943 12.1499C52.0162 12.7152 51.2334 12.7345 50.4984 12.21ZM56.7329 40.0098C56.7182 40.1887 56.6943 40.3514 56.6935 40.5134C56.6881 42.4661 56.6835 44.4196 56.6835 46.3722C56.6827 48.9165 56.6858 51.4599 56.6897 54.0041C56.6904 54.2609 56.6804 54.5748 57.0352 54.5764C57.3136 54.5779 57.4354 54.3627 57.4347 54.0697C57.4316 49.508 57.4347 44.9471 57.4354 40.3854C57.4354 40.262 57.4223 40.1393 57.4146 40.0098C57.1678 40.0098 56.9665 40.0098 56.7329 40.0098ZM60.9367 25.8867C60.5658 26.0046 60.228 26.1242 59.8833 26.2183C59.6449 26.283 59.5539 26.4041 59.5794 26.6571C59.6426 27.2949 59.6889 27.9342 59.7321 28.5743C59.8177 29.8399 59.8971 31.1054 59.9804 32.3933C60.3359 32.3933 60.6722 32.3933 61.0146 32.3933C61.0709 31.6214 61.1542 30.8818 61.1735 30.1406C61.2066 28.8843 61.5205 27.6165 61.057 26.3733C61.0046 26.2322 60.983 26.0787 60.9367 25.8867ZM56.0627 34.8427C56.0627 36.0728 56.0627 37.3036 56.0627 38.526C56.7683 38.526 57.4424 38.526 58.1133 38.526C58.1133 37.2866 58.1133 36.0751 58.1133 34.8427C57.4216 34.8427 56.7583 34.8427 56.0627 34.8427ZM55.1295 22.589C55.1735 22.1432 55.2082 21.773 55.2483 21.4028C55.2537 21.3566 55.2876 21.2764 55.3123 21.2748C55.7048 21.2509 55.6192 20.9301 55.6617 20.7034C55.7395 20.2877 55.7943 19.8666 55.8637 19.4494C55.9748 18.7846 56.0904 18.1206 56.2038 17.4566C56.1845 17.4473 56.1645 17.4388 56.1452 17.4296C55.7126 18.0519 55.2799 18.6743 54.8156 19.3422C54.5835 19.0877 54.3876 18.8725 54.1894 18.6543C53.9658 18.8949 53.7707 19.1054 53.6357 19.2512C53.7005 19.454 53.7776 19.6206 53.8054 19.7949C53.9396 20.6301 54.0552 21.4684 54.1925 22.3036C54.2095 22.4062 54.3059 22.5658 54.3807 22.5751C54.6521 22.609 54.9298 22.589 55.1295 22.589ZM51.3599 22.5944C51.5079 22.5944 51.6622 22.5743 51.8079 22.5982C52.1573 22.6561 52.2799 22.498 52.3146 22.1687C52.3856 21.5054 52.4804 20.8437 52.5753 20.1836C52.6192 19.8774 52.6879 19.5743 52.7534 19.2234C52.6416 19.0723 52.4843 18.8586 52.3154 18.6288C52.0948 18.8687 51.8912 19.0908 51.6383 19.3661C51.1663 18.6728 50.7221 18.0203 50.2779 17.3679C50.439 18.6103 50.6565 19.8196 50.8786 21.0288C50.8894 21.0866 50.9241 21.18 50.9596 21.1861C51.2827 21.244 51.2372 21.4962 51.2588 21.7183C51.2874 21.9959 51.3228 22.272 51.3599 22.5944ZM55.866 9.26094C54.1223 9.26094 52.4056 9.26094 50.665 9.26094C50.5948 9.58793 50.5277 9.90027 50.4629 10.2018C52.3617 10.2018 54.1917 10.2018 56.0727 10.2018C55.9987 9.86634 55.9339 9.57174 55.866 9.26094ZM59.3573 41.1442C59.4352 41.5599 59.6951 41.7435 60.0452 41.8129C60.4825 41.8985 60.8527 41.7658 61.1565 41.4357C61.5282 41.0309 61.5506 40.5365 61.5398 40.0283C61.5267 39.4429 61.4187 39.3211 60.8442 39.3149C60.2665 39.3088 59.6858 39.3458 59.1113 39.3041C58.5915 39.2663 58.3323 39.5671 58.0239 39.982C58.9802 39.982 59.8709 39.982 60.7547 39.982C60.8403 40.7771 60.6475 41.3486 59.3573 41.1442ZM57.4308 32.3555C57.4308 31.9476 57.4285 31.589 57.4316 31.2296C57.4347 30.7653 57.3699 30.3111 57.7532 29.9046C58.0231 29.6185 57.8534 29.1018 57.5149 28.8573C57.1277 28.5782 56.6804 28.6237 56.3743 28.973C56.0951 29.2915 56.0357 29.8052 56.338 30.0111C56.7205 30.2717 56.6989 30.6203 56.7059 30.9828C56.7151 31.4393 56.7082 31.8959 56.7082 32.3555C56.9781 32.3555 57.1786 32.3555 57.4308 32.3555ZM60.9915 33.2147C60.602 33.2147 60.2827 33.2139 59.9627 33.2147C59.2007 33.2162 58.6154 34.0946 58.9131 34.9021C59.0542 34.7633 59.1606 34.6291 59.2948 34.5327C59.456 34.417 59.6395 34.3329 59.8138 34.2357C59.8501 34.4525 59.9341 34.6753 59.9087 34.8851C59.8879 35.0602 59.7444 35.2237 59.6457 35.3864C59.5833 35.489 59.5015 35.5792 59.429 35.6756C59.4506 35.7072 59.4722 35.7388 59.4938 35.7705C59.9419 35.5167 60.3915 35.2653 60.8372 35.007C60.8719 34.9869 60.8935 34.9206 60.8966 34.8743C60.9298 34.3399 60.9583 33.8054 60.9915 33.2147ZM52.0532 30.9874C52.0532 31.5789 52.047 32.1265 52.0609 32.6733C52.0624 32.7465 52.1673 32.8776 52.2259 32.8784C52.9231 32.8931 53.621 32.8877 54.3159 32.8877C54.3159 32.2052 54.3159 31.5998 54.3159 30.9866C53.5671 30.9874 52.8545 30.9874 52.0532 30.9874ZM55.5136 26.2252C55.4874 26.1782 55.4604 26.1311 55.4342 26.0841C54.0367 26.0841 52.6385 26.0841 51.2411 26.0841C51.2187 26.1265 51.1964 26.1681 51.174 26.2106C51.3336 26.3124 51.491 26.4998 51.6529 26.5036C52.7797 26.5268 53.9072 26.5229 55.0331 26.4967C55.1951 26.4913 55.3539 26.3193 55.5136 26.2252ZM56.0789 34.046C56.6365 34.046 57.1994 34.0483 57.7624 34.0453C58.084 34.0437 58.3231 33.8201 58.2483 33.4977C58.2151 33.3527 57.9599 33.1915 57.7848 33.1622C57.4593 33.1082 57.1192 33.1437 56.7853 33.146C56.2185 33.1507 56.0002 33.4167 56.0789 34.046ZM53.183 16.9923C54.2488 16.171 54.4015 15.982 54.2935 15.6157C53.591 15.8833 52.8776 15.8571 52.0863 15.6095C52.1943 16.3576 52.866 16.5142 53.183 16.9923ZM59.0442 30.6427C58.9069 29.2638 58.7781 27.9697 58.6501 26.6756C58.5861 26.6779 58.5228 26.6795 58.4588 26.6818C58.4395 27.9566 58.4203 29.2314 58.4018 30.5C58.6308 30.5509 58.7789 30.5841 59.0442 30.6427ZM51.2912 16.3237C51.2465 16.38 51.1408 16.4794 51.0761 16.6005C51.0105 16.7232 50.9072 16.9098 50.9542 16.9938C51.194 17.425 51.4763 17.8321 51.7439 18.2471C51.9861 17.9486 52.2113 17.6717 52.4388 17.391C52.0663 17.0447 51.703 16.707 51.2912 16.3237ZM54.7424 18.2116C55.0377 17.7589 55.3162 17.3324 55.61 16.8828C55.4604 16.6969 55.3115 16.5111 55.1403 16.2974C54.7432 16.6707 54.3753 17.017 53.9951 17.3748C54.2195 17.6432 54.4223 17.8884 54.6282 18.1321C54.6506 18.1591 54.6876 18.1738 54.7424 18.2116ZM55.8606 31.2064C55.6377 31.2064 55.4295 31.1802 55.2336 31.2172C55.1311 31.2365 54.9799 31.3591 54.9714 31.4463C54.9398 31.771 54.9591 32.1003 54.9591 32.4257C55.8784 32.4851 56.0079 32.192 55.8606 31.2064ZM58.2915 31.3429C58.2915 31.6537 58.2915 31.9275 58.2915 32.2167C58.5267 32.2167 58.738 32.2167 58.9547 32.2167C58.9547 31.9345 58.9547 31.6761 58.9547 31.3985C58.7203 31.3784 58.5213 31.3622 58.2915 31.3429ZM60.9344 24.8424C60.8982 24.6743 60.8658 24.5216 60.8156 24.2848C60.2866 24.6072 59.82 24.891 59.3534 25.1756C59.3712 25.2095 59.3897 25.2435 59.4074 25.2774C59.894 25.1386 60.3814 25.0005 60.9344 24.8424ZM49.7565 21.8054C49.7851 21.9465 49.8059 22.0522 49.8313 22.1771C50.1529 22.1455 50.4514 22.1162 50.7861 22.0838C50.7784 21.9558 50.7707 21.8409 50.7622 21.7013C50.4151 21.7368 50.1136 21.7684 49.7565 21.8054ZM55.664 22.0429C56.5493 22.2458 56.6581 22.2157 56.5979 21.7846C56.3272 21.7507 56.0519 21.7167 55.7473 21.6789C55.7172 21.8108 55.6902 21.9265 55.664 22.0429ZM50.7614 22.7124C50.7213 22.6792 50.682 22.6453 50.6419 22.6121C50.4961 22.6707 50.3395 22.7147 50.2115 22.8003C50.1815 22.8203 50.2185 23.0432 50.2694 23.0648C50.3866 23.1134 50.5717 23.1496 50.6534 23.0887C50.7375 23.027 50.729 22.8427 50.7614 22.7124ZM56.3357 22.7278C56.3087 22.6923 56.2809 22.6576 56.2539 22.6221C56.0982 22.6591 55.927 22.6715 55.7928 22.7478C55.7434 22.7756 55.7365 23.01 55.7889 23.0532C55.8714 23.1211 56.0689 23.1643 56.1321 23.1126C56.2362 23.0293 56.2717 22.8604 56.3357 22.7278Z" fill="#1151B3"/>
<path id="Vector_5" d="M20.9244 17.5306C20.0167 18.6612 20.0167 18.6612 19.6503 20.0648C19.6688 19.7601 19.6835 19.4563 19.7074 19.1524C19.7321 18.8362 19.7668 18.5208 19.7336 18.1761C19.3187 18.7367 18.9046 19.2966 18.4758 19.8766C18.2722 19.6522 18.0886 19.4501 17.8696 19.2095C17.683 19.5172 17.5233 19.7262 17.6113 20.1018C17.7709 20.7835 17.8303 21.4892 17.9359 22.2203C18.3663 22.2203 18.7719 22.2203 19.2285 22.2203C19.129 22.8797 19.0365 23.4928 18.9385 24.1406C17.5388 24.1406 16.1676 24.1406 14.7285 24.1406C14.7285 24.3766 14.7277 24.5756 14.7285 24.7738C14.7331 25.5187 14.7717 26.266 14.7362 27.0095C14.6822 28.1254 15.2676 28.7061 16.2401 29.0632C16.8593 29.2907 17.4979 29.2884 18.1411 29.1758C18.2406 29.1581 18.3401 29.145 18.4974 29.1211C18.5976 29.9462 18.6964 30.7529 18.802 31.6229C18.0393 31.6229 17.3128 31.6229 16.567 31.6229C16.567 31.9861 16.567 32.2907 16.567 32.6339C17.349 32.6339 18.1257 32.6339 18.9493 32.6339C19.0226 33.6126 19.085 34.5588 19.1706 35.5028C19.1853 35.6617 19.2562 35.8568 19.3696 35.9586C19.8192 36.3596 20.3066 36.7175 20.7555 37.12C20.8874 37.238 21.0069 37.4493 21.0084 37.6198C21.0293 39.4445 21.0246 41.2699 21.0269 43.0946C21.0269 43.2342 21.0269 43.3738 21.0269 43.5588C21.337 43.575 21.6231 43.5905 21.9347 43.6067C21.9347 44.2722 21.9347 44.9115 21.9347 45.5509C21.9339 47.8383 21.9293 50.1257 21.9354 52.4139C21.9362 52.6846 21.9169 52.8735 21.5853 52.9398C21.3925 52.9784 21.2275 53.1504 21.0624 53.3038C21.7125 53.1635 22.301 53.1581 22.7892 53.8653C22.7066 53.9092 22.611 53.9478 22.5285 54.0056C22.0087 54.3673 21.6215 54.8416 21.3948 55.4308C21.2984 55.6815 21.1156 55.6498 20.9282 55.6498C17.8827 55.6483 14.8372 55.6506 11.791 55.6406C10.6472 55.6367 9.50432 55.6074 8.36062 55.5851C8.21409 55.582 8.06833 55.5488 7.92257 55.5295C7.9164 55.4848 7.911 55.4401 7.90483 55.3946C8.05753 55.3614 8.21023 55.302 8.3637 55.2989C9.17347 55.2835 9.98247 55.2758 10.7922 55.2797C11.0213 55.2812 11.1277 55.2357 11.1562 54.972C11.2966 53.6825 12.0771 53.1056 13.3935 53.2414C13.1236 53.101 12.8529 52.9599 12.5167 52.7848C12.5167 49.4601 12.5167 46.0714 12.5167 42.6565C12.3701 42.6457 12.2722 42.6326 12.1742 42.6319C11.0945 42.628 10.0149 42.6342 8.93594 42.6218C7.99661 42.611 7.638 42.2378 7.64262 41.3C7.64725 40.3876 7.65265 39.4753 7.66884 38.563C7.68118 37.8542 8.11537 37.4185 8.82257 37.3907C9.10483 37.3799 9.38787 37.383 9.6709 37.3822C9.95085 37.3807 10.2316 37.3822 10.5231 37.3822C10.6388 36.9519 10.3665 36.4475 10.857 36.1838C10.8262 36.1221 10.8215 36.0882 10.8038 36.0797C10.1066 35.7241 10.0311 35.1041 9.99943 34.4023C9.89686 32.118 9.74262 29.8367 9.60226 27.5547C9.59609 27.4498 9.55985 27.2979 9.48581 27.254C9.18735 27.0758 9.23594 26.8313 9.26679 26.5491C9.32617 26.0015 9.32848 25.447 9.38632 24.8995C9.40175 24.7545 9.53594 24.6218 9.61537 24.483C9.6871 24.3573 9.79506 24.2393 9.82283 24.1043C10.0889 22.8103 10.3773 21.5193 10.5871 20.2151C10.8015 18.8848 11.5766 18.1221 12.8228 17.7588C13.2046 17.6478 13.5802 17.4989 13.9688 17.4295C14.619 17.3131 15.003 16.8588 15.4449 16.3838C14.8172 15.9195 14.4755 15.2917 14.3028 14.5599C14.2874 14.4943 14.1971 14.4249 14.1262 14.3971C13.5023 14.1519 13.3172 13.3483 13.7799 12.8671C13.9542 12.6858 13.7853 12.1722 13.5262 12.0943C12.8421 11.8884 12.5784 11.5221 12.7272 10.9151C12.7727 10.7293 12.8868 10.5025 13.0395 10.4131C13.2794 10.272 13.3249 10.0761 13.3665 9.8501C13.5161 9.04419 13.8555 8.34548 14.4832 7.79483C14.703 7.60203 14.8511 7.30974 15.0925 7.16167C15.31 7.02748 15.5136 6.95807 15.6778 6.70666C15.9231 6.33262 16.3889 6.37427 16.8061 6.39123C17.0544 6.40126 17.312 6.41514 17.5526 6.36424C18.0917 6.2501 18.4658 6.41283 18.7241 6.89869C18.7658 6.97735 18.8899 7.03982 18.9856 7.05756C19.3303 7.12157 19.5701 7.30126 19.7082 7.6244C19.7413 7.70229 19.7884 7.78481 19.8509 7.83956C20.4925 8.40255 20.7925 9.13442 20.9375 9.95499C20.9622 10.093 21.0632 10.245 21.1735 10.336C21.5213 10.6229 21.6077 10.9977 21.5568 11.4087C21.5097 11.7874 21.2429 11.9987 20.8874 12.0558C20.457 12.1252 20.612 12.5216 20.4424 12.7244C20.9938 13.3205 20.9028 13.9552 20.2264 14.4041C20.1655 14.4442 20.0953 14.4951 20.0683 14.5576C19.9187 14.8969 19.8215 15.2655 19.6295 15.5763C19.4375 15.8863 19.1552 16.1401 18.9138 16.4169C19.2994 17.2321 20.0714 17.4103 20.9244 17.5306ZM12.7997 32.0115C12.7179 32.4303 12.7835 32.7288 13.1197 32.9948C13.5593 33.3426 13.7298 33.8717 13.8385 34.4069C13.9665 35.0393 13.9118 35.6347 13.4892 35.9979C13.6156 36.5177 13.719 36.9388 13.8277 37.3846C14.3275 37.3846 14.8395 37.3984 15.3516 37.3815C16.085 37.3568 16.7051 37.7231 16.6488 38.7025C16.5185 40.9707 16.4406 43.2411 16.3195 45.51C16.1876 47.9717 16.0318 50.4319 15.8838 52.8928C15.8467 53.5121 15.7982 54.1306 15.755 54.7468C16.7552 54.7468 17.6868 54.7468 18.6832 54.7468C18.2868 48.7452 17.892 42.7768 17.4964 36.7838C17.1886 36.7838 16.8994 36.8702 16.7143 36.7684C16.065 36.4097 15.3701 36.3103 14.6151 36.3018C15.0123 35.418 15.0254 34.538 14.602 33.7375C14.3136 33.1915 14.2349 32.6648 14.2712 32.084C14.2727 32.064 14.248 32.0424 14.2311 32.0139C13.7629 32.0115 13.2925 32.0115 12.7997 32.0115ZM15.7149 40.7917C15.7149 40.0121 15.7125 39.3056 15.7164 38.6C15.7179 38.273 15.5652 38.1519 15.2398 38.1534C13.1838 38.1619 11.1285 38.1565 9.07244 38.1596C8.65985 38.1604 8.51949 38.2977 8.51177 38.7141C8.50098 39.2663 8.52103 39.82 8.49635 40.3714C8.48093 40.71 8.59584 40.8079 8.93517 40.8049C10.8879 40.7879 12.8413 40.7941 14.794 40.7925C15.0863 40.7918 15.3786 40.7917 15.7149 40.7917ZM12.2945 24.8424C12.3971 24.4738 12.3185 24.2971 11.9521 24.2501C11.6699 24.2139 11.3984 24.0997 11.103 24.0141C11.1532 23.8552 11.1902 23.7365 11.2334 23.5992C11.6182 23.6617 11.9791 23.7203 12.3917 23.7874C12.3917 23.2252 12.3917 22.7069 12.3917 22.1709C12.637 22.1709 12.8344 22.1709 13.0696 22.1709C13.0696 23.0331 13.0696 23.8722 13.0696 24.7105C13.2971 24.311 13.4892 23.9085 13.6056 23.4843C13.7043 23.1234 13.7753 22.7355 13.7544 22.3653C13.7082 21.5339 13.6002 20.7056 13.5115 19.8766C13.4629 19.4223 13.4043 18.9696 13.3496 18.5139C12.0902 18.7475 11.6128 19.2018 11.3668 20.3748C11.2696 20.8383 11.1856 21.3049 11.0907 21.7691C10.9125 22.6444 10.7305 23.5198 10.5424 24.4337C11.147 24.5748 11.7053 24.7051 12.2945 24.8424ZM12.0331 34.2774C12.3377 34.5627 12.62 34.8272 12.9632 35.1488C13.0025 34.919 13.0611 34.7702 13.0465 34.6298C12.9794 33.9835 12.684 33.419 12.1465 33.0866C11.7485 32.8406 11.7015 32.5722 11.7239 32.1727C11.7994 30.7761 11.8526 29.3771 11.8997 27.9789C11.9035 27.8547 11.8241 27.6426 11.7377 27.6157C11.3321 27.4884 10.9102 27.4121 10.5077 27.3203C10.5077 27.719 10.493 28.0653 10.51 28.4092C10.6149 30.5501 10.7236 32.6902 10.8416 34.8303C10.8493 34.9637 10.9133 35.1473 11.0128 35.2128C11.3329 35.4234 11.6784 35.5961 12.0223 35.7666C12.1133 35.8113 12.2344 35.7951 12.4318 35.8167C12.0717 35.3131 11.4717 34.9684 12.0331 34.2774ZM16.9634 12.9465C16.7722 14.2429 15.8074 14.536 14.8704 13.9267C14.976 15.1213 15.7897 16.2149 17.3645 16.1216C18.4989 16.0545 19.5377 14.9771 19.4791 13.8858C18.6015 14.6 17.8449 14.2599 17.4077 12.9465C17.2712 12.9465 17.1323 12.9465 16.9634 12.9465ZM14.6298 18.156C14.6059 18.1645 14.582 18.173 14.5573 18.1815C14.5573 18.2933 14.5465 18.4067 14.5588 18.5177C14.6637 19.4347 14.7678 20.3524 14.8835 21.2678C15.0146 22.309 15.0192 22.3028 16.085 22.2303C16.2879 22.2164 16.3766 22.1586 16.4051 21.9465C16.4838 21.3619 16.5539 20.7735 16.6935 20.202C16.7922 19.7995 16.665 19.5303 16.385 19.2635C16.2146 19.4501 16.0542 19.6275 15.8544 19.8465C15.4341 19.265 15.0323 18.7105 14.6298 18.156ZM20.9043 11.1334C20.9213 11.0887 20.9383 11.0447 20.9544 11C20.767 10.9244 20.5812 10.7871 20.3922 10.7825C18.4827 10.7324 16.5724 10.6969 14.6622 10.6745C14.3444 10.6707 14.0221 10.7308 13.7105 10.8002C13.5724 10.8311 13.4552 10.9591 13.3287 11.0424C13.3488 11.0725 13.3688 11.1025 13.3897 11.1326C15.8946 11.1334 18.3994 11.1334 20.9043 11.1334ZM15.0277 31.0144C15.0277 31.9691 15.0277 32.9007 15.0277 33.8663C15.2953 33.8663 15.5421 33.8663 15.8313 33.8663C15.8313 33.1275 15.8313 32.411 15.8313 31.6946C15.8313 30.9357 15.8313 30.9357 15.0277 31.0144ZM10.0588 26.3902C10.8293 26.4943 11.5449 26.5915 12.276 26.691C12.2892 26.593 12.3084 26.5182 12.3069 26.445C12.2768 25.373 12.5182 25.6252 11.4401 25.356C11.029 25.2534 10.611 25.181 10.1614 25.0884C10.1221 25.5889 10.0912 25.9822 10.0588 26.3902ZM14.8133 12.227C16.4043 12.227 17.9791 12.227 19.5539 12.227C19.5393 11.8668 19.5393 11.8552 19.2223 11.8514C17.8619 11.8329 16.5007 11.8259 15.1403 11.8036C14.848 11.7982 14.7308 11.9015 14.8133 12.227ZM17.7555 7.04059C17.7555 7.18095 17.7555 7.319 17.7555 7.45627C17.757 8.19895 17.7586 8.94162 17.7609 9.68429C17.7624 10.0923 17.7917 10.1123 18.2182 9.98892C18.2182 9.12208 18.2089 8.25293 18.2228 7.38378C18.229 7.05987 18.0871 6.98352 17.7555 7.04059ZM16.1082 7.08686C16.1082 8.09175 16.1082 9.05422 16.1082 10.0043C16.4791 10.11 16.5717 9.97658 16.5624 9.65036C16.5416 8.93468 16.557 8.21823 16.5578 7.50177C16.5578 7.34445 16.5578 7.18712 16.5578 6.99972C16.3611 7.03751 16.2377 7.06141 16.1082 7.08686ZM15.128 17.7303C15.4102 18.1151 15.6717 18.4699 15.937 18.8316C16.1514 18.5995 16.3318 18.4043 16.5323 18.1869C16.2239 17.8722 15.9192 17.563 15.5976 17.2352C15.4303 17.4126 15.2907 17.5599 15.128 17.7303ZM18.6979 17.2691C18.4025 17.5984 18.1249 17.9077 17.8434 18.2208C17.9575 18.3426 18.0462 18.4344 18.1311 18.5285C18.2228 18.6303 18.3123 18.7344 18.4264 18.8648C18.5791 18.6419 18.7125 18.4437 18.8483 18.247C19.21 17.7234 19.21 17.7234 18.6979 17.2691ZM13.0079 36.8339C12.4889 36.8339 11.9922 36.8385 11.4964 36.8324C11.2388 36.8293 11.2311 37.019 11.2642 37.1717C11.2835 37.2581 11.4293 37.3707 11.5249 37.3776C11.8804 37.4015 12.239 37.3869 12.5961 37.3869C13.0735 37.3861 13.0735 37.3861 13.0079 36.8339ZM18.0084 16.8781C17.4786 16.8781 16.9056 16.8781 16.1845 16.8781C16.5609 17.2398 16.8663 17.5329 17.0475 17.7072C17.4107 17.3933 17.7362 17.1126 18.0084 16.8781ZM14.7624 8.55216C14.7285 8.5429 14.6938 8.53365 14.6598 8.5244C14.275 8.99021 14.0467 9.51771 14.0151 10.1763C14.2249 10.1455 14.3961 10.1447 14.5465 10.0884C14.6359 10.0552 14.7485 9.93571 14.7524 9.8501C14.7732 9.41746 14.7624 8.98481 14.7624 8.55216ZM20.2434 10.1347C20.2858 9.54162 19.9534 8.75036 19.5655 8.54985C19.5655 8.88995 19.5655 9.2208 19.5655 9.55242C19.5655 10.181 19.6017 10.2118 20.2434 10.1347ZM15.5922 7.63905C15.4125 7.74779 15.2791 7.79021 15.2784 7.83494C15.2652 8.56064 15.2691 9.28712 15.2691 10.0128C15.2999 10.0344 15.33 10.0568 15.3609 10.0784C15.438 9.99046 15.5791 9.90486 15.5822 9.8154C15.6007 9.1244 15.5922 8.43339 15.5922 7.63905ZM18.8213 7.66758C18.7835 7.69535 18.7457 7.72234 18.7079 7.7501C18.7079 8.4519 18.701 9.15447 18.7172 9.85627C18.7195 9.94419 18.8467 10.0283 18.9169 10.1146C18.9547 10.0915 18.9917 10.0684 19.0295 10.046C19.0295 9.34496 19.0372 8.64393 19.0203 7.94368C19.0179 7.84959 18.8907 7.75936 18.8213 7.66758ZM14.0822 30.992C13.6519 30.992 13.2655 30.992 12.8583 30.992C12.866 31.1617 12.8714 31.2935 12.8768 31.4146C13.3064 31.4146 13.6928 31.4146 14.0822 31.4146C14.0822 31.2588 14.0822 31.1355 14.0822 30.992ZM14.5619 23.4388C14.7007 23.2444 14.8465 23.1288 14.8411 23.0223C14.8357 22.9205 14.6521 22.737 14.5812 22.7516C14.4586 22.7771 14.3012 22.9144 14.2735 23.0316C14.2534 23.1172 14.4177 23.2468 14.5619 23.4388Z" fill="#1151B3"/>
<path id="Vector_6" d="M23.3117 40.3822C23.3117 39.19 23.3117 38.0231 23.3117 36.8393C23.068 36.746 23.0055 36.8763 23.0025 37.0938C22.9886 38.0439 22.9716 38.9948 22.9577 39.945C22.9539 40.2365 22.957 40.528 22.957 40.838C25.7919 40.838 28.5513 40.838 31.3284 40.838C31.3708 40.7123 31.4148 40.5812 31.4588 40.4493C32.2971 40.8326 32.4513 41.2244 32.2238 42.4152C31.9045 42.4321 31.5768 42.4499 31.2374 42.4684C31.2035 43.1162 31.1811 43.7301 31.1372 44.3424C30.9698 46.6614 30.794 48.9797 30.6259 51.2979C30.5703 52.0668 30.5156 52.8357 30.4855 53.6054C30.4793 53.7681 30.5595 53.9501 30.6436 54.0982C31.0932 54.8887 31.5567 55.6707 32.0133 56.4558C32.031 56.4858 32.031 56.5267 32.0279 56.5144C31.7457 56.8391 31.4919 57.1414 31.2235 57.4298C31.1634 57.4946 31.0539 57.5486 30.9667 57.5478C27.0475 57.5347 23.1282 57.5162 19.2089 57.493C18.976 57.4915 18.7431 57.4483 18.5117 57.3411C19.6554 57.1375 20.8107 57.1915 21.9876 57.1283C22.0277 55.9136 22.7888 55.0491 23.3996 54.1067C23.5145 53.9293 23.5863 53.6802 23.5732 53.4704C23.4127 50.9447 23.2307 48.4213 23.0595 45.8964C22.9901 44.8715 22.9346 43.845 22.8721 42.8193C22.866 42.7182 22.8567 42.618 22.8505 42.5331C22.8073 42.5062 22.7873 42.483 22.7657 42.4807C22.0516 42.419 22.0469 42.419 22.0423 41.6817C22.0331 40.1393 22.0246 38.5969 22.0292 37.0553C22.03 36.7822 21.9528 36.6218 21.7045 36.4753C21.2418 36.2015 20.8061 35.8784 20.3765 35.5537C20.2716 35.4743 20.1845 35.3139 20.1698 35.1812C19.9184 33.001 19.6577 30.8208 19.4564 28.636C19.4187 28.2241 19.6346 27.7923 19.7194 27.3666C19.9169 26.3725 20.1089 25.3768 20.2955 24.3812C20.3364 24.1637 20.4228 23.9223 20.0942 23.8128C20.0441 23.7959 20.0179 23.6069 20.0356 23.5074C20.267 22.2188 20.4737 20.9239 20.759 19.6468C20.9981 18.5786 21.7331 17.8954 22.7264 17.482C23.0572 17.3447 23.3966 17.2267 23.7467 17.0941C22.0354 14.674 22.3955 11.9887 22.6446 9.26014C22.3122 8.98173 22.3122 8.86682 22.5837 8.37402C22.677 8.20435 22.6878 7.98379 22.7156 7.78327C22.93 6.22775 23.7197 5.12106 25.2151 4.55808C25.3176 4.51952 25.4364 4.47633 25.5027 4.39767C26.2855 3.46297 27.76 3.44985 28.5683 4.37608C28.6153 4.43006 28.6739 4.4879 28.7387 4.51027C30.4369 5.08559 31.2212 6.34806 31.4248 8.05551C31.4395 8.17659 31.4588 8.31541 31.5282 8.40718C31.7279 8.67479 31.7403 8.89998 31.5004 9.15911C31.4217 9.24394 31.414 9.43829 31.441 9.56862C31.7811 11.2013 31.8073 12.837 31.4372 14.4619C31.3161 14.9933 31.1418 15.5455 30.851 15.9966C30.3798 16.727 30.2079 17.5105 30.1122 18.3457C30.0189 19.1594 29.8685 19.9668 29.7405 20.7982C27.9143 20.7982 26.1181 20.7982 24.2603 20.7982C24.1238 19.8959 23.9858 18.9766 23.8446 18.0457C23.4937 18.0172 23.3564 18.1499 23.4089 18.4861C23.5292 19.2596 23.6441 20.0339 23.7513 20.809C23.7667 20.9223 23.7636 21.0643 23.7081 21.1568C22.6793 22.8658 23.3626 24.473 25.3354 24.9635C25.5829 25.0252 25.8343 25.0753 26.0981 25.1347C25.741 25.4185 25.7156 25.4254 24.3521 25.5905C24.3189 26.3116 24.2819 27.0373 24.2588 27.763C24.2572 27.8162 24.3598 27.8725 24.4145 27.9272C24.477 27.864 24.585 27.8069 24.5935 27.7367C24.6313 27.4445 24.6467 27.1483 24.6559 26.8529C24.6636 26.6046 24.7732 26.536 25.0192 26.6293C25.0192 27.0442 25.0192 27.4637 25.0192 27.9319C25.4588 27.9319 25.8783 27.9319 26.2971 27.9319C26.9271 27.9319 27.5564 27.9303 28.1865 27.9319C28.731 27.9334 28.731 27.9357 28.687 28.5504C28.5598 28.5581 28.4264 28.5727 28.2922 28.5735C26.9171 28.5758 25.5421 28.582 24.167 28.5697C23.884 28.5673 23.7567 28.6568 23.7876 28.9738C25.4295 28.9738 27.0806 28.9738 28.7595 28.9738C28.8027 29.2645 28.8421 29.5252 28.8883 29.8367C28.7071 29.8529 28.5482 29.8776 28.3894 29.8784C27.2325 29.8815 26.0757 29.89 24.9197 29.8722C24.6382 29.8676 24.5433 29.9686 24.4948 30.2277C24.2819 31.3499 24.0505 32.4689 23.8292 33.5902C23.8076 33.702 23.766 33.8455 23.8138 33.9288C24.2441 34.6815 23.8909 35.4311 23.8408 36.1853C23.7575 37.4486 23.7189 38.7141 23.6595 40.0221C24.521 40.0221 25.2883 40.0213 26.0557 40.0221C27.5464 40.0244 29.0372 40.0298 30.5279 40.029C30.7562 40.029 30.9606 40.0313 30.8495 40.3822C28.3423 40.3822 25.8289 40.3822 23.3117 40.3822ZM23.8732 43.0537C23.8732 43.3283 23.8654 43.5195 23.8747 43.7092C24.0205 46.7848 24.1662 49.8612 24.3181 52.9367C24.3428 53.438 24.3721 53.9285 24.13 54.399C24.0228 54.6064 23.9873 54.8509 23.9171 55.0861C25.0238 55.2419 25.4125 54.8686 25.3061 53.8159C25.2906 53.6632 25.2721 53.5074 25.2845 53.3555C25.4441 51.3997 25.6199 49.4447 25.7696 47.4882C25.8567 46.3499 25.9184 45.21 25.96 44.0694C25.9809 43.5126 25.7503 43.1979 25.296 43.137C24.8433 43.0761 24.3822 43.0807 23.8732 43.0537ZM30.204 55.0591C30.0899 54.7483 29.9672 54.4445 29.8685 54.1329C29.8038 53.9293 29.7289 53.7134 29.7351 53.5051C29.7675 52.4409 29.8192 51.3766 29.8732 50.3131C29.9881 48.0326 30.1099 45.7522 30.2256 43.4717C30.2325 43.3383 30.2148 43.2026 30.2071 43.0337C29.83 43.0537 29.4991 43.0653 29.1683 43.09C28.2845 43.1555 28.0901 43.3653 28.0932 44.2329C28.0932 44.3223 28.0917 44.4126 28.0986 44.502C28.2706 46.6499 28.4541 48.7977 28.6122 50.9463C28.6894 51.992 28.7395 53.0401 28.7618 54.0882C28.7788 54.8802 29.3487 55.3113 30.204 55.0591ZM27.0852 43.6152C27.0505 43.6159 27.0166 43.6167 26.9819 43.6175C26.9719 43.7385 26.9618 43.8596 26.9526 43.9807C26.8901 44.8005 26.8207 45.6195 26.766 46.4401C26.5716 49.3537 25.957 52.2396 26.1822 55.1825C26.2192 55.6614 26.1876 56.1457 26.1876 56.6463C26.7428 56.6463 27.3019 56.6463 27.841 56.6463C28.2151 52.2481 27.3482 47.9509 27.0852 43.6152ZM23.0032 34.9128C23.048 34.6645 23.1459 34.474 23.095 34.3391C22.8768 33.7607 22.6169 33.1869 21.9953 32.927C21.76 32.8283 21.7084 32.6941 21.7099 32.4612C21.7153 31.4848 21.7014 30.5092 21.696 29.5329C21.6937 29.1751 21.6544 28.8118 21.703 28.4617C21.858 27.3565 22.0516 26.2576 22.2158 25.154C22.2305 25.0568 22.1711 24.8879 22.0963 24.8478C21.8055 24.6951 21.494 24.5817 21.1878 24.4522C21.1539 24.5123 21.1261 24.5416 21.1184 24.5763C20.8562 25.7925 20.5917 27.0072 20.3395 28.2257C20.2986 28.4223 20.2894 28.6337 20.3094 28.8334C20.4999 30.6974 20.7205 32.5591 20.884 34.4254C20.9279 34.9313 21.0575 35.2576 21.5827 35.3725C21.7508 35.4095 21.8942 35.5483 22.0585 35.6193C22.1726 35.6686 22.3022 35.681 22.4248 35.7103C22.3539 35.5067 22.2143 35.401 22.1433 35.2607C22.0377 35.0501 21.9552 34.8203 21.9158 34.5889C21.8996 34.4941 21.9991 34.3375 22.0901 34.282C22.1503 34.245 22.3076 34.3128 22.3901 34.3745C22.5729 34.5103 22.7364 34.6738 23.0032 34.9128ZM24.3652 13.1208C24.4986 14.1527 25.6377 15.1267 26.7598 15.1915C28.1881 15.274 29.3302 14.4743 29.6302 13.2026C29.3133 13.2373 28.9832 13.3298 28.6654 13.2974C27.966 13.2265 27.6097 12.7429 27.3876 12.1182C27.3513 12.0149 27.177 11.8938 27.0721 11.8984C26.9457 11.9046 26.7868 12.0087 26.7089 12.1182C26.5331 12.3658 26.4459 12.6897 26.2377 12.8979C25.6948 13.4439 25.0446 13.4555 24.3652 13.1208ZM21.0174 22.2936C21.4963 22.4663 21.8618 22.5974 22.249 22.737C22.33 21.9026 22.4055 21.1321 22.4804 20.3609C22.4996 20.3601 22.5197 20.3594 22.539 20.3586C22.6408 20.6108 22.7426 20.8637 22.8444 21.1159C22.8914 21.1067 22.9392 21.0966 22.9863 21.0874C23.0256 20.2244 22.7379 19.3954 22.6724 18.5231C22.1981 18.729 21.8896 18.9535 21.7631 19.3822C21.4816 20.3362 21.2649 21.3095 21.0174 22.2936ZM29.3958 10.9522C29.0472 10.3445 28.6971 9.73289 28.3392 9.10821C27.1755 10.0861 25.7811 10.6699 24.2333 10.9522C25.977 10.9522 27.7199 10.9522 29.3958 10.9522ZM30.6968 8.72029C28.7495 6.95885 24.74 7.27428 23.2901 8.71412C25.7919 8.10255 28.2413 8.05165 30.6968 8.72029ZM26.0287 16.3229C26.0511 17.1419 26.6048 17.7465 27.0189 18.4768C27.5179 17.6594 28.2189 17.0008 28.0369 16.0144C27.3829 16.1146 26.7197 16.2164 26.0287 16.3229ZM28.839 5.34703C28.66 5.87993 28.4842 6.40127 28.3284 6.86476C29.0403 7.11309 29.813 7.38225 30.5742 7.64754C30.5981 6.73906 29.6418 5.49741 28.839 5.34703ZM23.513 7.62749C24.2973 7.35757 25.0732 7.08996 25.7672 6.85088C25.5937 6.36656 25.4133 5.86219 25.2297 5.34857C24.3498 5.546 23.4976 6.78919 23.513 7.62749ZM22.5359 30.217C22.5883 30.0411 22.623 29.9223 22.6585 29.8036C22.8112 29.3023 22.9485 28.7956 23.1243 28.302C23.1891 28.1208 23.4521 27.9635 23.4405 27.8085C23.3842 27.0581 23.2662 26.3131 23.1698 25.5658C23.122 25.5697 23.0734 25.5743 23.0256 25.5781C22.7557 27.0866 22.3315 28.5751 22.5359 30.217ZM25.9014 5.53443C25.903 6.14368 26.4181 6.65885 27.0297 6.66425C27.6343 6.66965 28.151 6.1514 28.1564 5.53443C28.1618 4.91746 27.6235 4.35063 27.0282 4.346C26.4428 4.3406 25.8999 4.91361 25.9014 5.53443ZM25.0971 19.6205C24.9552 19.4455 24.8302 19.292 24.6459 19.0653C24.6876 19.4069 24.6999 19.6483 24.7531 19.8804C24.7732 19.9676 24.8827 20.0964 24.9559 20.1002C25.384 20.1211 25.8127 20.1103 26.2963 20.1103C26.2508 19.6684 26.2122 19.2858 26.1621 18.7954C25.7765 19.0938 25.4703 19.3313 25.0971 19.6205ZM29.1837 20.0902C29.2192 19.8195 29.2508 19.5743 29.2924 19.255C29.1066 19.4038 28.9824 19.5033 28.8544 19.6067C28.549 19.3306 28.2598 19.0699 27.8804 18.7259C27.8387 19.2589 27.8071 19.6676 27.7747 20.0902C28.2798 20.0902 28.7217 20.0902 29.1837 20.0902ZM23.3564 33.2817C23.402 33.2732 23.4467 33.2648 23.4922 33.2555C23.7012 32.1712 23.9109 31.0876 24.1199 30.0033C24.0791 29.9786 24.0382 29.9532 23.9981 29.9285C23.9148 30.0272 23.7806 30.1144 23.7575 30.2254C23.5762 31.0876 23.4073 31.9529 23.2577 32.8213C23.2331 32.9648 23.321 33.1275 23.3564 33.2817ZM28.7703 17.0054C28.2112 18.0403 28.2197 18.183 28.8683 18.6635C29.4613 17.3571 29.513 17.7272 28.7703 17.0054ZM25.2868 17.0116C24.6598 17.5252 24.6521 17.9216 25.296 18.7005C25.4379 18.5262 25.5852 18.3658 25.7055 18.1876C25.7595 18.1082 25.8112 17.9686 25.7773 17.8969C25.6369 17.6015 25.4626 17.3216 25.2868 17.0116ZM20.8631 23.3848C21.1161 23.445 21.339 23.4982 21.5618 23.5506C21.5773 23.519 21.5919 23.4882 21.6073 23.4565C21.4076 23.3054 21.2086 23.1542 20.9626 22.9684C20.9194 23.1488 20.8948 23.2537 20.8631 23.3848Z" fill="#1151B3"/>
<path id="Vector_7" d="M15.1162 24.6196C16.5005 24.6196 17.8424 24.6196 19.2098 24.6196C19.1543 26.0433 18.7031 27.362 18.3105 28.7387C17.3442 28.9608 16.354 28.9623 15.5095 28.2235C15.3244 28.0615 15.144 27.7854 15.1339 27.5541C15.0923 26.5947 15.1162 25.6315 15.1162 24.6196Z" fill="#1151B3"/>
<path id="Vector_8" d="M25.4385 21.3334C26.4225 21.3327 26.4225 21.3327 26.4233 22.3144C26.4241 23.2052 26.4241 23.2052 25.5372 23.2044C25.3451 23.2044 25.1516 23.1859 24.9618 23.2059C24.577 23.2476 24.4637 23.0594 24.4768 22.7108C24.4891 22.3661 24.4899 22.019 24.4667 21.6751C24.4482 21.3944 24.5654 21.3118 24.8246 21.3304C25.0282 21.3458 25.2333 21.3334 25.4385 21.3334Z" fill="#1151B3"/>
<path id="Vector_9" d="M5.47266 26.9649C5.47266 26.8377 5.47266 26.7312 5.47266 26.5994C6.38422 26.5994 7.27497 26.5994 8.21044 26.5994C8.21661 26.7096 8.22356 26.8253 8.23204 26.9649C7.29194 26.9649 6.39039 26.9649 5.47266 26.9649Z" fill="#1151B3"/>
<path id="Vector_10" d="M62.4805 23.0812C63.3235 23.0812 64.1656 23.0774 65.0086 23.0882C65.0787 23.0889 65.1474 23.1892 65.216 23.2432C65.152 23.3049 65.0888 23.419 65.0232 23.4198C64.2165 23.4321 63.4099 23.4337 62.6039 23.419C62.5338 23.4175 62.4659 23.2779 62.3965 23.2023C62.425 23.1622 62.4528 23.1213 62.4805 23.0812Z" fill="#1151B3"/>
<path id="Vector_11" d="M23.7428 22.9175C24.049 23.3039 24.3551 23.691 24.6621 24.0781C24.3551 24.2779 23.7197 23.5946 23.7428 22.9175Z" fill="#1151B3"/>
<path id="Vector_12" d="M24.6602 26.1945C24.7234 25.8505 24.9748 25.8035 25.3141 26.1127C25.1028 26.1389 24.8923 26.1651 24.6602 26.1945Z" fill="#1151B3"/>
<path id="Vector_13" d="M33.1947 25.757C33.1839 25.9105 33.1755 26.0354 33.1639 26.2036C32.5685 26.1095 31.9932 26.0192 31.4055 25.9259C31.3724 25.6159 31.4487 25.4755 31.7788 25.5388C32.2323 25.6267 32.6919 25.6815 33.1947 25.757Z" fill="#1151B3"/>
<path id="Vector_14" d="M47.6713 25.4788C47.7623 25.7333 47.7855 25.9022 47.4986 25.943C46.995 26.0155 46.4922 26.0934 45.9785 26.1698C45.8798 25.9199 45.8598 25.7649 46.1736 25.7232C46.6742 25.6577 47.1708 25.5621 47.6713 25.4788Z" fill="#1151B3"/>
<path id="Vector_15" d="M38.9102 33.2239C38.9102 32.8853 38.9102 32.5714 38.9102 32.2028C39.3035 32.2028 39.6721 32.1912 40.0392 32.2128C40.1063 32.2167 40.2112 32.3501 40.2189 32.4311C40.242 32.684 40.2274 32.9408 40.2274 33.2239C39.7747 33.2239 39.3467 33.2239 38.9102 33.2239Z" fill="#1151B3"/>
<path id="Vector_16" d="M41.7891 32.7628C41.9364 32.6564 42.0235 32.5461 42.0999 32.553C42.1816 32.56 42.2526 32.6788 42.3289 32.7482C42.2626 32.8145 42.1978 32.9317 42.1284 32.9348C42.0397 32.9387 41.9479 32.8492 41.7891 32.7628Z" fill="#1151B3"/>
<path id="Vector_17" d="M52.5996 32.3565C52.5996 32.0572 52.5996 31.7935 52.5996 31.5066C52.996 31.5066 53.3762 31.5066 53.7842 31.5066C53.7842 31.7858 53.7842 32.0595 53.7842 32.3565C53.4024 32.3565 53.023 32.3565 52.5996 32.3565Z" fill="#1151B3"/>
<path id="Vector_18" d="M10.8622 25.6309C11.1606 25.6856 11.4645 25.7226 11.7552 25.8059C11.8478 25.8321 11.9056 25.9818 11.9797 26.0743C11.9519 26.1013 11.9241 26.1283 11.8964 26.1553C11.5979 26.1005 11.2948 26.062 11.0033 25.9825C10.9123 25.9579 10.8514 25.8206 10.7773 25.735C10.8051 25.7003 10.8336 25.6656 10.8622 25.6309Z" fill="#1151B3"/>
<path id="Vector_19" d="M27.812 5.52773C27.8143 5.97426 27.4588 6.32361 27.0061 6.32053C26.5951 6.31822 26.2465 5.97426 26.2442 5.5686C26.2418 5.10665 26.6197 4.70793 27.0508 4.71796C27.4565 4.72798 27.8097 5.10356 27.812 5.52773Z" fill="#1151B3"/>
</g>
</g>
<defs>
<clipPath id="clip0_1449_21738">
<rect width="78.9717" height="60" fill="white" transform="translate(0.513672)"/>
</clipPath>
</defs>
</svg>
