<svg width="24" height="24" viewBox="0 0 24 24" fill="none" xmlns="http://www.w3.org/2000/svg">
<g id="CrownSimple">
<path id="Vector" d="M22.86 7.14291C22.6908 6.99539 22.4816 6.90148 22.2589 6.8731C22.0362 6.84473 21.8102 6.88316 21.6094 6.98353L16.9022 9.32728L12.9722 2.79947C12.8712 2.63196 12.7286 2.4934 12.5582 2.39721C12.3879 2.30103 12.1956 2.25049 12 2.25049C11.8044 2.25049 11.6121 2.30103 11.4418 2.39721C11.2714 2.4934 11.1288 2.63196 11.0278 2.79947L7.09781 9.33009L2.3925 6.98634C2.19219 6.88687 1.96697 6.84876 1.74509 6.87682C1.52321 6.90488 1.31456 6.99784 1.14532 7.14405C0.97608 7.29025 0.853793 7.48319 0.793804 7.69864C0.733816 7.91409 0.738798 8.14246 0.808125 8.35509L4.27687 18.9826C4.31175 19.0894 4.37016 19.1869 4.44779 19.2681C4.52543 19.3493 4.6203 19.412 4.72541 19.4516C4.83051 19.4912 4.94317 19.5066 5.05506 19.4969C5.16696 19.4871 5.27522 19.4523 5.37187 19.3951C5.39531 19.381 7.7925 18.0001 12 18.0001C16.2075 18.0001 18.6047 19.381 18.6262 19.3942C18.7229 19.4519 18.8314 19.4872 18.9436 19.4973C19.0557 19.5074 19.1687 19.4921 19.2742 19.4526C19.3797 19.4131 19.4749 19.3503 19.5528 19.2689C19.6306 19.1875 19.6892 19.0897 19.7241 18.9826L23.1928 8.35791C23.2641 8.14522 23.2706 7.91612 23.2113 7.69976C23.152 7.4834 23.0298 7.28956 22.86 7.14291ZM18.5625 17.7029C17.4375 17.2257 15.195 16.5001 12 16.5001C8.805 16.5001 6.5625 17.2257 5.4375 17.7029L2.50406 8.71884L6.72937 10.8254C6.98513 10.9515 7.27885 10.9773 7.55266 10.8977C7.82648 10.818 8.06055 10.6387 8.20875 10.3951L12 4.09322L15.7913 10.3932C15.9394 10.6366 16.1733 10.8157 16.4469 10.8954C16.7205 10.975 17.014 10.9494 17.2697 10.8235L21.4959 8.71884L18.5625 17.7029Z" fill="#D2D9E1"/>
</g>
</svg>
