<svg width="24" height="24" viewBox="0 0 24 24" fill="none" xmlns="http://www.w3.org/2000/svg">
<path d="M17 15C16.3 15 15.7083 14.7583 15.225 14.275C14.7417 13.7917 14.5 13.2 14.5 12.5C14.5 11.8 14.7417 11.2083 15.225 10.725C15.7083 10.2417 16.3 10 17 10C17.7 10 18.2917 10.2417 18.775 10.725C19.2583 11.2083 19.5 11.8 19.5 12.5C19.5 13.2 19.2583 13.7917 18.775 14.275C18.2917 14.7583 17.7 15 17 15ZM13 20C12.7167 20 12.4792 19.9042 12.2875 19.7125C12.0958 19.5208 12 19.2833 12 19V18.6C12 18.2 12.1042 17.8292 12.3125 17.4875C12.5208 17.1458 12.8167 16.9 13.2 16.75C13.8 16.5 14.4208 16.3125 15.0625 16.1875C15.7042 16.0625 16.35 16 17 16C17.65 16 18.2958 16.0625 18.9375 16.1875C19.5792 16.3125 20.2 16.5 20.8 16.75C21.1833 16.9 21.4792 17.1458 21.6875 17.4875C21.8958 17.8292 22 18.2 22 18.6V19C22 19.2833 21.9042 19.5208 21.7125 19.7125C21.5208 19.9042 21.2833 20 21 20H13ZM10 12C8.9 12 7.95833 11.6083 7.175 10.825C6.39167 10.0417 6 9.1 6 8C6 6.9 6.39167 5.95833 7.175 5.175C7.95833 4.39167 8.9 4 10 4C11.1 4 12.0417 4.39167 12.825 5.175C13.6083 5.95833 14 6.9 14 8C14 9.1 13.6083 10.0417 12.825 10.825C12.0417 11.6083 11.1 12 10 12ZM3 20C2.71667 20 2.47917 19.9042 2.2875 19.7125C2.09583 19.5208 2 19.2833 2 19V17C2 16.5667 2.15 16.1375 2.45 15.7125C2.75 15.2875 3.19167 14.9167 3.775 14.6C4.675 14.1167 5.65833 13.7292 6.725 13.4375C7.79167 13.1458 8.88333 13 10 13C10.45 13 10.9292 13.0333 11.4375 13.1C11.9458 13.1667 12.4667 13.2667 13 13.4V14.7C12.7667 14.7833 12.5667 14.8667 12.4 14.95C12.2333 15.0333 12.0583 15.125 11.875 15.225C11.575 15.1417 11.2625 15.0833 10.9375 15.05C10.6125 15.0167 10.3 15 10 15C9.03333 15 8.0875 15.1167 7.1625 15.35C6.2375 15.5833 5.35 15.9167 4.5 16.35C4.33333 16.4333 4.20833 16.55 4.125 16.7C4.04167 16.85 4 17.0167 4 17.2V18H10V20H3ZM10 10C10.55 10 11.0208 9.80417 11.4125 9.4125C11.8042 9.02083 12 8.55 12 8C12 7.45 11.8042 6.97917 11.4125 6.5875C11.0208 6.19583 10.55 6 10 6C9.45 6 8.97917 6.19583 8.5875 6.5875C8.19583 6.97917 8 7.45 8 8C8 8.55 8.19583 9.02083 8.5875 9.4125C8.97917 9.80417 9.45 10 10 10Z" fill="#D2D9E1"/>
</svg>
