<svg width="24" height="24" viewBox="0 0 24 24" fill="none" xmlns="http://www.w3.org/2000/svg">
<g id="scan">
<path id="Vector" d="M2.00006 9V6.5C2.00006 4.01 4.01006 2 6.50006 2H9.00006" stroke="#D2D9E1" stroke-width="1.5" stroke-linecap="round" stroke-linejoin="round"/>
<path id="Vector_2" d="M15 2H17.5C19.99 2 22 4.01 22 6.5V9" stroke="#D2D9E1" stroke-width="1.5" stroke-linecap="round" stroke-linejoin="round"/>
<path id="Vector_3" d="M21.9999 16V17.5C21.9999 19.99 19.9899 22 17.4999 22H15.9999" stroke="#D2D9E1" stroke-width="1.5" stroke-linecap="round" stroke-linejoin="round"/>
<path id="Vector_4" d="M9.00006 22H6.50006C4.01006 22 2.00006 19.99 2.00006 17.5V15" stroke="#D2D9E1" stroke-width="1.5" stroke-linecap="round" stroke-linejoin="round"/>
<path id="Vector_5" d="M16.9999 9.5V14.5C16.9999 16.5 15.9999 17.5 13.9999 17.5H9.99994C7.99994 17.5 6.99994 16.5 6.99994 14.5V9.5C6.99994 7.5 7.99994 6.5 9.99994 6.5H13.9999C15.9999 6.5 16.9999 7.5 16.9999 9.5Z" stroke="#D2D9E1" stroke-width="1.5" stroke-linecap="round" stroke-linejoin="round"/>
<path id="Vector_6" d="M19.0001 12H5.00006" stroke="#D2D9E1" stroke-width="1.5" stroke-linecap="round" stroke-linejoin="round"/>
</g>
</svg>
