<svg width="20" height="20" viewBox="0 0 20 20" fill="none" xmlns="http://www.w3.org/2000/svg">
<path d="M11.8753 20H8.12534C7.87534 20 7.65867 19.9167 7.47534 19.75C7.292 19.5833 7.18367 19.375 7.15034 19.125L6.85034 16.8C6.63367 16.7167 6.4295 16.6167 6.23784 16.5C6.04617 16.3833 5.85867 16.2583 5.67534 16.125L3.50034 17.025C3.267 17.1083 3.03367 17.1167 2.80034 17.05C2.567 16.9833 2.38367 16.8417 2.25034 16.625L0.400337 13.4C0.267004 13.1833 0.225337 12.95 0.275337 12.7C0.325337 12.45 0.450337 12.25 0.650337 12.1L2.52534 10.675C2.50867 10.5583 2.50034 10.4458 2.50034 10.3375V9.6625C2.50034 9.55417 2.50867 9.44167 2.52534 9.325L0.650337 7.9C0.450337 7.75 0.325337 7.55 0.275337 7.3C0.225337 7.05 0.267004 6.81667 0.400337 6.6L2.25034 3.375C2.367 3.14167 2.54617 2.99583 2.78784 2.9375C3.0295 2.87917 3.267 2.89167 3.50034 2.975L5.67534 3.875C5.85867 3.74167 6.05034 3.61667 6.25034 3.5C6.45034 3.38333 6.65034 3.28333 6.85034 3.2L7.15034 0.875C7.18367 0.625 7.292 0.416667 7.47534 0.25C7.65867 0.0833333 7.87534 0 8.12534 0H11.8753C12.1253 0 12.342 0.0833333 12.5253 0.25C12.7087 0.416667 12.817 0.625 12.8503 0.875L13.1503 3.2C13.367 3.28333 13.5712 3.38333 13.7628 3.5C13.9545 3.61667 14.142 3.74167 14.3253 3.875L16.5003 2.975C16.7337 2.89167 16.967 2.88333 17.2003 2.95C17.4337 3.01667 17.617 3.15833 17.7503 3.375L19.6003 6.6C19.7337 6.81667 19.7753 7.05 19.7253 7.3C19.6753 7.55 19.5503 7.75 19.3503 7.9L17.4753 9.325C17.492 9.44167 17.5003 9.55417 17.5003 9.6625V10.3375C17.5003 10.4458 17.4837 10.5583 17.4503 10.675L19.3253 12.1C19.5253 12.25 19.6503 12.45 19.7003 12.7C19.7503 12.95 19.7087 13.1833 19.5753 13.4L17.7253 16.6C17.592 16.8167 17.4045 16.9625 17.1628 17.0375C16.9212 17.1125 16.6837 17.1083 16.4503 17.025L14.3253 16.125C14.142 16.2583 13.9503 16.3833 13.7503 16.5C13.5503 16.6167 13.3503 16.7167 13.1503 16.8L12.8503 19.125C12.817 19.375 12.7087 19.5833 12.5253 19.75C12.342 19.9167 12.1253 20 11.8753 20ZM10.0503 13.5C11.017 13.5 11.842 13.1583 12.5253 12.475C13.2087 11.7917 13.5503 10.9667 13.5503 10C13.5503 9.03333 13.2087 8.20833 12.5253 7.525C11.842 6.84167 11.017 6.5 10.0503 6.5C9.067 6.5 8.23784 6.84167 7.56284 7.525C6.88784 8.20833 6.55034 9.03333 6.55034 10C6.55034 10.9667 6.88784 11.7917 7.56284 12.475C8.23784 13.1583 9.067 13.5 10.0503 13.5ZM10.0503 11.5C9.63367 11.5 9.2795 11.3542 8.98784 11.0625C8.69617 10.7708 8.55034 10.4167 8.55034 10C8.55034 9.58333 8.69617 9.22917 8.98784 8.9375C9.2795 8.64583 9.63367 8.5 10.0503 8.5C10.467 8.5 10.8212 8.64583 11.1128 8.9375C11.4045 9.22917 11.5503 9.58333 11.5503 10C11.5503 10.4167 11.4045 10.7708 11.1128 11.0625C10.8212 11.3542 10.467 11.5 10.0503 11.5ZM9.00034 18H10.9753L11.3253 15.35C11.842 15.2167 12.3212 15.0208 12.7628 14.7625C13.2045 14.5042 13.6087 14.1917 13.9753 13.825L16.4503 14.85L17.4253 13.15L15.2753 11.525C15.3587 11.2917 15.417 11.0458 15.4503 10.7875C15.4837 10.5292 15.5003 10.2667 15.5003 10C15.5003 9.73333 15.4837 9.47083 15.4503 9.2125C15.417 8.95417 15.3587 8.70833 15.2753 8.475L17.4253 6.85L16.4503 5.15L13.9753 6.2C13.6087 5.81667 13.2045 5.49583 12.7628 5.2375C12.3212 4.97917 11.842 4.78333 11.3253 4.65L11.0003 2H9.02534L8.67534 4.65C8.15867 4.78333 7.6795 4.97917 7.23784 5.2375C6.79617 5.49583 6.392 5.80833 6.02534 6.175L3.55034 5.15L2.57534 6.85L4.72534 8.45C4.642 8.7 4.58367 8.95 4.55034 9.2C4.517 9.45 4.50034 9.71667 4.50034 10C4.50034 10.2667 4.517 10.525 4.55034 10.775C4.58367 11.025 4.642 11.275 4.72534 11.525L2.57534 13.15L3.55034 14.85L6.02534 13.8C6.392 14.1833 6.79617 14.5042 7.23784 14.7625C7.6795 15.0208 8.15867 15.2167 8.67534 15.35L9.00034 18Z" fill="#D2D9E1"/>
</svg>
