<svg width="24" height="24" viewBox="0 0 24 24" fill="none" xmlns="http://www.w3.org/2000/svg">
<path d="M4 11V19H8V11H4ZM10 5V19H14V5H10ZM16 13V19H20V13H16ZM20 21H4C3.45 21 2.97917 20.8042 2.5875 20.4125C2.19583 20.0208 2 19.55 2 19V11C2 10.45 2.19583 9.97917 2.5875 9.5875C2.97917 9.19583 3.45 9 4 9H8V5C8 4.45 8.19583 3.97917 8.5875 3.5875C8.97917 3.19583 9.45 3 10 3H14C14.55 3 15.0208 3.19583 15.4125 3.5875C15.8042 3.97917 16 4.45 16 5V11H20C20.55 11 21.0208 11.1958 21.4125 11.5875C21.8042 11.9792 22 12.45 22 13V19C22 19.55 21.8042 20.0208 21.4125 20.4125C21.0208 20.8042 20.55 21 20 21Z" fill="#D2D9E1"/>
</svg>
