<svg width="24" height="24" viewBox="0 0 24 24" fill="none" xmlns="http://www.w3.org/2000/svg">
<g id="UserPlus Icon">
<path id="Vector" d="M24 12.7501C24 12.949 23.921 13.1398 23.7803 13.2804C23.6397 13.4211 23.4489 13.5001 23.25 13.5001H21.75V15.0001C21.75 15.199 21.671 15.3898 21.5303 15.5304C21.3897 15.6711 21.1989 15.7501 21 15.7501C20.8011 15.7501 20.6103 15.6711 20.4697 15.5304C20.329 15.3898 20.25 15.199 20.25 15.0001V13.5001H18.75C18.5511 13.5001 18.3603 13.4211 18.2197 13.2804C18.079 13.1398 18 12.949 18 12.7501C18 12.5512 18.079 12.3604 18.2197 12.2198C18.3603 12.0791 18.5511 12.0001 18.75 12.0001H20.25V10.5001C20.25 10.3012 20.329 10.1104 20.4697 9.96976C20.6103 9.8291 20.8011 9.75009 21 9.75009C21.1989 9.75009 21.3897 9.8291 21.5303 9.96976C21.671 10.1104 21.75 10.3012 21.75 10.5001V12.0001H23.25C23.4489 12.0001 23.6397 12.0791 23.7803 12.2198C23.921 12.3604 24 12.5512 24 12.7501ZM18.5747 18.2673C18.7027 18.4197 18.765 18.6167 18.7478 18.8151C18.7305 19.0134 18.6352 19.1967 18.4828 19.3248C18.3304 19.4528 18.1334 19.5151 17.935 19.4979C17.7367 19.4806 17.5534 19.3853 17.4253 19.2329C15.5391 16.9866 12.9459 15.7501 10.125 15.7501C7.30406 15.7501 4.71094 16.9866 2.82469 19.2329C2.69664 19.3852 2.51334 19.4804 2.3151 19.4975C2.11687 19.5147 1.91995 19.4524 1.76766 19.3243C1.61536 19.1963 1.52018 19.013 1.50304 18.8147C1.48589 18.6165 1.5482 18.4196 1.67625 18.2673C3.07688 16.6004 4.81875 15.4163 6.75469 14.7826C5.57897 14.0503 4.67374 12.955 4.17594 11.6625C3.67814 10.3699 3.61486 8.95037 3.99567 7.61864C4.37649 6.2869 5.18067 5.11543 6.28657 4.28144C7.39246 3.44746 8.73989 2.99634 10.125 2.99634C11.5101 2.99634 12.8575 3.44746 13.9634 4.28144C15.0693 5.11543 15.8735 6.2869 16.2543 7.61864C16.6351 8.95037 16.5719 10.3699 16.0741 11.6625C15.5763 12.955 14.671 14.0503 13.4953 14.7826C15.4312 15.4163 17.1731 16.6004 18.5747 18.2673ZM10.125 14.2501C11.0892 14.2501 12.0317 13.9642 12.8334 13.4285C13.6351 12.8928 14.2599 12.1315 14.6289 11.2407C14.9979 10.3499 15.0944 9.36968 14.9063 8.42402C14.7182 7.47836 14.2539 6.60972 13.5721 5.92794C12.8904 5.24616 12.0217 4.78186 11.0761 4.59376C10.1304 4.40566 9.15021 4.5022 8.25942 4.87117C7.36863 5.24015 6.60726 5.86499 6.07159 6.66668C5.53591 7.46837 5.25 8.4109 5.25 9.37509C5.25149 10.6676 5.76558 11.9067 6.6795 12.8206C7.59342 13.7345 8.83253 14.2486 10.125 14.2501Z" fill="#D2D9E1"/>
</g>
</svg>
