<svg width="40" height="40" viewBox="0 0 40 40" fill="none" xmlns="http://www.w3.org/2000/svg">
<rect width="40" height="40" rx="8" fill="#E7EEF8"/>
<path d="M23.5624 13.67V12.5C23.5624 12.1925 23.3074 11.9375 22.9999 11.9375C22.6924 11.9375 22.4374 12.1925 22.4374 12.5V13.625H17.5624V12.5C17.5624 12.1925 17.3074 11.9375 16.9999 11.9375C16.6924 11.9375 16.4374 12.1925 16.4374 12.5V13.67C14.4124 13.8575 13.4299 15.065 13.2799 16.8575C13.2649 17.075 13.4449 17.255 13.6549 17.255H26.3449C26.5624 17.255 26.7424 17.0675 26.7199 16.8575C26.5699 15.065 25.5874 13.8575 23.5624 13.67Z" fill="#1151B4"/>
<path d="M26 18.3799H14C13.5875 18.3799 13.25 18.7174 13.25 19.1299V23.7499C13.25 25.9999 14.375 27.4999 17 27.4999H23C25.625 27.4999 26.75 25.9999 26.75 23.7499V19.1299C26.75 18.7174 26.4125 18.3799 26 18.3799ZM17.9075 24.6574C17.87 24.6874 17.8325 24.7249 17.795 24.7474C17.75 24.7774 17.705 24.7999 17.66 24.8149C17.615 24.8374 17.57 24.8524 17.525 24.8599C17.4725 24.8674 17.4275 24.8749 17.375 24.8749C17.2775 24.8749 17.18 24.8524 17.09 24.8149C16.9925 24.7774 16.9175 24.7249 16.8425 24.6574C16.7075 24.5149 16.625 24.3199 16.625 24.1249C16.625 23.9299 16.7075 23.7349 16.8425 23.5924C16.9175 23.5249 16.9925 23.4724 17.09 23.4349C17.225 23.3749 17.375 23.3599 17.525 23.3899C17.57 23.3974 17.615 23.4124 17.66 23.4349C17.705 23.4499 17.75 23.4724 17.795 23.5024C17.8325 23.5324 17.87 23.5624 17.9075 23.5924C18.0425 23.7349 18.125 23.9299 18.125 24.1249C18.125 24.3199 18.0425 24.5149 17.9075 24.6574ZM17.9075 22.0324C17.765 22.1674 17.57 22.2499 17.375 22.2499C17.18 22.2499 16.985 22.1674 16.8425 22.0324C16.7075 21.8899 16.625 21.6949 16.625 21.4999C16.625 21.3049 16.7075 21.1099 16.8425 20.9674C17.0525 20.7574 17.3825 20.6899 17.66 20.8099C17.7575 20.8474 17.84 20.8999 17.9075 20.9674C18.0425 21.1099 18.125 21.3049 18.125 21.4999C18.125 21.6949 18.0425 21.8899 17.9075 22.0324ZM20.5325 24.6574C20.39 24.7924 20.195 24.8749 20 24.8749C19.805 24.8749 19.61 24.7924 19.4675 24.6574C19.3325 24.5149 19.25 24.3199 19.25 24.1249C19.25 23.9299 19.3325 23.7349 19.4675 23.5924C19.745 23.3149 20.255 23.3149 20.5325 23.5924C20.6675 23.7349 20.75 23.9299 20.75 24.1249C20.75 24.3199 20.6675 24.5149 20.5325 24.6574ZM20.5325 22.0324C20.495 22.0624 20.4575 22.0924 20.42 22.1224C20.375 22.1524 20.33 22.1749 20.285 22.1899C20.24 22.2124 20.195 22.2274 20.15 22.2349C20.0975 22.2424 20.0525 22.2499 20 22.2499C19.805 22.2499 19.61 22.1674 19.4675 22.0324C19.3325 21.8899 19.25 21.6949 19.25 21.4999C19.25 21.3049 19.3325 21.1099 19.4675 20.9674C19.535 20.8999 19.6175 20.8474 19.715 20.8099C19.9925 20.6899 20.3225 20.7574 20.5325 20.9674C20.6675 21.1099 20.75 21.3049 20.75 21.4999C20.75 21.6949 20.6675 21.8899 20.5325 22.0324ZM23.1575 24.6574C23.015 24.7924 22.82 24.8749 22.625 24.8749C22.43 24.8749 22.235 24.7924 22.0925 24.6574C21.9575 24.5149 21.875 24.3199 21.875 24.1249C21.875 23.9299 21.9575 23.7349 22.0925 23.5924C22.37 23.3149 22.88 23.3149 23.1575 23.5924C23.2925 23.7349 23.375 23.9299 23.375 24.1249C23.375 24.3199 23.2925 24.5149 23.1575 24.6574ZM23.1575 22.0324C23.12 22.0624 23.0825 22.0924 23.045 22.1224C23 22.1524 22.955 22.1749 22.91 22.1899C22.865 22.2124 22.82 22.2274 22.775 22.2349C22.7225 22.2424 22.67 22.2499 22.625 22.2499C22.43 22.2499 22.235 22.1674 22.0925 22.0324C21.9575 21.8899 21.875 21.6949 21.875 21.4999C21.875 21.3049 21.9575 21.1099 22.0925 20.9674C22.1675 20.8999 22.2425 20.8474 22.34 20.8099C22.475 20.7499 22.625 20.7349 22.775 20.7649C22.82 20.7724 22.865 20.7874 22.91 20.8099C22.955 20.8249 23 20.8474 23.045 20.8774C23.0825 20.9074 23.12 20.9374 23.1575 20.9674C23.2925 21.1099 23.375 21.3049 23.375 21.4999C23.375 21.6949 23.2925 21.8899 23.1575 22.0324Z" fill="#1151B4"/>
</svg>
