<svg width="32" height="32" viewBox="0 0 32 32" fill="none" xmlns="http://www.w3.org/2000/svg">
<g id="edit">
<path id="Vector" d="M14.6667 2.66675H12C5.33335 2.66675 2.66669 5.33341 2.66669 12.0001V20.0001C2.66669 26.6667 5.33335 29.3334 12 29.3334H20C26.6667 29.3334 29.3334 26.6667 29.3334 20.0001V17.3334" stroke="#1151B4" stroke-width="1.5" stroke-linecap="round" stroke-linejoin="round"/>
<path id="Vector_2" d="M21.3867 4.02676L10.88 14.5334C10.48 14.9334 10.08 15.7201 10 16.2934L9.42669 20.3068C9.21336 21.7601 10.24 22.7734 11.6934 22.5734L15.7067 22.0001C16.2667 21.9201 17.0534 21.5201 17.4667 21.1201L27.9734 10.6134C29.7867 8.80009 30.64 6.69343 27.9734 4.02676C25.3067 1.36009 23.2 2.21343 21.3867 4.02676Z" stroke="#1151B4" stroke-width="1.5" stroke-miterlimit="10" stroke-linecap="round" stroke-linejoin="round"/>
<path id="Vector_3" d="M19.88 5.53345C20.7733 8.72011 23.2667 11.2134 26.4667 12.1201" stroke="#1151B4" stroke-width="1.5" stroke-miterlimit="10" stroke-linecap="round" stroke-linejoin="round"/>
</g>
</svg>
