<svg width="40" height="40" viewBox="0 0 40 40" fill="none" xmlns="http://www.w3.org/2000/svg">
<rect width="40" height="40" rx="8" fill="#D7F8E7"/>
<path d="M27.2372 26.4687C27.1878 26.5542 27.1168 26.6253 27.0312 26.6746C26.9457 26.724 26.8487 26.75 26.7499 26.75H13.2499C13.1512 26.7499 13.0543 26.7238 12.9689 26.6744C12.8834 26.625 12.8125 26.554 12.7632 26.4685C12.7139 26.383 12.688 26.286 12.688 26.1873C12.688 26.0886 12.714 25.9917 12.7633 25.9062C13.8342 24.0549 15.4844 22.7274 17.4103 22.0981C16.4577 21.531 15.7176 20.6669 15.3036 19.6384C14.8896 18.61 14.8247 17.4741 15.1188 16.4051C15.4129 15.3362 16.0497 14.3934 16.9315 13.7214C17.8133 13.0495 18.8913 12.6855 19.9999 12.6855C21.1086 12.6855 22.1865 13.0495 23.0683 13.7214C23.9501 14.3934 24.587 15.3362 24.881 16.4051C25.1751 17.4741 25.1102 18.61 24.6962 19.6384C24.2823 20.6669 23.5421 21.531 22.5895 22.0981C24.5154 22.7274 26.1656 24.0549 27.2365 25.9062C27.286 25.9917 27.3121 26.0886 27.3122 26.1874C27.3123 26.2861 27.2864 26.3831 27.2372 26.4687Z" fill="#147543"/>
</svg>
