<svg width="32" height="32" viewBox="0 0 32 32" fill="none" xmlns="http://www.w3.org/2000/svg">
<g id="refresh-square-2">
<path id="Vector" d="M12 29.3332H20C26.6667 29.3332 29.3333 26.6665 29.3333 19.9998V11.9998C29.3333 5.33317 26.6667 2.6665 20 2.6665H12C5.33332 2.6665 2.66666 5.33317 2.66666 11.9998V19.9998C2.66666 26.6665 5.33332 29.3332 12 29.3332Z" stroke="#1151B4" stroke-width="1.5" stroke-linecap="round" stroke-linejoin="round"/>
<g id="Group">
<path id="Vector_2" d="M23.3333 15.9998C23.3333 20.0532 20.0533 23.3332 16 23.3332C11.9467 23.3332 9.47997 19.2532 9.47997 19.2532M9.47997 19.2532H12.7867M9.47997 19.2532V22.9198M8.66666 15.9998C8.66666 11.9465 11.92 8.6665 16 8.6665C20.8933 8.6665 23.3333 12.7465 23.3333 12.7465M23.3333 12.7465V9.07983M23.3333 12.7465H20.08" stroke="#1151B4" stroke-width="1.5" stroke-linecap="round" stroke-linejoin="round"/>
</g>
</g>
</svg>
