<svg width="40" height="40" viewBox="0 0 40 40" fill="none" xmlns="http://www.w3.org/2000/svg">
<rect width="40" height="40" rx="8" fill="#FBEFD2"/>
<path d="M27.4883 19.0424L24.3172 21.8099L25.2671 25.9303C25.3174 26.1457 25.3031 26.3711 25.2259 26.5784C25.1487 26.7857 25.0122 26.9656 24.8333 27.0957C24.6544 27.2258 24.4412 27.3003 24.2202 27.3099C23.9992 27.3194 23.7803 27.2636 23.5909 27.1495L19.9972 24.9698L16.4113 27.1495C16.2218 27.2636 16.0029 27.3194 15.782 27.3099C15.561 27.3003 15.3477 27.2258 15.1688 27.0957C14.99 26.9656 14.8534 26.7857 14.7763 26.5784C14.6991 26.3711 14.6848 26.1457 14.735 25.9303L15.6835 21.8142L12.5117 19.0424C12.344 18.8978 12.2227 18.7068 12.163 18.4934C12.1034 18.2801 12.1081 18.0538 12.1765 17.8431C12.2449 17.6324 12.374 17.4466 12.5476 17.309C12.7212 17.1713 12.9315 17.088 13.1523 17.0695L17.3331 16.7074L18.965 12.8149C19.0502 12.6106 19.194 12.4362 19.3782 12.3134C19.5623 12.1907 19.7787 12.1252 20 12.1252C20.2213 12.1252 20.4377 12.1907 20.6219 12.3134C20.8061 12.4362 20.9498 12.6106 21.035 12.8149L22.6719 16.7074L26.8513 17.0695C27.072 17.088 27.2824 17.1713 27.456 17.309C27.6296 17.4466 27.7587 17.6324 27.8271 17.8431C27.8955 18.0538 27.9002 18.2801 27.8405 18.4934C27.7809 18.7068 27.6596 18.8978 27.4918 19.0424H27.4883Z" fill="#EFBF4D"/>
</svg>
