<svg width="32" height="32" viewBox="0 0 32 32" fill="none" xmlns="http://www.w3.org/2000/svg">
<g id="Users">
<path id="Vector" d="M14.6563 19.7401C15.9965 18.8479 17.014 17.548 17.5584 16.0327C18.1027 14.5174 18.145 12.8671 17.6789 11.326C17.2128 9.78483 16.2631 8.43458 14.9703 7.4749C13.6775 6.51522 12.1101 5.99707 10.5 5.99707C8.88991 5.99707 7.32255 6.51522 6.02972 7.4749C4.73688 8.43458 3.7872 9.78483 3.32111 11.326C2.85503 12.8671 2.89728 14.5174 3.44162 16.0327C3.98597 17.548 5.0035 18.8479 6.34375 19.7401C3.91937 20.6337 1.84888 22.2872 0.441251 24.4539C0.367271 24.5638 0.315884 24.6874 0.290078 24.8174C0.264271 24.9474 0.26456 25.0812 0.290928 25.2111C0.317295 25.3409 0.369215 25.4643 0.443669 25.5739C0.518124 25.6835 0.613627 25.7773 0.724629 25.8497C0.835631 25.9221 0.959916 25.9717 1.09026 25.9956C1.22061 26.0196 1.35441 26.0174 1.4839 25.9892C1.61338 25.9609 1.73597 25.9073 1.84452 25.8312C1.95308 25.7552 2.04545 25.6584 2.11625 25.5464C3.02424 24.1498 4.2667 23.0023 5.7308 22.2078C7.1949 21.4134 8.83426 20.9973 10.5 20.9973C12.1657 20.9973 13.8051 21.4134 15.2692 22.2078C16.7333 23.0023 17.9758 24.1498 18.8838 25.5464C19.0304 25.7644 19.257 25.9159 19.5145 25.9681C19.772 26.0204 20.0397 25.9692 20.2597 25.8257C20.4798 25.6822 20.6345 25.4578 20.6905 25.2011C20.7464 24.9444 20.6991 24.676 20.5588 24.4539C19.1511 22.2872 17.0806 20.6337 14.6563 19.7401ZM5 13.5001C5 12.4123 5.32257 11.3489 5.92692 10.4445C6.53127 9.54001 7.39025 8.83506 8.39524 8.41878C9.40024 8.00249 10.5061 7.89358 11.573 8.10579C12.6399 8.31801 13.6199 8.84184 14.3891 9.61103C15.1583 10.3802 15.6821 11.3602 15.8943 12.4271C16.1065 13.494 15.9976 14.5999 15.5813 15.6049C15.1651 16.6099 14.4601 17.4688 13.5556 18.0732C12.6512 18.6775 11.5878 19.0001 10.5 19.0001C9.04182 18.9985 7.64383 18.4185 6.61274 17.3874C5.58165 16.3563 5.00166 14.9583 5 13.5001ZM31.2675 25.8376C31.0454 25.9825 30.7748 26.0331 30.5153 25.9785C30.2558 25.9239 30.0286 25.7685 29.8838 25.5464C28.9769 24.149 27.7346 23.0009 26.2702 22.2068C24.8058 21.4127 23.1659 20.9979 21.5 21.0001C21.2348 21.0001 20.9804 20.8948 20.7929 20.7072C20.6054 20.5197 20.5 20.2653 20.5 20.0001C20.5 19.7349 20.6054 19.4805 20.7929 19.293C20.9804 19.1055 21.2348 19.0001 21.5 19.0001C22.31 18.9993 23.1098 18.8197 23.8422 18.474C24.5747 18.1283 25.2218 17.6251 25.7373 17.0003C26.2527 16.3756 26.6239 15.6447 26.8241 14.8598C27.0243 14.075 27.0488 13.2557 26.8956 12.4603C26.7425 11.6649 26.4156 10.9132 25.9383 10.2589C25.4609 9.60449 24.845 9.06362 24.1344 8.6749C23.4238 8.28619 22.6361 8.05921 21.8276 8.0102C21.0192 7.96118 20.2098 8.09134 19.4575 8.39136C19.3348 8.44439 19.2028 8.47229 19.0691 8.47342C18.9355 8.47455 18.803 8.44889 18.6795 8.39794C18.5559 8.34699 18.4438 8.2718 18.3498 8.1768C18.2559 8.0818 18.1819 7.96893 18.1322 7.84485C18.0826 7.72077 18.0583 7.588 18.0609 7.45439C18.0634 7.32077 18.0927 7.18903 18.1471 7.06693C18.2014 6.94483 18.2796 6.83486 18.3772 6.74352C18.4747 6.65218 18.5896 6.58131 18.715 6.53511C20.4368 5.84843 22.352 5.82372 24.0909 6.46575C25.8299 7.10778 27.2695 8.37106 28.132 10.0119C28.9945 11.6527 29.2188 13.5548 28.7616 15.3513C28.3044 17.1477 27.1982 18.7112 25.6563 19.7401C28.0806 20.6337 30.1511 22.2872 31.5588 24.4539C31.7036 24.676 31.7543 24.9466 31.6997 25.206C31.6451 25.4655 31.4896 25.6927 31.2675 25.8376Z" fill="#1151B4"/>
</g>
</svg>
